<?xml version="1.0" encoding="UTF-8" standalone="no"?><svg xmlns="http://www.w3.org/2000/svg" xmlns:xlink="http://www.w3.org/1999/xlink" clip-rule="evenodd" stroke-miterlimit="10" viewBox="0 0 1920 1080"><desc>SVG generated by Keynote</desc><defs><linearGradient id="gradSh1.9" x1="0.0" y1="0.0" x2="1.0" y2="0.0" gradientUnits="userSpaceOnUse" gradientTransform="matrix(25.76, 120.39, 121.21, -25.59, 302.7, 11.3)"><stop offset="0.00000" stop-color="#000000"></stop><stop offset="0.17082" stop-color="#000001"></stop><stop offset="0.19868" stop-color="#000101"></stop><stop offset="0.21261" stop-color="#000102"></stop><stop offset="0.21848" stop-color="#010102"></stop><stop offset="0.23534" stop-color="#010103"></stop><stop offset="0.24780" stop-color="#010203"></stop><stop offset="0.25220" stop-color="#010204"></stop><stop offset="0.26613" stop-color="#010205"></stop><stop offset="0.27273" stop-color="#020205"></stop><stop offset="0.27493" stop-color="#020305"></stop><stop offset="0.29399" stop-color="#020408"></stop><stop offset="0.30132" stop-color="#020409"></stop><stop offset="0.32331" stop-color="#04060C"></stop><stop offset="0.32551" stop-color="#04060D"></stop><stop offset="0.34238" stop-color="#050810"></stop><stop offset="0.34384" stop-color="#050811"></stop><stop offset="0.37610" stop-color="#080C1A"></stop><stop offset="0.37830" stop-color="#080C1B"></stop><stop offset="0.39663" stop-color="#0A1022"></stop><stop offset="0.39883" stop-color="#0A1023"></stop><stop offset="0.43548" stop-color="#101936"></stop><stop offset="0.43695" stop-color="#101937"></stop><stop offset="0.45674" stop-color="#142044"></stop><stop offset="0.45748" stop-color="#142045"></stop><stop offset="0.50220" stop-color="#20336D"></stop><stop offset="0.50293" stop-color="#20336E"></stop><stop offset="0.52639" stop-color="#28408A"></stop><stop offset="0.52713" stop-color="#28408B"></stop><stop offset="0.57771" stop-color="#4065D9"></stop><stop offset="0.57918" stop-color="#4066D9"></stop><stop offset="0.70015" stop-color="#8099E6"></stop><stop offset="0.70235" stop-color="#819AE6"></stop><stop offset="1.00000" stop-color="#FFFFFF"></stop></linearGradient></defs><g transform="matrix(1.00, 0.00, -0.00, -1.00, 0.0, 1080.0)"><g><clipPath id="clip0x6080020bd280"><path d="M 0.0 1080.0 L 1920.0 1080.0 L 1920.0 0.0 L 0.0 0.0 Z M 0.0 1080.0 "></path></clipPath><g clip-path="url(#clip0x6080020bd280)"><image xlink:href="../../8532EDA3-03AF-4F95-ADCC-1003E38AE155/assets/7D0D479F0D8AC86C9E875656D9072873.jpeg" width="2048.00" height="1536.00" transform="matrix(0.94, 0.00, -0.00, -0.70, 0.0, 1080.0)"></image></g></g><image xlink:href="../../8532EDA3-03AF-4F95-ADCC-1003E38AE155/assets/92B8A543F34A3103C3297823A8CED706.png" width="187.00" height="180.00" transform="matrix(1.00, 0.00, -0.00, -1.00, 224.7, 147.4)" opacity="0.70"></image><g><clipPath id="clip0x6080020bbe40"><path d="M 253.0 133.0 L 384.0 133.0 L 384.0 10.0 L 253.0 10.0 Z M 252.7 133.4 "></path></clipPath><g clip-path="url(#clip0x6080020bbe40)"><g><clipPath id="clip0x6080020bb2a0"><path d="M 253.0 10.0 L 662.0 10.0 L 662.0 133.0 L 253.0 133.0 Z M 253.0 10.0 "></path></clipPath><g clip-path="url(#clip0x6080020bb2a0)"><g><g><clipPath id="clip0x6080020bc560"><path d="M 233.4 148.1 L 672.9 148.1 L 672.9 -7.3 L 233.4 -7.3 Z M 233.4 148.1 "></path></clipPath><g clip-path="url(#clip0x6080020bc560)"><g><clipPath id="clip0x6080020bd460"><path d="M 253.0 10.0 L 384.0 10.0 L 384.0 133.0 L 253.0 133.0 Z M 253.0 10.0 "></path></clipPath><g clip-path="url(#clip0x6080020bd460)"><g opacity="0.17"><g><clipPath id="clip0x6080020bb060"><path d="M 253.2 10.0 L 378.0 10.0 L 378.0 133.0 L 253.2 133.0 Z M 253.2 10.0 "></path></clipPath><g clip-path="url(#clip0x6080020bb060)"><path d="M 378.0 71.5 C 378.0 37.5 350.1 10.0 315.6 10.0 C 281.2 10.0 253.2 37.5 253.2 71.5 C 253.2 105.5 281.2 133.0 315.6 133.0 C 350.1 133.0 378.0 105.5 378.0 71.5 " fill="#0070BB"></path></g></g></g></g></g></g></g><g><clipPath id="clip0x6080020bae80"><path d="M 253.0 10.0 L 384.0 10.0 L 384.0 133.0 L 253.0 133.0 Z M 253.0 10.0 "></path></clipPath><g clip-path="url(#clip0x6080020bae80)"><path d="M 328.8 50.8 L 303.9 50.8 L 303.8 50.8 L 316.3 30.2 L 316.5 30.2 L 328.5 50.7 " fill="#2990B8"></path><path d="M 300.1 57.6 L 295.8 50.8 L 295.7 50.7 L 304.0 50.7 L 303.9 50.7 L 300.0 57.3 " fill="#299DBA"></path></g></g><g><clipPath id="clip0x6080020bb000"><path d="M 233.4 148.1 L 672.9 148.1 L 672.9 -7.3 L 233.4 -7.3 Z M 233.4 148.1 "></path></clipPath><g clip-path="url(#clip0x6080020bb000)"><g><clipPath id="clip0x600000abe480"><path d="M 253.0 10.0 L 384.0 10.0 L 384.0 133.0 L 253.0 133.0 Z M 253.0 10.0 "></path></clipPath><g clip-path="url(#clip0x600000abe480)"><g opacity="0.25"><g><clipPath id="clip0x600000abf740"><path d="M 295.7 50.7 L 304.0 50.7 L 304.0 57.6 L 295.7 57.6 Z M 295.7 50.7 "></path></clipPath><g clip-path="url(#clip0x600000abf740)"><path d="M 300.1 57.6 L 295.8 50.8 L 295.7 50.7 L 304.0 50.7 L 303.9 50.7 L 300.0 57.3 " fill="#000000"></path></g></g></g></g></g></g></g><g><clipPath id="clip0x600000abeae0"><path d="M 253.0 10.0 L 384.0 10.0 L 384.0 133.0 L 253.0 133.0 Z M 253.0 10.0 "></path></clipPath><g clip-path="url(#clip0x600000abeae0)"><path d="M 328.4 50.7 L 336.1 50.7 L 336.2 50.8 L 332.1 57.2 L 332.2 57.2 Z M 328.4 50.7 " fill="#296CAC"></path></g></g><g><clipPath id="clip0x600000abe300"><path d="M 233.4 148.1 L 672.9 148.1 L 672.9 -7.3 L 233.4 -7.3 Z M 233.4 148.1 "></path></clipPath><g clip-path="url(#clip0x600000abe300)"><g><clipPath id="clip0x6080020bb0c0"><path d="M 253.0 10.0 L 384.0 10.0 L 384.0 133.0 L 253.0 133.0 Z M 253.0 10.0 "></path></clipPath><g clip-path="url(#clip0x6080020bb0c0)"><g opacity="0.25"><g><clipPath id="clip0x6080020bb360"><path d="M 328.4 50.7 L 336.2 50.7 L 336.2 57.2 L 328.4 57.2 Z M 328.4 50.7 "></path></clipPath><g clip-path="url(#clip0x6080020bb360)"><path d="M 328.4 50.7 L 336.1 50.7 L 336.2 50.8 L 332.1 57.2 L 332.2 57.2 Z M 328.4 50.7 " fill="#000000"></path></g></g></g></g></g></g></g><g><clipPath id="clip0x6080020bcf20"><path d="M 253.0 10.0 L 384.0 10.0 L 384.0 133.0 L 253.0 133.0 Z M 253.0 10.0 "></path></clipPath><g clip-path="url(#clip0x6080020bcf20)"><path d="M 315.8 82.7 L 300.0 107.7 L 300.1 107.9 L 315.9 133.0 L 331.6 107.7 L 331.7 107.6 L 316.1 82.8 " fill="#2990B8"></path></g></g><g><clipPath id="clip0x6080020bd6a0"><path d="M 233.4 148.1 L 672.9 148.1 L 672.9 -7.3 L 233.4 -7.3 Z M 233.4 148.1 "></path></clipPath><g clip-path="url(#clip0x6080020bd6a0)"><g><clipPath id="clip0x6080020bc5c0"><path d="M 253.0 10.0 L 384.0 10.0 L 384.0 133.0 L 253.0 133.0 Z M 253.0 10.0 "></path></clipPath><g clip-path="url(#clip0x6080020bc5c0)"><path d="M 300.1 107.9 L 315.9 133.0 C 300.5 133.0 289.1 127.2 288.0 126.6 L 300.0 107.7 " fill="#2990B8"></path></g></g></g></g><g><clipPath id="clip0x6080020bbae0"><path d="M 233.4 148.1 L 672.9 148.1 L 672.9 -7.3 L 233.4 -7.3 Z M 233.4 148.1 "></path></clipPath><g clip-path="url(#clip0x6080020bbae0)"><g><clipPath id="clip0x6080020bd640"><path d="M 253.0 10.0 L 384.0 10.0 L 384.0 133.0 L 253.0 133.0 Z M 253.0 10.0 "></path></clipPath><g clip-path="url(#clip0x6080020bd640)"><g opacity="0.25"><g><clipPath id="clip0x6080020bbf00"><path d="M 288.0 107.7 L 315.9 107.7 L 315.9 133.0 L 288.0 133.0 Z M 288.0 107.7 "></path></clipPath><g clip-path="url(#clip0x6080020bbf00)"><path d="M 300.1 107.9 L 315.9 133.0 C 300.5 133.0 289.1 127.2 288.0 126.6 L 300.0 107.7 " fill="#000000"></path></g></g></g><path d="M 300.0 107.7 L 288.0 126.6 C 277.0 121.3 271.6 115.1 267.5 110.8 L 284.4 83.0 L 300.1 107.9 " fill="#2990B8"></path></g></g></g></g><g><clipPath id="clip0x6080020bcb00"><path d="M 233.4 148.1 L 672.9 148.1 L 672.9 -7.3 L 233.4 -7.3 Z M 233.4 148.1 "></path></clipPath><g clip-path="url(#clip0x6080020bcb00)"><g><clipPath id="clip0x6080020bdac0"><path d="M 253.0 10.0 L 384.0 10.0 L 384.0 133.0 L 253.0 133.0 Z M 253.0 10.0 "></path></clipPath><g clip-path="url(#clip0x6080020bdac0)"><g opacity="0.25"><g><clipPath id="clip0x6080020bd880"><path d="M 267.5 83.0 L 300.1 83.0 L 300.1 126.6 L 267.5 126.6 Z M 267.5 83.0 "></path></clipPath><g clip-path="url(#clip0x6080020bd880)"><path d="M 300.0 107.7 L 288.0 126.6 C 277.0 121.3 271.6 115.1 267.5 110.8 L 284.4 83.0 L 300.1 107.9 " fill="#000000"></path></g></g></g><path d="M 257.0 50.9 C 246.4 80.0 259.6 101.1 267.5 110.8 L 284.4 83.0 L 264.1 50.7 L 257.0 50.7 " fill="#2990B8"></path></g></g></g></g><g><clipPath id="clip0x6080020bdd00"><path d="M 233.4 148.1 L 672.9 148.1 L 672.9 -7.3 L 233.4 -7.3 Z M 233.4 148.1 "></path></clipPath><g clip-path="url(#clip0x6080020bdd00)"><g><clipPath id="clip0x6080020bb6c0"><path d="M 253.0 10.0 L 384.0 10.0 L 384.0 133.0 L 253.0 133.0 Z M 253.0 10.0 "></path></clipPath><g clip-path="url(#clip0x6080020bb6c0)"><g opacity="0.25"><g><clipPath id="clip0x6080020bddc0"><path d="M 253.0 50.7 L 284.4 50.7 L 284.4 110.8 L 253.0 110.8 Z M 253.0 50.7 "></path></clipPath><g clip-path="url(#clip0x6080020bddc0)"><path d="M 257.0 50.9 C 246.4 80.0 259.6 101.1 267.5 110.8 L 284.4 83.0 L 264.1 50.7 L 257.0 50.7 " fill="#000000"></path></g></g></g><path d="M 257.0 50.7 L 264.1 50.7 L 264.2 50.8 L 259.9 44.0 C 258.6 45.4 258.0 48.1 257.0 50.9 " fill="#2990B8"></path></g></g></g></g><g><clipPath id="clip0x6080020be120"><path d="M 233.4 148.1 L 672.9 148.1 L 672.9 -7.3 L 233.4 -7.3 Z M 233.4 148.1 "></path></clipPath><g clip-path="url(#clip0x6080020be120)"><g><clipPath id="clip0x6080020be360"><path d="M 253.0 10.0 L 384.0 10.0 L 384.0 133.0 L 253.0 133.0 Z M 253.0 10.0 "></path></clipPath><g clip-path="url(#clip0x6080020be360)"><g opacity="0.25"><g><clipPath id="clip0x6080020be540"><path d="M 257.0 44.0 L 264.2 44.0 L 264.2 50.9 L 257.0 50.9 Z M 257.0 44.0 "></path></clipPath><g clip-path="url(#clip0x6080020be540)"><path d="M 257.0 50.7 L 264.1 50.7 L 264.2 50.8 L 259.9 44.0 C 258.6 45.4 258.0 48.1 257.0 50.9 " fill="#000000"></path></g></g></g><path d="M 278.0 22.4 C 268.8 28.8 261.1 41.6 259.9 43.9 L 264.2 50.7 L 264.1 50.7 L 295.2 50.7 L 295.7 50.7 L 278.3 22.9 " fill="#2990B8"></path><path d="M 304.0 50.7 L 295.7 50.7 L 278.1 22.6 L 278.1 22.4 C 286.2 17.2 296.5 11.7 305.1 10.9 L 316.4 30.3 L 316.3 30.2 L 303.8 50.8 " fill="#299DBA"></path></g></g></g></g><g><clipPath id="clip0x6080020be900"><path d="M 233.4 148.1 L 672.9 148.1 L 672.9 -7.3 L 233.4 -7.3 Z M 233.4 148.1 "></path></clipPath><g clip-path="url(#clip0x6080020be900)"><g><clipPath id="clip0x6080020bea80"><path d="M 253.0 10.0 L 384.0 10.0 L 384.0 133.0 L 253.0 133.0 Z M 253.0 10.0 "></path></clipPath><g clip-path="url(#clip0x6080020bea80)"><g opacity="0.25"><g><clipPath id="clip0x6080020becc0"><path d="M 278.1 10.9 L 316.4 10.9 L 316.4 50.8 L 278.1 50.8 Z M 278.1 10.9 "></path></clipPath><g clip-path="url(#clip0x6080020becc0)"><path d="M 304.0 50.7 L 295.7 50.7 L 278.1 22.6 L 278.1 22.4 C 286.2 17.2 296.5 11.7 305.1 10.9 L 316.4 30.3 L 316.3 30.2 L 303.8 50.8 " fill="#000000"></path></g></g></g><path d="M 316.4 30.3 L 305.1 10.9 C 317.5 8.7 327.8 11.3 327.8 11.3 L 316.3 30.2 " fill="#296CAC"></path></g></g></g></g><g><clipPath id="clip0x6080020bf020"><path d="M 233.4 148.1 L 672.9 148.1 L 672.9 -7.3 L 233.4 -7.3 Z M 233.4 148.1 "></path></clipPath><g clip-path="url(#clip0x6080020bf020)"><g><clipPath id="clip0x6080020bf1a0"><path d="M 253.0 10.0 L 384.0 10.0 L 384.0 133.0 L 253.0 133.0 Z M 253.0 10.0 "></path></clipPath><g clip-path="url(#clip0x6080020bf1a0)"><g opacity="0.25"><g><clipPath id="clip0x6080020bf380"><path d="M 305.1 10.0 L 327.8 10.0 L 327.8 30.3 L 305.1 30.3 Z M 305.1 10.0 "></path></clipPath><g clip-path="url(#clip0x6080020bf380)"><path d="M 316.4 30.3 L 305.1 10.9 C 317.5 8.7 327.8 11.3 327.8 11.3 L 316.3 30.2 " fill="#000000"></path></g></g></g><path d="M 328.6 50.8 L 336.1 50.8 L 336.1 50.8 L 353.7 22.9 C 353.7 22.9 342.2 13.5 327.8 11.3 L 316.3 30.2 L 316.5 30.2 L 328.5 50.7 " fill="#296CAC"></path></g></g></g></g><g><clipPath id="clip0x6080020bf680"><path d="M 233.4 148.1 L 672.9 148.1 L 672.9 -7.3 L 233.4 -7.3 Z M 233.4 148.1 "></path></clipPath><g clip-path="url(#clip0x6080020bf680)"><g><clipPath id="clip0x6080020bf800"><path d="M 253.0 10.0 L 384.0 10.0 L 384.0 133.0 L 253.0 133.0 Z M 253.0 10.0 "></path></clipPath><g clip-path="url(#clip0x6080020bf800)"><g opacity="0.25"><g><clipPath id="clip0x6080020bf9e0"><path d="M 316.3 11.3 L 353.7 11.3 L 353.7 50.8 L 316.3 50.8 Z M 316.3 11.3 "></path></clipPath><g clip-path="url(#clip0x6080020bf9e0)"><path d="M 328.6 50.8 L 336.1 50.8 L 336.1 50.8 L 353.7 22.9 C 353.7 22.9 342.2 13.5 327.8 11.3 L 316.3 30.2 L 316.5 30.2 L 328.5 50.7 " fill="#000000"></path></g></g></g><path d="M 367.5 50.7 L 371.6 44.3 C 371.6 44.3 362.2 27.9 353.7 22.9 L 336.1 50.8 L 367.4 50.7 " fill="#298AB8"></path><path d="M 367.5 50.7 L 371.6 44.3 C 372.4 46.0 374.3 50.8 374.3 50.8 L 367.4 50.7 " fill="#2990B8"></path></g></g></g></g><g><clipPath id="clip0x6080020bfda0"><path d="M 233.4 148.1 L 672.9 148.1 L 672.9 -7.3 L 233.4 -7.3 Z M 233.4 148.1 "></path></clipPath><g clip-path="url(#clip0x6080020bfda0)"><g><clipPath id="clip0x6080020bff20"><path d="M 253.0 10.0 L 384.0 10.0 L 384.0 133.0 L 253.0 133.0 Z M 253.0 10.0 "></path></clipPath><g clip-path="url(#clip0x6080020bff20)"><g opacity="0.25"><g><clipPath id="clip0x6080022a01e0"><path d="M 367.4 44.3 L 374.3 44.3 L 374.3 50.8 L 367.4 50.8 Z M 367.4 44.3 "></path></clipPath><g clip-path="url(#clip0x6080022a01e0)"><path d="M 367.5 50.7 L 371.6 44.3 C 372.4 46.0 374.3 50.8 374.3 50.8 L 367.4 50.7 " fill="#000000"></path></g></g></g><path d="M 347.4 82.8 L 363.7 110.8 C 367.5 105.6 386.1 81.4 374.3 50.8 L 367.4 50.7 Z M 347.4 82.8 " fill="#2990B8"></path></g></g></g></g><g><clipPath id="clip0x6080022a04e0"><path d="M 233.4 148.1 L 672.9 148.1 L 672.9 -7.3 L 233.4 -7.3 Z M 233.4 148.1 "></path></clipPath><g clip-path="url(#clip0x6080022a04e0)"><g><clipPath id="clip0x6080022a0660"><path d="M 253.0 10.0 L 384.0 10.0 L 384.0 133.0 L 253.0 133.0 Z M 253.0 10.0 "></path></clipPath><g clip-path="url(#clip0x6080022a0660)"><g opacity="0.25"><g><clipPath id="clip0x6080022a0840"><path d="M 347.4 50.7 L 378.2 50.7 L 378.2 110.8 L 347.4 110.8 Z M 347.4 50.7 "></path></clipPath><g clip-path="url(#clip0x6080022a0840)"><path d="M 347.4 82.8 L 363.7 110.8 C 367.5 105.6 386.1 81.4 374.3 50.8 L 367.4 50.7 Z M 347.4 82.8 " fill="#000000"></path></g></g></g><path d="M 347.4 82.8 L 363.7 110.8 C 355.0 121.3 343.5 126.5 343.5 126.5 L 331.6 107.7 L 331.6 107.8 L 347.4 82.5 " fill="#2990B8"></path></g></g></g></g><g><clipPath id="clip0x6080022a0c00"><path d="M 233.4 148.1 L 672.9 148.1 L 672.9 -7.3 L 233.4 -7.3 Z M 233.4 148.1 "></path></clipPath><g clip-path="url(#clip0x6080022a0c00)"><g><clipPath id="clip0x6080022a0d80"><path d="M 253.0 10.0 L 384.0 10.0 L 384.0 133.0 L 253.0 133.0 Z M 253.0 10.0 "></path></clipPath><g clip-path="url(#clip0x6080022a0d80)"><g opacity="0.25"><g><clipPath id="clip0x6080022a0f60"><path d="M 331.6 82.5 L 363.7 82.5 L 363.7 126.5 L 331.6 126.5 Z M 331.6 82.5 "></path></clipPath><g clip-path="url(#clip0x6080022a0f60)"><path d="M 347.4 82.8 L 363.7 110.8 C 355.0 121.3 343.5 126.5 343.5 126.5 L 331.6 107.7 L 331.6 107.8 L 347.4 82.5 " fill="#000000"></path></g></g></g><path d="M 343.5 126.5 C 328.8 133.7 315.9 133.0 315.9 133.0 L 331.6 107.7 Z M 343.5 126.5 " fill="#2990B8"></path></g></g></g></g><g><clipPath id="clip0x6080022a1260"><path d="M 233.4 148.1 L 672.9 148.1 L 672.9 -7.3 L 233.4 -7.3 Z M 233.4 148.1 "></path></clipPath><g clip-path="url(#clip0x6080022a1260)"><g><clipPath id="clip0x6080022a13e0"><path d="M 253.0 10.0 L 384.0 10.0 L 384.0 133.0 L 253.0 133.0 Z M 253.0 10.0 "></path></clipPath><g clip-path="url(#clip0x6080022a13e0)"><g opacity="0.25"><g><clipPath id="clip0x6080022a15c0"><path d="M 315.9 107.7 L 343.5 107.7 L 343.5 133.0 L 315.9 133.0 Z M 315.9 107.7 "></path></clipPath><g clip-path="url(#clip0x6080022a15c0)"><path d="M 343.5 126.5 C 328.8 133.7 315.9 133.0 315.9 133.0 L 331.6 107.7 Z M 343.5 126.5 " fill="#000000"></path></g></g></g></g></g></g></g><g><clipPath id="clip0x6080022a1800"><path d="M 233.4 148.1 L 672.9 148.1 L 672.9 -7.3 L 233.4 -7.3 Z M 233.4 148.1 "></path></clipPath><g clip-path="url(#clip0x6080022a1800)"><g><clipPath id="clip0x6080022a1980"><path d="M 253.0 10.0 L 384.0 10.0 L 384.0 133.0 L 253.0 133.0 Z M 253.0 10.0 "></path></clipPath><g clip-path="url(#clip0x6080022a1980)"><g opacity="0.53"><g><clipPath id="clip0x6080022a1b60"><path d="M 378.2 71.5 C 378.2 37.5 350.1 10.0 315.6 10.0 C 281.0 10.0 253.0 37.5 253.0 71.5 C 253.0 105.5 281.0 133.0 315.6 133.0 C 350.1 133.0 378.2 105.5 378.2 71.5 "></path></clipPath><g clip-path="url(#clip0x6080022a1b60)"><g><clipPath id="clip0x6080022a1ce0"><path d="M 253.0 10.0 L 378.2 10.0 L 378.2 133.0 L 253.0 133.0 Z M 253.0 10.0 "></path></clipPath><g clip-path="url(#clip0x6080022a1ce0)"><path d="M 253.0 10.0 L 378.2 10.0 L 378.2 133.0 L 253.0 133.0 Z M 253.0 10.0 " fill="url(#gradSh1.9)"></path></g></g></g></g></g><path d="M 264.6 50.7 L 295.7 50.7 L 295.8 50.8 L 300.1 57.6 L 300.0 57.4 L 284.6 82.9 L 284.4 83.0 L 264.1 50.6 " fill="#FFFFFF"></path><path d="M 347.4 82.8 L 367.4 50.7 L 336.1 50.8 L 336.2 50.8 L 332.1 57.2 L 347.2 82.9 " fill="#FFFFFF"></path><path d="M 303.9 50.7 L 327.8 50.8 L 328.4 50.7 L 332.2 57.2 L 332.1 57.2 L 316.0 82.7 L 316.1 83.0 L 300.0 57.5 L 300.0 57.3 Z M 303.9 50.7 " fill="#FFFFFF"></path><path d="M 347.2 82.9 L 332.1 57.2 L 316.0 82.7 L 316.1 82.8 L 331.7 107.6 L 331.6 107.8 L 347.4 82.5 " fill="#FFFFFF"></path><path d="M 316.1 83.0 L 300.0 57.5 L 300.0 57.4 L 284.6 82.9 L 284.4 83.0 L 300.1 107.9 L 300.0 107.7 L 315.8 82.7 " fill="#FFFFFF"></path><path d="M 264.6 50.7 L 295.7 50.7 L 295.8 50.8 L 300.1 57.6 L 300.0 57.4 L 284.6 82.9 L 284.4 83.0 L 264.1 50.6 " fill="#FFFFFF"></path></g></g></g></g><g><clipPath id="clip0x6080024a3e40"><path d="M 233.4 148.1 L 672.9 148.1 L 672.9 -7.3 L 233.4 -7.3 Z M 233.4 148.1 "></path></clipPath><g clip-path="url(#clip0x6080024a3e40)"><g><clipPath id="clip0x6080024a3fc0"><path d="M 253.0 10.0 L 384.0 10.0 L 384.0 133.0 L 253.0 133.0 Z M 253.0 10.0 "></path></clipPath><g clip-path="url(#clip0x6080024a3fc0)"><g opacity="0.19"><g><clipPath id="clip0x6080024a41a0"><path d="M 264.1 50.6 L 300.1 50.6 L 300.1 83.0 L 264.1 83.0 Z M 264.1 50.6 "></path></clipPath><g clip-path="url(#clip0x6080024a41a0)"><path d="M 264.6 50.7 L 295.7 50.7 L 295.8 50.8 L 300.1 57.6 L 300.0 57.4 L 284.6 82.9 L 284.4 83.0 L 264.1 50.6 " fill="#000000"></path></g></g></g><path d="M 347.4 82.8 L 367.4 50.7 L 336.1 50.8 L 336.2 50.8 L 332.1 57.2 L 347.2 82.9 " fill="#FFFFFF"></path></g></g></g></g><g><clipPath id="clip0x6080024a44a0"><path d="M 233.4 148.1 L 672.9 148.1 L 672.9 -7.3 L 233.4 -7.3 Z M 233.4 148.1 "></path></clipPath><g clip-path="url(#clip0x6080024a44a0)"><g><clipPath id="clip0x6080024a4620"><path d="M 253.0 10.0 L 384.0 10.0 L 384.0 133.0 L 253.0 133.0 Z M 253.0 10.0 "></path></clipPath><g clip-path="url(#clip0x6080024a4620)"><g opacity="0.19"><g><clipPath id="clip0x6080024a4800"><path d="M 332.1 50.7 L 367.4 50.7 L 367.4 82.9 L 332.1 82.9 Z M 332.1 50.7 "></path></clipPath><g clip-path="url(#clip0x6080024a4800)"><path d="M 347.4 82.8 L 367.4 50.7 L 336.1 50.8 L 336.2 50.8 L 332.1 57.2 L 347.2 82.9 " fill="#000000"></path></g></g></g><path d="M 303.9 50.7 L 327.8 50.8 L 328.4 50.7 L 332.2 57.2 L 332.1 57.2 L 316.0 82.7 L 316.1 83.0 L 300.0 57.5 L 300.0 57.3 Z M 303.9 50.7 " fill="#FFFFFF"></path></g></g></g></g><g><clipPath id="clip0x6080024a4b00"><path d="M 233.4 148.1 L 672.9 148.1 L 672.9 -7.3 L 233.4 -7.3 Z M 233.4 148.1 "></path></clipPath><g clip-path="url(#clip0x6080024a4b00)"><g><clipPath id="clip0x6080024a4ce0"><path d="M 253.0 10.0 L 384.0 10.0 L 384.0 133.0 L 253.0 133.0 Z M 253.0 10.0 "></path></clipPath><g clip-path="url(#clip0x6080024a4ce0)"><g opacity="0.19"><g><clipPath id="clip0x6080024a4ec0"><path d="M 300.0 50.7 L 332.2 50.7 L 332.2 83.0 L 300.0 83.0 Z M 300.0 50.7 "></path></clipPath><g clip-path="url(#clip0x6080024a4ec0)"><path d="M 303.9 50.7 L 327.8 50.8 L 328.4 50.7 L 332.2 57.2 L 332.1 57.2 L 316.0 82.7 L 316.1 83.0 L 300.0 57.5 L 300.0 57.3 Z M 303.9 50.7 " fill="#000000"></path></g></g></g></g></g></g></g></g></g></g></g></g><image xlink:href="0D8675374555447A81C6B9C012507C61.png" width="878.00" height="103.00" transform="matrix(1.00, 0.00, -0.00, -1.00, 521.0, 954.0)"></image><text xml:space="preserve" font-family="HelveticaNeue-Light,Helvetica Neue" font-size="100.0" fill="#FEFFFE" transform="matrix(1.00, 0.00, -0.00, -1.00, 518.1, 879.5)">H</text><text xml:space="preserve" font-family="HelveticaNeue-Light,Helvetica Neue" font-size="100.0" fill="#FEFFFE" transform="matrix(1.00, 0.00, -0.00, -1.00, 588.5, 879.5)">v</text><text xml:space="preserve" font-family="HelveticaNeue-Light,Helvetica Neue" font-size="100.0" fill="#FEFFFE" transform="matrix(1.00, 0.00, -0.00, -1.00, 634.9, 879.5)">a</text><text xml:space="preserve" font-family="HelveticaNeue-Light,Helvetica Neue" font-size="100.0" fill="#FEFFFE" transform="matrix(1.00, 0.00, -0.00, -1.00, 686.8, 879.5)">d</text><text xml:space="preserve" font-family="HelveticaNeue-Light,Helvetica Neue" font-size="100.0" fill="#FEFFFE" transform="matrix(1.00, 0.00, -0.00, -1.00, 744.1, 879.5)"> </text><text xml:space="preserve" font-family="HelveticaNeue-Light,Helvetica Neue" font-size="100.0" fill="#FEFFFE" transform="matrix(1.00, 0.00, -0.00, -1.00, 772.0, 879.5)">e</text><text xml:space="preserve" font-family="HelveticaNeue-Light,Helvetica Neue" font-size="100.0" fill="#FEFFFE" transform="matrix(1.00, 0.00, -0.00, -1.00, 823.9, 879.5)">r</text><text xml:space="preserve" font-family="HelveticaNeue-Light,Helvetica Neue" font-size="100.0" fill="#FEFFFE" transform="matrix(1.00, 0.00, -0.00, -1.00, 855.4, 879.5)"> </text><text xml:space="preserve" font-family="HelveticaNeue-Light,Helvetica Neue" font-size="100.0" fill="#FEFFFE" transform="matrix(1.00, 0.00, -0.00, -1.00, 883.2, 879.5)">A</text><text xml:space="preserve" font-family="HelveticaNeue-Light,Helvetica Neue" font-size="100.0" fill="#FEFFFE" transform="matrix(1.00, 0.00, -0.00, -1.00, 946.2, 879.5)">n</text><text xml:space="preserve" font-family="HelveticaNeue-Light,Helvetica Neue" font-size="100.0" fill="#FEFFFE" transform="matrix(1.00, 0.00, -0.00, -1.00, 999.9, 879.5)">g</text><text xml:space="preserve" font-family="HelveticaNeue-Light,Helvetica Neue" font-size="100.0" fill="#FEFFFE" transform="matrix(1.00, 0.00, -0.00, -1.00, 1055.5, 879.5)">u</text><text xml:space="preserve" font-family="HelveticaNeue-Light,Helvetica Neue" font-size="100.0" fill="#FEFFFE" transform="matrix(1.00, 0.00, -0.00, -1.00, 1109.2, 879.5)">l</text><text xml:space="preserve" font-family="HelveticaNeue-Light,Helvetica Neue" font-size="100.0" fill="#FEFFFE" transform="matrix(1.00, 0.00, -0.00, -1.00, 1127.7, 879.5)">a</text><text xml:space="preserve" font-family="HelveticaNeue-Light,Helvetica Neue" font-size="100.0" fill="#FEFFFE" transform="matrix(1.00, 0.00, -0.00, -1.00, 1179.6, 879.5)">r</text><text xml:space="preserve" font-family="HelveticaNeue-Light,Helvetica Neue" font-size="100.0" fill="#FEFFFE" transform="matrix(1.00, 0.00, -0.00, -1.00, 1211.1, 879.5)">J</text><text xml:space="preserve" font-family="HelveticaNeue-Light,Helvetica Neue" font-size="100.0" fill="#FEFFFE" transform="matrix(1.00, 0.00, -0.00, -1.00, 1261.1, 879.5)">S</text><text xml:space="preserve" font-family="HelveticaNeue-Light,Helvetica Neue" font-size="100.0" fill="#FEFFFE" transform="matrix(1.00, 0.00, -0.00, -1.00, 1324.1, 879.5)">?</text><text xml:space="preserve" font-family="HelveticaNeue-Light,Helvetica Neue" font-size="100.0" fill="#FEFFFE" transform="matrix(1.00, 0.00, -0.00, -1.00, 1377.8, 879.5)">!</text><image xlink:href="../../63E96F94-3ECB-4C9D-9D7E-99B70E6EB298/assets/5594DC8059EB904084D60818A1308CE9.png" width="19.00" height="19.00" transform="matrix(1.00, 0.00, -0.00, -1.00, 332.0, 656.0)"></image><g><clipPath id="clip0x6080024a51c0"><path d="M 332.8 637.9 L 350.4 637.9 L 350.4 655.6 L 332.8 655.6 Z M 332.8 637.9 "></path></clipPath><g clip-path="url(#clip0x6080024a51c0)"><g><g><clipPath id="clip0x6080024a53a0"><path d="M 332.8 655.6 L 350.4 655.6 L 350.4 637.9 L 332.8 637.9 Z M 332.8 655.6 "></path></clipPath><g clip-path="url(#clip0x6080024a53a0)"><g><clipPath id="clip0x6080024a5520"><path d="M 328.0 630.0 L 355.0 630.0 L 355.0 663.0 L 328.0 663.0 Z M 328.0 630.0 "></path></clipPath><g clip-path="url(#clip0x6080024a5520)"><path d="M 350.4 652.1 C 350.4 652.8 350.1 653.6 349.3 654.4 C 348.6 655.2 347.8 655.6 346.9 655.6 C 346.5 655.6 345.9 655.4 345.0 655.0 C 343.7 654.3 342.5 654.0 341.6 654.0 C 340.6 654.0 339.4 654.3 338.1 655.0 C 337.3 655.4 336.7 655.6 336.3 655.6 C 335.4 655.6 334.7 655.2 333.9 654.5 C 333.2 653.7 332.8 652.9 332.8 652.1 C 332.8 651.7 333.0 651.0 333.4 650.1 C 334.0 648.8 334.3 647.7 334.3 646.8 C 334.3 645.8 334.0 644.7 333.4 643.3 C 333.0 642.5 332.8 641.9 332.8 641.5 C 332.8 640.6 333.2 639.8 333.9 639.1 C 334.7 638.3 335.4 637.9 336.3 637.9 C 336.7 637.9 337.3 638.1 338.1 638.5 C 339.4 639.2 340.6 639.5 341.6 639.5 C 342.5 639.5 343.7 639.2 345.0 638.5 C 345.9 638.1 346.5 637.9 346.9 637.9 C 347.8 637.9 348.6 638.3 349.3 639.1 C 350.1 639.8 350.4 640.6 350.4 641.5 C 350.4 641.9 350.2 642.5 349.8 643.3 C 349.2 644.7 348.8 645.8 348.8 646.8 C 348.8 647.7 349.2 648.8 349.8 650.1 C 350.2 651.0 350.4 651.7 350.4 652.1 " fill="#FFFFFF"></path></g></g></g></g></g></g></g><image xlink:href="A55C99617446D8BE77981E3A57421950.png" width="991.00" height="56.00" transform="matrix(1.00, 0.00, -0.00, -1.00, 380.0, 668.0)"></image><text xml:space="preserve" font-family="HelveticaNeue-Light,Helvetica Neue" font-size="50.0" fill="#FEFFFE" transform="matrix(1.00, 0.00, -0.00, -1.00, 381.4, 629.9)">M</text><text xml:space="preserve" font-family="HelveticaNeue-Light,Helvetica Neue" font-size="50.0" fill="#FEFFFE" transform="matrix(1.00, 0.00, -0.00, -1.00, 422.5, 629.9)">V</text><text xml:space="preserve" font-family="HelveticaNeue-Light,Helvetica Neue" font-size="50.0" fill="#FEFFFE" transform="matrix(1.00, 0.00, -0.00, -1.00, 452.1, 629.9)">C</text><text xml:space="preserve" font-family="HelveticaNeue-Light,Helvetica Neue" font-size="50.0" fill="#FEFFFE" transform="matrix(1.00, 0.00, -0.00, -1.00, 487.3, 629.9)">’</text><text xml:space="preserve" font-family="HelveticaNeue-Light,Helvetica Neue" font-size="50.0" fill="#FEFFFE" transform="matrix(1.00, 0.00, -0.00, -1.00, 501.2, 629.9)">i</text><text xml:space="preserve" font-family="HelveticaNeue-Light,Helvetica Neue" font-size="50.0" fill="#FEFFFE" transform="matrix(1.00, 0.00, -0.00, -1.00, 510.5, 629.9)">s</text><text xml:space="preserve" font-family="HelveticaNeue-Light,Helvetica Neue" font-size="50.0" fill="#FEFFFE" transform="matrix(1.00, 0.00, -0.00, -1.00, 534.5, 629.9)">h</text><text xml:space="preserve" font-family="HelveticaNeue-Light,Helvetica Neue" font-size="50.0" fill="#FEFFFE" transform="matrix(1.00, 0.00, -0.00, -1.00, 561.4, 629.9)"> </text><text xml:space="preserve" font-family="HelveticaNeue-Light,Helvetica Neue" font-size="50.0" fill="#FEFFFE" transform="matrix(1.00, 0.00, -0.00, -1.00, 575.3, 629.9)">f</text><text xml:space="preserve" font-family="HelveticaNeue-Light,Helvetica Neue" font-size="50.0" fill="#FEFFFE" transform="matrix(1.00, 0.00, -0.00, -1.00, 588.2, 629.9)">r</text><text xml:space="preserve" font-family="HelveticaNeue-Light,Helvetica Neue" font-size="50.0" fill="#FEFFFE" transform="matrix(1.00, 0.00, -0.00, -1.00, 604.0, 629.9)">a</text><text xml:space="preserve" font-family="HelveticaNeue-Light,Helvetica Neue" font-size="50.0" fill="#FEFFFE" transform="matrix(1.00, 0.00, -0.00, -1.00, 629.9, 629.9)">m</text><text xml:space="preserve" font-family="HelveticaNeue-Light,Helvetica Neue" font-size="50.0" fill="#FEFFFE" transform="matrix(1.00, 0.00, -0.00, -1.00, 671.6, 629.9)">e</text><text xml:space="preserve" font-family="HelveticaNeue-Light,Helvetica Neue" font-size="50.0" fill="#FEFFFE" transform="matrix(1.00, 0.00, -0.00, -1.00, 697.5, 629.9)">w</text><text xml:space="preserve" font-family="HelveticaNeue-Light,Helvetica Neue" font-size="50.0" fill="#FEFFFE" transform="matrix(1.00, 0.00, -0.00, -1.00, 734.6, 629.9)">o</text><text xml:space="preserve" font-family="HelveticaNeue-Light,Helvetica Neue" font-size="50.0" fill="#FEFFFE" transform="matrix(1.00, 0.00, -0.00, -1.00, 762.4, 629.9)">r</text><text xml:space="preserve" font-family="HelveticaNeue-Light,Helvetica Neue" font-size="50.0" fill="#FEFFFE" transform="matrix(1.00, 0.00, -0.00, -1.00, 778.1, 629.9)">k</text><text xml:space="preserve" font-family="HelveticaNeue-Light,Helvetica Neue" font-size="50.0" fill="#FEFFFE" transform="matrix(1.00, 0.00, -0.00, -1.00, 803.1, 629.9)"> </text><text xml:space="preserve" font-family="HelveticaNeue-Light,Helvetica Neue" font-size="50.0" fill="#FEFFFE" transform="matrix(1.00, 0.00, -0.00, -1.00, 817.0, 629.9)">w</text><text xml:space="preserve" font-family="HelveticaNeue-Light,Helvetica Neue" font-size="50.0" fill="#FEFFFE" transform="matrix(1.00, 0.00, -0.00, -1.00, 854.1, 629.9)">i</text><text xml:space="preserve" font-family="HelveticaNeue-Light,Helvetica Neue" font-size="50.0" fill="#FEFFFE" transform="matrix(1.00, 0.00, -0.00, -1.00, 863.3, 629.9)">t</text><text xml:space="preserve" font-family="HelveticaNeue-Light,Helvetica Neue" font-size="50.0" fill="#FEFFFE" transform="matrix(1.00, 0.00, -0.00, -1.00, 878.1, 629.9)">h</text><text xml:space="preserve" font-family="HelveticaNeue-Light,Helvetica Neue" font-size="50.0" fill="#FEFFFE" transform="matrix(1.00, 0.00, -0.00, -1.00, 905.0, 629.9)"> </text><text xml:space="preserve" font-family="HelveticaNeue-Light,Helvetica Neue" font-size="50.0" fill="#FEFFFE" transform="matrix(1.00, 0.00, -0.00, -1.00, 918.9, 629.9)">a</text><text xml:space="preserve" font-family="HelveticaNeue-Light,Helvetica Neue" font-size="50.0" fill="#FEFFFE" transform="matrix(1.00, 0.00, -0.00, -1.00, 944.8, 629.9)"> </text><text xml:space="preserve" font-family="HelveticaNeue-Light,Helvetica Neue" font-size="50.0" fill="#FEFFFE" transform="matrix(1.00, 0.00, -0.00, -1.00, 958.7, 629.9)">s</text><text xml:space="preserve" font-family="HelveticaNeue-Light,Helvetica Neue" font-size="50.0" fill="#FEFFFE" transform="matrix(1.00, 0.00, -0.00, -1.00, 982.8, 629.9)">p</text><text xml:space="preserve" font-family="HelveticaNeue-Light,Helvetica Neue" font-size="50.0" fill="#FEFFFE" transform="matrix(1.00, 0.00, -0.00, -1.00, 1011.5, 629.9)">r</text><text xml:space="preserve" font-family="HelveticaNeue-Light,Helvetica Neue" font-size="50.0" fill="#FEFFFE" transform="matrix(1.00, 0.00, -0.00, -1.00, 1027.2, 629.9)">i</text><text xml:space="preserve" font-family="HelveticaNeue-Light,Helvetica Neue" font-size="50.0" fill="#FEFFFE" transform="matrix(1.00, 0.00, -0.00, -1.00, 1036.5, 629.9)">n</text><text xml:space="preserve" font-family="HelveticaNeue-Light,Helvetica Neue" font-size="50.0" fill="#FEFFFE" transform="matrix(1.00, 0.00, -0.00, -1.00, 1063.3, 629.9)">k</text><text xml:space="preserve" font-family="HelveticaNeue-Light,Helvetica Neue" font-size="50.0" fill="#FEFFFE" transform="matrix(1.00, 0.00, -0.00, -1.00, 1088.3, 629.9)">l</text><text xml:space="preserve" font-family="HelveticaNeue-Light,Helvetica Neue" font-size="50.0" fill="#FEFFFE" transform="matrix(1.00, 0.00, -0.00, -1.00, 1097.6, 629.9)">e</text><text xml:space="preserve" font-family="HelveticaNeue-Light,Helvetica Neue" font-size="50.0" fill="#FEFFFE" transform="matrix(1.00, 0.00, -0.00, -1.00, 1123.5, 629.9)"> </text><text xml:space="preserve" font-family="HelveticaNeue-Light,Helvetica Neue" font-size="50.0" fill="#FEFFFE" transform="matrix(1.00, 0.00, -0.00, -1.00, 1137.4, 629.9)">o</text><text xml:space="preserve" font-family="HelveticaNeue-Light,Helvetica Neue" font-size="50.0" fill="#FEFFFE" transform="matrix(1.00, 0.00, -0.00, -1.00, 1165.2, 629.9)">f</text><text xml:space="preserve" font-family="HelveticaNeue-Light,Helvetica Neue" font-size="50.0" fill="#FEFFFE" transform="matrix(1.00, 0.00, -0.00, -1.00, 1178.2, 629.9)"> </text><text xml:space="preserve" font-family="HelveticaNeue-Light,Helvetica Neue" font-size="50.0" fill="#FEFFFE" transform="matrix(1.00, 0.00, -0.00, -1.00, 1192.1, 629.9)">m</text><text xml:space="preserve" font-family="HelveticaNeue-Light,Helvetica Neue" font-size="50.0" fill="#FEFFFE" transform="matrix(1.00, 0.00, -0.00, -1.00, 1233.7, 629.9)">a</text><text xml:space="preserve" font-family="HelveticaNeue-Light,Helvetica Neue" font-size="50.0" fill="#FEFFFE" transform="matrix(1.00, 0.00, -0.00, -1.00, 1259.7, 629.9)">g</text><text xml:space="preserve" font-family="HelveticaNeue-Light,Helvetica Neue" font-size="50.0" fill="#FEFFFE" transform="matrix(1.00, 0.00, -0.00, -1.00, 1287.5, 629.9)">i</text><text xml:space="preserve" font-family="HelveticaNeue-Light,Helvetica Neue" font-size="50.0" fill="#FEFFFE" transform="matrix(1.00, 0.00, -0.00, -1.00, 1296.7, 629.9)">c</text><text xml:space="preserve" font-family="HelveticaNeue-Light,Helvetica Neue" font-size="50.0" fill="#FEFFFE" transform="matrix(1.00, 0.00, -0.00, -1.00, 1322.7, 629.9)">…</text><text xml:space="preserve" font-family="HelveticaNeue-Bold,Helvetica Neue" font-weight="bold" font-size="18.0" fill="#FEFFFE" transform="matrix(1.00, 0.00, -0.00, -1.00, 1647.0, 25.0)">5</text></g></svg>