<?xml version="1.0" encoding="UTF-8" standalone="no"?><svg xmlns="http://www.w3.org/2000/svg" xmlns:xlink="http://www.w3.org/1999/xlink" clip-rule="evenodd" stroke-miterlimit="10" viewBox="0 0 1920 1080"><desc>SVG generated by Keynote</desc><defs><linearGradient id="gradSh1.8" x1="0.0" y1="0.0" x2="1.0" y2="0.0" gradientUnits="userSpaceOnUse" gradientTransform="matrix(25.76, 120.39, 121.21, -25.59, 302.7, 11.3)"><stop offset="0.00000" stop-color="#000000"></stop><stop offset="0.17082" stop-color="#000001"></stop><stop offset="0.19868" stop-color="#000101"></stop><stop offset="0.21261" stop-color="#000102"></stop><stop offset="0.21848" stop-color="#010102"></stop><stop offset="0.23534" stop-color="#010103"></stop><stop offset="0.24780" stop-color="#010203"></stop><stop offset="0.25220" stop-color="#010204"></stop><stop offset="0.26613" stop-color="#010205"></stop><stop offset="0.27273" stop-color="#020205"></stop><stop offset="0.27493" stop-color="#020305"></stop><stop offset="0.29399" stop-color="#020408"></stop><stop offset="0.30132" stop-color="#020409"></stop><stop offset="0.32331" stop-color="#04060C"></stop><stop offset="0.32551" stop-color="#04060D"></stop><stop offset="0.34238" stop-color="#050810"></stop><stop offset="0.34384" stop-color="#050811"></stop><stop offset="0.37610" stop-color="#080C1A"></stop><stop offset="0.37830" stop-color="#080C1B"></stop><stop offset="0.39663" stop-color="#0A1022"></stop><stop offset="0.39883" stop-color="#0A1023"></stop><stop offset="0.43548" stop-color="#101936"></stop><stop offset="0.43695" stop-color="#101937"></stop><stop offset="0.45674" stop-color="#142044"></stop><stop offset="0.45748" stop-color="#142045"></stop><stop offset="0.50220" stop-color="#20336D"></stop><stop offset="0.50293" stop-color="#20336E"></stop><stop offset="0.52639" stop-color="#28408A"></stop><stop offset="0.52713" stop-color="#28408B"></stop><stop offset="0.57771" stop-color="#4065D9"></stop><stop offset="0.57918" stop-color="#4066D9"></stop><stop offset="0.70015" stop-color="#8099E6"></stop><stop offset="0.70235" stop-color="#819AE6"></stop><stop offset="1.00000" stop-color="#FFFFFF"></stop></linearGradient></defs><g transform="matrix(1.00, 0.00, -0.00, -1.00, 0.0, 1080.0)"><g><clipPath id="clip0x608001eb4e20"><path d="M 0.0 1080.0 L 1920.0 1080.0 L 1920.0 0.0 L 0.0 0.0 Z M 0.0 1080.0 "></path></clipPath><g clip-path="url(#clip0x608001eb4e20)"><image xlink:href="../../8532EDA3-03AF-4F95-ADCC-1003E38AE155/assets/7D0D479F0D8AC86C9E875656D9072873.jpeg" width="2048.00" height="1536.00" transform="matrix(0.94, 0.00, -0.00, -0.70, 0.0, 1080.0)"></image></g></g><image xlink:href="../../8532EDA3-03AF-4F95-ADCC-1003E38AE155/assets/92B8A543F34A3103C3297823A8CED706.png" width="187.00" height="180.00" transform="matrix(1.00, 0.00, -0.00, -1.00, 224.7, 147.4)" opacity="0.70"></image><g><clipPath id="clip0x608001eb4280"><path d="M 253.0 133.0 L 384.0 133.0 L 384.0 10.0 L 253.0 10.0 Z M 252.7 133.4 "></path></clipPath><g clip-path="url(#clip0x608001eb4280)"><g><clipPath id="clip0x608001eb5120"><path d="M 253.0 10.0 L 662.0 10.0 L 662.0 133.0 L 253.0 133.0 Z M 253.0 10.0 "></path></clipPath><g clip-path="url(#clip0x608001eb5120)"><g><g><clipPath id="clip0x608001eb43a0"><path d="M 233.4 148.1 L 672.9 148.1 L 672.9 -7.3 L 233.4 -7.3 Z M 233.4 148.1 "></path></clipPath><g clip-path="url(#clip0x608001eb43a0)"><g><clipPath id="clip0x608001eb3d40"><path d="M 253.0 10.0 L 384.0 10.0 L 384.0 133.0 L 253.0 133.0 Z M 253.0 10.0 "></path></clipPath><g clip-path="url(#clip0x608001eb3d40)"><g opacity="0.17"><g><clipPath id="clip0x608001eb54e0"><path d="M 253.2 10.0 L 378.0 10.0 L 378.0 133.0 L 253.2 133.0 Z M 253.2 10.0 "></path></clipPath><g clip-path="url(#clip0x608001eb54e0)"><path d="M 378.0 71.5 C 378.0 37.5 350.1 10.0 315.6 10.0 C 281.2 10.0 253.2 37.5 253.2 71.5 C 253.2 105.5 281.2 133.0 315.6 133.0 C 350.1 133.0 378.0 105.5 378.0 71.5 " fill="#0070BB"></path></g></g></g></g></g></g></g><g><clipPath id="clip0x608001eb4580"><path d="M 253.0 10.0 L 384.0 10.0 L 384.0 133.0 L 253.0 133.0 Z M 253.0 10.0 "></path></clipPath><g clip-path="url(#clip0x608001eb4580)"><path d="M 328.8 50.8 L 303.9 50.8 L 303.8 50.8 L 316.3 30.2 L 316.5 30.2 L 328.5 50.7 " fill="#2990B8"></path><path d="M 300.1 57.6 L 295.8 50.8 L 295.7 50.7 L 304.0 50.7 L 303.9 50.7 L 300.0 57.3 " fill="#299DBA"></path></g></g><g><clipPath id="clip0x608001eb5960"><path d="M 233.4 148.1 L 672.9 148.1 L 672.9 -7.3 L 233.4 -7.3 Z M 233.4 148.1 "></path></clipPath><g clip-path="url(#clip0x608001eb5960)"><g><clipPath id="clip0x608001eb4640"><path d="M 253.0 10.0 L 384.0 10.0 L 384.0 133.0 L 253.0 133.0 Z M 253.0 10.0 "></path></clipPath><g clip-path="url(#clip0x608001eb4640)"><g opacity="0.25"><g><clipPath id="clip0x608001eb4b80"><path d="M 295.7 50.7 L 304.0 50.7 L 304.0 57.6 L 295.7 57.6 Z M 295.7 50.7 "></path></clipPath><g clip-path="url(#clip0x608001eb4b80)"><path d="M 300.1 57.6 L 295.8 50.8 L 295.7 50.7 L 304.0 50.7 L 303.9 50.7 L 300.0 57.3 " fill="#000000"></path></g></g></g></g></g></g></g><g><clipPath id="clip0x608001eb5420"><path d="M 253.0 10.0 L 384.0 10.0 L 384.0 133.0 L 253.0 133.0 Z M 253.0 10.0 "></path></clipPath><g clip-path="url(#clip0x608001eb5420)"><path d="M 328.4 50.7 L 336.1 50.7 L 336.2 50.8 L 332.1 57.2 L 332.2 57.2 Z M 328.4 50.7 " fill="#296CAC"></path></g></g><g><clipPath id="clip0x608001eb4d60"><path d="M 233.4 148.1 L 672.9 148.1 L 672.9 -7.3 L 233.4 -7.3 Z M 233.4 148.1 "></path></clipPath><g clip-path="url(#clip0x608001eb4d60)"><g><clipPath id="clip0x608001eb5720"><path d="M 253.0 10.0 L 384.0 10.0 L 384.0 133.0 L 253.0 133.0 Z M 253.0 10.0 "></path></clipPath><g clip-path="url(#clip0x608001eb5720)"><g opacity="0.25"><g><clipPath id="clip0x608001eb44c0"><path d="M 328.4 50.7 L 336.2 50.7 L 336.2 57.2 L 328.4 57.2 Z M 328.4 50.7 "></path></clipPath><g clip-path="url(#clip0x608001eb44c0)"><path d="M 328.4 50.7 L 336.1 50.7 L 336.2 50.8 L 332.1 57.2 L 332.2 57.2 Z M 328.4 50.7 " fill="#000000"></path></g></g></g></g></g></g></g><g><clipPath id="clip0x608001eb5ea0"><path d="M 253.0 10.0 L 384.0 10.0 L 384.0 133.0 L 253.0 133.0 Z M 253.0 10.0 "></path></clipPath><g clip-path="url(#clip0x608001eb5ea0)"><path d="M 315.8 82.7 L 300.0 107.7 L 300.1 107.9 L 315.9 133.0 L 331.6 107.7 L 331.7 107.6 L 316.1 82.8 " fill="#2990B8"></path></g></g><g><clipPath id="clip0x600000ca0240"><path d="M 233.4 148.1 L 672.9 148.1 L 672.9 -7.3 L 233.4 -7.3 Z M 233.4 148.1 "></path></clipPath><g clip-path="url(#clip0x600000ca0240)"><g><clipPath id="clip0x600000abf500"><path d="M 253.0 10.0 L 384.0 10.0 L 384.0 133.0 L 253.0 133.0 Z M 253.0 10.0 "></path></clipPath><g clip-path="url(#clip0x600000abf500)"><path d="M 300.1 107.9 L 315.9 133.0 C 300.5 133.0 289.1 127.2 288.0 126.6 L 300.0 107.7 " fill="#2990B8"></path></g></g></g></g><g><clipPath id="clip0x600000abf8c0"><path d="M 233.4 148.1 L 672.9 148.1 L 672.9 -7.3 L 233.4 -7.3 Z M 233.4 148.1 "></path></clipPath><g clip-path="url(#clip0x600000abf8c0)"><g><clipPath id="clip0x600000ca0a20"><path d="M 253.0 10.0 L 384.0 10.0 L 384.0 133.0 L 253.0 133.0 Z M 253.0 10.0 "></path></clipPath><g clip-path="url(#clip0x600000ca0a20)"><g opacity="0.25"><g><clipPath id="clip0x600000ca01e0"><path d="M 288.0 107.7 L 315.9 107.7 L 315.9 133.0 L 288.0 133.0 Z M 288.0 107.7 "></path></clipPath><g clip-path="url(#clip0x600000ca01e0)"><path d="M 300.1 107.9 L 315.9 133.0 C 300.5 133.0 289.1 127.2 288.0 126.6 L 300.0 107.7 " fill="#000000"></path></g></g></g><path d="M 300.0 107.7 L 288.0 126.6 C 277.0 121.3 271.6 115.1 267.5 110.8 L 284.4 83.0 L 300.1 107.9 " fill="#2990B8"></path></g></g></g></g><g><clipPath id="clip0x600000ab0860"><path d="M 233.4 148.1 L 672.9 148.1 L 672.9 -7.3 L 233.4 -7.3 Z M 233.4 148.1 "></path></clipPath><g clip-path="url(#clip0x600000ab0860)"><g><clipPath id="clip0x600000abf2c0"><path d="M 253.0 10.0 L 384.0 10.0 L 384.0 133.0 L 253.0 133.0 Z M 253.0 10.0 "></path></clipPath><g clip-path="url(#clip0x600000abf2c0)"><g opacity="0.25"><g><clipPath id="clip0x600000abf3e0"><path d="M 267.5 83.0 L 300.1 83.0 L 300.1 126.6 L 267.5 126.6 Z M 267.5 83.0 "></path></clipPath><g clip-path="url(#clip0x600000abf3e0)"><path d="M 300.0 107.7 L 288.0 126.6 C 277.0 121.3 271.6 115.1 267.5 110.8 L 284.4 83.0 L 300.1 107.9 " fill="#000000"></path></g></g></g><path d="M 257.0 50.9 C 246.4 80.0 259.6 101.1 267.5 110.8 L 284.4 83.0 L 264.1 50.7 L 257.0 50.7 " fill="#2990B8"></path></g></g></g></g><g><clipPath id="clip0x608001eb5d80"><path d="M 233.4 148.1 L 672.9 148.1 L 672.9 -7.3 L 233.4 -7.3 Z M 233.4 148.1 "></path></clipPath><g clip-path="url(#clip0x608001eb5d80)"><g><clipPath id="clip0x600000abf200"><path d="M 253.0 10.0 L 384.0 10.0 L 384.0 133.0 L 253.0 133.0 Z M 253.0 10.0 "></path></clipPath><g clip-path="url(#clip0x600000abf200)"><g opacity="0.25"><g><clipPath id="clip0x608001eb5de0"><path d="M 253.0 50.7 L 284.4 50.7 L 284.4 110.8 L 253.0 110.8 Z M 253.0 50.7 "></path></clipPath><g clip-path="url(#clip0x608001eb5de0)"><path d="M 257.0 50.9 C 246.4 80.0 259.6 101.1 267.5 110.8 L 284.4 83.0 L 264.1 50.7 L 257.0 50.7 " fill="#000000"></path></g></g></g><path d="M 257.0 50.7 L 264.1 50.7 L 264.2 50.8 L 259.9 44.0 C 258.6 45.4 258.0 48.1 257.0 50.9 " fill="#2990B8"></path></g></g></g></g><g><clipPath id="clip0x608001eb5fc0"><path d="M 233.4 148.1 L 672.9 148.1 L 672.9 -7.3 L 233.4 -7.3 Z M 233.4 148.1 "></path></clipPath><g clip-path="url(#clip0x608001eb5fc0)"><g><clipPath id="clip0x608001eb60e0"><path d="M 253.0 10.0 L 384.0 10.0 L 384.0 133.0 L 253.0 133.0 Z M 253.0 10.0 "></path></clipPath><g clip-path="url(#clip0x608001eb60e0)"><g opacity="0.25"><g><clipPath id="clip0x608001eb62c0"><path d="M 257.0 44.0 L 264.2 44.0 L 264.2 50.9 L 257.0 50.9 Z M 257.0 44.0 "></path></clipPath><g clip-path="url(#clip0x608001eb62c0)"><path d="M 257.0 50.7 L 264.1 50.7 L 264.2 50.8 L 259.9 44.0 C 258.6 45.4 258.0 48.1 257.0 50.9 " fill="#000000"></path></g></g></g><path d="M 278.0 22.4 C 268.8 28.8 261.1 41.6 259.9 43.9 L 264.2 50.7 L 264.1 50.7 L 295.2 50.7 L 295.7 50.7 L 278.3 22.9 " fill="#2990B8"></path><path d="M 304.0 50.7 L 295.7 50.7 L 278.1 22.6 L 278.1 22.4 C 286.2 17.2 296.5 11.7 305.1 10.9 L 316.4 30.3 L 316.3 30.2 L 303.8 50.8 " fill="#299DBA"></path></g></g></g></g><g><clipPath id="clip0x608001eb6680"><path d="M 233.4 148.1 L 672.9 148.1 L 672.9 -7.3 L 233.4 -7.3 Z M 233.4 148.1 "></path></clipPath><g clip-path="url(#clip0x608001eb6680)"><g><clipPath id="clip0x608001eb6800"><path d="M 253.0 10.0 L 384.0 10.0 L 384.0 133.0 L 253.0 133.0 Z M 253.0 10.0 "></path></clipPath><g clip-path="url(#clip0x608001eb6800)"><g opacity="0.25"><g><clipPath id="clip0x608001eb69e0"><path d="M 278.1 10.9 L 316.4 10.9 L 316.4 50.8 L 278.1 50.8 Z M 278.1 10.9 "></path></clipPath><g clip-path="url(#clip0x608001eb69e0)"><path d="M 304.0 50.7 L 295.7 50.7 L 278.1 22.6 L 278.1 22.4 C 286.2 17.2 296.5 11.7 305.1 10.9 L 316.4 30.3 L 316.3 30.2 L 303.8 50.8 " fill="#000000"></path></g></g></g><path d="M 316.4 30.3 L 305.1 10.9 C 317.5 8.7 327.8 11.3 327.8 11.3 L 316.3 30.2 " fill="#296CAC"></path></g></g></g></g><g><clipPath id="clip0x608001eb6da0"><path d="M 233.4 148.1 L 672.9 148.1 L 672.9 -7.3 L 233.4 -7.3 Z M 233.4 148.1 "></path></clipPath><g clip-path="url(#clip0x608001eb6da0)"><g><clipPath id="clip0x608001eb6f20"><path d="M 253.0 10.0 L 384.0 10.0 L 384.0 133.0 L 253.0 133.0 Z M 253.0 10.0 "></path></clipPath><g clip-path="url(#clip0x608001eb6f20)"><g opacity="0.25"><g><clipPath id="clip0x608001eb7100"><path d="M 305.1 10.0 L 327.8 10.0 L 327.8 30.3 L 305.1 30.3 Z M 305.1 10.0 "></path></clipPath><g clip-path="url(#clip0x608001eb7100)"><path d="M 316.4 30.3 L 305.1 10.9 C 317.5 8.7 327.8 11.3 327.8 11.3 L 316.3 30.2 " fill="#000000"></path></g></g></g><path d="M 328.6 50.8 L 336.1 50.8 L 336.1 50.8 L 353.7 22.9 C 353.7 22.9 342.2 13.5 327.8 11.3 L 316.3 30.2 L 316.5 30.2 L 328.5 50.7 " fill="#296CAC"></path></g></g></g></g><g><clipPath id="clip0x608001eb7400"><path d="M 233.4 148.1 L 672.9 148.1 L 672.9 -7.3 L 233.4 -7.3 Z M 233.4 148.1 "></path></clipPath><g clip-path="url(#clip0x608001eb7400)"><g><clipPath id="clip0x608001eb7580"><path d="M 253.0 10.0 L 384.0 10.0 L 384.0 133.0 L 253.0 133.0 Z M 253.0 10.0 "></path></clipPath><g clip-path="url(#clip0x608001eb7580)"><g opacity="0.25"><g><clipPath id="clip0x608001eb7760"><path d="M 316.3 11.3 L 353.7 11.3 L 353.7 50.8 L 316.3 50.8 Z M 316.3 11.3 "></path></clipPath><g clip-path="url(#clip0x608001eb7760)"><path d="M 328.6 50.8 L 336.1 50.8 L 336.1 50.8 L 353.7 22.9 C 353.7 22.9 342.2 13.5 327.8 11.3 L 316.3 30.2 L 316.5 30.2 L 328.5 50.7 " fill="#000000"></path></g></g></g><path d="M 367.5 50.7 L 371.6 44.3 C 371.6 44.3 362.2 27.9 353.7 22.9 L 336.1 50.8 L 367.4 50.7 " fill="#298AB8"></path><path d="M 367.5 50.7 L 371.6 44.3 C 372.4 46.0 374.3 50.8 374.3 50.8 L 367.4 50.7 " fill="#2990B8"></path></g></g></g></g><g><clipPath id="clip0x608001eb7b20"><path d="M 233.4 148.1 L 672.9 148.1 L 672.9 -7.3 L 233.4 -7.3 Z M 233.4 148.1 "></path></clipPath><g clip-path="url(#clip0x608001eb7b20)"><g><clipPath id="clip0x608001eb7ca0"><path d="M 253.0 10.0 L 384.0 10.0 L 384.0 133.0 L 253.0 133.0 Z M 253.0 10.0 "></path></clipPath><g clip-path="url(#clip0x608001eb7ca0)"><g opacity="0.25"><g><clipPath id="clip0x608001eb7e80"><path d="M 367.4 44.3 L 374.3 44.3 L 374.3 50.8 L 367.4 50.8 Z M 367.4 44.3 "></path></clipPath><g clip-path="url(#clip0x608001eb7e80)"><path d="M 367.5 50.7 L 371.6 44.3 C 372.4 46.0 374.3 50.8 374.3 50.8 L 367.4 50.7 " fill="#000000"></path></g></g></g><path d="M 347.4 82.8 L 363.7 110.8 C 367.5 105.6 386.1 81.4 374.3 50.8 L 367.4 50.7 Z M 347.4 82.8 " fill="#2990B8"></path></g></g></g></g><g><clipPath id="clip0x608001eb8180"><path d="M 233.4 148.1 L 672.9 148.1 L 672.9 -7.3 L 233.4 -7.3 Z M 233.4 148.1 "></path></clipPath><g clip-path="url(#clip0x608001eb8180)"><g><clipPath id="clip0x608001eb8300"><path d="M 253.0 10.0 L 384.0 10.0 L 384.0 133.0 L 253.0 133.0 Z M 253.0 10.0 "></path></clipPath><g clip-path="url(#clip0x608001eb8300)"><g opacity="0.25"><g><clipPath id="clip0x608001eb84e0"><path d="M 347.4 50.7 L 378.2 50.7 L 378.2 110.8 L 347.4 110.8 Z M 347.4 50.7 "></path></clipPath><g clip-path="url(#clip0x608001eb84e0)"><path d="M 347.4 82.8 L 363.7 110.8 C 367.5 105.6 386.1 81.4 374.3 50.8 L 367.4 50.7 Z M 347.4 82.8 " fill="#000000"></path></g></g></g><path d="M 347.4 82.8 L 363.7 110.8 C 355.0 121.3 343.5 126.5 343.5 126.5 L 331.6 107.7 L 331.6 107.8 L 347.4 82.5 " fill="#2990B8"></path></g></g></g></g><g><clipPath id="clip0x608001eb87e0"><path d="M 233.4 148.1 L 672.9 148.1 L 672.9 -7.3 L 233.4 -7.3 Z M 233.4 148.1 "></path></clipPath><g clip-path="url(#clip0x608001eb87e0)"><g><clipPath id="clip0x608001eb8960"><path d="M 253.0 10.0 L 384.0 10.0 L 384.0 133.0 L 253.0 133.0 Z M 253.0 10.0 "></path></clipPath><g clip-path="url(#clip0x608001eb8960)"><g opacity="0.25"><g><clipPath id="clip0x608001eb8b40"><path d="M 331.6 82.5 L 363.7 82.5 L 363.7 126.5 L 331.6 126.5 Z M 331.6 82.5 "></path></clipPath><g clip-path="url(#clip0x608001eb8b40)"><path d="M 347.4 82.8 L 363.7 110.8 C 355.0 121.3 343.5 126.5 343.5 126.5 L 331.6 107.7 L 331.6 107.8 L 347.4 82.5 " fill="#000000"></path></g></g></g><path d="M 343.5 126.5 C 328.8 133.7 315.9 133.0 315.9 133.0 L 331.6 107.7 Z M 343.5 126.5 " fill="#2990B8"></path></g></g></g></g><g><clipPath id="clip0x608001eb8e40"><path d="M 233.4 148.1 L 672.9 148.1 L 672.9 -7.3 L 233.4 -7.3 Z M 233.4 148.1 "></path></clipPath><g clip-path="url(#clip0x608001eb8e40)"><g><clipPath id="clip0x608001eb8fc0"><path d="M 253.0 10.0 L 384.0 10.0 L 384.0 133.0 L 253.0 133.0 Z M 253.0 10.0 "></path></clipPath><g clip-path="url(#clip0x608001eb8fc0)"><g opacity="0.25"><g><clipPath id="clip0x608001eb91a0"><path d="M 315.9 107.7 L 343.5 107.7 L 343.5 133.0 L 315.9 133.0 Z M 315.9 107.7 "></path></clipPath><g clip-path="url(#clip0x608001eb91a0)"><path d="M 343.5 126.5 C 328.8 133.7 315.9 133.0 315.9 133.0 L 331.6 107.7 Z M 343.5 126.5 " fill="#000000"></path></g></g></g></g></g></g></g><g><clipPath id="clip0x608001eb93e0"><path d="M 233.4 148.1 L 672.9 148.1 L 672.9 -7.3 L 233.4 -7.3 Z M 233.4 148.1 "></path></clipPath><g clip-path="url(#clip0x608001eb93e0)"><g><clipPath id="clip0x608001eb9560"><path d="M 253.0 10.0 L 384.0 10.0 L 384.0 133.0 L 253.0 133.0 Z M 253.0 10.0 "></path></clipPath><g clip-path="url(#clip0x608001eb9560)"><g opacity="0.53"><g><clipPath id="clip0x608001eb9740"><path d="M 378.2 71.5 C 378.2 37.5 350.1 10.0 315.6 10.0 C 281.0 10.0 253.0 37.5 253.0 71.5 C 253.0 105.5 281.0 133.0 315.6 133.0 C 350.1 133.0 378.2 105.5 378.2 71.5 "></path></clipPath><g clip-path="url(#clip0x608001eb9740)"><g><clipPath id="clip0x608001eb98c0"><path d="M 253.0 10.0 L 378.2 10.0 L 378.2 133.0 L 253.0 133.0 Z M 253.0 10.0 "></path></clipPath><g clip-path="url(#clip0x608001eb98c0)"><path d="M 253.0 10.0 L 378.2 10.0 L 378.2 133.0 L 253.0 133.0 Z M 253.0 10.0 " fill="url(#gradSh1.8)"></path></g></g></g></g></g><path d="M 264.6 50.7 L 295.7 50.7 L 295.8 50.8 L 300.1 57.6 L 300.0 57.4 L 284.6 82.9 L 284.4 83.0 L 264.1 50.6 " fill="#FFFFFF"></path><path d="M 347.4 82.8 L 367.4 50.7 L 336.1 50.8 L 336.2 50.8 L 332.1 57.2 L 347.2 82.9 " fill="#FFFFFF"></path><path d="M 303.9 50.7 L 327.8 50.8 L 328.4 50.7 L 332.2 57.2 L 332.1 57.2 L 316.0 82.7 L 316.1 83.0 L 300.0 57.5 L 300.0 57.3 Z M 303.9 50.7 " fill="#FFFFFF"></path><path d="M 347.2 82.9 L 332.1 57.2 L 316.0 82.7 L 316.1 82.8 L 331.7 107.6 L 331.6 107.8 L 347.4 82.5 " fill="#FFFFFF"></path><path d="M 316.1 83.0 L 300.0 57.5 L 300.0 57.4 L 284.6 82.9 L 284.4 83.0 L 300.1 107.9 L 300.0 107.7 L 315.8 82.7 " fill="#FFFFFF"></path><path d="M 264.6 50.7 L 295.7 50.7 L 295.8 50.8 L 300.1 57.6 L 300.0 57.4 L 284.6 82.9 L 284.4 83.0 L 264.1 50.6 " fill="#FFFFFF"></path></g></g></g></g><g><clipPath id="clip0x6080020b8780"><path d="M 233.4 148.1 L 672.9 148.1 L 672.9 -7.3 L 233.4 -7.3 Z M 233.4 148.1 "></path></clipPath><g clip-path="url(#clip0x6080020b8780)"><g><clipPath id="clip0x6080020b8900"><path d="M 253.0 10.0 L 384.0 10.0 L 384.0 133.0 L 253.0 133.0 Z M 253.0 10.0 "></path></clipPath><g clip-path="url(#clip0x6080020b8900)"><g opacity="0.19"><g><clipPath id="clip0x6080020b8ae0"><path d="M 264.1 50.6 L 300.1 50.6 L 300.1 83.0 L 264.1 83.0 Z M 264.1 50.6 "></path></clipPath><g clip-path="url(#clip0x6080020b8ae0)"><path d="M 264.6 50.7 L 295.7 50.7 L 295.8 50.8 L 300.1 57.6 L 300.0 57.4 L 284.6 82.9 L 284.4 83.0 L 264.1 50.6 " fill="#000000"></path></g></g></g><path d="M 347.4 82.8 L 367.4 50.7 L 336.1 50.8 L 336.2 50.8 L 332.1 57.2 L 347.2 82.9 " fill="#FFFFFF"></path></g></g></g></g><g><clipPath id="clip0x6080020b8e40"><path d="M 233.4 148.1 L 672.9 148.1 L 672.9 -7.3 L 233.4 -7.3 Z M 233.4 148.1 "></path></clipPath><g clip-path="url(#clip0x6080020b8e40)"><g><clipPath id="clip0x6080020b8fc0"><path d="M 253.0 10.0 L 384.0 10.0 L 384.0 133.0 L 253.0 133.0 Z M 253.0 10.0 "></path></clipPath><g clip-path="url(#clip0x6080020b8fc0)"><g opacity="0.19"><g><clipPath id="clip0x6080020b9200"><path d="M 332.1 50.7 L 367.4 50.7 L 367.4 82.9 L 332.1 82.9 Z M 332.1 50.7 "></path></clipPath><g clip-path="url(#clip0x6080020b9200)"><path d="M 347.4 82.8 L 367.4 50.7 L 336.1 50.8 L 336.2 50.8 L 332.1 57.2 L 347.2 82.9 " fill="#000000"></path></g></g></g><path d="M 303.9 50.7 L 327.8 50.8 L 328.4 50.7 L 332.2 57.2 L 332.1 57.2 L 316.0 82.7 L 316.1 83.0 L 300.0 57.5 L 300.0 57.3 Z M 303.9 50.7 " fill="#FFFFFF"></path></g></g></g></g><g><clipPath id="clip0x6080020b94a0"><path d="M 233.4 148.1 L 672.9 148.1 L 672.9 -7.3 L 233.4 -7.3 Z M 233.4 148.1 "></path></clipPath><g clip-path="url(#clip0x6080020b94a0)"><g><clipPath id="clip0x6080020b9620"><path d="M 253.0 10.0 L 384.0 10.0 L 384.0 133.0 L 253.0 133.0 Z M 253.0 10.0 "></path></clipPath><g clip-path="url(#clip0x6080020b9620)"><g opacity="0.19"><g><clipPath id="clip0x6080020b9800"><path d="M 300.0 50.7 L 332.2 50.7 L 332.2 83.0 L 300.0 83.0 Z M 300.0 50.7 "></path></clipPath><g clip-path="url(#clip0x6080020b9800)"><path d="M 303.9 50.7 L 327.8 50.8 L 328.4 50.7 L 332.2 57.2 L 332.1 57.2 L 316.0 82.7 L 316.1 83.0 L 300.0 57.5 L 300.0 57.3 Z M 303.9 50.7 " fill="#000000"></path></g></g></g></g></g></g></g></g></g></g></g></g><image xlink:href="../../63E96F94-3ECB-4C9D-9D7E-99B70E6EB298/assets/29B51B8953D9E84E032851B96810FA2F.png" width="611.00" height="855.00" transform="matrix(1.00, 0.00, -0.00, -1.00, 1009.3, 954.8)" opacity="0.70"></image><g><clipPath id="clip0x6080020b9920"><path d="M 1037.0 941.0 L 1593.0 941.0 L 1593.0 142.0 L 1037.0 142.0 Z M 1037.3 940.8 "></path></clipPath><g clip-path="url(#clip0x6080020b9920)"><image xlink:href="../../63E96F94-3ECB-4C9D-9D7E-99B70E6EB298/assets/287676A9412DA3D48178076B387FB12B.jpeg" width="1336.00" height="1437.00" transform="matrix(0.56, 0.00, -0.00, -0.56, 944.0, 941.0)"></image></g></g><image xlink:href="../../63E96F94-3ECB-4C9D-9D7E-99B70E6EB298/assets/733DE74CE709AB0CE8BFAB4DB349BF27.png" width="2315.00" height="505.00" transform="matrix(0.24, 0.00, -0.00, -0.24, 1037.3, 142.0)"></image><image xlink:href="../../63E96F94-3ECB-4C9D-9D7E-99B70E6EB298/assets/EB25392A9C5AC9B01F3FA78F7DD52A35.png" width="618.00" height="82.00" transform="matrix(1.00, 0.00, -0.00, -1.00, 345.0, 759.0)"></image><text xml:space="preserve" font-family="HelveticaNeue-Light,Helvetica Neue" font-size="100.0" fill="#FEFFFE" transform="matrix(1.00, 0.00, -0.00, -1.00, 342.3, 686.3)">H</text><text xml:space="preserve" font-family="HelveticaNeue-Light,Helvetica Neue" font-size="100.0" fill="#FEFFFE" transform="matrix(1.00, 0.00, -0.00, -1.00, 412.7, 686.3)">v</text><text xml:space="preserve" font-family="HelveticaNeue-Light,Helvetica Neue" font-size="100.0" fill="#FEFFFE" transform="matrix(1.00, 0.00, -0.00, -1.00, 459.0, 686.3)">a</text><text xml:space="preserve" font-family="HelveticaNeue-Light,Helvetica Neue" font-size="100.0" fill="#FEFFFE" transform="matrix(1.00, 0.00, -0.00, -1.00, 510.9, 686.3)">d</text><text xml:space="preserve" font-family="HelveticaNeue-Light,Helvetica Neue" font-size="100.0" fill="#FEFFFE" transform="matrix(1.00, 0.00, -0.00, -1.00, 568.3, 686.3)"> </text><text xml:space="preserve" font-family="HelveticaNeue-Light,Helvetica Neue" font-size="100.0" fill="#FEFFFE" transform="matrix(1.00, 0.00, -0.00, -1.00, 596.1, 686.3)">v</text><text xml:space="preserve" font-family="HelveticaNeue-Light,Helvetica Neue" font-size="100.0" fill="#FEFFFE" transform="matrix(1.00, 0.00, -0.00, -1.00, 642.4, 686.3)">e</text><text xml:space="preserve" font-family="HelveticaNeue-Light,Helvetica Neue" font-size="100.0" fill="#FEFFFE" transform="matrix(1.00, 0.00, -0.00, -1.00, 694.3, 686.3)">d</text><text xml:space="preserve" font-family="HelveticaNeue-Light,Helvetica Neue" font-size="100.0" fill="#FEFFFE" transform="matrix(1.00, 0.00, -0.00, -1.00, 751.7, 686.3)"> </text><text xml:space="preserve" font-family="HelveticaNeue-Light,Helvetica Neue" font-size="100.0" fill="#FEFFFE" transform="matrix(1.00, 0.00, -0.00, -1.00, 779.5, 686.3)">i</text><text xml:space="preserve" font-family="HelveticaNeue-Light,Helvetica Neue" font-size="100.0" fill="#FEFFFE" transform="matrix(1.00, 0.00, -0.00, -1.00, 798.0, 686.3)"> </text><text xml:space="preserve" font-family="HelveticaNeue-Light,Helvetica Neue" font-size="100.0" fill="#FEFFFE" transform="matrix(1.00, 0.00, -0.00, -1.00, 825.8, 686.3)">o</text><text xml:space="preserve" font-family="HelveticaNeue-Light,Helvetica Neue" font-size="100.0" fill="#FEFFFE" transform="matrix(1.00, 0.00, -0.00, -1.00, 881.4, 686.3)">m</text><text xml:space="preserve" font-family="HelveticaNeue-Light,Helvetica Neue" font-size="100.0" fill="#FEFFFE" transform="matrix(1.00, 0.00, -0.00, -1.00, 964.7, 686.3)"> </text><image xlink:href="../../63E96F94-3ECB-4C9D-9D7E-99B70E6EB298/assets/47CDE53422026BA253AED516636697FA.png" width="499.00" height="96.00" transform="matrix(1.00, 0.00, -0.00, -1.00, 401.0, 640.0)"></image><g><clipPath id="clip0x6080020ba460"><path d="M 299.3 544.3 L 1007.8 544.3 L 1007.8 921.1 L 299.3 921.1 Z M 299.3 544.3 "></path></clipPath><g clip-path="url(#clip0x6080020ba460)"><text xml:space="preserve" font-family="HelveticaNeue-Light,Helvetica Neue" font-size="100.0" fill="#FEFFFE" transform="matrix(1.00, 0.00, -0.00, -1.00, 406.2, 565.3)">A</text><text xml:space="preserve" font-family="HelveticaNeue-Light,Helvetica Neue" font-size="100.0" fill="#FEFFFE" transform="matrix(1.00, 0.00, -0.00, -1.00, 469.2, 565.3)">n</text><text xml:space="preserve" font-family="HelveticaNeue-Light,Helvetica Neue" font-size="100.0" fill="#FEFFFE" transform="matrix(1.00, 0.00, -0.00, -1.00, 522.9, 565.3)">g</text><text xml:space="preserve" font-family="HelveticaNeue-Light,Helvetica Neue" font-size="100.0" fill="#FEFFFE" transform="matrix(1.00, 0.00, -0.00, -1.00, 578.5, 565.3)">u</text><text xml:space="preserve" font-family="HelveticaNeue-Light,Helvetica Neue" font-size="100.0" fill="#FEFFFE" transform="matrix(1.00, 0.00, -0.00, -1.00, 632.2, 565.3)">l</text><text xml:space="preserve" font-family="HelveticaNeue-Light,Helvetica Neue" font-size="100.0" fill="#FEFFFE" transform="matrix(1.00, 0.00, -0.00, -1.00, 650.7, 565.3)">a</text><text xml:space="preserve" font-family="HelveticaNeue-Light,Helvetica Neue" font-size="100.0" fill="#FEFFFE" transform="matrix(1.00, 0.00, -0.00, -1.00, 702.6, 565.3)">r</text><text xml:space="preserve" font-family="HelveticaNeue-Light,Helvetica Neue" font-size="100.0" fill="#FEFFFE" transform="matrix(1.00, 0.00, -0.00, -1.00, 734.1, 565.3)">J</text><text xml:space="preserve" font-family="HelveticaNeue-Light,Helvetica Neue" font-size="100.0" fill="#FEFFFE" transform="matrix(1.00, 0.00, -0.00, -1.00, 784.1, 565.3)">S</text><text xml:space="preserve" font-family="HelveticaNeue-Light,Helvetica Neue" font-size="100.0" fill="#FEFFFE" transform="matrix(1.00, 0.00, -0.00, -1.00, 847.1, 565.3)">?</text></g></g><text xml:space="preserve" font-family="HelveticaNeue-Bold,Helvetica Neue" font-weight="bold" font-size="18.0" fill="#FEFFFE" transform="matrix(1.00, 0.00, -0.00, -1.00, 1647.0, 25.0)">4</text></g></svg>