<?xml version="1.0" encoding="UTF-8" standalone="no"?><svg xmlns="http://www.w3.org/2000/svg" xmlns:xlink="http://www.w3.org/1999/xlink" clip-rule="evenodd" stroke-miterlimit="10" viewBox="0 0 1920 1080"><desc>SVG generated by Keynote</desc><defs><linearGradient id="gradSh1.30" x1="0.0" y1="0.0" x2="1.0" y2="0.0" gradientUnits="userSpaceOnUse" gradientTransform="matrix(25.76, 120.39, 121.21, -25.59, 302.7, 11.3)"><stop offset="0.00000" stop-color="#000000"></stop><stop offset="0.17082" stop-color="#000001"></stop><stop offset="0.19868" stop-color="#000101"></stop><stop offset="0.21261" stop-color="#000102"></stop><stop offset="0.21848" stop-color="#010102"></stop><stop offset="0.23534" stop-color="#010103"></stop><stop offset="0.24780" stop-color="#010203"></stop><stop offset="0.25220" stop-color="#010204"></stop><stop offset="0.26613" stop-color="#010205"></stop><stop offset="0.27273" stop-color="#020205"></stop><stop offset="0.27493" stop-color="#020305"></stop><stop offset="0.29399" stop-color="#020408"></stop><stop offset="0.30132" stop-color="#020409"></stop><stop offset="0.32331" stop-color="#04060C"></stop><stop offset="0.32551" stop-color="#04060D"></stop><stop offset="0.34238" stop-color="#050810"></stop><stop offset="0.34384" stop-color="#050811"></stop><stop offset="0.37610" stop-color="#080C1A"></stop><stop offset="0.37830" stop-color="#080C1B"></stop><stop offset="0.39663" stop-color="#0A1022"></stop><stop offset="0.39883" stop-color="#0A1023"></stop><stop offset="0.43548" stop-color="#101936"></stop><stop offset="0.43695" stop-color="#101937"></stop><stop offset="0.45674" stop-color="#142044"></stop><stop offset="0.45748" stop-color="#142045"></stop><stop offset="0.50220" stop-color="#20336D"></stop><stop offset="0.50293" stop-color="#20336E"></stop><stop offset="0.52639" stop-color="#28408A"></stop><stop offset="0.52713" stop-color="#28408B"></stop><stop offset="0.57771" stop-color="#4065D9"></stop><stop offset="0.57918" stop-color="#4066D9"></stop><stop offset="0.70015" stop-color="#8099E6"></stop><stop offset="0.70235" stop-color="#819AE6"></stop><stop offset="1.00000" stop-color="#FFFFFF"></stop></linearGradient></defs><g transform="matrix(1.00, 0.00, -0.00, -1.00, 0.0, 1080.0)"><g><clipPath id="clip0x6000014b81e0"><path d="M 0.0 1080.0 L 1920.0 1080.0 L 1920.0 0.0 L 0.0 0.0 Z M 0.0 1080.0 "></path></clipPath><g clip-path="url(#clip0x6000014b81e0)"><image xlink:href="../../8532EDA3-03AF-4F95-ADCC-1003E38AE155/assets/7D0D479F0D8AC86C9E875656D9072873.jpeg" width="2048.00" height="1536.00" transform="matrix(0.94, 0.00, -0.00, -0.70, 0.0, 1080.0)"></image></g></g><image xlink:href="../../8532EDA3-03AF-4F95-ADCC-1003E38AE155/assets/92B8A543F34A3103C3297823A8CED706.png" width="187.00" height="180.00" transform="matrix(1.00, 0.00, -0.00, -1.00, 224.7, 147.4)" opacity="0.70"></image><g><clipPath id="clip0x608004abcb60"><path d="M 253.0 133.0 L 384.0 133.0 L 384.0 10.0 L 253.0 10.0 Z M 252.7 133.4 "></path></clipPath><g clip-path="url(#clip0x608004abcb60)"><g><clipPath id="clip0x608004abe240"><path d="M 253.0 10.0 L 662.0 10.0 L 662.0 133.0 L 253.0 133.0 Z M 253.0 10.0 "></path></clipPath><g clip-path="url(#clip0x608004abe240)"><g><g><clipPath id="clip0x608004abab20"><path d="M 233.4 148.1 L 672.9 148.1 L 672.9 -7.3 L 233.4 -7.3 Z M 233.4 148.1 "></path></clipPath><g clip-path="url(#clip0x608004abab20)"><g><clipPath id="clip0x608004ab9500"><path d="M 253.0 10.0 L 384.0 10.0 L 384.0 133.0 L 253.0 133.0 Z M 253.0 10.0 "></path></clipPath><g clip-path="url(#clip0x608004ab9500)"><g opacity="0.17"><g><clipPath id="clip0x608004abc740"><path d="M 253.2 10.0 L 378.0 10.0 L 378.0 133.0 L 253.2 133.0 Z M 253.2 10.0 "></path></clipPath><g clip-path="url(#clip0x608004abc740)"><path d="M 378.0 71.5 C 378.0 37.5 350.1 10.0 315.6 10.0 C 281.2 10.0 253.2 37.5 253.2 71.5 C 253.2 105.5 281.2 133.0 315.6 133.0 C 350.1 133.0 378.0 105.5 378.0 71.5 " fill="#0070BB"></path></g></g></g></g></g></g></g><g><clipPath id="clip0x6080048bcbc0"><path d="M 253.0 10.0 L 384.0 10.0 L 384.0 133.0 L 253.0 133.0 Z M 253.0 10.0 "></path></clipPath><g clip-path="url(#clip0x6080048bcbc0)"><path d="M 328.8 50.8 L 303.9 50.8 L 303.8 50.8 L 316.3 30.2 L 316.5 30.2 L 328.5 50.7 " fill="#2990B8"></path><path d="M 300.1 57.6 L 295.8 50.8 L 295.7 50.7 L 304.0 50.7 L 303.9 50.7 L 300.0 57.3 " fill="#299DBA"></path></g></g><g><clipPath id="clip0x608004abc620"><path d="M 233.4 148.1 L 672.9 148.1 L 672.9 -7.3 L 233.4 -7.3 Z M 233.4 148.1 "></path></clipPath><g clip-path="url(#clip0x608004abc620)"><g><clipPath id="clip0x608004abc020"><path d="M 253.0 10.0 L 384.0 10.0 L 384.0 133.0 L 253.0 133.0 Z M 253.0 10.0 "></path></clipPath><g clip-path="url(#clip0x608004abc020)"><g opacity="0.25"><g><clipPath id="clip0x608004ab9440"><path d="M 295.7 50.7 L 304.0 50.7 L 304.0 57.6 L 295.7 57.6 Z M 295.7 50.7 "></path></clipPath><g clip-path="url(#clip0x608004ab9440)"><path d="M 300.1 57.6 L 295.8 50.8 L 295.7 50.7 L 304.0 50.7 L 303.9 50.7 L 300.0 57.3 " fill="#000000"></path></g></g></g></g></g></g></g><g><clipPath id="clip0x608004abc3e0"><path d="M 253.0 10.0 L 384.0 10.0 L 384.0 133.0 L 253.0 133.0 Z M 253.0 10.0 "></path></clipPath><g clip-path="url(#clip0x608004abc3e0)"><path d="M 328.4 50.7 L 336.1 50.7 L 336.2 50.8 L 332.1 57.2 L 332.2 57.2 Z M 328.4 50.7 " fill="#296CAC"></path></g></g><g><clipPath id="clip0x608004abcc20"><path d="M 233.4 148.1 L 672.9 148.1 L 672.9 -7.3 L 233.4 -7.3 Z M 233.4 148.1 "></path></clipPath><g clip-path="url(#clip0x608004abcc20)"><g><clipPath id="clip0x608004abc440"><path d="M 253.0 10.0 L 384.0 10.0 L 384.0 133.0 L 253.0 133.0 Z M 253.0 10.0 "></path></clipPath><g clip-path="url(#clip0x608004abc440)"><g opacity="0.25"><g><clipPath id="clip0x608004ab9560"><path d="M 328.4 50.7 L 336.2 50.7 L 336.2 57.2 L 328.4 57.2 Z M 328.4 50.7 "></path></clipPath><g clip-path="url(#clip0x608004ab9560)"><path d="M 328.4 50.7 L 336.1 50.7 L 336.2 50.8 L 332.1 57.2 L 332.2 57.2 Z M 328.4 50.7 " fill="#000000"></path></g></g></g></g></g></g></g><g><clipPath id="clip0x608004ab9c80"><path d="M 253.0 10.0 L 384.0 10.0 L 384.0 133.0 L 253.0 133.0 Z M 253.0 10.0 "></path></clipPath><g clip-path="url(#clip0x608004ab9c80)"><path d="M 315.8 82.7 L 300.0 107.7 L 300.1 107.9 L 315.9 133.0 L 331.6 107.7 L 331.7 107.6 L 316.1 82.8 " fill="#2990B8"></path></g></g><g><clipPath id="clip0x608004abd5e0"><path d="M 233.4 148.1 L 672.9 148.1 L 672.9 -7.3 L 233.4 -7.3 Z M 233.4 148.1 "></path></clipPath><g clip-path="url(#clip0x608004abd5e0)"><g><clipPath id="clip0x608004abb2a0"><path d="M 253.0 10.0 L 384.0 10.0 L 384.0 133.0 L 253.0 133.0 Z M 253.0 10.0 "></path></clipPath><g clip-path="url(#clip0x608004abb2a0)"><path d="M 300.1 107.9 L 315.9 133.0 C 300.5 133.0 289.1 127.2 288.0 126.6 L 300.0 107.7 " fill="#2990B8"></path></g></g></g></g><g><clipPath id="clip0x608004abb7e0"><path d="M 233.4 148.1 L 672.9 148.1 L 672.9 -7.3 L 233.4 -7.3 Z M 233.4 148.1 "></path></clipPath><g clip-path="url(#clip0x608004abb7e0)"><g><clipPath id="clip0x608004abc080"><path d="M 253.0 10.0 L 384.0 10.0 L 384.0 133.0 L 253.0 133.0 Z M 253.0 10.0 "></path></clipPath><g clip-path="url(#clip0x608004abc080)"><g opacity="0.25"><g><clipPath id="clip0x608004abcb00"><path d="M 288.0 107.7 L 315.9 107.7 L 315.9 133.0 L 288.0 133.0 Z M 288.0 107.7 "></path></clipPath><g clip-path="url(#clip0x608004abcb00)"><path d="M 300.1 107.9 L 315.9 133.0 C 300.5 133.0 289.1 127.2 288.0 126.6 L 300.0 107.7 " fill="#000000"></path></g></g></g><path d="M 300.0 107.7 L 288.0 126.6 C 277.0 121.3 271.6 115.1 267.5 110.8 L 284.4 83.0 L 300.1 107.9 " fill="#2990B8"></path></g></g></g></g><g><clipPath id="clip0x608004abb420"><path d="M 233.4 148.1 L 672.9 148.1 L 672.9 -7.3 L 233.4 -7.3 Z M 233.4 148.1 "></path></clipPath><g clip-path="url(#clip0x608004abb420)"><g><clipPath id="clip0x608004abb540"><path d="M 253.0 10.0 L 384.0 10.0 L 384.0 133.0 L 253.0 133.0 Z M 253.0 10.0 "></path></clipPath><g clip-path="url(#clip0x608004abb540)"><g opacity="0.25"><g><clipPath id="clip0x608004abbf00"><path d="M 267.5 83.0 L 300.1 83.0 L 300.1 126.6 L 267.5 126.6 Z M 267.5 83.0 "></path></clipPath><g clip-path="url(#clip0x608004abbf00)"><path d="M 300.0 107.7 L 288.0 126.6 C 277.0 121.3 271.6 115.1 267.5 110.8 L 284.4 83.0 L 300.1 107.9 " fill="#000000"></path></g></g></g><path d="M 257.0 50.9 C 246.4 80.0 259.6 101.1 267.5 110.8 L 284.4 83.0 L 264.1 50.7 L 257.0 50.7 " fill="#2990B8"></path></g></g></g></g><g><clipPath id="clip0x608004abe7e0"><path d="M 233.4 148.1 L 672.9 148.1 L 672.9 -7.3 L 233.4 -7.3 Z M 233.4 148.1 "></path></clipPath><g clip-path="url(#clip0x608004abe7e0)"><g><clipPath id="clip0x608004abe960"><path d="M 253.0 10.0 L 384.0 10.0 L 384.0 133.0 L 253.0 133.0 Z M 253.0 10.0 "></path></clipPath><g clip-path="url(#clip0x608004abe960)"><g opacity="0.25"><g><clipPath id="clip0x608004abbb40"><path d="M 253.0 50.7 L 284.4 50.7 L 284.4 110.8 L 253.0 110.8 Z M 253.0 50.7 "></path></clipPath><g clip-path="url(#clip0x608004abbb40)"><path d="M 257.0 50.9 C 246.4 80.0 259.6 101.1 267.5 110.8 L 284.4 83.0 L 264.1 50.7 L 257.0 50.7 " fill="#000000"></path></g></g></g><path d="M 257.0 50.7 L 264.1 50.7 L 264.2 50.8 L 259.9 44.0 C 258.6 45.4 258.0 48.1 257.0 50.9 " fill="#2990B8"></path></g></g></g></g><g><clipPath id="clip0x608004abe4e0"><path d="M 233.4 148.1 L 672.9 148.1 L 672.9 -7.3 L 233.4 -7.3 Z M 233.4 148.1 "></path></clipPath><g clip-path="url(#clip0x608004abe4e0)"><g><clipPath id="clip0x608004abeba0"><path d="M 253.0 10.0 L 384.0 10.0 L 384.0 133.0 L 253.0 133.0 Z M 253.0 10.0 "></path></clipPath><g clip-path="url(#clip0x608004abeba0)"><g opacity="0.25"><g><clipPath id="clip0x608004abefc0"><path d="M 257.0 44.0 L 264.2 44.0 L 264.2 50.9 L 257.0 50.9 Z M 257.0 44.0 "></path></clipPath><g clip-path="url(#clip0x608004abefc0)"><path d="M 257.0 50.7 L 264.1 50.7 L 264.2 50.8 L 259.9 44.0 C 258.6 45.4 258.0 48.1 257.0 50.9 " fill="#000000"></path></g></g></g><path d="M 278.0 22.4 C 268.8 28.8 261.1 41.6 259.9 43.9 L 264.2 50.7 L 264.1 50.7 L 295.2 50.7 L 295.7 50.7 L 278.3 22.9 " fill="#2990B8"></path><path d="M 304.0 50.7 L 295.7 50.7 L 278.1 22.6 L 278.1 22.4 C 286.2 17.2 296.5 11.7 305.1 10.9 L 316.4 30.3 L 316.3 30.2 L 303.8 50.8 " fill="#299DBA"></path></g></g></g></g><g><clipPath id="clip0x608004abf8c0"><path d="M 233.4 148.1 L 672.9 148.1 L 672.9 -7.3 L 233.4 -7.3 Z M 233.4 148.1 "></path></clipPath><g clip-path="url(#clip0x608004abf8c0)"><g><clipPath id="clip0x608004abf560"><path d="M 253.0 10.0 L 384.0 10.0 L 384.0 133.0 L 253.0 133.0 Z M 253.0 10.0 "></path></clipPath><g clip-path="url(#clip0x608004abf560)"><g opacity="0.25"><g><clipPath id="clip0x608004abf1a0"><path d="M 278.1 10.9 L 316.4 10.9 L 316.4 50.8 L 278.1 50.8 Z M 278.1 10.9 "></path></clipPath><g clip-path="url(#clip0x608004abf1a0)"><path d="M 304.0 50.7 L 295.7 50.7 L 278.1 22.6 L 278.1 22.4 C 286.2 17.2 296.5 11.7 305.1 10.9 L 316.4 30.3 L 316.3 30.2 L 303.8 50.8 " fill="#000000"></path></g></g></g><path d="M 316.4 30.3 L 305.1 10.9 C 317.5 8.7 327.8 11.3 327.8 11.3 L 316.3 30.2 " fill="#296CAC"></path></g></g></g></g><g><clipPath id="clip0x608004abf440"><path d="M 233.4 148.1 L 672.9 148.1 L 672.9 -7.3 L 233.4 -7.3 Z M 233.4 148.1 "></path></clipPath><g clip-path="url(#clip0x608004abf440)"><g><clipPath id="clip0x608004abef00"><path d="M 253.0 10.0 L 384.0 10.0 L 384.0 133.0 L 253.0 133.0 Z M 253.0 10.0 "></path></clipPath><g clip-path="url(#clip0x608004abef00)"><g opacity="0.25"><g><clipPath id="clip0x608004abf740"><path d="M 305.1 10.0 L 327.8 10.0 L 327.8 30.3 L 305.1 30.3 Z M 305.1 10.0 "></path></clipPath><g clip-path="url(#clip0x608004abf740)"><path d="M 316.4 30.3 L 305.1 10.9 C 317.5 8.7 327.8 11.3 327.8 11.3 L 316.3 30.2 " fill="#000000"></path></g></g></g><path d="M 328.6 50.8 L 336.1 50.8 L 336.1 50.8 L 353.7 22.9 C 353.7 22.9 342.2 13.5 327.8 11.3 L 316.3 30.2 L 316.5 30.2 L 328.5 50.7 " fill="#296CAC"></path></g></g></g></g><g><clipPath id="clip0x608004ca0720"><path d="M 233.4 148.1 L 672.9 148.1 L 672.9 -7.3 L 233.4 -7.3 Z M 233.4 148.1 "></path></clipPath><g clip-path="url(#clip0x608004ca0720)"><g><clipPath id="clip0x608004ca05a0"><path d="M 253.0 10.0 L 384.0 10.0 L 384.0 133.0 L 253.0 133.0 Z M 253.0 10.0 "></path></clipPath><g clip-path="url(#clip0x608004ca05a0)"><g opacity="0.25"><g><clipPath id="clip0x608004ca04e0"><path d="M 316.3 11.3 L 353.7 11.3 L 353.7 50.8 L 316.3 50.8 Z M 316.3 11.3 "></path></clipPath><g clip-path="url(#clip0x608004ca04e0)"><path d="M 328.6 50.8 L 336.1 50.8 L 336.1 50.8 L 353.7 22.9 C 353.7 22.9 342.2 13.5 327.8 11.3 L 316.3 30.2 L 316.5 30.2 L 328.5 50.7 " fill="#000000"></path></g></g></g><path d="M 367.5 50.7 L 371.6 44.3 C 371.6 44.3 362.2 27.9 353.7 22.9 L 336.1 50.8 L 367.4 50.7 " fill="#298AB8"></path><path d="M 367.5 50.7 L 371.6 44.3 C 372.4 46.0 374.3 50.8 374.3 50.8 L 367.4 50.7 " fill="#2990B8"></path></g></g></g></g><g><clipPath id="clip0x608004ca01e0"><path d="M 233.4 148.1 L 672.9 148.1 L 672.9 -7.3 L 233.4 -7.3 Z M 233.4 148.1 "></path></clipPath><g clip-path="url(#clip0x608004ca01e0)"><g><clipPath id="clip0x608004abfda0"><path d="M 253.0 10.0 L 384.0 10.0 L 384.0 133.0 L 253.0 133.0 Z M 253.0 10.0 "></path></clipPath><g clip-path="url(#clip0x608004abfda0)"><g opacity="0.25"><g><clipPath id="clip0x608004ca0840"><path d="M 367.4 44.3 L 374.3 44.3 L 374.3 50.8 L 367.4 50.8 Z M 367.4 44.3 "></path></clipPath><g clip-path="url(#clip0x608004ca0840)"><path d="M 367.5 50.7 L 371.6 44.3 C 372.4 46.0 374.3 50.8 374.3 50.8 L 367.4 50.7 " fill="#000000"></path></g></g></g><path d="M 347.4 82.8 L 363.7 110.8 C 367.5 105.6 386.1 81.4 374.3 50.8 L 367.4 50.7 Z M 347.4 82.8 " fill="#2990B8"></path></g></g></g></g><g><clipPath id="clip0x6000014b6320"><path d="M 233.4 148.1 L 672.9 148.1 L 672.9 -7.3 L 233.4 -7.3 Z M 233.4 148.1 "></path></clipPath><g clip-path="url(#clip0x6000014b6320)"><g><clipPath id="clip0x6000014b67a0"><path d="M 253.0 10.0 L 384.0 10.0 L 384.0 133.0 L 253.0 133.0 Z M 253.0 10.0 "></path></clipPath><g clip-path="url(#clip0x6000014b67a0)"><g opacity="0.25"><g><clipPath id="clip0x6000014b6c20"><path d="M 347.4 50.7 L 378.2 50.7 L 378.2 110.8 L 347.4 110.8 Z M 347.4 50.7 "></path></clipPath><g clip-path="url(#clip0x6000014b6c20)"><path d="M 347.4 82.8 L 363.7 110.8 C 367.5 105.6 386.1 81.4 374.3 50.8 L 367.4 50.7 Z M 347.4 82.8 " fill="#000000"></path></g></g></g><path d="M 347.4 82.8 L 363.7 110.8 C 355.0 121.3 343.5 126.5 343.5 126.5 L 331.6 107.7 L 331.6 107.8 L 347.4 82.5 " fill="#2990B8"></path></g></g></g></g><g><clipPath id="clip0x600001cb3b60"><path d="M 233.4 148.1 L 672.9 148.1 L 672.9 -7.3 L 233.4 -7.3 Z M 233.4 148.1 "></path></clipPath><g clip-path="url(#clip0x600001cb3b60)"><g><clipPath id="clip0x6000014b6e00"><path d="M 253.0 10.0 L 384.0 10.0 L 384.0 133.0 L 253.0 133.0 Z M 253.0 10.0 "></path></clipPath><g clip-path="url(#clip0x6000014b6e00)"><g opacity="0.25"><g><clipPath id="clip0x600001cb38c0"><path d="M 331.6 82.5 L 363.7 82.5 L 363.7 126.5 L 331.6 126.5 Z M 331.6 82.5 "></path></clipPath><g clip-path="url(#clip0x600001cb38c0)"><path d="M 347.4 82.8 L 363.7 110.8 C 355.0 121.3 343.5 126.5 343.5 126.5 L 331.6 107.7 L 331.6 107.8 L 347.4 82.5 " fill="#000000"></path></g></g></g><path d="M 343.5 126.5 C 328.8 133.7 315.9 133.0 315.9 133.0 L 331.6 107.7 Z M 343.5 126.5 " fill="#2990B8"></path></g></g></g></g><g><clipPath id="clip0x600001cb3680"><path d="M 233.4 148.1 L 672.9 148.1 L 672.9 -7.3 L 233.4 -7.3 Z M 233.4 148.1 "></path></clipPath><g clip-path="url(#clip0x600001cb3680)"><g><clipPath id="clip0x600001cb3740"><path d="M 253.0 10.0 L 384.0 10.0 L 384.0 133.0 L 253.0 133.0 Z M 253.0 10.0 "></path></clipPath><g clip-path="url(#clip0x600001cb3740)"><g opacity="0.25"><g><clipPath id="clip0x600001cb3500"><path d="M 315.9 107.7 L 343.5 107.7 L 343.5 133.0 L 315.9 133.0 Z M 315.9 107.7 "></path></clipPath><g clip-path="url(#clip0x600001cb3500)"><path d="M 343.5 126.5 C 328.8 133.7 315.9 133.0 315.9 133.0 L 331.6 107.7 Z M 343.5 126.5 " fill="#000000"></path></g></g></g></g></g></g></g><g><clipPath id="clip0x600001cb2ea0"><path d="M 233.4 148.1 L 672.9 148.1 L 672.9 -7.3 L 233.4 -7.3 Z M 233.4 148.1 "></path></clipPath><g clip-path="url(#clip0x600001cb2ea0)"><g><clipPath id="clip0x6000008a7f80"><path d="M 253.0 10.0 L 384.0 10.0 L 384.0 133.0 L 253.0 133.0 Z M 253.0 10.0 "></path></clipPath><g clip-path="url(#clip0x6000008a7f80)"><g opacity="0.53"><g><clipPath id="clip0x600001cb3200"><path d="M 378.2 71.5 C 378.2 37.5 350.1 10.0 315.6 10.0 C 281.0 10.0 253.0 37.5 253.0 71.5 C 253.0 105.5 281.0 133.0 315.6 133.0 C 350.1 133.0 378.2 105.5 378.2 71.5 "></path></clipPath><g clip-path="url(#clip0x600001cb3200)"><g><clipPath id="clip0x608004ca09c0"><path d="M 253.0 10.0 L 378.2 10.0 L 378.2 133.0 L 253.0 133.0 Z M 253.0 10.0 "></path></clipPath><g clip-path="url(#clip0x608004ca09c0)"><path d="M 253.0 10.0 L 378.2 10.0 L 378.2 133.0 L 253.0 133.0 Z M 253.0 10.0 " fill="url(#gradSh1.30)"></path></g></g></g></g></g><path d="M 264.6 50.7 L 295.7 50.7 L 295.8 50.8 L 300.1 57.6 L 300.0 57.4 L 284.6 82.9 L 284.4 83.0 L 264.1 50.6 " fill="#FFFFFF"></path><path d="M 347.4 82.8 L 367.4 50.7 L 336.1 50.8 L 336.2 50.8 L 332.1 57.2 L 347.2 82.9 " fill="#FFFFFF"></path><path d="M 303.9 50.7 L 327.8 50.8 L 328.4 50.7 L 332.2 57.2 L 332.1 57.2 L 316.0 82.7 L 316.1 83.0 L 300.0 57.5 L 300.0 57.3 Z M 303.9 50.7 " fill="#FFFFFF"></path><path d="M 347.2 82.9 L 332.1 57.2 L 316.0 82.7 L 316.1 82.8 L 331.7 107.6 L 331.6 107.8 L 347.4 82.5 " fill="#FFFFFF"></path><path d="M 316.1 83.0 L 300.0 57.5 L 300.0 57.4 L 284.6 82.9 L 284.4 83.0 L 300.1 107.9 L 300.0 107.7 L 315.8 82.7 " fill="#FFFFFF"></path><path d="M 264.6 50.7 L 295.7 50.7 L 295.8 50.8 L 300.1 57.6 L 300.0 57.4 L 284.6 82.9 L 284.4 83.0 L 264.1 50.6 " fill="#FFFFFF"></path></g></g></g></g><g><clipPath id="clip0x600001eaae60"><path d="M 233.4 148.1 L 672.9 148.1 L 672.9 -7.3 L 233.4 -7.3 Z M 233.4 148.1 "></path></clipPath><g clip-path="url(#clip0x600001eaae60)"><g><clipPath id="clip0x600001eaafe0"><path d="M 253.0 10.0 L 384.0 10.0 L 384.0 133.0 L 253.0 133.0 Z M 253.0 10.0 "></path></clipPath><g clip-path="url(#clip0x600001eaafe0)"><g opacity="0.19"><g><clipPath id="clip0x608004ca9240"><path d="M 264.1 50.6 L 300.1 50.6 L 300.1 83.0 L 264.1 83.0 Z M 264.1 50.6 "></path></clipPath><g clip-path="url(#clip0x608004ca9240)"><path d="M 264.6 50.7 L 295.7 50.7 L 295.8 50.8 L 300.1 57.6 L 300.0 57.4 L 284.6 82.9 L 284.4 83.0 L 264.1 50.6 " fill="#000000"></path></g></g></g><path d="M 347.4 82.8 L 367.4 50.7 L 336.1 50.8 L 336.2 50.8 L 332.1 57.2 L 347.2 82.9 " fill="#FFFFFF"></path></g></g></g></g><g><clipPath id="clip0x608004ca89a0"><path d="M 233.4 148.1 L 672.9 148.1 L 672.9 -7.3 L 233.4 -7.3 Z M 233.4 148.1 "></path></clipPath><g clip-path="url(#clip0x608004ca89a0)"><g><clipPath id="clip0x608004ca8b80"><path d="M 253.0 10.0 L 384.0 10.0 L 384.0 133.0 L 253.0 133.0 Z M 253.0 10.0 "></path></clipPath><g clip-path="url(#clip0x608004ca8b80)"><g opacity="0.19"><g><clipPath id="clip0x608004ca8a00"><path d="M 332.1 50.7 L 367.4 50.7 L 367.4 82.9 L 332.1 82.9 Z M 332.1 50.7 "></path></clipPath><g clip-path="url(#clip0x608004ca8a00)"><path d="M 347.4 82.8 L 367.4 50.7 L 336.1 50.8 L 336.2 50.8 L 332.1 57.2 L 347.2 82.9 " fill="#000000"></path></g></g></g><path d="M 303.9 50.7 L 327.8 50.8 L 328.4 50.7 L 332.2 57.2 L 332.1 57.2 L 316.0 82.7 L 316.1 83.0 L 300.0 57.5 L 300.0 57.3 Z M 303.9 50.7 " fill="#FFFFFF"></path></g></g></g></g><g><clipPath id="clip0x608004ca8460"><path d="M 233.4 148.1 L 672.9 148.1 L 672.9 -7.3 L 233.4 -7.3 Z M 233.4 148.1 "></path></clipPath><g clip-path="url(#clip0x608004ca8460)"><g><clipPath id="clip0x608004ca85e0"><path d="M 253.0 10.0 L 384.0 10.0 L 384.0 133.0 L 253.0 133.0 Z M 253.0 10.0 "></path></clipPath><g clip-path="url(#clip0x608004ca85e0)"><g opacity="0.19"><g><clipPath id="clip0x608004ca8220"><path d="M 300.0 50.7 L 332.2 50.7 L 332.2 83.0 L 300.0 83.0 Z M 300.0 50.7 "></path></clipPath><g clip-path="url(#clip0x608004ca8220)"><path d="M 303.9 50.7 L 327.8 50.8 L 328.4 50.7 L 332.2 57.2 L 332.1 57.2 L 316.0 82.7 L 316.1 83.0 L 300.0 57.5 L 300.0 57.3 Z M 303.9 50.7 " fill="#000000"></path></g></g></g></g></g></g></g></g></g></g></g></g><image xlink:href="../../02A8D52E-44AD-4BB0-8FC0-F1A3BA6CF8C9/assets/8FCAC4416F4B440930880191D3E934B7.png" width="756.00" height="88.00" transform="matrix(1.00, 0.00, -0.00, -1.00, 581.0, 959.0)"></image><text xml:space="preserve" font-family="HelveticaNeue-Light,Helvetica Neue" font-size="100.0" fill="#FEFFFE" transform="matrix(1.00, 0.00, -0.00, -1.00, 582.1, 879.5)">S</text><text xml:space="preserve" font-family="HelveticaNeue-Light,Helvetica Neue" font-size="100.0" fill="#FEFFFE" transform="matrix(1.00, 0.00, -0.00, -1.00, 645.1, 879.5)">å</text><text xml:space="preserve" font-family="HelveticaNeue-Light,Helvetica Neue" font-size="100.0" fill="#FEFFFE" transform="matrix(1.00, 0.00, -0.00, -1.00, 697.0, 879.5)"> </text><text xml:space="preserve" font-family="HelveticaNeue-Light,Helvetica Neue" font-size="100.0" fill="#FEFFFE" transform="matrix(1.00, 0.00, -0.00, -1.00, 724.8, 879.5)">h</text><text xml:space="preserve" font-family="HelveticaNeue-Light,Helvetica Neue" font-size="100.0" fill="#FEFFFE" transform="matrix(1.00, 0.00, -0.00, -1.00, 778.5, 879.5)">v</text><text xml:space="preserve" font-family="HelveticaNeue-Light,Helvetica Neue" font-size="100.0" fill="#FEFFFE" transform="matrix(1.00, 0.00, -0.00, -1.00, 824.8, 879.5)">a</text><text xml:space="preserve" font-family="HelveticaNeue-Light,Helvetica Neue" font-size="100.0" fill="#FEFFFE" transform="matrix(1.00, 0.00, -0.00, -1.00, 876.7, 879.5)">d</text><text xml:space="preserve" font-family="HelveticaNeue-Light,Helvetica Neue" font-size="100.0" fill="#FEFFFE" transform="matrix(1.00, 0.00, -0.00, -1.00, 934.1, 879.5)"> </text><text xml:space="preserve" font-family="HelveticaNeue-Light,Helvetica Neue" font-size="100.0" fill="#FEFFFE" transform="matrix(1.00, 0.00, -0.00, -1.00, 961.9, 879.5)">k</text><text xml:space="preserve" font-family="HelveticaNeue-Light,Helvetica Neue" font-size="100.0" fill="#FEFFFE" transform="matrix(1.00, 0.00, -0.00, -1.00, 1011.9, 879.5)">a</text><text xml:space="preserve" font-family="HelveticaNeue-Light,Helvetica Neue" font-size="100.0" fill="#FEFFFE" transform="matrix(1.00, 0.00, -0.00, -1.00, 1063.8, 879.5)">n</text><text xml:space="preserve" font-family="HelveticaNeue-Light,Helvetica Neue" font-size="100.0" fill="#FEFFFE" transform="matrix(1.00, 0.00, -0.00, -1.00, 1117.5, 879.5)"> </text><text xml:space="preserve" font-family="HelveticaNeue-Light,Helvetica Neue" font-size="100.0" fill="#FEFFFE" transform="matrix(1.00, 0.00, -0.00, -1.00, 1145.3, 879.5)">d</text><text xml:space="preserve" font-family="HelveticaNeue-Light,Helvetica Neue" font-size="100.0" fill="#FEFFFE" transform="matrix(1.00, 0.00, -0.00, -1.00, 1202.7, 879.5)">e</text><text xml:space="preserve" font-family="HelveticaNeue-Light,Helvetica Neue" font-size="100.0" fill="#FEFFFE" transform="matrix(1.00, 0.00, -0.00, -1.00, 1254.6, 879.5)">t</text><text xml:space="preserve" font-family="HelveticaNeue-Light,Helvetica Neue" font-size="100.0" fill="#FEFFFE" transform="matrix(1.00, 0.00, -0.00, -1.00, 1284.2, 879.5)">?</text><image xlink:href="../../63E96F94-3ECB-4C9D-9D7E-99B70E6EB298/assets/5594DC8059EB904084D60818A1308CE9.png" width="19.00" height="19.00" transform="matrix(1.00, 0.00, -0.00, -1.00, 332.0, 746.0)"></image><g><clipPath id="clip0x608004ca7a40"><path d="M 332.8 727.9 L 350.4 727.9 L 350.4 745.6 L 332.8 745.6 Z M 332.8 727.9 "></path></clipPath><g clip-path="url(#clip0x608004ca7a40)"><g><g><clipPath id="clip0x608004ca7500"><path d="M 332.8 745.6 L 350.4 745.6 L 350.4 727.9 L 332.8 727.9 Z M 332.8 745.6 "></path></clipPath><g clip-path="url(#clip0x608004ca7500)"><g><clipPath id="clip0x608004ca6fc0"><path d="M 328.0 720.0 L 355.0 720.0 L 355.0 753.0 L 328.0 753.0 Z M 328.0 720.0 "></path></clipPath><g clip-path="url(#clip0x608004ca6fc0)"><path d="M 350.4 742.1 C 350.4 742.8 350.1 743.6 349.3 744.4 C 348.6 745.2 347.8 745.6 346.9 745.6 C 346.5 745.6 345.9 745.4 345.0 745.0 C 343.7 744.3 342.5 744.0 341.6 744.0 C 340.6 744.0 339.4 744.3 338.1 745.0 C 337.3 745.4 336.7 745.6 336.3 745.6 C 335.4 745.6 334.7 745.2 333.9 744.5 C 333.2 743.7 332.8 742.9 332.8 742.1 C 332.8 741.7 333.0 741.0 333.4 740.1 C 334.0 738.8 334.3 737.7 334.3 736.8 C 334.3 735.8 334.0 734.7 333.4 733.3 C 333.0 732.5 332.8 731.9 332.8 731.5 C 332.8 730.6 333.2 729.8 333.9 729.1 C 334.7 728.3 335.4 727.9 336.3 727.9 C 336.7 727.9 337.3 728.1 338.1 728.5 C 339.4 729.2 340.6 729.5 341.6 729.5 C 342.5 729.5 343.7 729.2 345.0 728.5 C 345.9 728.1 346.5 727.9 346.9 727.9 C 347.8 727.9 348.6 728.3 349.3 729.1 C 350.1 729.8 350.4 730.6 350.4 731.5 C 350.4 731.9 350.2 732.5 349.8 733.3 C 349.2 734.7 348.8 735.8 348.8 736.8 C 348.8 737.7 349.2 738.8 349.8 740.1 C 350.2 741.0 350.4 741.7 350.4 742.1 " fill="#FFFFFF"></path></g></g></g></g></g></g></g><image xlink:href="../../02A8D52E-44AD-4BB0-8FC0-F1A3BA6CF8C9/assets/7B00AA600A4917B360B0147ADF7F7A96.png" width="474.00" height="55.00" transform="matrix(1.00, 0.00, -0.00, -1.00, 377.0, 757.0)"></image><text xml:space="preserve" font-family="HelveticaNeue-Light,Helvetica Neue" font-size="50.0" fill="#FEFFFE" transform="matrix(1.00, 0.00, -0.00, -1.00, 381.4, 719.9)">A</text><text xml:space="preserve" font-family="HelveticaNeue-Light,Helvetica Neue" font-size="50.0" fill="#FEFFFE" transform="matrix(1.00, 0.00, -0.00, -1.00, 412.9, 719.9)">n</text><text xml:space="preserve" font-family="HelveticaNeue-Light,Helvetica Neue" font-size="50.0" fill="#FEFFFE" transform="matrix(1.00, 0.00, -0.00, -1.00, 439.8, 719.9)">g</text><text xml:space="preserve" font-family="HelveticaNeue-Light,Helvetica Neue" font-size="50.0" fill="#FEFFFE" transform="matrix(1.00, 0.00, -0.00, -1.00, 467.6, 719.9)">u</text><text xml:space="preserve" font-family="HelveticaNeue-Light,Helvetica Neue" font-size="50.0" fill="#FEFFFE" transform="matrix(1.00, 0.00, -0.00, -1.00, 494.4, 719.9)">l</text><text xml:space="preserve" font-family="HelveticaNeue-Light,Helvetica Neue" font-size="50.0" fill="#FEFFFE" transform="matrix(1.00, 0.00, -0.00, -1.00, 503.7, 719.9)">a</text><text xml:space="preserve" font-family="HelveticaNeue-Light,Helvetica Neue" font-size="50.0" fill="#FEFFFE" transform="matrix(1.00, 0.00, -0.00, -1.00, 529.6, 719.9)">r</text><text xml:space="preserve" font-family="HelveticaNeue-Light,Helvetica Neue" font-size="50.0" fill="#FEFFFE" transform="matrix(1.00, 0.00, -0.00, -1.00, 545.4, 719.9)"> </text><text xml:space="preserve" font-family="HelveticaNeue-Light,Helvetica Neue" font-size="50.0" fill="#FEFFFE" transform="matrix(1.00, 0.00, -0.00, -1.00, 559.3, 719.9)">k</text><text xml:space="preserve" font-family="HelveticaNeue-Light,Helvetica Neue" font-size="50.0" fill="#FEFFFE" transform="matrix(1.00, 0.00, -0.00, -1.00, 584.3, 719.9)">a</text><text xml:space="preserve" font-family="HelveticaNeue-Light,Helvetica Neue" font-size="50.0" fill="#FEFFFE" transform="matrix(1.00, 0.00, -0.00, -1.00, 610.2, 719.9)">n</text><text xml:space="preserve" font-family="HelveticaNeue-Light,Helvetica Neue" font-size="50.0" fill="#FEFFFE" transform="matrix(1.00, 0.00, -0.00, -1.00, 637.1, 719.9)"> </text><text xml:space="preserve" font-family="HelveticaNeue-Light,Helvetica Neue" font-size="50.0" fill="#FEFFFE" transform="matrix(1.00, 0.00, -0.00, -1.00, 651.0, 719.9)">g</text><text xml:space="preserve" font-family="HelveticaNeue-Light,Helvetica Neue" font-size="50.0" fill="#FEFFFE" transform="matrix(1.00, 0.00, -0.00, -1.00, 678.8, 719.9)">i</text><text xml:space="preserve" font-family="HelveticaNeue-Light,Helvetica Neue" font-size="50.0" fill="#FEFFFE" transform="matrix(1.00, 0.00, -0.00, -1.00, 688.0, 719.9)">v</text><text xml:space="preserve" font-family="HelveticaNeue-Light,Helvetica Neue" font-size="50.0" fill="#FEFFFE" transform="matrix(1.00, 0.00, -0.00, -1.00, 711.2, 719.9)">e</text><text xml:space="preserve" font-family="HelveticaNeue-Light,Helvetica Neue" font-size="50.0" fill="#FEFFFE" transform="matrix(1.00, 0.00, -0.00, -1.00, 737.1, 719.9)"> </text><text xml:space="preserve" font-family="HelveticaNeue-Light,Helvetica Neue" font-size="50.0" fill="#FEFFFE" transform="matrix(1.00, 0.00, -0.00, -1.00, 751.0, 719.9)">o</text><text xml:space="preserve" font-family="HelveticaNeue-Light,Helvetica Neue" font-size="50.0" fill="#FEFFFE" transform="matrix(1.00, 0.00, -0.00, -1.00, 778.8, 719.9)">s</text><text xml:space="preserve" font-family="HelveticaNeue-Light,Helvetica Neue" font-size="50.0" fill="#FEFFFE" transform="matrix(1.00, 0.00, -0.00, -1.00, 802.9, 719.9)">…</text><image xlink:href="../../63E96F94-3ECB-4C9D-9D7E-99B70E6EB298/assets/5594DC8059EB904084D60818A1308CE9.png" width="19.00" height="19.00" transform="matrix(1.00, 0.00, -0.00, -1.00, 367.0, 650.0)"></image><g><clipPath id="clip0x608004ca68a0"><path d="M 367.8 631.9 L 385.4 631.9 L 385.4 649.6 L 367.8 649.6 Z M 367.8 631.9 "></path></clipPath><g clip-path="url(#clip0x608004ca68a0)"><g><g><clipPath id="clip0x608004ca65a0"><path d="M 367.8 649.6 L 385.4 649.6 L 385.4 631.9 L 367.8 631.9 Z M 367.8 649.6 "></path></clipPath><g clip-path="url(#clip0x608004ca65a0)"><g><clipPath id="clip0x608004ca47a0"><path d="M 363.0 624.0 L 390.0 624.0 L 390.0 657.0 L 363.0 657.0 Z M 363.0 624.0 "></path></clipPath><g clip-path="url(#clip0x608004ca47a0)"><path d="M 385.4 646.1 C 385.4 646.8 385.1 647.6 384.3 648.4 C 383.6 649.2 382.8 649.6 381.9 649.6 C 381.5 649.6 380.9 649.4 380.0 649.0 C 378.7 648.3 377.5 648.0 376.6 648.0 C 375.6 648.0 374.4 648.3 373.1 649.0 C 372.3 649.4 371.7 649.6 371.3 649.6 C 370.4 649.6 369.7 649.2 368.9 648.5 C 368.2 647.7 367.8 646.9 367.8 646.1 C 367.8 645.7 368.0 645.0 368.4 644.1 C 369.0 642.8 369.3 641.7 369.3 640.8 C 369.3 639.8 369.0 638.7 368.4 637.3 C 368.0 636.5 367.8 635.9 367.8 635.5 C 367.8 634.6 368.2 633.8 368.9 633.1 C 369.7 632.3 370.4 631.9 371.3 631.9 C 371.7 631.9 372.3 632.1 373.1 632.5 C 374.4 633.2 375.6 633.5 376.6 633.5 C 377.5 633.5 378.7 633.2 380.0 632.5 C 380.9 632.1 381.5 631.9 381.9 631.9 C 382.8 631.9 383.6 632.3 384.3 633.1 C 385.1 633.8 385.4 634.6 385.4 635.5 C 385.4 635.9 385.2 636.5 384.8 637.3 C 384.2 638.7 383.8 639.8 383.8 640.8 C 383.8 641.7 384.2 642.8 384.8 644.1 C 385.2 645.0 385.4 645.7 385.4 646.1 " fill="#FFFFFF"></path></g></g></g></g></g></g></g><image xlink:href="../../2F2D75E5-D037-4AB8-B224-35D8FD85E11D/assets/56C9863CAD1490F7BCF65716EF0391CD.png" width="279.00" height="55.00" transform="matrix(1.00, 0.00, -0.00, -1.00, 416.0, 661.0)"></image><text xml:space="preserve" font-family="HelveticaNeue-Light,Helvetica Neue" font-size="50.0" fill="#FEFFFE" transform="matrix(1.00, 0.00, -0.00, -1.00, 416.4, 623.9)">D</text><text xml:space="preserve" font-family="HelveticaNeue-Light,Helvetica Neue" font-size="50.0" fill="#FEFFFE" transform="matrix(1.00, 0.00, -0.00, -1.00, 450.7, 623.9)">a</text><text xml:space="preserve" font-family="HelveticaNeue-Light,Helvetica Neue" font-size="50.0" fill="#FEFFFE" transform="matrix(1.00, 0.00, -0.00, -1.00, 476.6, 623.9)">t</text><text xml:space="preserve" font-family="HelveticaNeue-Light,Helvetica Neue" font-size="50.0" fill="#FEFFFE" transform="matrix(1.00, 0.00, -0.00, -1.00, 491.4, 623.9)">a</text><text xml:space="preserve" font-family="HelveticaNeue-Light,Helvetica Neue" font-size="50.0" fill="#FEFFFE" transform="matrix(1.00, 0.00, -0.00, -1.00, 517.4, 623.9)">-</text><text xml:space="preserve" font-family="HelveticaNeue-Light,Helvetica Neue" font-size="50.0" fill="#FEFFFE" transform="matrix(1.00, 0.00, -0.00, -1.00, 535.9, 623.9)">b</text><text xml:space="preserve" font-family="HelveticaNeue-Light,Helvetica Neue" font-size="50.0" fill="#FEFFFE" transform="matrix(1.00, 0.00, -0.00, -1.00, 564.6, 623.9)">i</text><text xml:space="preserve" font-family="HelveticaNeue-Light,Helvetica Neue" font-size="50.0" fill="#FEFFFE" transform="matrix(1.00, 0.00, -0.00, -1.00, 573.8, 623.9)">n</text><text xml:space="preserve" font-family="HelveticaNeue-Light,Helvetica Neue" font-size="50.0" fill="#FEFFFE" transform="matrix(1.00, 0.00, -0.00, -1.00, 600.7, 623.9)">d</text><text xml:space="preserve" font-family="HelveticaNeue-Light,Helvetica Neue" font-size="50.0" fill="#FEFFFE" transform="matrix(1.00, 0.00, -0.00, -1.00, 629.4, 623.9)">i</text><text xml:space="preserve" font-family="HelveticaNeue-Light,Helvetica Neue" font-size="50.0" fill="#FEFFFE" transform="matrix(1.00, 0.00, -0.00, -1.00, 638.6, 623.9)">n</text><text xml:space="preserve" font-family="HelveticaNeue-Light,Helvetica Neue" font-size="50.0" fill="#FEFFFE" transform="matrix(1.00, 0.00, -0.00, -1.00, 665.5, 623.9)">g</text><image xlink:href="../../63E96F94-3ECB-4C9D-9D7E-99B70E6EB298/assets/5594DC8059EB904084D60818A1308CE9.png" width="19.00" height="19.00" transform="matrix(1.00, 0.00, -0.00, -1.00, 367.0, 554.0)"></image><g><clipPath id="clip0x600001eab4c0"><path d="M 367.8 535.9 L 385.4 535.9 L 385.4 553.6 L 367.8 553.6 Z M 367.8 535.9 "></path></clipPath><g clip-path="url(#clip0x600001eab4c0)"><g><g><clipPath id="clip0x600001eab880"><path d="M 367.8 553.6 L 385.4 553.6 L 385.4 535.9 L 367.8 535.9 Z M 367.8 553.6 "></path></clipPath><g clip-path="url(#clip0x600001eab880)"><g><clipPath id="clip0x600001eaba00"><path d="M 363.0 528.0 L 390.0 528.0 L 390.0 561.0 L 363.0 561.0 Z M 363.0 528.0 "></path></clipPath><g clip-path="url(#clip0x600001eaba00)"><path d="M 385.4 550.1 C 385.4 550.8 385.1 551.6 384.3 552.4 C 383.6 553.2 382.8 553.6 381.9 553.6 C 381.5 553.6 380.9 553.4 380.0 553.0 C 378.7 552.3 377.5 552.0 376.6 552.0 C 375.6 552.0 374.4 552.3 373.1 553.0 C 372.3 553.4 371.7 553.6 371.3 553.6 C 370.4 553.6 369.7 553.2 368.9 552.5 C 368.2 551.7 367.8 550.9 367.8 550.1 C 367.8 549.7 368.0 549.0 368.4 548.1 C 369.0 546.8 369.3 545.7 369.3 544.8 C 369.3 543.8 369.0 542.7 368.4 541.3 C 368.0 540.5 367.8 539.9 367.8 539.5 C 367.8 538.6 368.2 537.8 368.9 537.1 C 369.7 536.3 370.4 535.9 371.3 535.9 C 371.7 535.9 372.3 536.1 373.1 536.5 C 374.4 537.2 375.6 537.5 376.6 537.5 C 377.5 537.5 378.7 537.2 380.0 536.5 C 380.9 536.1 381.5 535.9 381.9 535.9 C 382.8 535.9 383.6 536.3 384.3 537.1 C 385.1 537.8 385.4 538.6 385.4 539.5 C 385.4 539.9 385.2 540.5 384.8 541.3 C 384.2 542.7 383.8 543.8 383.8 544.8 C 383.8 545.7 384.2 546.8 384.8 548.1 C 385.2 549.0 385.4 549.7 385.4 550.1 " fill="#FFFFFF"></path></g></g></g></g></g></g></g><image xlink:href="../../2F2D75E5-D037-4AB8-B224-35D8FD85E11D/assets/11539E6D1AF377B6D5131000CB593A7B.png" width="859.00" height="56.00" transform="matrix(1.00, 0.00, -0.00, -1.00, 415.0, 566.0)"></image><text xml:space="preserve" font-family="HelveticaNeue-Light,Helvetica Neue" font-size="50.0" fill="#FEFFFE" transform="matrix(1.00, 0.00, -0.00, -1.00, 416.4, 527.9)">M</text><text xml:space="preserve" font-family="HelveticaNeue-Light,Helvetica Neue" font-size="50.0" fill="#FEFFFE" transform="matrix(1.00, 0.00, -0.00, -1.00, 457.5, 527.9)">o</text><text xml:space="preserve" font-family="HelveticaNeue-Light,Helvetica Neue" font-size="50.0" fill="#FEFFFE" transform="matrix(1.00, 0.00, -0.00, -1.00, 485.3, 527.9)">d</text><text xml:space="preserve" font-family="HelveticaNeue-Light,Helvetica Neue" font-size="50.0" fill="#FEFFFE" transform="matrix(1.00, 0.00, -0.00, -1.00, 514.0, 527.9)">u</text><text xml:space="preserve" font-family="HelveticaNeue-Light,Helvetica Neue" font-size="50.0" fill="#FEFFFE" transform="matrix(1.00, 0.00, -0.00, -1.00, 540.8, 527.9)">l</text><text xml:space="preserve" font-family="HelveticaNeue-Light,Helvetica Neue" font-size="50.0" fill="#FEFFFE" transform="matrix(1.00, 0.00, -0.00, -1.00, 550.1, 527.9)">æ</text><text xml:space="preserve" font-family="HelveticaNeue-Light,Helvetica Neue" font-size="50.0" fill="#FEFFFE" transform="matrix(1.00, 0.00, -0.00, -1.00, 593.6, 527.9)">r</text><text xml:space="preserve" font-family="HelveticaNeue-Light,Helvetica Neue" font-size="50.0" fill="#FEFFFE" transform="matrix(1.00, 0.00, -0.00, -1.00, 609.3, 527.9)">/</text><text xml:space="preserve" font-family="HelveticaNeue-Light,Helvetica Neue" font-size="50.0" fill="#FEFFFE" transform="matrix(1.00, 0.00, -0.00, -1.00, 626.0, 527.9)">k</text><text xml:space="preserve" font-family="HelveticaNeue-Light,Helvetica Neue" font-size="50.0" fill="#FEFFFE" transform="matrix(1.00, 0.00, -0.00, -1.00, 651.0, 527.9)">o</text><text xml:space="preserve" font-family="HelveticaNeue-Light,Helvetica Neue" font-size="50.0" fill="#FEFFFE" transform="matrix(1.00, 0.00, -0.00, -1.00, 678.8, 527.9)">m</text><text xml:space="preserve" font-family="HelveticaNeue-Light,Helvetica Neue" font-size="50.0" fill="#FEFFFE" transform="matrix(1.00, 0.00, -0.00, -1.00, 720.4, 527.9)">p</text><text xml:space="preserve" font-family="HelveticaNeue-Light,Helvetica Neue" font-size="50.0" fill="#FEFFFE" transform="matrix(1.00, 0.00, -0.00, -1.00, 749.1, 527.9)">o</text><text xml:space="preserve" font-family="HelveticaNeue-Light,Helvetica Neue" font-size="50.0" fill="#FEFFFE" transform="matrix(1.00, 0.00, -0.00, -1.00, 776.9, 527.9)">n</text><text xml:space="preserve" font-family="HelveticaNeue-Light,Helvetica Neue" font-size="50.0" fill="#FEFFFE" transform="matrix(1.00, 0.00, -0.00, -1.00, 803.8, 527.9)">e</text><text xml:space="preserve" font-family="HelveticaNeue-Light,Helvetica Neue" font-size="50.0" fill="#FEFFFE" transform="matrix(1.00, 0.00, -0.00, -1.00, 829.7, 527.9)">n</text><text xml:space="preserve" font-family="HelveticaNeue-Light,Helvetica Neue" font-size="50.0" fill="#FEFFFE" transform="matrix(1.00, 0.00, -0.00, -1.00, 856.6, 527.9)">t</text><text xml:space="preserve" font-family="HelveticaNeue-Light,Helvetica Neue" font-size="50.0" fill="#FEFFFE" transform="matrix(1.00, 0.00, -0.00, -1.00, 871.4, 527.9)">b</text><text xml:space="preserve" font-family="HelveticaNeue-Light,Helvetica Neue" font-size="50.0" fill="#FEFFFE" transform="matrix(1.00, 0.00, -0.00, -1.00, 900.1, 527.9)">a</text><text xml:space="preserve" font-family="HelveticaNeue-Light,Helvetica Neue" font-size="50.0" fill="#FEFFFE" transform="matrix(1.00, 0.00, -0.00, -1.00, 926.0, 527.9)">s</text><text xml:space="preserve" font-family="HelveticaNeue-Light,Helvetica Neue" font-size="50.0" fill="#FEFFFE" transform="matrix(1.00, 0.00, -0.00, -1.00, 950.1, 527.9)">e</text><text xml:space="preserve" font-family="HelveticaNeue-Light,Helvetica Neue" font-size="50.0" fill="#FEFFFE" transform="matrix(1.00, 0.00, -0.00, -1.00, 976.0, 527.9)">r</text><text xml:space="preserve" font-family="HelveticaNeue-Light,Helvetica Neue" font-size="50.0" fill="#FEFFFE" transform="matrix(1.00, 0.00, -0.00, -1.00, 990.9, 527.9)">e</text><text xml:space="preserve" font-family="HelveticaNeue-Light,Helvetica Neue" font-size="50.0" fill="#FEFFFE" transform="matrix(1.00, 0.00, -0.00, -1.00, 1016.8, 527.9)">t</text><text xml:space="preserve" font-family="HelveticaNeue-Light,Helvetica Neue" font-size="50.0" fill="#FEFFFE" transform="matrix(1.00, 0.00, -0.00, -1.00, 1031.6, 527.9)"> </text><text xml:space="preserve" font-family="HelveticaNeue-Light,Helvetica Neue" font-size="50.0" fill="#FEFFFE" transform="matrix(1.00, 0.00, -0.00, -1.00, 1045.5, 527.9)">o</text><text xml:space="preserve" font-family="HelveticaNeue-Light,Helvetica Neue" font-size="50.0" fill="#FEFFFE" transform="matrix(1.00, 0.00, -0.00, -1.00, 1073.3, 527.9)">p</text><text xml:space="preserve" font-family="HelveticaNeue-Light,Helvetica Neue" font-size="50.0" fill="#FEFFFE" transform="matrix(1.00, 0.00, -0.00, -1.00, 1102.0, 527.9)">b</text><text xml:space="preserve" font-family="HelveticaNeue-Light,Helvetica Neue" font-size="50.0" fill="#FEFFFE" transform="matrix(1.00, 0.00, -0.00, -1.00, 1130.7, 527.9)">y</text><text xml:space="preserve" font-family="HelveticaNeue-Light,Helvetica Neue" font-size="50.0" fill="#FEFFFE" transform="matrix(1.00, 0.00, -0.00, -1.00, 1153.9, 527.9)">g</text><text xml:space="preserve" font-family="HelveticaNeue-Light,Helvetica Neue" font-size="50.0" fill="#FEFFFE" transform="matrix(1.00, 0.00, -0.00, -1.00, 1181.7, 527.9)">n</text><text xml:space="preserve" font-family="HelveticaNeue-Light,Helvetica Neue" font-size="50.0" fill="#FEFFFE" transform="matrix(1.00, 0.00, -0.00, -1.00, 1208.5, 527.9)">i</text><text xml:space="preserve" font-family="HelveticaNeue-Light,Helvetica Neue" font-size="50.0" fill="#FEFFFE" transform="matrix(1.00, 0.00, -0.00, -1.00, 1217.8, 527.9)">n</text><text xml:space="preserve" font-family="HelveticaNeue-Light,Helvetica Neue" font-size="50.0" fill="#FEFFFE" transform="matrix(1.00, 0.00, -0.00, -1.00, 1244.6, 527.9)">g</text><image xlink:href="../../63E96F94-3ECB-4C9D-9D7E-99B70E6EB298/assets/5594DC8059EB904084D60818A1308CE9.png" width="19.00" height="19.00" transform="matrix(1.00, 0.00, -0.00, -1.00, 367.0, 458.0)"></image><g><clipPath id="clip0x608004ca4680"><path d="M 367.8 439.9 L 385.4 439.9 L 385.4 457.6 L 367.8 457.6 Z M 367.8 439.9 "></path></clipPath><g clip-path="url(#clip0x608004ca4680)"><g><g><clipPath id="clip0x608004ca5ee0"><path d="M 367.8 457.6 L 385.4 457.6 L 385.4 439.9 L 367.8 439.9 Z M 367.8 457.6 "></path></clipPath><g clip-path="url(#clip0x608004ca5ee0)"><g><clipPath id="clip0x608004ca4260"><path d="M 363.0 432.0 L 390.0 432.0 L 390.0 465.0 L 363.0 465.0 Z M 363.0 432.0 "></path></clipPath><g clip-path="url(#clip0x608004ca4260)"><path d="M 385.4 454.1 C 385.4 454.8 385.1 455.6 384.3 456.4 C 383.6 457.2 382.8 457.6 381.9 457.6 C 381.5 457.6 380.9 457.4 380.0 457.0 C 378.7 456.3 377.5 456.0 376.6 456.0 C 375.6 456.0 374.4 456.3 373.1 457.0 C 372.3 457.4 371.7 457.6 371.3 457.6 C 370.4 457.6 369.7 457.2 368.9 456.5 C 368.2 455.7 367.8 454.9 367.8 454.1 C 367.8 453.7 368.0 453.0 368.4 452.1 C 369.0 450.8 369.3 449.7 369.3 448.8 C 369.3 447.8 369.0 446.7 368.4 445.3 C 368.0 444.5 367.8 443.9 367.8 443.5 C 367.8 442.6 368.2 441.8 368.9 441.1 C 369.7 440.3 370.4 439.9 371.3 439.9 C 371.7 439.9 372.3 440.1 373.1 440.5 C 374.4 441.2 375.6 441.5 376.6 441.5 C 377.5 441.5 378.7 441.2 380.0 440.5 C 380.9 440.1 381.5 439.9 381.9 439.9 C 382.8 439.9 383.6 440.3 384.3 441.1 C 385.1 441.8 385.4 442.6 385.4 443.5 C 385.4 443.9 385.2 444.5 384.8 445.3 C 384.2 446.7 383.8 447.8 383.8 448.8 C 383.8 449.7 384.2 450.8 384.8 452.1 C 385.2 453.0 385.4 453.7 385.4 454.1 " fill="#FFFFFF"></path></g></g></g></g></g></g></g><image xlink:href="../../2F2D75E5-D037-4AB8-B224-35D8FD85E11D/assets/7EE1C7DE194B3D0FB6EEC8A94188D06A.png" width="469.00" height="54.00" transform="matrix(1.00, 0.00, -0.00, -1.00, 416.0, 469.0)"></image><text xml:space="preserve" font-family="HelveticaNeue-Light,Helvetica Neue" font-size="50.0" fill="#FEFFFE" transform="matrix(1.00, 0.00, -0.00, -1.00, 416.4, 431.9)">D</text><text xml:space="preserve" font-family="HelveticaNeue-Light,Helvetica Neue" font-size="50.0" fill="#FEFFFE" transform="matrix(1.00, 0.00, -0.00, -1.00, 450.7, 431.9)">e</text><text xml:space="preserve" font-family="HelveticaNeue-Light,Helvetica Neue" font-size="50.0" fill="#FEFFFE" transform="matrix(1.00, 0.00, -0.00, -1.00, 476.6, 431.9)">p</text><text xml:space="preserve" font-family="HelveticaNeue-Light,Helvetica Neue" font-size="50.0" fill="#FEFFFE" transform="matrix(1.00, 0.00, -0.00, -1.00, 505.3, 431.9)">e</text><text xml:space="preserve" font-family="HelveticaNeue-Light,Helvetica Neue" font-size="50.0" fill="#FEFFFE" transform="matrix(1.00, 0.00, -0.00, -1.00, 531.3, 431.9)">n</text><text xml:space="preserve" font-family="HelveticaNeue-Light,Helvetica Neue" font-size="50.0" fill="#FEFFFE" transform="matrix(1.00, 0.00, -0.00, -1.00, 558.1, 431.9)">d</text><text xml:space="preserve" font-family="HelveticaNeue-Light,Helvetica Neue" font-size="50.0" fill="#FEFFFE" transform="matrix(1.00, 0.00, -0.00, -1.00, 586.8, 431.9)">e</text><text xml:space="preserve" font-family="HelveticaNeue-Light,Helvetica Neue" font-size="50.0" fill="#FEFFFE" transform="matrix(1.00, 0.00, -0.00, -1.00, 612.8, 431.9)">n</text><text xml:space="preserve" font-family="HelveticaNeue-Light,Helvetica Neue" font-size="50.0" fill="#FEFFFE" transform="matrix(1.00, 0.00, -0.00, -1.00, 639.6, 431.9)">c</text><text xml:space="preserve" font-family="HelveticaNeue-Light,Helvetica Neue" font-size="50.0" fill="#FEFFFE" transform="matrix(1.00, 0.00, -0.00, -1.00, 665.6, 431.9)">y</text><text xml:space="preserve" font-family="HelveticaNeue-Light,Helvetica Neue" font-size="50.0" fill="#FEFFFE" transform="matrix(1.00, 0.00, -0.00, -1.00, 688.7, 431.9)">-</text><text xml:space="preserve" font-family="HelveticaNeue-Light,Helvetica Neue" font-size="50.0" fill="#FEFFFE" transform="matrix(1.00, 0.00, -0.00, -1.00, 707.2, 431.9)">i</text><text xml:space="preserve" font-family="HelveticaNeue-Light,Helvetica Neue" font-size="50.0" fill="#FEFFFE" transform="matrix(1.00, 0.00, -0.00, -1.00, 716.5, 431.9)">n</text><text xml:space="preserve" font-family="HelveticaNeue-Light,Helvetica Neue" font-size="50.0" fill="#FEFFFE" transform="matrix(1.00, 0.00, -0.00, -1.00, 743.3, 431.9)">j</text><text xml:space="preserve" font-family="HelveticaNeue-Light,Helvetica Neue" font-size="50.0" fill="#FEFFFE" transform="matrix(1.00, 0.00, -0.00, -1.00, 752.6, 431.9)">e</text><text xml:space="preserve" font-family="HelveticaNeue-Light,Helvetica Neue" font-size="50.0" fill="#FEFFFE" transform="matrix(1.00, 0.00, -0.00, -1.00, 778.5, 431.9)">c</text><text xml:space="preserve" font-family="HelveticaNeue-Light,Helvetica Neue" font-size="50.0" fill="#FEFFFE" transform="matrix(1.00, 0.00, -0.00, -1.00, 804.5, 431.9)">t</text><text xml:space="preserve" font-family="HelveticaNeue-Light,Helvetica Neue" font-size="50.0" fill="#FEFFFE" transform="matrix(1.00, 0.00, -0.00, -1.00, 819.3, 431.9)">i</text><text xml:space="preserve" font-family="HelveticaNeue-Light,Helvetica Neue" font-size="50.0" fill="#FEFFFE" transform="matrix(1.00, 0.00, -0.00, -1.00, 828.5, 431.9)">o</text><text xml:space="preserve" font-family="HelveticaNeue-Light,Helvetica Neue" font-size="50.0" fill="#FEFFFE" transform="matrix(1.00, 0.00, -0.00, -1.00, 856.3, 431.9)">n</text><text xml:space="preserve" font-family="HelveticaNeue-Bold,Helvetica Neue" font-weight="bold" font-size="18.0" fill="#FEFFFE" transform="matrix(1.00, 0.00, -0.00, -1.00, 1637.0, 25.0)">1</text><text xml:space="preserve" font-family="HelveticaNeue-Bold,Helvetica Neue" font-weight="bold" font-size="18.0" fill="#FEFFFE" transform="matrix(1.00, 0.00, -0.00, -1.00, 1647.0, 25.0)">2</text></g></svg>