<?xml version="1.0" encoding="UTF-8" standalone="no"?><svg xmlns="http://www.w3.org/2000/svg" xmlns:xlink="http://www.w3.org/1999/xlink" clip-rule="evenodd" stroke-miterlimit="10" viewBox="0 0 692 118"><desc>SVG generated by Keynote</desc><defs></defs><g transform="matrix(1.00, 0.00, -0.00, -1.00, 0.0, 118.0)"><image xlink:href="../../63E96F94-3ECB-4C9D-9D7E-99B70E6EB298/assets/5594DC8059EB904084D60818A1308CE9.png" width="19.00" height="19.00" transform="matrix(1.00, 0.00, -0.00, -1.00, 4.0, 105.0)"></image><g><clipPath id="clip0x6000008bb240"><path d="M 4.8 86.9 L 22.4 86.9 L 22.4 104.6 L 4.8 104.6 Z M 4.8 86.9 "></path></clipPath><g clip-path="url(#clip0x6000008bb240)"><g><g><clipPath id="clip0x6080018bbb40"><path d="M 4.8 104.6 L 22.4 104.6 L 22.4 86.9 L 4.8 86.9 Z M 4.8 104.6 "></path></clipPath><g clip-path="url(#clip0x6080018bbb40)"><g><clipPath id="clip0x6080018bb9c0"><path d="M 0.0 79.0 L 27.0 79.0 L 27.0 112.0 L 0.0 112.0 Z M 0.0 79.0 "></path></clipPath><g clip-path="url(#clip0x6080018bb9c0)"><path d="M 22.4 101.1 C 22.4 101.8 22.1 102.6 21.3 103.4 C 20.6 104.2 19.8 104.6 18.9 104.6 C 18.5 104.6 17.9 104.4 17.0 104.0 C 15.7 103.3 14.5 103.0 13.6 103.0 C 12.6 103.0 11.4 103.3 10.1 104.0 C 9.3 104.4 8.7 104.6 8.3 104.6 C 7.4 104.6 6.7 104.2 5.9 103.5 C 5.2 102.7 4.8 101.9 4.8 101.1 C 4.8 100.7 5.0 100.0 5.4 99.1 C 6.0 97.8 6.3 96.7 6.3 95.8 C 6.3 94.8 6.0 93.7 5.4 92.3 C 5.0 91.5 4.8 90.9 4.8 90.5 C 4.8 89.6 5.2 88.8 5.9 88.1 C 6.7 87.3 7.4 86.9 8.3 86.9 C 8.7 86.9 9.3 87.1 10.1 87.5 C 11.4 88.2 12.6 88.5 13.6 88.5 C 14.5 88.5 15.7 88.2 17.0 87.5 C 17.9 87.1 18.5 86.9 18.9 86.9 C 19.8 86.9 20.6 87.3 21.3 88.1 C 22.1 88.8 22.4 89.6 22.4 90.5 C 22.4 90.9 22.2 91.5 21.8 92.3 C 21.2 93.7 20.8 94.8 20.8 95.8 C 20.8 96.7 21.2 97.8 21.8 99.1 C 22.2 100.0 22.4 100.7 22.4 101.1 " fill="#FFFFFF"></path></g></g></g></g></g></g></g><image xlink:href="3FB3EA99549797DF233AB3AAAF72D881.png" width="637.00" height="54.00" transform="matrix(1.00, 0.00, -0.00, -1.00, 53.0, 116.0)"></image><text xml:space="preserve" font-family="HelveticaNeue-Light,Helvetica Neue" font-size="50.0" fill="#FEFFFE" transform="matrix(1.00, 0.00, -0.00, -1.00, 53.4, 78.9)">H</text><text xml:space="preserve" font-family="HelveticaNeue-Light,Helvetica Neue" font-size="50.0" fill="#FEFFFE" transform="matrix(1.00, 0.00, -0.00, -1.00, 88.6, 78.9)">a</text><text xml:space="preserve" font-family="HelveticaNeue-Light,Helvetica Neue" font-size="50.0" fill="#FEFFFE" transform="matrix(1.00, 0.00, -0.00, -1.00, 114.6, 78.9)">r</text><text xml:space="preserve" font-family="HelveticaNeue-Light,Helvetica Neue" font-size="50.0" fill="#FEFFFE" transform="matrix(1.00, 0.00, -0.00, -1.00, 130.3, 78.9)"> </text><text xml:space="preserve" font-family="HelveticaNeue-Light,Helvetica Neue" font-size="50.0" fill="#FEFFFE" transform="matrix(1.00, 0.00, -0.00, -1.00, 144.2, 78.9)">a</text><text xml:space="preserve" font-family="HelveticaNeue-Light,Helvetica Neue" font-size="50.0" fill="#FEFFFE" transform="matrix(1.00, 0.00, -0.00, -1.00, 170.2, 78.9)">r</text><text xml:space="preserve" font-family="HelveticaNeue-Light,Helvetica Neue" font-size="50.0" fill="#FEFFFE" transform="matrix(1.00, 0.00, -0.00, -1.00, 185.9, 78.9)">b</text><text xml:space="preserve" font-family="HelveticaNeue-Light,Helvetica Neue" font-size="50.0" fill="#FEFFFE" transform="matrix(1.00, 0.00, -0.00, -1.00, 214.6, 78.9)">e</text><text xml:space="preserve" font-family="HelveticaNeue-Light,Helvetica Neue" font-size="50.0" fill="#FEFFFE" transform="matrix(1.00, 0.00, -0.00, -1.00, 240.6, 78.9)">j</text><text xml:space="preserve" font-family="HelveticaNeue-Light,Helvetica Neue" font-size="50.0" fill="#FEFFFE" transform="matrix(1.00, 0.00, -0.00, -1.00, 249.8, 78.9)">d</text><text xml:space="preserve" font-family="HelveticaNeue-Light,Helvetica Neue" font-size="50.0" fill="#FEFFFE" transform="matrix(1.00, 0.00, -0.00, -1.00, 278.5, 78.9)">e</text><text xml:space="preserve" font-family="HelveticaNeue-Light,Helvetica Neue" font-size="50.0" fill="#FEFFFE" transform="matrix(1.00, 0.00, -0.00, -1.00, 304.5, 78.9)">t</text><text xml:space="preserve" font-family="HelveticaNeue-Light,Helvetica Neue" font-size="50.0" fill="#FEFFFE" transform="matrix(1.00, 0.00, -0.00, -1.00, 319.3, 78.9)"> </text><text xml:space="preserve" font-family="HelveticaNeue-Light,Helvetica Neue" font-size="50.0" fill="#FEFFFE" transform="matrix(1.00, 0.00, -0.00, -1.00, 333.2, 78.9)">m</text><text xml:space="preserve" font-family="HelveticaNeue-Light,Helvetica Neue" font-size="50.0" fill="#FEFFFE" transform="matrix(1.00, 0.00, -0.00, -1.00, 374.8, 78.9)">e</text><text xml:space="preserve" font-family="HelveticaNeue-Light,Helvetica Neue" font-size="50.0" fill="#FEFFFE" transform="matrix(1.00, 0.00, -0.00, -1.00, 400.8, 78.9)">d</text><text xml:space="preserve" font-family="HelveticaNeue-Light,Helvetica Neue" font-size="50.0" fill="#FEFFFE" transform="matrix(1.00, 0.00, -0.00, -1.00, 429.5, 78.9)"> </text><text xml:space="preserve" font-family="HelveticaNeue-Light,Helvetica Neue" font-size="50.0" fill="#FEFFFE" transform="matrix(1.00, 0.00, -0.00, -1.00, 443.4, 78.9)">w</text><text xml:space="preserve" font-family="HelveticaNeue-Light,Helvetica Neue" font-size="50.0" fill="#FEFFFE" transform="matrix(1.00, 0.00, -0.00, -1.00, 480.4, 78.9)">e</text><text xml:space="preserve" font-family="HelveticaNeue-Light,Helvetica Neue" font-size="50.0" fill="#FEFFFE" transform="matrix(1.00, 0.00, -0.00, -1.00, 506.4, 78.9)">b</text><text xml:space="preserve" font-family="HelveticaNeue-Light,Helvetica Neue" font-size="50.0" fill="#FEFFFE" transform="matrix(1.00, 0.00, -0.00, -1.00, 535.1, 78.9)"> </text><text xml:space="preserve" font-family="HelveticaNeue-Light,Helvetica Neue" font-size="50.0" fill="#FEFFFE" transform="matrix(1.00, 0.00, -0.00, -1.00, 549.0, 78.9)">i</text><text xml:space="preserve" font-family="HelveticaNeue-Light,Helvetica Neue" font-size="50.0" fill="#FEFFFE" transform="matrix(1.00, 0.00, -0.00, -1.00, 558.2, 78.9)"> </text><text xml:space="preserve" font-family="HelveticaNeue-Light,Helvetica Neue" font-size="50.0" fill="#FEFFFE" transform="matrix(1.00, 0.00, -0.00, -1.00, 572.1, 78.9)">c</text><text xml:space="preserve" font-family="HelveticaNeue-Light,Helvetica Neue" font-size="50.0" fill="#FEFFFE" transform="matrix(1.00, 0.00, -0.00, -1.00, 598.1, 78.9)">r</text><text xml:space="preserve" font-family="HelveticaNeue-Light,Helvetica Neue" font-size="50.0" fill="#FEFFFE" transform="matrix(1.00, 0.00, -0.00, -1.00, 613.8, 78.9)">a</text><text xml:space="preserve" font-family="HelveticaNeue-Light,Helvetica Neue" font-size="50.0" fill="#FEFFFE" transform="matrix(1.00, 0.00, -0.00, -1.00, 639.8, 78.9)">z</text><text xml:space="preserve" font-family="HelveticaNeue-Light,Helvetica Neue" font-size="50.0" fill="#FEFFFE" transform="matrix(1.00, 0.00, -0.00, -1.00, 662.9, 78.9)">y</text><text xml:space="preserve" font-family="HelveticaNeue-Light,Helvetica Neue" font-size="50.0" fill="#FEFFFE" transform="matrix(1.00, 0.00, -0.00, -1.00, 686.1, 78.9)"> </text><image xlink:href="D3E6F755DAADEEC941509E7705934766.png" width="253.00" height="59.00" transform="matrix(1.00, 0.00, -0.00, -1.00, 52.0, 60.0)"></image><text xml:space="preserve" font-family="HelveticaNeue-Light,Helvetica Neue" font-size="50.0" fill="#FEFFFE" transform="matrix(1.00, 0.00, -0.00, -1.00, 53.4, 18.9)">m</text><text xml:space="preserve" font-family="HelveticaNeue-Light,Helvetica Neue" font-size="50.0" fill="#FEFFFE" transform="matrix(1.00, 0.00, -0.00, -1.00, 95.1, 18.9)">a</text><text xml:space="preserve" font-family="HelveticaNeue-Light,Helvetica Neue" font-size="50.0" fill="#FEFFFE" transform="matrix(1.00, 0.00, -0.00, -1.00, 121.0, 18.9)">n</text><text xml:space="preserve" font-family="HelveticaNeue-Light,Helvetica Neue" font-size="50.0" fill="#FEFFFE" transform="matrix(1.00, 0.00, -0.00, -1.00, 147.9, 18.9)">g</text><text xml:space="preserve" font-family="HelveticaNeue-Light,Helvetica Neue" font-size="50.0" fill="#FEFFFE" transform="matrix(1.00, 0.00, -0.00, -1.00, 175.7, 18.9)">e</text><text xml:space="preserve" font-family="HelveticaNeue-Light,Helvetica Neue" font-size="50.0" fill="#FEFFFE" transform="matrix(1.00, 0.00, -0.00, -1.00, 201.6, 18.9)"> </text><text xml:space="preserve" font-family="HelveticaNeue-Light,Helvetica Neue" font-size="50.0" fill="#FEFFFE" transform="matrix(1.00, 0.00, -0.00, -1.00, 215.5, 18.9)">å</text><text xml:space="preserve" font-family="HelveticaNeue-Light,Helvetica Neue" font-size="50.0" fill="#FEFFFE" transform="matrix(1.00, 0.00, -0.00, -1.00, 241.5, 18.9)">r</text><text xml:space="preserve" font-family="HelveticaNeue-Light,Helvetica Neue" font-size="50.0" fill="#FEFFFE" transform="matrix(1.00, 0.00, -0.00, -1.00, 257.2, 18.9)">…</text></g></svg>