<?xml version="1.0" encoding="UTF-8" standalone="no"?><svg xmlns="http://www.w3.org/2000/svg" xmlns:xlink="http://www.w3.org/1999/xlink" clip-rule="evenodd" stroke-miterlimit="10" viewBox="0 0 998 288"><desc>SVG generated by Keynote</desc><defs></defs><g transform="matrix(1.00, 0.00, -0.00, -1.00, 0.0, 288.0)"><image xlink:href="1F7E1C364CD721C83E1934374D3BF41A.png" width="16.00" height="16.00" transform="matrix(1.00, 0.00, -0.00, -1.00, 4.0, 276.0)"></image><g><clipPath id="clip0x6000028a13e0"><path d="M 4.8 260.2 L 19.8 260.2 L 19.8 275.2 L 4.8 275.2 Z M 4.8 260.2 "></path></clipPath><g clip-path="url(#clip0x6000028a13e0)"><g><g><clipPath id="clip0x6000028af300"><path d="M 4.8 275.2 L 19.8 275.2 L 19.8 260.2 L 4.8 260.2 Z M 4.8 275.2 "></path></clipPath><g clip-path="url(#clip0x6000028af300)"><g><clipPath id="clip0x6000028ad500"><path d="M 0.0 253.0 L 24.0 253.0 L 24.0 283.0 L 0.0 283.0 Z M 0.0 253.0 "></path></clipPath><g clip-path="url(#clip0x6000028ad500)"><path d="M 19.8 272.2 C 19.8 272.9 19.5 273.5 18.8 274.2 C 18.2 274.9 17.5 275.2 16.8 275.2 C 16.5 275.2 15.9 275.1 15.2 274.7 C 14.0 274.2 13.1 273.9 12.3 273.9 C 11.4 273.9 10.4 274.2 9.3 274.7 C 8.6 275.1 8.1 275.2 7.7 275.2 C 7.0 275.2 6.4 274.9 5.8 274.3 C 5.1 273.6 4.8 272.9 4.8 272.2 C 4.8 271.9 5.0 271.3 5.3 270.6 C 5.8 269.5 6.1 268.5 6.1 267.7 C 6.1 266.9 5.8 265.9 5.3 264.8 C 5.0 264.1 4.8 263.6 4.8 263.2 C 4.8 262.5 5.1 261.8 5.8 261.2 C 6.4 260.5 7.0 260.2 7.7 260.2 C 8.1 260.2 8.6 260.4 9.3 260.7 C 10.4 261.3 11.4 261.5 12.3 261.5 C 13.1 261.5 14.0 261.3 15.2 260.7 C 15.9 260.4 16.5 260.2 16.8 260.2 C 17.5 260.2 18.2 260.5 18.8 261.2 C 19.5 261.8 19.8 262.5 19.8 263.2 C 19.8 263.6 19.6 264.1 19.3 264.8 C 18.7 265.9 18.4 266.9 18.4 267.7 C 18.4 268.5 18.7 269.5 19.3 270.6 C 19.6 271.3 19.8 271.9 19.8 272.2 " fill="#FFFFFF"></path></g></g></g></g></g></g></g><image xlink:href="8FBF7AC75583BAC51B4E2C4B2842AAD6.png" width="946.00" height="49.00" transform="matrix(1.00, 0.00, -0.00, -1.00, 45.0, 286.0)"></image><text xml:space="preserve" font-family="HelveticaNeue-Light,Helvetica Neue" font-size="42.5" fill="#FEFFFE" transform="matrix(1.00, 0.00, -0.00, -1.00, 46.1, 253.7)">L</text><text xml:space="preserve" font-family="HelveticaNeue-Light,Helvetica Neue" font-size="42.5" fill="#FEFFFE" transform="matrix(1.00, 0.00, -0.00, -1.00, 69.0, 253.7)">o</text><text xml:space="preserve" font-family="HelveticaNeue-Light,Helvetica Neue" font-size="42.5" fill="#FEFFFE" transform="matrix(1.00, 0.00, -0.00, -1.00, 92.6, 253.7)">g</text><text xml:space="preserve" font-family="HelveticaNeue-Light,Helvetica Neue" font-size="42.5" fill="#FEFFFE" transform="matrix(1.00, 0.00, -0.00, -1.00, 116.2, 253.7)">i</text><text xml:space="preserve" font-family="HelveticaNeue-Light,Helvetica Neue" font-size="42.5" fill="#FEFFFE" transform="matrix(1.00, 0.00, -0.00, -1.00, 124.1, 253.7)">s</text><text xml:space="preserve" font-family="HelveticaNeue-Light,Helvetica Neue" font-size="42.5" fill="#FEFFFE" transform="matrix(1.00, 0.00, -0.00, -1.00, 144.5, 253.7)">k</text><text xml:space="preserve" font-family="HelveticaNeue-Light,Helvetica Neue" font-size="42.5" fill="#FEFFFE" transform="matrix(1.00, 0.00, -0.00, -1.00, 165.8, 253.7)"> </text><text xml:space="preserve" font-family="HelveticaNeue-Light,Helvetica Neue" font-size="42.5" fill="#FEFFFE" transform="matrix(1.00, 0.00, -0.00, -1.00, 177.6, 253.7)">o</text><text xml:space="preserve" font-family="HelveticaNeue-Light,Helvetica Neue" font-size="42.5" fill="#FEFFFE" transform="matrix(1.00, 0.00, -0.00, -1.00, 201.2, 253.7)">p</text><text xml:space="preserve" font-family="HelveticaNeue-Light,Helvetica Neue" font-size="42.5" fill="#FEFFFE" transform="matrix(1.00, 0.00, -0.00, -1.00, 225.6, 253.7)">d</text><text xml:space="preserve" font-family="HelveticaNeue-Light,Helvetica Neue" font-size="42.5" fill="#FEFFFE" transform="matrix(1.00, 0.00, -0.00, -1.00, 250.0, 253.7)">e</text><text xml:space="preserve" font-family="HelveticaNeue-Light,Helvetica Neue" font-size="42.5" fill="#FEFFFE" transform="matrix(1.00, 0.00, -0.00, -1.00, 272.1, 253.7)">l</text><text xml:space="preserve" font-family="HelveticaNeue-Light,Helvetica Neue" font-size="42.5" fill="#FEFFFE" transform="matrix(1.00, 0.00, -0.00, -1.00, 279.9, 253.7)">i</text><text xml:space="preserve" font-family="HelveticaNeue-Light,Helvetica Neue" font-size="42.5" fill="#FEFFFE" transform="matrix(1.00, 0.00, -0.00, -1.00, 287.8, 253.7)">n</text><text xml:space="preserve" font-family="HelveticaNeue-Light,Helvetica Neue" font-size="42.5" fill="#FEFFFE" transform="matrix(1.00, 0.00, -0.00, -1.00, 310.6, 253.7)">g</text><text xml:space="preserve" font-family="HelveticaNeue-Light,Helvetica Neue" font-size="42.5" fill="#FEFFFE" transform="matrix(1.00, 0.00, -0.00, -1.00, 334.2, 253.7)"> </text><text xml:space="preserve" font-family="HelveticaNeue-Light,Helvetica Neue" font-size="42.5" fill="#FEFFFE" transform="matrix(1.00, 0.00, -0.00, -1.00, 346.1, 253.7)">a</text><text xml:space="preserve" font-family="HelveticaNeue-Light,Helvetica Neue" font-size="42.5" fill="#FEFFFE" transform="matrix(1.00, 0.00, -0.00, -1.00, 368.1, 253.7)">f</text><text xml:space="preserve" font-family="HelveticaNeue-Light,Helvetica Neue" font-size="42.5" fill="#FEFFFE" transform="matrix(1.00, 0.00, -0.00, -1.00, 379.1, 253.7)"> </text><text xml:space="preserve" font-family="HelveticaNeue-Light,Helvetica Neue" font-size="42.5" fill="#FEFFFE" transform="matrix(1.00, 0.00, -0.00, -1.00, 390.9, 253.7)">a</text><text xml:space="preserve" font-family="HelveticaNeue-Light,Helvetica Neue" font-size="42.5" fill="#FEFFFE" transform="matrix(1.00, 0.00, -0.00, -1.00, 413.0, 253.7)">p</text><text xml:space="preserve" font-family="HelveticaNeue-Light,Helvetica Neue" font-size="42.5" fill="#FEFFFE" transform="matrix(1.00, 0.00, -0.00, -1.00, 437.4, 253.7)">p</text><text xml:space="preserve" font-family="HelveticaNeue-Light,Helvetica Neue" font-size="42.5" fill="#FEFFFE" transform="matrix(1.00, 0.00, -0.00, -1.00, 461.8, 253.7)">l</text><text xml:space="preserve" font-family="HelveticaNeue-Light,Helvetica Neue" font-size="42.5" fill="#FEFFFE" transform="matrix(1.00, 0.00, -0.00, -1.00, 469.6, 253.7)">i</text><text xml:space="preserve" font-family="HelveticaNeue-Light,Helvetica Neue" font-size="42.5" fill="#FEFFFE" transform="matrix(1.00, 0.00, -0.00, -1.00, 477.5, 253.7)">k</text><text xml:space="preserve" font-family="HelveticaNeue-Light,Helvetica Neue" font-size="42.5" fill="#FEFFFE" transform="matrix(1.00, 0.00, -0.00, -1.00, 498.8, 253.7)">a</text><text xml:space="preserve" font-family="HelveticaNeue-Light,Helvetica Neue" font-size="42.5" fill="#FEFFFE" transform="matrix(1.00, 0.00, -0.00, -1.00, 520.8, 253.7)">t</text><text xml:space="preserve" font-family="HelveticaNeue-Light,Helvetica Neue" font-size="42.5" fill="#FEFFFE" transform="matrix(1.00, 0.00, -0.00, -1.00, 533.4, 253.7)">i</text><text xml:space="preserve" font-family="HelveticaNeue-Light,Helvetica Neue" font-size="42.5" fill="#FEFFFE" transform="matrix(1.00, 0.00, -0.00, -1.00, 541.3, 253.7)">o</text><text xml:space="preserve" font-family="HelveticaNeue-Light,Helvetica Neue" font-size="42.5" fill="#FEFFFE" transform="matrix(1.00, 0.00, -0.00, -1.00, 564.9, 253.7)">n</text><text xml:space="preserve" font-family="HelveticaNeue-Light,Helvetica Neue" font-size="42.5" fill="#FEFFFE" transform="matrix(1.00, 0.00, -0.00, -1.00, 587.7, 253.7)">e</text><text xml:space="preserve" font-family="HelveticaNeue-Light,Helvetica Neue" font-size="42.5" fill="#FEFFFE" transform="matrix(1.00, 0.00, -0.00, -1.00, 609.8, 253.7)">n</text><text xml:space="preserve" font-family="HelveticaNeue-Light,Helvetica Neue" font-size="42.5" fill="#FEFFFE" transform="matrix(1.00, 0.00, -0.00, -1.00, 632.6, 253.7)"> </text><text xml:space="preserve" font-family="HelveticaNeue-Light,Helvetica Neue" font-size="42.5" fill="#FEFFFE" transform="matrix(1.00, 0.00, -0.00, -1.00, 644.4, 253.7)">i</text><text xml:space="preserve" font-family="HelveticaNeue-Light,Helvetica Neue" font-size="42.5" fill="#FEFFFE" transform="matrix(1.00, 0.00, -0.00, -1.00, 652.3, 253.7)"> </text><text xml:space="preserve" font-family="HelveticaNeue-Light,Helvetica Neue" font-size="42.5" fill="#FEFFFE" transform="matrix(1.00, 0.00, -0.00, -1.00, 664.1, 253.7)">s</text><text xml:space="preserve" font-family="HelveticaNeue-Light,Helvetica Neue" font-size="42.5" fill="#FEFFFE" transform="matrix(1.00, 0.00, -0.00, -1.00, 684.5, 253.7)">e</text><text xml:space="preserve" font-family="HelveticaNeue-Light,Helvetica Neue" font-size="42.5" fill="#FEFFFE" transform="matrix(1.00, 0.00, -0.00, -1.00, 706.6, 253.7)">p</text><text xml:space="preserve" font-family="HelveticaNeue-Light,Helvetica Neue" font-size="42.5" fill="#FEFFFE" transform="matrix(1.00, 0.00, -0.00, -1.00, 731.0, 253.7)">a</text><text xml:space="preserve" font-family="HelveticaNeue-Light,Helvetica Neue" font-size="42.5" fill="#FEFFFE" transform="matrix(1.00, 0.00, -0.00, -1.00, 753.0, 253.7)">r</text><text xml:space="preserve" font-family="HelveticaNeue-Light,Helvetica Neue" font-size="42.5" fill="#FEFFFE" transform="matrix(1.00, 0.00, -0.00, -1.00, 766.4, 253.7)">a</text><text xml:space="preserve" font-family="HelveticaNeue-Light,Helvetica Neue" font-size="42.5" fill="#FEFFFE" transform="matrix(1.00, 0.00, -0.00, -1.00, 788.5, 253.7)">t</text><text xml:space="preserve" font-family="HelveticaNeue-Light,Helvetica Neue" font-size="42.5" fill="#FEFFFE" transform="matrix(1.00, 0.00, -0.00, -1.00, 801.1, 253.7)">e</text><text xml:space="preserve" font-family="HelveticaNeue-Light,Helvetica Neue" font-size="42.5" fill="#FEFFFE" transform="matrix(1.00, 0.00, -0.00, -1.00, 823.1, 253.7)"> </text><text xml:space="preserve" font-family="HelveticaNeue-Light,Helvetica Neue" font-size="42.5" fill="#FEFFFE" transform="matrix(1.00, 0.00, -0.00, -1.00, 834.9, 253.7)">r</text><text xml:space="preserve" font-family="HelveticaNeue-Light,Helvetica Neue" font-size="42.5" fill="#FEFFFE" transform="matrix(1.00, 0.00, -0.00, -1.00, 847.6, 253.7)">o</text><text xml:space="preserve" font-family="HelveticaNeue-Light,Helvetica Neue" font-size="42.5" fill="#FEFFFE" transform="matrix(1.00, 0.00, -0.00, -1.00, 871.2, 253.7)">u</text><text xml:space="preserve" font-family="HelveticaNeue-Light,Helvetica Neue" font-size="42.5" fill="#FEFFFE" transform="matrix(1.00, 0.00, -0.00, -1.00, 894.0, 253.7)">t</text><text xml:space="preserve" font-family="HelveticaNeue-Light,Helvetica Neue" font-size="42.5" fill="#FEFFFE" transform="matrix(1.00, 0.00, -0.00, -1.00, 906.6, 253.7)">e</text><text xml:space="preserve" font-family="HelveticaNeue-Light,Helvetica Neue" font-size="42.5" fill="#FEFFFE" transform="matrix(1.00, 0.00, -0.00, -1.00, 928.6, 253.7)">s</text><text xml:space="preserve" font-family="HelveticaNeue-Light,Helvetica Neue" font-size="42.5" fill="#FEFFFE" transform="matrix(1.00, 0.00, -0.00, -1.00, 949.1, 253.7)">…</text><text xml:space="preserve" font-family="HelveticaNeue-Light,Helvetica Neue" font-size="42.5" fill="#FEFFFE" transform="matrix(1.00, 0.00, -0.00, -1.00, 991.6, 253.7)"> </text><image xlink:href="E11A4F6EA4411B690170E459A72C391A.png" width="16.00" height="16.00" transform="matrix(1.00, 0.00, -0.00, -1.00, 39.0, 194.0)"></image><g><clipPath id="clip0x600002aa2520"><path d="M 39.8 178.6 L 54.8 178.6 L 54.8 193.6 L 39.8 193.6 Z M 39.8 178.6 "></path></clipPath><g clip-path="url(#clip0x600002aa2520)"><g><g><clipPath id="clip0x600002aa1f20"><path d="M 39.8 193.6 L 54.8 193.6 L 54.8 178.6 L 39.8 178.6 Z M 39.8 193.6 "></path></clipPath><g clip-path="url(#clip0x600002aa1f20)"><g><clipPath id="clip0x608006ab9c80"><path d="M 35.0 171.0 L 59.0 171.0 L 59.0 201.0 L 35.0 201.0 Z M 35.0 171.0 "></path></clipPath><g clip-path="url(#clip0x608006ab9c80)"><path d="M 54.8 190.6 C 54.8 191.3 54.5 191.9 53.8 192.6 C 53.2 193.3 52.5 193.6 51.8 193.6 C 51.5 193.6 50.9 193.5 50.2 193.1 C 49.0 192.6 48.1 192.3 47.3 192.3 C 46.4 192.3 45.4 192.6 44.3 193.1 C 43.6 193.5 43.1 193.6 42.7 193.6 C 42.0 193.6 41.4 193.3 40.8 192.7 C 40.1 192.0 39.8 191.3 39.8 190.6 C 39.8 190.3 40.0 189.7 40.3 189.0 C 40.8 187.9 41.1 186.9 41.1 186.1 C 41.1 185.3 40.8 184.3 40.3 183.2 C 40.0 182.5 39.8 182.0 39.8 181.6 C 39.8 180.9 40.1 180.2 40.8 179.6 C 41.4 178.9 42.0 178.6 42.7 178.6 C 43.1 178.6 43.6 178.8 44.3 179.1 C 45.4 179.7 46.4 179.9 47.3 179.9 C 48.1 179.9 49.0 179.7 50.2 179.1 C 50.9 178.8 51.5 178.6 51.8 178.6 C 52.5 178.6 53.2 178.9 53.8 179.6 C 54.5 180.2 54.8 180.9 54.8 181.6 C 54.8 182.0 54.6 182.5 54.3 183.2 C 53.7 184.3 53.4 185.3 53.4 186.1 C 53.4 186.9 53.7 187.9 54.3 189.0 C 54.6 189.7 54.8 190.3 54.8 190.6 " fill="#FFFFFF"></path></g></g></g></g></g></g></g><image xlink:href="163F6ED25EAC78C40A247F6299E36883.png" width="682.00" height="48.00" transform="matrix(1.00, 0.00, -0.00, -1.00, 76.0, 205.0)"></image><text xml:space="preserve" font-family="HelveticaNeue-Light,Helvetica Neue" font-size="42.5" fill="#FEFFFE" transform="matrix(1.00, 0.00, -0.00, -1.00, 81.1, 172.1)">/</text><text xml:space="preserve" font-family="HelveticaNeue-Light,Helvetica Neue" font-size="42.5" fill="#FEFFFE" transform="matrix(1.00, 0.00, -0.00, -1.00, 95.3, 172.1)">t</text><text xml:space="preserve" font-family="HelveticaNeue-Light,Helvetica Neue" font-size="42.5" fill="#FEFFFE" transform="matrix(1.00, 0.00, -0.00, -1.00, 107.9, 172.1)">a</text><text xml:space="preserve" font-family="HelveticaNeue-Light,Helvetica Neue" font-size="42.5" fill="#FEFFFE" transform="matrix(1.00, 0.00, -0.00, -1.00, 129.9, 172.1)">s</text><text xml:space="preserve" font-family="HelveticaNeue-Light,Helvetica Neue" font-size="42.5" fill="#FEFFFE" transform="matrix(1.00, 0.00, -0.00, -1.00, 150.4, 172.1)">k</text><text xml:space="preserve" font-family="HelveticaNeue-Light,Helvetica Neue" font-size="42.5" fill="#FEFFFE" transform="matrix(1.00, 0.00, -0.00, -1.00, 171.6, 172.1)">/</text><text xml:space="preserve" font-family="HelveticaNeue-Light,Helvetica Neue" font-size="42.5" fill="#FEFFFE" transform="matrix(1.00, 0.00, -0.00, -1.00, 185.8, 172.1)">:</text><text xml:space="preserve" font-family="HelveticaNeue-Light,Helvetica Neue" font-size="42.5" fill="#FEFFFE" transform="matrix(1.00, 0.00, -0.00, -1.00, 197.6, 172.1)">t</text><text xml:space="preserve" font-family="HelveticaNeue-Light,Helvetica Neue" font-size="42.5" fill="#FEFFFE" transform="matrix(1.00, 0.00, -0.00, -1.00, 210.2, 172.1)">a</text><text xml:space="preserve" font-family="HelveticaNeue-Light,Helvetica Neue" font-size="42.5" fill="#FEFFFE" transform="matrix(1.00, 0.00, -0.00, -1.00, 232.2, 172.1)">s</text><text xml:space="preserve" font-family="HelveticaNeue-Light,Helvetica Neue" font-size="42.5" fill="#FEFFFE" transform="matrix(1.00, 0.00, -0.00, -1.00, 252.7, 172.1)">k</text><text xml:space="preserve" font-family="HelveticaNeue-Light,Helvetica Neue" font-size="42.5" fill="#FEFFFE" transform="matrix(1.00, 0.00, -0.00, -1.00, 273.9, 172.1)">I</text><text xml:space="preserve" font-family="HelveticaNeue-Light,Helvetica Neue" font-size="42.5" fill="#FEFFFE" transform="matrix(1.00, 0.00, -0.00, -1.00, 283.3, 172.1)">d</text><text xml:space="preserve" font-family="HelveticaNeue-Light,Helvetica Neue" font-size="42.5" fill="#FEFFFE" transform="matrix(1.00, 0.00, -0.00, -1.00, 307.7, 172.1)"> </text><text xml:space="preserve" font-family="HelveticaNeue-Light,Helvetica Neue" font-size="42.5" fill="#FEFFFE" transform="matrix(1.00, 0.00, -0.00, -1.00, 319.6, 172.1)">-</text><text xml:space="preserve" font-family="HelveticaNeue-Light,Helvetica Neue" font-size="42.5" fill="#FEFFFE" transform="matrix(1.00, 0.00, -0.00, -1.00, 335.3, 172.1)">&gt;</text><text xml:space="preserve" font-family="HelveticaNeue-Light,Helvetica Neue" font-size="42.5" fill="#FEFFFE" transform="matrix(1.00, 0.00, -0.00, -1.00, 360.8, 172.1)"> </text><text xml:space="preserve" font-family="HelveticaNeue-Light,Helvetica Neue" font-size="42.5" fill="#FEFFFE" transform="matrix(1.00, 0.00, -0.00, -1.00, 372.6, 172.1)">/</text><text xml:space="preserve" font-family="HelveticaNeue-Light,Helvetica Neue" font-size="42.5" fill="#FEFFFE" transform="matrix(1.00, 0.00, -0.00, -1.00, 386.7, 172.1)">t</text><text xml:space="preserve" font-family="HelveticaNeue-Light,Helvetica Neue" font-size="42.5" fill="#FEFFFE" transform="matrix(1.00, 0.00, -0.00, -1.00, 399.3, 172.1)">a</text><text xml:space="preserve" font-family="HelveticaNeue-Light,Helvetica Neue" font-size="42.5" fill="#FEFFFE" transform="matrix(1.00, 0.00, -0.00, -1.00, 421.4, 172.1)">s</text><text xml:space="preserve" font-family="HelveticaNeue-Light,Helvetica Neue" font-size="42.5" fill="#FEFFFE" transform="matrix(1.00, 0.00, -0.00, -1.00, 441.8, 172.1)">k</text><text xml:space="preserve" font-family="HelveticaNeue-Light,Helvetica Neue" font-size="42.5" fill="#FEFFFE" transform="matrix(1.00, 0.00, -0.00, -1.00, 463.1, 172.1)">/</text><text xml:space="preserve" font-family="HelveticaNeue-Light,Helvetica Neue" font-size="42.5" fill="#FEFFFE" transform="matrix(1.00, 0.00, -0.00, -1.00, 477.2, 172.1)">4</text><text xml:space="preserve" font-family="HelveticaNeue-Light,Helvetica Neue" font-size="42.5" fill="#FEFFFE" transform="matrix(1.00, 0.00, -0.00, -1.00, 500.9, 172.1)">2</text><text xml:space="preserve" font-family="HelveticaNeue-Light,Helvetica Neue" font-size="42.5" fill="#FEFFFE" transform="matrix(1.00, 0.00, -0.00, -1.00, 524.5, 172.1)">z</text><text xml:space="preserve" font-family="HelveticaNeue-Light,Helvetica Neue" font-size="42.5" fill="#FEFFFE" transform="matrix(1.00, 0.00, -0.00, -1.00, 544.2, 172.1)">a</text><text xml:space="preserve" font-family="HelveticaNeue-Light,Helvetica Neue" font-size="42.5" fill="#FEFFFE" transform="matrix(1.00, 0.00, -0.00, -1.00, 566.2, 172.1)">p</text><text xml:space="preserve" font-family="HelveticaNeue-Light,Helvetica Neue" font-size="42.5" fill="#FEFFFE" transform="matrix(1.00, 0.00, -0.00, -1.00, 590.6, 172.1)">h</text><text xml:space="preserve" font-family="HelveticaNeue-Light,Helvetica Neue" font-size="42.5" fill="#FEFFFE" transform="matrix(1.00, 0.00, -0.00, -1.00, 613.4, 172.1)">o</text><text xml:space="preserve" font-family="HelveticaNeue-Light,Helvetica Neue" font-size="42.5" fill="#FEFFFE" transform="matrix(1.00, 0.00, -0.00, -1.00, 637.1, 172.1)">d</text><text xml:space="preserve" font-family="HelveticaNeue-Light,Helvetica Neue" font-size="42.5" fill="#FEFFFE" transform="matrix(1.00, 0.00, -0.00, -1.00, 661.5, 172.1)">1</text><text xml:space="preserve" font-family="HelveticaNeue-Light,Helvetica Neue" font-size="42.5" fill="#FEFFFE" transform="matrix(1.00, 0.00, -0.00, -1.00, 685.1, 172.1)">3</text><text xml:space="preserve" font-family="HelveticaNeue-Light,Helvetica Neue" font-size="42.5" fill="#FEFFFE" transform="matrix(1.00, 0.00, -0.00, -1.00, 708.7, 172.1)">3</text><text xml:space="preserve" font-family="HelveticaNeue-Light,Helvetica Neue" font-size="42.5" fill="#FEFFFE" transform="matrix(1.00, 0.00, -0.00, -1.00, 732.4, 172.1)">7</text><text xml:space="preserve" font-family="HelveticaNeue-Light,Helvetica Neue" font-size="42.5" fill="#FEFFFE" transform="matrix(1.00, 0.00, -0.00, -1.00, 756.0, 172.1)"> </text><image xlink:href="A59E552415F1EBF09EF94462B01773CD.png" width="16.00" height="17.00" transform="matrix(1.00, 0.00, -0.00, -1.00, 39.0, 113.0)"></image><g><clipPath id="clip0x608006abae20"><path d="M 39.8 97.0 L 54.8 97.0 L 54.8 112.0 L 39.8 112.0 Z M 39.8 97.0 "></path></clipPath><g clip-path="url(#clip0x608006abae20)"><g><g><clipPath id="clip0x608006abb1e0"><path d="M 39.8 112.0 L 54.8 112.0 L 54.8 97.0 L 39.8 97.0 Z M 39.8 112.0 "></path></clipPath><g clip-path="url(#clip0x608006abb1e0)"><g><clipPath id="clip0x608006abb360"><path d="M 35.0 89.0 L 59.0 89.0 L 59.0 120.0 L 35.0 120.0 Z M 35.0 89.0 "></path></clipPath><g clip-path="url(#clip0x608006abb360)"><path d="M 54.8 109.0 C 54.8 109.7 54.5 110.3 53.8 111.0 C 53.2 111.7 52.5 112.0 51.8 112.0 C 51.5 112.0 50.9 111.9 50.2 111.5 C 49.0 111.0 48.1 110.7 47.3 110.7 C 46.4 110.7 45.4 111.0 44.3 111.5 C 43.6 111.9 43.1 112.0 42.7 112.0 C 42.0 112.0 41.4 111.7 40.8 111.1 C 40.1 110.4 39.8 109.7 39.8 109.0 C 39.8 108.7 40.0 108.1 40.3 107.4 C 40.8 106.3 41.1 105.3 41.1 104.5 C 41.1 103.7 40.8 102.7 40.3 101.6 C 40.0 100.9 39.8 100.4 39.8 100.0 C 39.8 99.3 40.1 98.6 40.8 98.0 C 41.4 97.3 42.0 97.0 42.7 97.0 C 43.1 97.0 43.6 97.2 44.3 97.5 C 45.4 98.1 46.4 98.3 47.3 98.3 C 48.1 98.3 49.0 98.1 50.2 97.5 C 50.9 97.2 51.5 97.0 51.8 97.0 C 52.5 97.0 53.2 97.3 53.8 98.0 C 54.5 98.6 54.8 99.3 54.8 100.0 C 54.8 100.4 54.6 100.9 54.3 101.6 C 53.7 102.7 53.4 103.7 53.4 104.5 C 53.4 105.3 53.7 106.3 54.3 107.4 C 54.6 108.1 54.8 108.7 54.8 109.0 " fill="#FFFFFF"></path></g></g></g></g></g></g></g><image xlink:href="BEC349D83250E8D1247D32D6D4247CAE.png" width="227.00" height="41.00" transform="matrix(1.00, 0.00, -0.00, -1.00, 76.0, 123.0)"></image><text xml:space="preserve" font-family="HelveticaNeue-Light,Helvetica Neue" font-size="42.5" fill="#FEFFFE" transform="matrix(1.00, 0.00, -0.00, -1.00, 81.1, 90.5)">/</text><text xml:space="preserve" font-family="HelveticaNeue-Light,Helvetica Neue" font-size="42.5" fill="#FEFFFE" transform="matrix(1.00, 0.00, -0.00, -1.00, 95.3, 90.5)">t</text><text xml:space="preserve" font-family="HelveticaNeue-Light,Helvetica Neue" font-size="42.5" fill="#FEFFFE" transform="matrix(1.00, 0.00, -0.00, -1.00, 107.9, 90.5)">a</text><text xml:space="preserve" font-family="HelveticaNeue-Light,Helvetica Neue" font-size="42.5" fill="#FEFFFE" transform="matrix(1.00, 0.00, -0.00, -1.00, 129.9, 90.5)">s</text><text xml:space="preserve" font-family="HelveticaNeue-Light,Helvetica Neue" font-size="42.5" fill="#FEFFFE" transform="matrix(1.00, 0.00, -0.00, -1.00, 150.4, 90.5)">k</text><text xml:space="preserve" font-family="HelveticaNeue-Light,Helvetica Neue" font-size="42.5" fill="#FEFFFE" transform="matrix(1.00, 0.00, -0.00, -1.00, 171.6, 90.5)">/</text><text xml:space="preserve" font-family="HelveticaNeue-Light,Helvetica Neue" font-size="42.5" fill="#FEFFFE" transform="matrix(1.00, 0.00, -0.00, -1.00, 185.8, 90.5)">c</text><text xml:space="preserve" font-family="HelveticaNeue-Light,Helvetica Neue" font-size="42.5" fill="#FEFFFE" transform="matrix(1.00, 0.00, -0.00, -1.00, 207.8, 90.5)">r</text><text xml:space="preserve" font-family="HelveticaNeue-Light,Helvetica Neue" font-size="42.5" fill="#FEFFFE" transform="matrix(1.00, 0.00, -0.00, -1.00, 220.4, 90.5)">e</text><text xml:space="preserve" font-family="HelveticaNeue-Light,Helvetica Neue" font-size="42.5" fill="#FEFFFE" transform="matrix(1.00, 0.00, -0.00, -1.00, 242.5, 90.5)">a</text><text xml:space="preserve" font-family="HelveticaNeue-Light,Helvetica Neue" font-size="42.5" fill="#FEFFFE" transform="matrix(1.00, 0.00, -0.00, -1.00, 264.6, 90.5)">t</text><text xml:space="preserve" font-family="HelveticaNeue-Light,Helvetica Neue" font-size="42.5" fill="#FEFFFE" transform="matrix(1.00, 0.00, -0.00, -1.00, 277.1, 90.5)">e</text><text xml:space="preserve" font-family="HelveticaNeue-Light,Helvetica Neue" font-size="42.5" fill="#FEFFFE" transform="matrix(1.00, 0.00, -0.00, -1.00, 299.2, 90.5)"> </text><image xlink:href="237723AA352F4DB89C02073D7A8AB472.png" width="16.00" height="16.00" transform="matrix(1.00, 0.00, -0.00, -1.00, 39.0, 31.0)"></image><g><clipPath id="clip0x608006abba20"><path d="M 39.8 15.4 L 54.8 15.4 L 54.8 30.4 L 39.8 30.4 Z M 39.8 15.4 "></path></clipPath><g clip-path="url(#clip0x608006abba20)"><g><g><clipPath id="clip0x608006abbd80"><path d="M 39.8 30.4 L 54.8 30.4 L 54.8 15.4 L 39.8 15.4 Z M 39.8 30.4 "></path></clipPath><g clip-path="url(#clip0x608006abbd80)"><g><clipPath id="clip0x608006abbf60"><path d="M 35.0 8.0 L 59.0 8.0 L 59.0 38.0 L 35.0 38.0 Z M 35.0 8.0 "></path></clipPath><g clip-path="url(#clip0x608006abbf60)"><path d="M 54.8 27.4 C 54.8 28.1 54.5 28.7 53.8 29.4 C 53.2 30.1 52.5 30.4 51.8 30.4 C 51.5 30.4 50.9 30.3 50.2 29.9 C 49.0 29.4 48.1 29.1 47.3 29.1 C 46.4 29.1 45.4 29.4 44.3 29.9 C 43.6 30.3 43.1 30.4 42.7 30.4 C 42.0 30.4 41.4 30.1 40.8 29.5 C 40.1 28.8 39.8 28.1 39.8 27.4 C 39.8 27.1 40.0 26.5 40.3 25.8 C 40.8 24.7 41.1 23.7 41.1 22.9 C 41.1 22.1 40.8 21.1 40.3 20.0 C 40.0 19.3 39.8 18.8 39.8 18.4 C 39.8 17.7 40.1 17.0 40.8 16.4 C 41.4 15.7 42.0 15.4 42.7 15.4 C 43.1 15.4 43.6 15.6 44.3 15.9 C 45.4 16.5 46.4 16.7 47.3 16.7 C 48.1 16.7 49.0 16.5 50.2 15.9 C 50.9 15.6 51.5 15.4 51.8 15.4 C 52.5 15.4 53.2 15.7 53.8 16.4 C 54.5 17.0 54.8 17.7 54.8 18.4 C 54.8 18.8 54.6 19.3 54.3 20.0 C 53.7 21.1 53.4 22.1 53.4 22.9 C 53.4 23.7 53.7 24.7 54.3 25.8 C 54.6 26.5 54.8 27.1 54.8 27.4 " fill="#FFFFFF"></path></g></g></g></g></g></g></g><image xlink:href="15F1197F01B2292DEF111B78C7D479D1.png" width="76.00" height="32.00" transform="matrix(1.00, 0.00, -0.00, -1.00, 78.0, 33.0)"></image><text xml:space="preserve" font-family="HelveticaNeue-Light,Helvetica Neue" font-size="42.5" fill="#FEFFFE" transform="matrix(1.00, 0.00, -0.00, -1.00, 81.1, 8.9)">o</text><text xml:space="preserve" font-family="HelveticaNeue-Light,Helvetica Neue" font-size="42.5" fill="#FEFFFE" transform="matrix(1.00, 0.00, -0.00, -1.00, 104.8, 8.9)">s</text><text xml:space="preserve" font-family="HelveticaNeue-Light,Helvetica Neue" font-size="42.5" fill="#FEFFFE" transform="matrix(1.00, 0.00, -0.00, -1.00, 125.2, 8.9)">v</text><text xml:space="preserve" font-family="HelveticaNeue-Light,Helvetica Neue" font-size="42.5" fill="#FEFFFE" transform="matrix(1.00, 0.00, -0.00, -1.00, 141.7, 8.9)">.</text></g></svg>