<?xml version="1.0" encoding="UTF-8" standalone="no"?><svg xmlns="http://www.w3.org/2000/svg" xmlns:xlink="http://www.w3.org/1999/xlink" clip-rule="evenodd" stroke-miterlimit="10" viewBox="0 0 1009 215"><desc>SVG generated by Keynote</desc><defs></defs><g transform="matrix(1.00, 0.00, -0.00, -1.00, 0.0, 215.0)"><image xlink:href="../../D7752157-21FF-4E0A-B3FA-FE94596EC53C/assets/1F7E1C364CD721C83E1934374D3BF41A.png" width="16.00" height="16.00" transform="matrix(1.00, 0.00, -0.00, -1.00, 4.0, 203.0)"></image><g><clipPath id="clip0x608006abd820"><path d="M 4.8 187.2 L 19.8 187.2 L 19.8 202.2 L 4.8 202.2 Z M 4.8 187.2 "></path></clipPath><g clip-path="url(#clip0x608006abd820)"><g><g><clipPath id="clip0x608006abddc0"><path d="M 4.8 202.2 L 19.8 202.2 L 19.8 187.2 L 4.8 187.2 Z M 4.8 202.2 "></path></clipPath><g clip-path="url(#clip0x608006abddc0)"><g><clipPath id="clip0x608006abda00"><path d="M 0.0 180.0 L 24.0 180.0 L 24.0 210.0 L 0.0 210.0 Z M 0.0 180.0 "></path></clipPath><g clip-path="url(#clip0x608006abda00)"><path d="M 19.8 199.2 C 19.8 199.9 19.5 200.5 18.8 201.2 C 18.2 201.9 17.5 202.2 16.8 202.2 C 16.5 202.2 15.9 202.1 15.2 201.7 C 14.0 201.2 13.1 200.9 12.3 200.9 C 11.4 200.9 10.4 201.2 9.3 201.7 C 8.6 202.1 8.1 202.2 7.7 202.2 C 7.0 202.2 6.4 201.9 5.8 201.3 C 5.1 200.6 4.8 199.9 4.8 199.2 C 4.8 198.9 5.0 198.3 5.3 197.6 C 5.8 196.5 6.1 195.5 6.1 194.7 C 6.1 193.9 5.8 192.9 5.3 191.8 C 5.0 191.1 4.8 190.6 4.8 190.2 C 4.8 189.5 5.1 188.8 5.8 188.2 C 6.4 187.5 7.0 187.2 7.7 187.2 C 8.1 187.2 8.6 187.4 9.3 187.7 C 10.4 188.3 11.4 188.5 12.3 188.5 C 13.1 188.5 14.0 188.3 15.2 187.7 C 15.9 187.4 16.5 187.2 16.8 187.2 C 17.5 187.2 18.2 187.5 18.8 188.2 C 19.5 188.8 19.8 189.5 19.8 190.2 C 19.8 190.6 19.6 191.1 19.3 191.8 C 18.7 192.9 18.4 193.9 18.4 194.7 C 18.4 195.5 18.7 196.5 19.3 197.6 C 19.6 198.3 19.8 198.9 19.8 199.2 " fill="#FFFFFF"></path></g></g></g></g></g></g></g><image xlink:href="C3214338578ACF7AB2A4758B476F40D5.png" width="965.00" height="49.00" transform="matrix(1.00, 0.00, -0.00, -1.00, 41.0, 213.0)"></image><text xml:space="preserve" font-family="HelveticaNeue-Light,Helvetica Neue" font-size="42.5" fill="#FEFFFE" transform="matrix(1.00, 0.00, -0.00, -1.00, 46.1, 180.7)">T</text><text xml:space="preserve" font-family="HelveticaNeue-Light,Helvetica Neue" font-size="42.5" fill="#FEFFFE" transform="matrix(1.00, 0.00, -0.00, -1.00, 70.8, 180.7)">i</text><text xml:space="preserve" font-family="HelveticaNeue-Light,Helvetica Neue" font-size="42.5" fill="#FEFFFE" transform="matrix(1.00, 0.00, -0.00, -1.00, 78.6, 180.7)">l</text><text xml:space="preserve" font-family="HelveticaNeue-Light,Helvetica Neue" font-size="42.5" fill="#FEFFFE" transform="matrix(1.00, 0.00, -0.00, -1.00, 86.5, 180.7)"> </text><text xml:space="preserve" font-family="HelveticaNeue-Light,Helvetica Neue" font-size="42.5" fill="#FEFFFE" transform="matrix(1.00, 0.00, -0.00, -1.00, 98.3, 180.7)">s</text><text xml:space="preserve" font-family="HelveticaNeue-Light,Helvetica Neue" font-size="42.5" fill="#FEFFFE" transform="matrix(1.00, 0.00, -0.00, -1.00, 118.8, 180.7)">e</text><text xml:space="preserve" font-family="HelveticaNeue-Light,Helvetica Neue" font-size="42.5" fill="#FEFFFE" transform="matrix(1.00, 0.00, -0.00, -1.00, 140.8, 180.7)">r</text><text xml:space="preserve" font-family="HelveticaNeue-Light,Helvetica Neue" font-size="42.5" fill="#FEFFFE" transform="matrix(1.00, 0.00, -0.00, -1.00, 154.2, 180.7)">i</text><text xml:space="preserve" font-family="HelveticaNeue-Light,Helvetica Neue" font-size="42.5" fill="#FEFFFE" transform="matrix(1.00, 0.00, -0.00, -1.00, 162.1, 180.7)">ø</text><text xml:space="preserve" font-family="HelveticaNeue-Light,Helvetica Neue" font-size="42.5" fill="#FEFFFE" transform="matrix(1.00, 0.00, -0.00, -1.00, 185.7, 180.7)">s</text><text xml:space="preserve" font-family="HelveticaNeue-Light,Helvetica Neue" font-size="42.5" fill="#FEFFFE" transform="matrix(1.00, 0.00, -0.00, -1.00, 206.1, 180.7)"> </text><text xml:space="preserve" font-family="HelveticaNeue-Light,Helvetica Neue" font-size="42.5" fill="#FEFFFE" transform="matrix(1.00, 0.00, -0.00, -1.00, 218.0, 180.7)">a</text><text xml:space="preserve" font-family="HelveticaNeue-Light,Helvetica Neue" font-size="42.5" fill="#FEFFFE" transform="matrix(1.00, 0.00, -0.00, -1.00, 240.0, 180.7)">r</text><text xml:space="preserve" font-family="HelveticaNeue-Light,Helvetica Neue" font-size="42.5" fill="#FEFFFE" transform="matrix(1.00, 0.00, -0.00, -1.00, 253.4, 180.7)">b</text><text xml:space="preserve" font-family="HelveticaNeue-Light,Helvetica Neue" font-size="42.5" fill="#FEFFFE" transform="matrix(1.00, 0.00, -0.00, -1.00, 277.8, 180.7)">e</text><text xml:space="preserve" font-family="HelveticaNeue-Light,Helvetica Neue" font-size="42.5" fill="#FEFFFE" transform="matrix(1.00, 0.00, -0.00, -1.00, 299.9, 180.7)">j</text><text xml:space="preserve" font-family="HelveticaNeue-Light,Helvetica Neue" font-size="42.5" fill="#FEFFFE" transform="matrix(1.00, 0.00, -0.00, -1.00, 307.7, 180.7)">d</text><text xml:space="preserve" font-family="HelveticaNeue-Light,Helvetica Neue" font-size="42.5" fill="#FEFFFE" transform="matrix(1.00, 0.00, -0.00, -1.00, 332.1, 180.7)">e</text><text xml:space="preserve" font-family="HelveticaNeue-Light,Helvetica Neue" font-size="42.5" fill="#FEFFFE" transform="matrix(1.00, 0.00, -0.00, -1.00, 354.2, 180.7)"> </text><text xml:space="preserve" font-family="HelveticaNeue-Light,Helvetica Neue" font-size="42.5" fill="#FEFFFE" transform="matrix(1.00, 0.00, -0.00, -1.00, 366.0, 180.7)">b</text><text xml:space="preserve" font-family="HelveticaNeue-Light,Helvetica Neue" font-size="42.5" fill="#FEFFFE" transform="matrix(1.00, 0.00, -0.00, -1.00, 390.4, 180.7)">r</text><text xml:space="preserve" font-family="HelveticaNeue-Light,Helvetica Neue" font-size="42.5" fill="#FEFFFE" transform="matrix(1.00, 0.00, -0.00, -1.00, 403.8, 180.7)">u</text><text xml:space="preserve" font-family="HelveticaNeue-Light,Helvetica Neue" font-size="42.5" fill="#FEFFFE" transform="matrix(1.00, 0.00, -0.00, -1.00, 426.6, 180.7)">g</text><text xml:space="preserve" font-family="HelveticaNeue-Light,Helvetica Neue" font-size="42.5" fill="#FEFFFE" transform="matrix(1.00, 0.00, -0.00, -1.00, 450.2, 180.7)"> </text><text xml:space="preserve" font-family="HelveticaNeue-Light,Helvetica Neue" font-size="42.5" fill="#FEFFFE" transform="matrix(1.00, 0.00, -0.00, -1.00, 462.0, 180.7)">e</text><text xml:space="preserve" font-family="HelveticaNeue-Light,Helvetica Neue" font-size="42.5" fill="#FEFFFE" transform="matrix(1.00, 0.00, -0.00, -1.00, 484.1, 180.7)">n</text><text xml:space="preserve" font-family="HelveticaNeue-Light,Helvetica Neue" font-size="42.5" fill="#FEFFFE" transform="matrix(1.00, 0.00, -0.00, -1.00, 506.9, 180.7)"> </text><text xml:space="preserve" font-family="HelveticaNeue-Light,Helvetica Neue" font-size="42.5" fill="#FEFFFE" transform="matrix(1.00, 0.00, -0.00, -1.00, 518.7, 180.7)">b</text><text xml:space="preserve" font-family="HelveticaNeue-Light,Helvetica Neue" font-size="42.5" fill="#FEFFFE" transform="matrix(1.00, 0.00, -0.00, -1.00, 543.1, 180.7)">e</text><text xml:space="preserve" font-family="HelveticaNeue-Light,Helvetica Neue" font-size="42.5" fill="#FEFFFE" transform="matrix(1.00, 0.00, -0.00, -1.00, 565.2, 180.7)">d</text><text xml:space="preserve" font-family="HelveticaNeue-Light,Helvetica Neue" font-size="42.5" fill="#FEFFFE" transform="matrix(1.00, 0.00, -0.00, -1.00, 589.6, 180.7)">r</text><text xml:space="preserve" font-family="HelveticaNeue-Light,Helvetica Neue" font-size="42.5" fill="#FEFFFE" transform="matrix(1.00, 0.00, -0.00, -1.00, 602.2, 180.7)">e</text><text xml:space="preserve" font-family="HelveticaNeue-Light,Helvetica Neue" font-size="42.5" fill="#FEFFFE" transform="matrix(1.00, 0.00, -0.00, -1.00, 624.3, 180.7)"> </text><text xml:space="preserve" font-family="HelveticaNeue-Light,Helvetica Neue" font-size="42.5" fill="#FEFFFE" transform="matrix(1.00, 0.00, -0.00, -1.00, 636.1, 180.7)">r</text><text xml:space="preserve" font-family="HelveticaNeue-Light,Helvetica Neue" font-size="42.5" fill="#FEFFFE" transform="matrix(1.00, 0.00, -0.00, -1.00, 648.7, 180.7)">o</text><text xml:space="preserve" font-family="HelveticaNeue-Light,Helvetica Neue" font-size="42.5" fill="#FEFFFE" transform="matrix(1.00, 0.00, -0.00, -1.00, 672.3, 180.7)">u</text><text xml:space="preserve" font-family="HelveticaNeue-Light,Helvetica Neue" font-size="42.5" fill="#FEFFFE" transform="matrix(1.00, 0.00, -0.00, -1.00, 695.1, 180.7)">t</text><text xml:space="preserve" font-family="HelveticaNeue-Light,Helvetica Neue" font-size="42.5" fill="#FEFFFE" transform="matrix(1.00, 0.00, -0.00, -1.00, 707.7, 180.7)">e</text><text xml:space="preserve" font-family="HelveticaNeue-Light,Helvetica Neue" font-size="42.5" fill="#FEFFFE" transform="matrix(1.00, 0.00, -0.00, -1.00, 729.8, 180.7)">r</text><text xml:space="preserve" font-family="HelveticaNeue-Light,Helvetica Neue" font-size="42.5" fill="#FEFFFE" transform="matrix(1.00, 0.00, -0.00, -1.00, 743.2, 180.7)"> </text><text xml:space="preserve" font-family="HelveticaNeue-Light,Helvetica Neue" font-size="42.5" fill="#FEFFFE" transform="matrix(1.00, 0.00, -0.00, -1.00, 755.0, 180.7)">e</text><text xml:space="preserve" font-family="HelveticaNeue-Light,Helvetica Neue" font-size="42.5" fill="#FEFFFE" transform="matrix(1.00, 0.00, -0.00, -1.00, 777.0, 180.7)">n</text><text xml:space="preserve" font-family="HelveticaNeue-Light,Helvetica Neue" font-size="42.5" fill="#FEFFFE" transform="matrix(1.00, 0.00, -0.00, -1.00, 799.9, 180.7)">d</text><text xml:space="preserve" font-family="HelveticaNeue-Light,Helvetica Neue" font-size="42.5" fill="#FEFFFE" transform="matrix(1.00, 0.00, -0.00, -1.00, 824.3, 180.7)"> </text><text xml:space="preserve" font-family="HelveticaNeue-Light,Helvetica Neue" font-size="42.5" fill="#FEFFFE" transform="matrix(1.00, 0.00, -0.00, -1.00, 836.1, 180.7)">A</text><text xml:space="preserve" font-family="HelveticaNeue-Light,Helvetica Neue" font-size="42.5" fill="#FEFFFE" transform="matrix(1.00, 0.00, -0.00, -1.00, 862.9, 180.7)">n</text><text xml:space="preserve" font-family="HelveticaNeue-Light,Helvetica Neue" font-size="42.5" fill="#FEFFFE" transform="matrix(1.00, 0.00, -0.00, -1.00, 885.7, 180.7)">g</text><text xml:space="preserve" font-family="HelveticaNeue-Light,Helvetica Neue" font-size="42.5" fill="#FEFFFE" transform="matrix(1.00, 0.00, -0.00, -1.00, 909.3, 180.7)">u</text><text xml:space="preserve" font-family="HelveticaNeue-Light,Helvetica Neue" font-size="42.5" fill="#FEFFFE" transform="matrix(1.00, 0.00, -0.00, -1.00, 932.1, 180.7)">l</text><text xml:space="preserve" font-family="HelveticaNeue-Light,Helvetica Neue" font-size="42.5" fill="#FEFFFE" transform="matrix(1.00, 0.00, -0.00, -1.00, 940.0, 180.7)">a</text><text xml:space="preserve" font-family="HelveticaNeue-Light,Helvetica Neue" font-size="42.5" fill="#FEFFFE" transform="matrix(1.00, 0.00, -0.00, -1.00, 962.0, 180.7)">r</text><text xml:space="preserve" font-family="HelveticaNeue-Light,Helvetica Neue" font-size="42.5" fill="#FEFFFE" transform="matrix(1.00, 0.00, -0.00, -1.00, 975.4, 180.7)">’</text><text xml:space="preserve" font-family="HelveticaNeue-Light,Helvetica Neue" font-size="42.5" fill="#FEFFFE" transform="matrix(1.00, 0.00, -0.00, -1.00, 982.5, 180.7)">s</text><text xml:space="preserve" font-family="HelveticaNeue-Light,Helvetica Neue" font-size="42.5" fill="#FEFFFE" transform="matrix(1.00, 0.00, -0.00, -1.00, 1003.0, 180.7)"> </text><image xlink:href="../../D7752157-21FF-4E0A-B3FA-FE94596EC53C/assets/E11A4F6EA4411B690170E459A72C391A.png" width="16.00" height="16.00" transform="matrix(1.00, 0.00, -0.00, -1.00, 39.0, 121.0)"></image><g><clipPath id="clip0x6000028a0ae0"><path d="M 39.8 105.6 L 54.8 105.6 L 54.8 120.6 L 39.8 120.6 Z M 39.8 105.6 "></path></clipPath><g clip-path="url(#clip0x6000028a0ae0)"><g><g><clipPath id="clip0x6000028a0d80"><path d="M 39.8 120.6 L 54.8 120.6 L 54.8 105.6 L 39.8 105.6 Z M 39.8 120.6 "></path></clipPath><g clip-path="url(#clip0x6000028a0d80)"><g><clipPath id="clip0x6000028a0720"><path d="M 35.0 98.0 L 59.0 98.0 L 59.0 128.0 L 35.0 128.0 Z M 35.0 98.0 "></path></clipPath><g clip-path="url(#clip0x6000028a0720)"><path d="M 54.8 117.6 C 54.8 118.3 54.5 118.9 53.8 119.6 C 53.2 120.3 52.5 120.6 51.8 120.6 C 51.5 120.6 50.9 120.5 50.2 120.1 C 49.0 119.6 48.1 119.3 47.3 119.3 C 46.4 119.3 45.4 119.6 44.3 120.1 C 43.6 120.5 43.1 120.6 42.7 120.6 C 42.0 120.6 41.4 120.3 40.8 119.7 C 40.1 119.0 39.8 118.3 39.8 117.6 C 39.8 117.3 40.0 116.7 40.3 116.0 C 40.8 114.9 41.1 113.9 41.1 113.1 C 41.1 112.3 40.8 111.3 40.3 110.2 C 40.0 109.5 39.8 109.0 39.8 108.6 C 39.8 107.9 40.1 107.2 40.8 106.6 C 41.4 105.9 42.0 105.6 42.7 105.6 C 43.1 105.6 43.6 105.8 44.3 106.1 C 45.4 106.7 46.4 106.9 47.3 106.9 C 48.1 106.9 49.0 106.7 50.2 106.1 C 50.9 105.8 51.5 105.6 51.8 105.6 C 52.5 105.6 53.2 105.9 53.8 106.6 C 54.5 107.2 54.8 107.9 54.8 108.6 C 54.8 109.0 54.6 109.5 54.3 110.2 C 53.7 111.3 53.4 112.3 53.4 113.1 C 53.4 113.9 53.7 114.9 54.3 116.0 C 54.6 116.7 54.8 117.3 54.8 117.6 " fill="#FFFFFF"></path></g></g></g></g></g></g></g><image xlink:href="72E5E00EE3A658D04DE28A873416043F.png" width="448.00" height="48.00" transform="matrix(1.00, 0.00, -0.00, -1.00, 80.0, 131.0)"></image><text xml:space="preserve" font-family="HelveticaNeue-Light,Helvetica Neue" font-size="42.5" fill="#FEFFFE" transform="matrix(1.00, 0.00, -0.00, -1.00, 81.1, 99.1)">F</text><text xml:space="preserve" font-family="HelveticaNeue-Light,Helvetica Neue" font-size="42.5" fill="#FEFFFE" transform="matrix(1.00, 0.00, -0.00, -1.00, 98.5, 99.1)">.</text><text xml:space="preserve" font-family="HelveticaNeue-Light,Helvetica Neue" font-size="42.5" fill="#FEFFFE" transform="matrix(1.00, 0.00, -0.00, -1.00, 110.3, 99.1)">e</text><text xml:space="preserve" font-family="HelveticaNeue-Light,Helvetica Neue" font-size="42.5" fill="#FEFFFE" transform="matrix(1.00, 0.00, -0.00, -1.00, 132.3, 99.1)">k</text><text xml:space="preserve" font-family="HelveticaNeue-Light,Helvetica Neue" font-size="42.5" fill="#FEFFFE" transform="matrix(1.00, 0.00, -0.00, -1.00, 153.6, 99.1)">s</text><text xml:space="preserve" font-family="HelveticaNeue-Light,Helvetica Neue" font-size="42.5" fill="#FEFFFE" transform="matrix(1.00, 0.00, -0.00, -1.00, 174.0, 99.1)">.</text><text xml:space="preserve" font-family="HelveticaNeue-Light,Helvetica Neue" font-size="42.5" fill="#FEFFFE" transform="matrix(1.00, 0.00, -0.00, -1.00, 185.9, 99.1)"> </text><text xml:space="preserve" font-family="HelveticaNeue-Light,Helvetica Neue" font-size="42.5" fill="#FEFFFE" transform="matrix(1.00, 0.00, -0.00, -1.00, 197.7, 99.1)">A</text><text xml:space="preserve" font-family="HelveticaNeue-Light,Helvetica Neue" font-size="42.5" fill="#FEFFFE" transform="matrix(1.00, 0.00, -0.00, -1.00, 224.4, 99.1)">n</text><text xml:space="preserve" font-family="HelveticaNeue-Light,Helvetica Neue" font-size="42.5" fill="#FEFFFE" transform="matrix(1.00, 0.00, -0.00, -1.00, 247.3, 99.1)">g</text><text xml:space="preserve" font-family="HelveticaNeue-Light,Helvetica Neue" font-size="42.5" fill="#FEFFFE" transform="matrix(1.00, 0.00, -0.00, -1.00, 270.9, 99.1)">u</text><text xml:space="preserve" font-family="HelveticaNeue-Light,Helvetica Neue" font-size="42.5" fill="#FEFFFE" transform="matrix(1.00, 0.00, -0.00, -1.00, 293.7, 99.1)">l</text><text xml:space="preserve" font-family="HelveticaNeue-Light,Helvetica Neue" font-size="42.5" fill="#FEFFFE" transform="matrix(1.00, 0.00, -0.00, -1.00, 301.6, 99.1)">a</text><text xml:space="preserve" font-family="HelveticaNeue-Light,Helvetica Neue" font-size="42.5" fill="#FEFFFE" transform="matrix(1.00, 0.00, -0.00, -1.00, 323.6, 99.1)">r</text><text xml:space="preserve" font-family="HelveticaNeue-Light,Helvetica Neue" font-size="42.5" fill="#FEFFFE" transform="matrix(1.00, 0.00, -0.00, -1.00, 334.7, 99.1)">-</text><text xml:space="preserve" font-family="HelveticaNeue-Light,Helvetica Neue" font-size="42.5" fill="#FEFFFE" transform="matrix(1.00, 0.00, -0.00, -1.00, 350.4, 99.1)">U</text><text xml:space="preserve" font-family="HelveticaNeue-Light,Helvetica Neue" font-size="42.5" fill="#FEFFFE" transform="matrix(1.00, 0.00, -0.00, -1.00, 379.5, 99.1)">I</text><text xml:space="preserve" font-family="HelveticaNeue-Light,Helvetica Neue" font-size="42.5" fill="#FEFFFE" transform="matrix(1.00, 0.00, -0.00, -1.00, 389.0, 99.1)"> </text><text xml:space="preserve" font-family="HelveticaNeue-Light,Helvetica Neue" font-size="42.5" fill="#FEFFFE" transform="matrix(1.00, 0.00, -0.00, -1.00, 400.8, 99.1)">R</text><text xml:space="preserve" font-family="HelveticaNeue-Light,Helvetica Neue" font-size="42.5" fill="#FEFFFE" transform="matrix(1.00, 0.00, -0.00, -1.00, 429.1, 99.1)">o</text><text xml:space="preserve" font-family="HelveticaNeue-Light,Helvetica Neue" font-size="42.5" fill="#FEFFFE" transform="matrix(1.00, 0.00, -0.00, -1.00, 452.8, 99.1)">u</text><text xml:space="preserve" font-family="HelveticaNeue-Light,Helvetica Neue" font-size="42.5" fill="#FEFFFE" transform="matrix(1.00, 0.00, -0.00, -1.00, 475.6, 99.1)">t</text><text xml:space="preserve" font-family="HelveticaNeue-Light,Helvetica Neue" font-size="42.5" fill="#FEFFFE" transform="matrix(1.00, 0.00, -0.00, -1.00, 488.2, 99.1)">e</text><text xml:space="preserve" font-family="HelveticaNeue-Light,Helvetica Neue" font-size="42.5" fill="#FEFFFE" transform="matrix(1.00, 0.00, -0.00, -1.00, 510.2, 99.1)">r</text><text xml:space="preserve" font-family="HelveticaNeue-Light,Helvetica Neue" font-size="42.5" fill="#FEFFFE" transform="matrix(1.00, 0.00, -0.00, -1.00, 523.6, 99.1)"> </text><image xlink:href="../../D7752157-21FF-4E0A-B3FA-FE94596EC53C/assets/A59E552415F1EBF09EF94462B01773CD.png" width="16.00" height="17.00" transform="matrix(1.00, 0.00, -0.00, -1.00, 39.0, 40.0)"></image><g><clipPath id="clip0x6000026bfe60"><path d="M 39.8 24.0 L 54.8 24.0 L 54.8 39.0 L 39.8 39.0 Z M 39.8 24.0 "></path></clipPath><g clip-path="url(#clip0x6000026bfe60)"><g><g><clipPath id="clip0x6000026bfc20"><path d="M 39.8 39.0 L 54.8 39.0 L 54.8 24.0 L 39.8 24.0 Z M 39.8 39.0 "></path></clipPath><g clip-path="url(#clip0x6000026bfc20)"><g><clipPath id="clip0x6000026bf980"><path d="M 35.0 16.0 L 59.0 16.0 L 59.0 47.0 L 35.0 47.0 Z M 35.0 16.0 "></path></clipPath><g clip-path="url(#clip0x6000026bf980)"><path d="M 54.8 36.0 C 54.8 36.7 54.5 37.3 53.8 38.0 C 53.2 38.7 52.5 39.0 51.8 39.0 C 51.5 39.0 50.9 38.9 50.2 38.5 C 49.0 38.0 48.1 37.7 47.3 37.7 C 46.4 37.7 45.4 38.0 44.3 38.5 C 43.6 38.9 43.1 39.0 42.7 39.0 C 42.0 39.0 41.4 38.7 40.8 38.1 C 40.1 37.4 39.8 36.7 39.8 36.0 C 39.8 35.7 40.0 35.1 40.3 34.4 C 40.8 33.3 41.1 32.3 41.1 31.5 C 41.1 30.7 40.8 29.7 40.3 28.6 C 40.0 27.9 39.8 27.4 39.8 27.0 C 39.8 26.3 40.1 25.6 40.8 25.0 C 41.4 24.3 42.0 24.0 42.7 24.0 C 43.1 24.0 43.6 24.2 44.3 24.5 C 45.4 25.1 46.4 25.3 47.3 25.3 C 48.1 25.3 49.0 25.1 50.2 24.5 C 50.9 24.2 51.5 24.0 51.8 24.0 C 52.5 24.0 53.2 24.3 53.8 25.0 C 54.5 25.6 54.8 26.3 54.8 27.0 C 54.8 27.4 54.6 27.9 54.3 28.6 C 53.7 29.7 53.4 30.7 53.4 31.5 C 53.4 32.3 53.7 33.3 54.3 34.4 C 54.6 35.1 54.8 35.7 54.8 36.0 " fill="#FFFFFF"></path></g></g></g></g></g></g></g><image xlink:href="A474C6FD3561FD0DC68F0C55E13DF216.png" width="707.00" height="49.00" transform="matrix(1.00, 0.00, -0.00, -1.00, 79.0, 50.0)"></image><text xml:space="preserve" font-family="HelveticaNeue-Light,Helvetica Neue" font-size="42.5" fill="#FEFFFE" transform="matrix(1.00, 0.00, -0.00, -1.00, 81.1, 17.5)">h</text><text xml:space="preserve" font-family="HelveticaNeue-Light,Helvetica Neue" font-size="42.5" fill="#FEFFFE" transform="matrix(1.00, 0.00, -0.00, -1.00, 104.0, 17.5)">t</text><text xml:space="preserve" font-family="HelveticaNeue-Light,Helvetica Neue" font-size="42.5" fill="#FEFFFE" transform="matrix(1.00, 0.00, -0.00, -1.00, 116.5, 17.5)">t</text><text xml:space="preserve" font-family="HelveticaNeue-Light,Helvetica Neue" font-size="42.5" fill="#FEFFFE" transform="matrix(1.00, 0.00, -0.00, -1.00, 129.1, 17.5)">p</text><text xml:space="preserve" font-family="HelveticaNeue-Light,Helvetica Neue" font-size="42.5" fill="#FEFFFE" transform="matrix(1.00, 0.00, -0.00, -1.00, 153.5, 17.5)">s</text><text xml:space="preserve" font-family="HelveticaNeue-Light,Helvetica Neue" font-size="42.5" fill="#FEFFFE" transform="matrix(1.00, 0.00, -0.00, -1.00, 174.0, 17.5)">:</text><text xml:space="preserve" font-family="HelveticaNeue-Light,Helvetica Neue" font-size="42.5" fill="#FEFFFE" transform="matrix(1.00, 0.00, -0.00, -1.00, 185.8, 17.5)">/</text><text xml:space="preserve" font-family="HelveticaNeue-Light,Helvetica Neue" font-size="42.5" fill="#FEFFFE" transform="matrix(1.00, 0.00, -0.00, -1.00, 199.9, 17.5)">/</text><text xml:space="preserve" font-family="HelveticaNeue-Light,Helvetica Neue" font-size="42.5" fill="#FEFFFE" transform="matrix(1.00, 0.00, -0.00, -1.00, 214.1, 17.5)">g</text><text xml:space="preserve" font-family="HelveticaNeue-Light,Helvetica Neue" font-size="42.5" fill="#FEFFFE" transform="matrix(1.00, 0.00, -0.00, -1.00, 237.7, 17.5)">i</text><text xml:space="preserve" font-family="HelveticaNeue-Light,Helvetica Neue" font-size="42.5" fill="#FEFFFE" transform="matrix(1.00, 0.00, -0.00, -1.00, 245.6, 17.5)">t</text><text xml:space="preserve" font-family="HelveticaNeue-Light,Helvetica Neue" font-size="42.5" fill="#FEFFFE" transform="matrix(1.00, 0.00, -0.00, -1.00, 258.1, 17.5)">h</text><text xml:space="preserve" font-family="HelveticaNeue-Light,Helvetica Neue" font-size="42.5" fill="#FEFFFE" transform="matrix(1.00, 0.00, -0.00, -1.00, 281.0, 17.5)">u</text><text xml:space="preserve" font-family="HelveticaNeue-Light,Helvetica Neue" font-size="42.5" fill="#FEFFFE" transform="matrix(1.00, 0.00, -0.00, -1.00, 303.8, 17.5)">b</text><text xml:space="preserve" font-family="HelveticaNeue-Light,Helvetica Neue" font-size="42.5" fill="#FEFFFE" transform="matrix(1.00, 0.00, -0.00, -1.00, 328.2, 17.5)">.</text><text xml:space="preserve" font-family="HelveticaNeue-Light,Helvetica Neue" font-size="42.5" fill="#FEFFFE" transform="matrix(1.00, 0.00, -0.00, -1.00, 340.0, 17.5)">c</text><text xml:space="preserve" font-family="HelveticaNeue-Light,Helvetica Neue" font-size="42.5" fill="#FEFFFE" transform="matrix(1.00, 0.00, -0.00, -1.00, 362.1, 17.5)">o</text><text xml:space="preserve" font-family="HelveticaNeue-Light,Helvetica Neue" font-size="42.5" fill="#FEFFFE" transform="matrix(1.00, 0.00, -0.00, -1.00, 385.7, 17.5)">m</text><text xml:space="preserve" font-family="HelveticaNeue-Light,Helvetica Neue" font-size="42.5" fill="#FEFFFE" transform="matrix(1.00, 0.00, -0.00, -1.00, 421.1, 17.5)">/</text><text xml:space="preserve" font-family="HelveticaNeue-Light,Helvetica Neue" font-size="42.5" fill="#FEFFFE" transform="matrix(1.00, 0.00, -0.00, -1.00, 435.2, 17.5)">a</text><text xml:space="preserve" font-family="HelveticaNeue-Light,Helvetica Neue" font-size="42.5" fill="#FEFFFE" transform="matrix(1.00, 0.00, -0.00, -1.00, 457.3, 17.5)">n</text><text xml:space="preserve" font-family="HelveticaNeue-Light,Helvetica Neue" font-size="42.5" fill="#FEFFFE" transform="matrix(1.00, 0.00, -0.00, -1.00, 480.1, 17.5)">g</text><text xml:space="preserve" font-family="HelveticaNeue-Light,Helvetica Neue" font-size="42.5" fill="#FEFFFE" transform="matrix(1.00, 0.00, -0.00, -1.00, 503.8, 17.5)">u</text><text xml:space="preserve" font-family="HelveticaNeue-Light,Helvetica Neue" font-size="42.5" fill="#FEFFFE" transform="matrix(1.00, 0.00, -0.00, -1.00, 526.6, 17.5)">l</text><text xml:space="preserve" font-family="HelveticaNeue-Light,Helvetica Neue" font-size="42.5" fill="#FEFFFE" transform="matrix(1.00, 0.00, -0.00, -1.00, 534.4, 17.5)">a</text><text xml:space="preserve" font-family="HelveticaNeue-Light,Helvetica Neue" font-size="42.5" fill="#FEFFFE" transform="matrix(1.00, 0.00, -0.00, -1.00, 556.5, 17.5)">r</text><text xml:space="preserve" font-family="HelveticaNeue-Light,Helvetica Neue" font-size="42.5" fill="#FEFFFE" transform="matrix(1.00, 0.00, -0.00, -1.00, 567.5, 17.5)">-</text><text xml:space="preserve" font-family="HelveticaNeue-Light,Helvetica Neue" font-size="42.5" fill="#FEFFFE" transform="matrix(1.00, 0.00, -0.00, -1.00, 583.3, 17.5)">u</text><text xml:space="preserve" font-family="HelveticaNeue-Light,Helvetica Neue" font-size="42.5" fill="#FEFFFE" transform="matrix(1.00, 0.00, -0.00, -1.00, 606.1, 17.5)">i</text><text xml:space="preserve" font-family="HelveticaNeue-Light,Helvetica Neue" font-size="42.5" fill="#FEFFFE" transform="matrix(1.00, 0.00, -0.00, -1.00, 614.0, 17.5)">/</text><text xml:space="preserve" font-family="HelveticaNeue-Light,Helvetica Neue" font-size="42.5" fill="#FEFFFE" transform="matrix(1.00, 0.00, -0.00, -1.00, 628.1, 17.5)">u</text><text xml:space="preserve" font-family="HelveticaNeue-Light,Helvetica Neue" font-size="42.5" fill="#FEFFFE" transform="matrix(1.00, 0.00, -0.00, -1.00, 650.9, 17.5)">i</text><text xml:space="preserve" font-family="HelveticaNeue-Light,Helvetica Neue" font-size="42.5" fill="#FEFFFE" transform="matrix(1.00, 0.00, -0.00, -1.00, 658.8, 17.5)">-</text><text xml:space="preserve" font-family="HelveticaNeue-Light,Helvetica Neue" font-size="42.5" fill="#FEFFFE" transform="matrix(1.00, 0.00, -0.00, -1.00, 674.5, 17.5)">r</text><text xml:space="preserve" font-family="HelveticaNeue-Light,Helvetica Neue" font-size="42.5" fill="#FEFFFE" transform="matrix(1.00, 0.00, -0.00, -1.00, 687.1, 17.5)">o</text><text xml:space="preserve" font-family="HelveticaNeue-Light,Helvetica Neue" font-size="42.5" fill="#FEFFFE" transform="matrix(1.00, 0.00, -0.00, -1.00, 710.8, 17.5)">u</text><text xml:space="preserve" font-family="HelveticaNeue-Light,Helvetica Neue" font-size="42.5" fill="#FEFFFE" transform="matrix(1.00, 0.00, -0.00, -1.00, 733.6, 17.5)">t</text><text xml:space="preserve" font-family="HelveticaNeue-Light,Helvetica Neue" font-size="42.5" fill="#FEFFFE" transform="matrix(1.00, 0.00, -0.00, -1.00, 746.2, 17.5)">e</text><text xml:space="preserve" font-family="HelveticaNeue-Light,Helvetica Neue" font-size="42.5" fill="#FEFFFE" transform="matrix(1.00, 0.00, -0.00, -1.00, 768.2, 17.5)">r</text><g><clipPath id="clip0x608006abfc80"><path d="M 80.1 11.2 L 781.6 11.2 L 781.6 15.3 L 80.1 15.3 Z M 80.1 11.2 "></path></clipPath><g clip-path="url(#clip0x608006abfc80)"><path d="M 81.9 621.8 L 782.4 621.8 " fill="none" stroke="#FEFFFE" stroke-width="2.12" transform="matrix(1.00, 0.00, 0.00, -1.00, -0.8, 635.0)"></path></g></g></g></svg>