<?xml version="1.0" encoding="UTF-8" standalone="no"?><svg xmlns="http://www.w3.org/2000/svg" xmlns:xlink="http://www.w3.org/1999/xlink" clip-rule="evenodd" stroke-miterlimit="10" viewBox="0 0 614 51"><desc>SVG generated by Keynote</desc><defs></defs><g transform="matrix(1.00, 0.00, -0.00, -1.00, 0.0, 51.0)"><image xlink:href="0A27EBC628D25E7B082AB570BC224BFD.png" width="16.00" height="16.00" transform="matrix(1.00, 0.00, -0.00, -1.00, 4.0, 39.0)"></image><g><clipPath id="clip0x6080034a8220"><path d="M 4.8 23.8 L 19.8 23.8 L 19.8 38.8 L 4.8 38.8 Z M 4.8 23.8 "></path></clipPath><g clip-path="url(#clip0x6080034a8220)"><g><g><clipPath id="clip0x6080034a8400"><path d="M 4.8 38.8 L 19.8 38.8 L 19.8 23.8 L 4.8 23.8 Z M 4.8 38.8 "></path></clipPath><g clip-path="url(#clip0x6080034a8400)"><g><clipPath id="clip0x6080034a85e0"><path d="M 0.0 16.0 L 24.0 16.0 L 24.0 46.0 L 0.0 46.0 Z M 0.0 16.0 "></path></clipPath><g clip-path="url(#clip0x6080034a85e0)"><path d="M 19.8 35.8 C 19.8 36.5 19.5 37.1 18.8 37.8 C 18.2 38.5 17.5 38.8 16.8 38.8 C 16.5 38.8 15.9 38.7 15.2 38.3 C 14.0 37.8 13.1 37.5 12.3 37.5 C 11.4 37.5 10.4 37.8 9.3 38.3 C 8.6 38.7 8.1 38.8 7.7 38.8 C 7.0 38.8 6.4 38.5 5.8 37.9 C 5.1 37.2 4.8 36.5 4.8 35.8 C 4.8 35.5 5.0 34.9 5.3 34.2 C 5.8 33.1 6.1 32.1 6.1 31.3 C 6.1 30.5 5.8 29.5 5.3 28.4 C 5.0 27.7 4.8 27.2 4.8 26.8 C 4.8 26.1 5.1 25.4 5.8 24.8 C 6.4 24.1 7.0 23.8 7.7 23.8 C 8.1 23.8 8.6 24.0 9.3 24.3 C 10.4 24.9 11.4 25.2 12.3 25.2 C 13.1 25.2 14.0 24.9 15.2 24.3 C 15.9 24.0 16.5 23.8 16.8 23.8 C 17.5 23.8 18.2 24.1 18.8 24.8 C 19.5 25.4 19.8 26.1 19.8 26.8 C 19.8 27.2 19.6 27.7 19.3 28.4 C 18.7 29.5 18.4 30.5 18.4 31.3 C 18.4 32.1 18.7 33.1 19.3 34.2 C 19.6 34.9 19.8 35.5 19.8 35.8 " fill="#FFFFFF"></path></g></g></g></g></g></g></g><image xlink:href="B1D12A5FDF170F86C9949A39270180F6.png" width="566.00" height="47.00" transform="matrix(1.00, 0.00, -0.00, -1.00, 47.0, 49.0)"></image><text xml:space="preserve" font-family="HelveticaNeue-Light,Helvetica Neue" font-size="42.5" fill="#FEFFFE" transform="matrix(1.00, 0.00, -0.00, -1.00, 46.1, 17.3)">…</text><text xml:space="preserve" font-family="HelveticaNeue-Light,Helvetica Neue" font-size="42.5" fill="#FEFFFE" transform="matrix(1.00, 0.00, -0.00, -1.00, 88.6, 17.3)"> </text><text xml:space="preserve" font-family="HelveticaNeue-Light,Helvetica Neue" font-size="42.5" fill="#FEFFFE" transform="matrix(1.00, 0.00, -0.00, -1.00, 100.4, 17.3)">o</text><text xml:space="preserve" font-family="HelveticaNeue-Light,Helvetica Neue" font-size="42.5" fill="#FEFFFE" transform="matrix(1.00, 0.00, -0.00, -1.00, 124.1, 17.3)">v</text><text xml:space="preserve" font-family="HelveticaNeue-Light,Helvetica Neue" font-size="42.5" fill="#FEFFFE" transform="matrix(1.00, 0.00, -0.00, -1.00, 143.8, 17.3)">e</text><text xml:space="preserve" font-family="HelveticaNeue-Light,Helvetica Neue" font-size="42.5" fill="#FEFFFE" transform="matrix(1.00, 0.00, -0.00, -1.00, 165.8, 17.3)">r</text><text xml:space="preserve" font-family="HelveticaNeue-Light,Helvetica Neue" font-size="42.5" fill="#FEFFFE" transform="matrix(1.00, 0.00, -0.00, -1.00, 179.2, 17.3)">h</text><text xml:space="preserve" font-family="HelveticaNeue-Light,Helvetica Neue" font-size="42.5" fill="#FEFFFE" transform="matrix(1.00, 0.00, -0.00, -1.00, 202.0, 17.3)">o</text><text xml:space="preserve" font-family="HelveticaNeue-Light,Helvetica Neue" font-size="42.5" fill="#FEFFFE" transform="matrix(1.00, 0.00, -0.00, -1.00, 225.7, 17.3)">l</text><text xml:space="preserve" font-family="HelveticaNeue-Light,Helvetica Neue" font-size="42.5" fill="#FEFFFE" transform="matrix(1.00, 0.00, -0.00, -1.00, 233.5, 17.3)">d</text><text xml:space="preserve" font-family="HelveticaNeue-Light,Helvetica Neue" font-size="42.5" fill="#FEFFFE" transform="matrix(1.00, 0.00, -0.00, -1.00, 257.9, 17.3)"> </text><text xml:space="preserve" font-family="HelveticaNeue-Light,Helvetica Neue" font-size="42.5" fill="#FEFFFE" transform="matrix(1.00, 0.00, -0.00, -1.00, 269.7, 17.3)">j</text><text xml:space="preserve" font-family="HelveticaNeue-Light,Helvetica Neue" font-size="42.5" fill="#FEFFFE" transform="matrix(1.00, 0.00, -0.00, -1.00, 277.6, 17.3)">e</text><text xml:space="preserve" font-family="HelveticaNeue-Light,Helvetica Neue" font-size="42.5" fill="#FEFFFE" transform="matrix(1.00, 0.00, -0.00, -1.00, 299.6, 17.3)">r</text><text xml:space="preserve" font-family="HelveticaNeue-Light,Helvetica Neue" font-size="42.5" fill="#FEFFFE" transform="matrix(1.00, 0.00, -0.00, -1.00, 312.3, 17.3)">e</text><text xml:space="preserve" font-family="HelveticaNeue-Light,Helvetica Neue" font-size="42.5" fill="#FEFFFE" transform="matrix(1.00, 0.00, -0.00, -1.00, 334.3, 17.3)">s</text><text xml:space="preserve" font-family="HelveticaNeue-Light,Helvetica Neue" font-size="42.5" fill="#FEFFFE" transform="matrix(1.00, 0.00, -0.00, -1.00, 354.8, 17.3)"> </text><text xml:space="preserve" font-family="HelveticaNeue-Light,Helvetica Neue" font-size="42.5" fill="#FEFFFE" transform="matrix(1.00, 0.00, -0.00, -1.00, 366.6, 17.3)">k</text><text xml:space="preserve" font-family="HelveticaNeue-Light,Helvetica Neue" font-size="42.5" fill="#FEFFFE" transform="matrix(1.00, 0.00, -0.00, -1.00, 387.8, 17.3)">o</text><text xml:space="preserve" font-family="HelveticaNeue-Light,Helvetica Neue" font-size="42.5" fill="#FEFFFE" transform="matrix(1.00, 0.00, -0.00, -1.00, 411.5, 17.3)">n</text><text xml:space="preserve" font-family="HelveticaNeue-Light,Helvetica Neue" font-size="42.5" fill="#FEFFFE" transform="matrix(1.00, 0.00, -0.00, -1.00, 434.3, 17.3)">v</text><text xml:space="preserve" font-family="HelveticaNeue-Light,Helvetica Neue" font-size="42.5" fill="#FEFFFE" transform="matrix(1.00, 0.00, -0.00, -1.00, 454.0, 17.3)">e</text><text xml:space="preserve" font-family="HelveticaNeue-Light,Helvetica Neue" font-size="42.5" fill="#FEFFFE" transform="matrix(1.00, 0.00, -0.00, -1.00, 476.0, 17.3)">n</text><text xml:space="preserve" font-family="HelveticaNeue-Light,Helvetica Neue" font-size="42.5" fill="#FEFFFE" transform="matrix(1.00, 0.00, -0.00, -1.00, 498.8, 17.3)">t</text><text xml:space="preserve" font-family="HelveticaNeue-Light,Helvetica Neue" font-size="42.5" fill="#FEFFFE" transform="matrix(1.00, 0.00, -0.00, -1.00, 511.4, 17.3)">i</text><text xml:space="preserve" font-family="HelveticaNeue-Light,Helvetica Neue" font-size="42.5" fill="#FEFFFE" transform="matrix(1.00, 0.00, -0.00, -1.00, 519.3, 17.3)">o</text><text xml:space="preserve" font-family="HelveticaNeue-Light,Helvetica Neue" font-size="42.5" fill="#FEFFFE" transform="matrix(1.00, 0.00, -0.00, -1.00, 542.9, 17.3)">n</text><text xml:space="preserve" font-family="HelveticaNeue-Light,Helvetica Neue" font-size="42.5" fill="#FEFFFE" transform="matrix(1.00, 0.00, -0.00, -1.00, 565.7, 17.3)">e</text><text xml:space="preserve" font-family="HelveticaNeue-Light,Helvetica Neue" font-size="42.5" fill="#FEFFFE" transform="matrix(1.00, 0.00, -0.00, -1.00, 587.8, 17.3)">r</text><text xml:space="preserve" font-family="HelveticaNeue-Light,Helvetica Neue" font-size="42.5" fill="#FEFFFE" transform="matrix(1.00, 0.00, -0.00, -1.00, 601.2, 17.3)">!</text></g></svg>