<?xml version="1.0" encoding="UTF-8" standalone="no"?><svg xmlns="http://www.w3.org/2000/svg" xmlns:xlink="http://www.w3.org/1999/xlink" clip-rule="evenodd" stroke-miterlimit="10" viewBox="0 0 1070 184"><desc>SVG generated by Keynote</desc><defs></defs><g transform="matrix(1.00, 0.00, -0.00, -1.00, 0.0, 184.0)"><image xlink:href="A3821B982A9EA0C4F0CA123BBB132F2F.png" width="16.00" height="16.00" transform="matrix(1.00, 0.00, -0.00, -1.00, 4.0, 172.0)"></image><g><clipPath id="clip0x600000eadda0"><path d="M 4.8 156.6 L 19.8 156.6 L 19.8 171.6 L 4.8 171.6 Z M 4.8 156.6 "></path></clipPath><g clip-path="url(#clip0x600000eadda0)"><g><g><clipPath id="clip0x600000eadf80"><path d="M 4.8 171.6 L 19.8 171.6 L 19.8 156.6 L 4.8 156.6 Z M 4.8 171.6 "></path></clipPath><g clip-path="url(#clip0x600000eadf80)"><g><clipPath id="clip0x600000eae100"><path d="M 0.0 149.0 L 24.0 149.0 L 24.0 179.0 L 0.0 179.0 Z M 0.0 149.0 "></path></clipPath><g clip-path="url(#clip0x600000eae100)"><path d="M 19.8 168.6 C 19.8 169.3 19.5 169.9 18.8 170.6 C 18.2 171.3 17.5 171.6 16.8 171.6 C 16.5 171.6 15.9 171.5 15.2 171.1 C 14.0 170.6 13.1 170.3 12.3 170.3 C 11.4 170.3 10.4 170.6 9.3 171.1 C 8.6 171.5 8.1 171.6 7.7 171.6 C 7.0 171.6 6.4 171.3 5.8 170.7 C 5.1 170.0 4.8 169.3 4.8 168.6 C 4.8 168.3 5.0 167.7 5.3 167.0 C 5.8 165.9 6.1 164.9 6.1 164.1 C 6.1 163.3 5.8 162.3 5.3 161.2 C 5.0 160.5 4.8 160.0 4.8 159.6 C 4.8 158.9 5.1 158.2 5.8 157.6 C 6.4 156.9 7.0 156.6 7.7 156.6 C 8.1 156.6 8.6 156.8 9.3 157.1 C 10.4 157.7 11.4 158.0 12.3 158.0 C 13.1 158.0 14.0 157.7 15.2 157.1 C 15.9 156.8 16.5 156.6 16.8 156.6 C 17.5 156.6 18.2 156.9 18.8 157.6 C 19.5 158.2 19.8 158.9 19.8 159.6 C 19.8 160.0 19.6 160.5 19.3 161.2 C 18.7 162.3 18.4 163.3 18.4 164.1 C 18.4 164.9 18.7 165.9 19.3 167.0 C 19.6 167.7 19.8 168.3 19.8 168.6 " fill="#FFFFFF"></path></g></g></g></g></g></g></g><image xlink:href="53CACD4D7F769C4C4579C527E6D5D60A.png" width="1021.00" height="48.00" transform="matrix(1.00, 0.00, -0.00, -1.00, 45.0, 182.0)"></image><text xml:space="preserve" font-family="HelveticaNeue-Light,Helvetica Neue" font-size="42.5" fill="#FEFFFE" transform="matrix(1.00, 0.00, -0.00, -1.00, 46.1, 150.1)">F</text><text xml:space="preserve" font-family="HelveticaNeue-Light,Helvetica Neue" font-size="42.5" fill="#FEFFFE" transform="matrix(1.00, 0.00, -0.00, -1.00, 69.0, 150.1)">o</text><text xml:space="preserve" font-family="HelveticaNeue-Light,Helvetica Neue" font-size="42.5" fill="#FEFFFE" transform="matrix(1.00, 0.00, -0.00, -1.00, 92.6, 150.1)">r</text><text xml:space="preserve" font-family="HelveticaNeue-Light,Helvetica Neue" font-size="42.5" fill="#FEFFFE" transform="matrix(1.00, 0.00, -0.00, -1.00, 105.2, 150.1)">d</text><text xml:space="preserve" font-family="HelveticaNeue-Light,Helvetica Neue" font-size="42.5" fill="#FEFFFE" transform="matrix(1.00, 0.00, -0.00, -1.00, 129.6, 150.1)">i</text><text xml:space="preserve" font-family="HelveticaNeue-Light,Helvetica Neue" font-size="42.5" fill="#FEFFFE" transform="matrix(1.00, 0.00, -0.00, -1.00, 137.5, 150.1)"> </text><text xml:space="preserve" font-family="HelveticaNeue-Light,Helvetica Neue" font-size="42.5" fill="#FEFFFE" transform="matrix(1.00, 0.00, -0.00, -1.00, 149.3, 150.1)">A</text><text xml:space="preserve" font-family="HelveticaNeue-Light,Helvetica Neue" font-size="42.5" fill="#FEFFFE" transform="matrix(1.00, 0.00, -0.00, -1.00, 176.1, 150.1)">n</text><text xml:space="preserve" font-family="HelveticaNeue-Light,Helvetica Neue" font-size="42.5" fill="#FEFFFE" transform="matrix(1.00, 0.00, -0.00, -1.00, 198.9, 150.1)">g</text><text xml:space="preserve" font-family="HelveticaNeue-Light,Helvetica Neue" font-size="42.5" fill="#FEFFFE" transform="matrix(1.00, 0.00, -0.00, -1.00, 222.5, 150.1)">u</text><text xml:space="preserve" font-family="HelveticaNeue-Light,Helvetica Neue" font-size="42.5" fill="#FEFFFE" transform="matrix(1.00, 0.00, -0.00, -1.00, 245.3, 150.1)">l</text><text xml:space="preserve" font-family="HelveticaNeue-Light,Helvetica Neue" font-size="42.5" fill="#FEFFFE" transform="matrix(1.00, 0.00, -0.00, -1.00, 253.2, 150.1)">a</text><text xml:space="preserve" font-family="HelveticaNeue-Light,Helvetica Neue" font-size="42.5" fill="#FEFFFE" transform="matrix(1.00, 0.00, -0.00, -1.00, 275.2, 150.1)">r</text><text xml:space="preserve" font-family="HelveticaNeue-Light,Helvetica Neue" font-size="42.5" fill="#FEFFFE" transform="matrix(1.00, 0.00, -0.00, -1.00, 288.6, 150.1)"> </text><text xml:space="preserve" font-family="HelveticaNeue-Light,Helvetica Neue" font-size="42.5" fill="#FEFFFE" transform="matrix(1.00, 0.00, -0.00, -1.00, 300.5, 150.1)">i</text><text xml:space="preserve" font-family="HelveticaNeue-Light,Helvetica Neue" font-size="42.5" fill="#FEFFFE" transform="matrix(1.00, 0.00, -0.00, -1.00, 308.3, 150.1)">k</text><text xml:space="preserve" font-family="HelveticaNeue-Light,Helvetica Neue" font-size="42.5" fill="#FEFFFE" transform="matrix(1.00, 0.00, -0.00, -1.00, 329.6, 150.1)">k</text><text xml:space="preserve" font-family="HelveticaNeue-Light,Helvetica Neue" font-size="42.5" fill="#FEFFFE" transform="matrix(1.00, 0.00, -0.00, -1.00, 350.8, 150.1)">e</text><text xml:space="preserve" font-family="HelveticaNeue-Light,Helvetica Neue" font-size="42.5" fill="#FEFFFE" transform="matrix(1.00, 0.00, -0.00, -1.00, 372.9, 150.1)"> </text><text xml:space="preserve" font-family="HelveticaNeue-Light,Helvetica Neue" font-size="42.5" fill="#FEFFFE" transform="matrix(1.00, 0.00, -0.00, -1.00, 384.7, 150.1)">e</text><text xml:space="preserve" font-family="HelveticaNeue-Light,Helvetica Neue" font-size="42.5" fill="#FEFFFE" transform="matrix(1.00, 0.00, -0.00, -1.00, 406.7, 150.1)">r</text><text xml:space="preserve" font-family="HelveticaNeue-Light,Helvetica Neue" font-size="42.5" fill="#FEFFFE" transform="matrix(1.00, 0.00, -0.00, -1.00, 420.1, 150.1)"> </text><text xml:space="preserve" font-family="HelveticaNeue-Light,Helvetica Neue" font-size="42.5" fill="#FEFFFE" transform="matrix(1.00, 0.00, -0.00, -1.00, 431.9, 150.1)">o</text><text xml:space="preserve" font-family="HelveticaNeue-Light,Helvetica Neue" font-size="42.5" fill="#FEFFFE" transform="matrix(1.00, 0.00, -0.00, -1.00, 455.6, 150.1)">p</text><text xml:space="preserve" font-family="HelveticaNeue-Light,Helvetica Neue" font-size="42.5" fill="#FEFFFE" transform="matrix(1.00, 0.00, -0.00, -1.00, 480.0, 150.1)">i</text><text xml:space="preserve" font-family="HelveticaNeue-Light,Helvetica Neue" font-size="42.5" fill="#FEFFFE" transform="matrix(1.00, 0.00, -0.00, -1.00, 487.8, 150.1)">n</text><text xml:space="preserve" font-family="HelveticaNeue-Light,Helvetica Neue" font-size="42.5" fill="#FEFFFE" transform="matrix(1.00, 0.00, -0.00, -1.00, 510.7, 150.1)">i</text><text xml:space="preserve" font-family="HelveticaNeue-Light,Helvetica Neue" font-size="42.5" fill="#FEFFFE" transform="matrix(1.00, 0.00, -0.00, -1.00, 518.5, 150.1)">o</text><text xml:space="preserve" font-family="HelveticaNeue-Light,Helvetica Neue" font-size="42.5" fill="#FEFFFE" transform="matrix(1.00, 0.00, -0.00, -1.00, 542.1, 150.1)">n</text><text xml:space="preserve" font-family="HelveticaNeue-Light,Helvetica Neue" font-size="42.5" fill="#FEFFFE" transform="matrix(1.00, 0.00, -0.00, -1.00, 565.0, 150.1)">a</text><text xml:space="preserve" font-family="HelveticaNeue-Light,Helvetica Neue" font-size="42.5" fill="#FEFFFE" transform="matrix(1.00, 0.00, -0.00, -1.00, 587.0, 150.1)">t</text><text xml:space="preserve" font-family="HelveticaNeue-Light,Helvetica Neue" font-size="42.5" fill="#FEFFFE" transform="matrix(1.00, 0.00, -0.00, -1.00, 599.6, 150.1)">e</text><text xml:space="preserve" font-family="HelveticaNeue-Light,Helvetica Neue" font-size="42.5" fill="#FEFFFE" transform="matrix(1.00, 0.00, -0.00, -1.00, 621.7, 150.1)">d</text><text xml:space="preserve" font-family="HelveticaNeue-Light,Helvetica Neue" font-size="42.5" fill="#FEFFFE" transform="matrix(1.00, 0.00, -0.00, -1.00, 646.1, 150.1)">,</text><text xml:space="preserve" font-family="HelveticaNeue-Light,Helvetica Neue" font-size="42.5" fill="#FEFFFE" transform="matrix(1.00, 0.00, -0.00, -1.00, 657.9, 150.1)"> </text><text xml:space="preserve" font-family="HelveticaNeue-Light,Helvetica Neue" font-size="42.5" fill="#FEFFFE" transform="matrix(1.00, 0.00, -0.00, -1.00, 669.7, 150.1)">s</text><text xml:space="preserve" font-family="HelveticaNeue-Light,Helvetica Neue" font-size="42.5" fill="#FEFFFE" transform="matrix(1.00, 0.00, -0.00, -1.00, 690.1, 150.1)">t</text><text xml:space="preserve" font-family="HelveticaNeue-Light,Helvetica Neue" font-size="42.5" fill="#FEFFFE" transform="matrix(1.00, 0.00, -0.00, -1.00, 702.7, 150.1)">i</text><text xml:space="preserve" font-family="HelveticaNeue-Light,Helvetica Neue" font-size="42.5" fill="#FEFFFE" transform="matrix(1.00, 0.00, -0.00, -1.00, 710.6, 150.1)">l</text><text xml:space="preserve" font-family="HelveticaNeue-Light,Helvetica Neue" font-size="42.5" fill="#FEFFFE" transform="matrix(1.00, 0.00, -0.00, -1.00, 718.4, 150.1)">l</text><text xml:space="preserve" font-family="HelveticaNeue-Light,Helvetica Neue" font-size="42.5" fill="#FEFFFE" transform="matrix(1.00, 0.00, -0.00, -1.00, 726.3, 150.1)">e</text><text xml:space="preserve" font-family="HelveticaNeue-Light,Helvetica Neue" font-size="42.5" fill="#FEFFFE" transform="matrix(1.00, 0.00, -0.00, -1.00, 748.4, 150.1)">r</text><text xml:space="preserve" font-family="HelveticaNeue-Light,Helvetica Neue" font-size="42.5" fill="#FEFFFE" transform="matrix(1.00, 0.00, -0.00, -1.00, 761.7, 150.1)"> </text><text xml:space="preserve" font-family="HelveticaNeue-Light,Helvetica Neue" font-size="42.5" fill="#FEFFFE" transform="matrix(1.00, 0.00, -0.00, -1.00, 773.6, 150.1)">d</text><text xml:space="preserve" font-family="HelveticaNeue-Light,Helvetica Neue" font-size="42.5" fill="#FEFFFE" transform="matrix(1.00, 0.00, -0.00, -1.00, 798.0, 150.1)">e</text><text xml:space="preserve" font-family="HelveticaNeue-Light,Helvetica Neue" font-size="42.5" fill="#FEFFFE" transform="matrix(1.00, 0.00, -0.00, -1.00, 820.0, 150.1)">t</text><text xml:space="preserve" font-family="HelveticaNeue-Light,Helvetica Neue" font-size="42.5" fill="#FEFFFE" transform="matrix(1.00, 0.00, -0.00, -1.00, 832.6, 150.1)"> </text><text xml:space="preserve" font-family="HelveticaNeue-Light,Helvetica Neue" font-size="42.5" fill="#FEFFFE" transform="matrix(1.00, 0.00, -0.00, -1.00, 844.4, 150.1)">s</text><text xml:space="preserve" font-family="HelveticaNeue-Light,Helvetica Neue" font-size="42.5" fill="#FEFFFE" transform="matrix(1.00, 0.00, -0.00, -1.00, 864.9, 150.1)">t</text><text xml:space="preserve" font-family="HelveticaNeue-Light,Helvetica Neue" font-size="42.5" fill="#FEFFFE" transform="matrix(1.00, 0.00, -0.00, -1.00, 877.4, 150.1)">o</text><text xml:space="preserve" font-family="HelveticaNeue-Light,Helvetica Neue" font-size="42.5" fill="#FEFFFE" transform="matrix(1.00, 0.00, -0.00, -1.00, 901.1, 150.1)">r</text><text xml:space="preserve" font-family="HelveticaNeue-Light,Helvetica Neue" font-size="42.5" fill="#FEFFFE" transform="matrix(1.00, 0.00, -0.00, -1.00, 913.7, 150.1)">e</text><text xml:space="preserve" font-family="HelveticaNeue-Light,Helvetica Neue" font-size="42.5" fill="#FEFFFE" transform="matrix(1.00, 0.00, -0.00, -1.00, 935.7, 150.1)"> </text><text xml:space="preserve" font-family="HelveticaNeue-Light,Helvetica Neue" font-size="42.5" fill="#FEFFFE" transform="matrix(1.00, 0.00, -0.00, -1.00, 947.6, 150.1)">k</text><text xml:space="preserve" font-family="HelveticaNeue-Light,Helvetica Neue" font-size="42.5" fill="#FEFFFE" transform="matrix(1.00, 0.00, -0.00, -1.00, 968.8, 150.1)">r</text><text xml:space="preserve" font-family="HelveticaNeue-Light,Helvetica Neue" font-size="42.5" fill="#FEFFFE" transform="matrix(1.00, 0.00, -0.00, -1.00, 982.2, 150.1)">a</text><text xml:space="preserve" font-family="HelveticaNeue-Light,Helvetica Neue" font-size="42.5" fill="#FEFFFE" transform="matrix(1.00, 0.00, -0.00, -1.00, 1004.3, 150.1)">v</text><text xml:space="preserve" font-family="HelveticaNeue-Light,Helvetica Neue" font-size="42.5" fill="#FEFFFE" transform="matrix(1.00, 0.00, -0.00, -1.00, 1023.9, 150.1)"> </text><text xml:space="preserve" font-family="HelveticaNeue-Light,Helvetica Neue" font-size="42.5" fill="#FEFFFE" transform="matrix(1.00, 0.00, -0.00, -1.00, 1035.7, 150.1)">t</text><text xml:space="preserve" font-family="HelveticaNeue-Light,Helvetica Neue" font-size="42.5" fill="#FEFFFE" transform="matrix(1.00, 0.00, -0.00, -1.00, 1048.3, 150.1)">i</text><text xml:space="preserve" font-family="HelveticaNeue-Light,Helvetica Neue" font-size="42.5" fill="#FEFFFE" transform="matrix(1.00, 0.00, -0.00, -1.00, 1056.2, 150.1)">l</text><text xml:space="preserve" font-family="HelveticaNeue-Light,Helvetica Neue" font-size="42.5" fill="#FEFFFE" transform="matrix(1.00, 0.00, -0.00, -1.00, 1064.0, 150.1)"> </text><image xlink:href="73A5F4408EFA423FAB6D25B9457659C8.png" width="204.00" height="40.00" transform="matrix(1.00, 0.00, -0.00, -1.00, 44.0, 131.0)"></image><text xml:space="preserve" font-family="HelveticaNeue-Light,Helvetica Neue" font-size="42.5" fill="#FEFFFE" transform="matrix(1.00, 0.00, -0.00, -1.00, 46.1, 99.1)">u</text><text xml:space="preserve" font-family="HelveticaNeue-Light,Helvetica Neue" font-size="42.5" fill="#FEFFFE" transform="matrix(1.00, 0.00, -0.00, -1.00, 69.0, 99.1)">d</text><text xml:space="preserve" font-family="HelveticaNeue-Light,Helvetica Neue" font-size="42.5" fill="#FEFFFE" transform="matrix(1.00, 0.00, -0.00, -1.00, 93.3, 99.1)">v</text><text xml:space="preserve" font-family="HelveticaNeue-Light,Helvetica Neue" font-size="42.5" fill="#FEFFFE" transform="matrix(1.00, 0.00, -0.00, -1.00, 113.0, 99.1)">i</text><text xml:space="preserve" font-family="HelveticaNeue-Light,Helvetica Neue" font-size="42.5" fill="#FEFFFE" transform="matrix(1.00, 0.00, -0.00, -1.00, 120.9, 99.1)">k</text><text xml:space="preserve" font-family="HelveticaNeue-Light,Helvetica Neue" font-size="42.5" fill="#FEFFFE" transform="matrix(1.00, 0.00, -0.00, -1.00, 142.1, 99.1)">l</text><text xml:space="preserve" font-family="HelveticaNeue-Light,Helvetica Neue" font-size="42.5" fill="#FEFFFE" transform="matrix(1.00, 0.00, -0.00, -1.00, 150.0, 99.1)">e</text><text xml:space="preserve" font-family="HelveticaNeue-Light,Helvetica Neue" font-size="42.5" fill="#FEFFFE" transform="matrix(1.00, 0.00, -0.00, -1.00, 172.1, 99.1)">r</text><text xml:space="preserve" font-family="HelveticaNeue-Light,Helvetica Neue" font-size="42.5" fill="#FEFFFE" transform="matrix(1.00, 0.00, -0.00, -1.00, 184.7, 99.1)">e</text><text xml:space="preserve" font-family="HelveticaNeue-Light,Helvetica Neue" font-size="42.5" fill="#FEFFFE" transform="matrix(1.00, 0.00, -0.00, -1.00, 206.7, 99.1)">…</text><text xml:space="preserve" font-family="HelveticaNeue-Light,Helvetica Neue" font-size="42.5" fill="#FEFFFE" transform="matrix(1.00, 0.00, -0.00, -1.00, 249.2, 99.1)"> </text><image xlink:href="B56AA9666441162673A08F29DD9AD103.png" width="16.00" height="17.00" transform="matrix(1.00, 0.00, -0.00, -1.00, 39.0, 40.0)"></image><g><clipPath id="clip0x6080034a7260"><path d="M 39.8 24.0 L 54.8 24.0 L 54.8 39.0 L 39.8 39.0 Z M 39.8 24.0 "></path></clipPath><g clip-path="url(#clip0x6080034a7260)"><g><g><clipPath id="clip0x6080034a7320"><path d="M 39.8 39.0 L 54.8 39.0 L 54.8 24.0 L 39.8 24.0 Z M 39.8 39.0 "></path></clipPath><g clip-path="url(#clip0x6080034a7320)"><g><clipPath id="clip0x6080034a74a0"><path d="M 35.0 16.0 L 59.0 16.0 L 59.0 47.0 L 35.0 47.0 Z M 35.0 16.0 "></path></clipPath><g clip-path="url(#clip0x6080034a74a0)"><path d="M 54.8 36.0 C 54.8 36.7 54.5 37.3 53.8 38.0 C 53.2 38.7 52.5 39.0 51.8 39.0 C 51.5 39.0 50.9 38.9 50.2 38.5 C 49.0 38.0 48.1 37.7 47.3 37.7 C 46.4 37.7 45.4 38.0 44.3 38.5 C 43.6 38.9 43.1 39.0 42.7 39.0 C 42.0 39.0 41.4 38.7 40.8 38.1 C 40.1 37.4 39.8 36.7 39.8 36.0 C 39.8 35.7 40.0 35.1 40.3 34.4 C 40.8 33.3 41.1 32.3 41.1 31.5 C 41.1 30.7 40.8 29.7 40.3 28.6 C 40.0 27.9 39.8 27.4 39.8 27.0 C 39.8 26.3 40.1 25.6 40.8 25.0 C 41.4 24.3 42.0 24.0 42.7 24.0 C 43.1 24.0 43.6 24.2 44.3 24.5 C 45.4 25.1 46.4 25.4 47.3 25.4 C 48.1 25.4 49.0 25.1 50.2 24.5 C 50.9 24.2 51.5 24.0 51.8 24.0 C 52.5 24.0 53.2 24.3 53.8 25.0 C 54.5 25.6 54.8 26.3 54.8 27.0 C 54.8 27.4 54.6 27.9 54.3 28.6 C 53.7 29.7 53.4 30.7 53.4 31.5 C 53.4 32.3 53.7 33.3 54.3 34.4 C 54.6 35.1 54.8 35.7 54.8 36.0 " fill="#FFFFFF"></path></g></g></g></g></g></g></g><image xlink:href="33F528067B399F794A7BC3B2B797876E.png" width="207.00" height="48.00" transform="matrix(1.00, 0.00, -0.00, -1.00, 78.0, 50.0)"></image><text xml:space="preserve" font-family="HelveticaNeue-Light,Helvetica Neue" font-size="42.5" fill="#FEFFFE" transform="matrix(1.00, 0.00, -0.00, -1.00, 81.1, 17.5)">S</text><text xml:space="preserve" font-family="HelveticaNeue-Light,Helvetica Neue" font-size="42.5" fill="#FEFFFE" transform="matrix(1.00, 0.00, -0.00, -1.00, 107.9, 17.5)">e</text><text xml:space="preserve" font-family="HelveticaNeue-Light,Helvetica Neue" font-size="42.5" fill="#FEFFFE" transform="matrix(1.00, 0.00, -0.00, -1.00, 130.0, 17.5)">l</text><text xml:space="preserve" font-family="HelveticaNeue-Light,Helvetica Neue" font-size="42.5" fill="#FEFFFE" transform="matrix(1.00, 0.00, -0.00, -1.00, 137.8, 17.5)">v</text><text xml:space="preserve" font-family="HelveticaNeue-Light,Helvetica Neue" font-size="42.5" fill="#FEFFFE" transform="matrix(1.00, 0.00, -0.00, -1.00, 157.5, 17.5)">d</text><text xml:space="preserve" font-family="HelveticaNeue-Light,Helvetica Neue" font-size="42.5" fill="#FEFFFE" transform="matrix(1.00, 0.00, -0.00, -1.00, 181.9, 17.5)">i</text><text xml:space="preserve" font-family="HelveticaNeue-Light,Helvetica Neue" font-size="42.5" fill="#FEFFFE" transform="matrix(1.00, 0.00, -0.00, -1.00, 189.8, 17.5)">c</text><text xml:space="preserve" font-family="HelveticaNeue-Light,Helvetica Neue" font-size="42.5" fill="#FEFFFE" transform="matrix(1.00, 0.00, -0.00, -1.00, 211.8, 17.5)">i</text><text xml:space="preserve" font-family="HelveticaNeue-Light,Helvetica Neue" font-size="42.5" fill="#FEFFFE" transform="matrix(1.00, 0.00, -0.00, -1.00, 219.7, 17.5)">p</text><text xml:space="preserve" font-family="HelveticaNeue-Light,Helvetica Neue" font-size="42.5" fill="#FEFFFE" transform="matrix(1.00, 0.00, -0.00, -1.00, 244.1, 17.5)">l</text><text xml:space="preserve" font-family="HelveticaNeue-Light,Helvetica Neue" font-size="42.5" fill="#FEFFFE" transform="matrix(1.00, 0.00, -0.00, -1.00, 251.9, 17.5)">i</text><text xml:space="preserve" font-family="HelveticaNeue-Light,Helvetica Neue" font-size="42.5" fill="#FEFFFE" transform="matrix(1.00, 0.00, -0.00, -1.00, 259.8, 17.5)">n</text></g></svg>