<?xml version="1.0" encoding="UTF-8" standalone="no"?><svg xmlns="http://www.w3.org/2000/svg" xmlns:xlink="http://www.w3.org/1999/xlink" clip-rule="evenodd" stroke-miterlimit="10" viewBox="0 0 465 51"><desc>SVG generated by Keynote</desc><defs></defs><g transform="matrix(1.00, 0.00, -0.00, -1.00, 0.0, 51.0)"><image xlink:href="DA08A42531E5B00C37E21F19A1633820.png" width="16.00" height="16.00" transform="matrix(1.00, 0.00, -0.00, -1.00, 4.0, 39.0)"></image><g><clipPath id="clip0x6080034ab820"><path d="M 4.8 23.8 L 19.8 23.8 L 19.8 38.8 L 4.8 38.8 Z M 4.8 23.8 "></path></clipPath><g clip-path="url(#clip0x6080034ab820)"><g><g><clipPath id="clip0x6080034aba00"><path d="M 4.8 38.8 L 19.8 38.8 L 19.8 23.8 L 4.8 23.8 Z M 4.8 38.8 "></path></clipPath><g clip-path="url(#clip0x6080034aba00)"><g><clipPath id="clip0x6080034abb80"><path d="M 0.0 16.0 L 24.0 16.0 L 24.0 46.0 L 0.0 46.0 Z M 0.0 16.0 "></path></clipPath><g clip-path="url(#clip0x6080034abb80)"><path d="M 19.8 35.8 C 19.8 36.5 19.5 37.1 18.8 37.8 C 18.2 38.5 17.5 38.8 16.8 38.8 C 16.5 38.8 15.9 38.6 15.2 38.3 C 14.0 37.7 13.1 37.5 12.3 37.5 C 11.4 37.5 10.4 37.7 9.3 38.3 C 8.6 38.6 8.1 38.8 7.7 38.8 C 7.0 38.8 6.4 38.5 5.8 37.8 C 5.1 37.2 4.8 36.5 4.8 35.8 C 4.8 35.4 5.0 34.9 5.3 34.1 C 5.8 33.0 6.1 32.1 6.1 31.3 C 6.1 30.5 5.8 29.5 5.3 28.4 C 5.0 27.7 4.8 27.1 4.8 26.8 C 4.8 26.1 5.1 25.4 5.8 24.7 C 6.4 24.1 7.0 23.8 7.7 23.8 C 8.1 23.8 8.6 23.9 9.3 24.3 C 10.4 24.8 11.4 25.1 12.3 25.1 C 13.1 25.1 14.0 24.8 15.2 24.3 C 15.9 23.9 16.5 23.8 16.8 23.8 C 17.5 23.8 18.2 24.1 18.8 24.7 C 19.5 25.4 19.8 26.1 19.8 26.8 C 19.8 27.1 19.6 27.7 19.3 28.4 C 18.7 29.5 18.4 30.5 18.4 31.3 C 18.4 32.1 18.7 33.0 19.3 34.1 C 19.6 34.9 19.8 35.4 19.8 35.8 " fill="#FFFFFF"></path></g></g></g></g></g></g></g><image xlink:href="38A85E95E47EB8AB9AB727DED5E33087.png" width="418.00" height="48.00" transform="matrix(1.00, 0.00, -0.00, -1.00, 45.0, 49.0)"></image><text xml:space="preserve" font-family="HelveticaNeue-Light,Helvetica Neue" font-size="42.5" fill="#FEFFFE" transform="matrix(1.00, 0.00, -0.00, -1.00, 46.1, 17.3)">B</text><text xml:space="preserve" font-family="HelveticaNeue-Light,Helvetica Neue" font-size="42.5" fill="#FEFFFE" transform="matrix(1.00, 0.00, -0.00, -1.00, 74.5, 17.3)">r</text><text xml:space="preserve" font-family="HelveticaNeue-Light,Helvetica Neue" font-size="42.5" fill="#FEFFFE" transform="matrix(1.00, 0.00, -0.00, -1.00, 87.9, 17.3)">u</text><text xml:space="preserve" font-family="HelveticaNeue-Light,Helvetica Neue" font-size="42.5" fill="#FEFFFE" transform="matrix(1.00, 0.00, -0.00, -1.00, 110.7, 17.3)">g</text><text xml:space="preserve" font-family="HelveticaNeue-Light,Helvetica Neue" font-size="42.5" fill="#FEFFFE" transform="matrix(1.00, 0.00, -0.00, -1.00, 134.3, 17.3)"> </text><text xml:space="preserve" font-family="HelveticaNeue-Light,Helvetica Neue" font-size="42.5" fill="#FEFFFE" transform="matrix(1.00, 0.00, -0.00, -1.00, 146.1, 17.3)">e</text><text xml:space="preserve" font-family="HelveticaNeue-Light,Helvetica Neue" font-size="42.5" fill="#FEFFFE" transform="matrix(1.00, 0.00, -0.00, -1.00, 168.2, 17.3)">n</text><text xml:space="preserve" font-family="HelveticaNeue-Light,Helvetica Neue" font-size="42.5" fill="#FEFFFE" transform="matrix(1.00, 0.00, -0.00, -1.00, 191.0, 17.3)"> </text><text xml:space="preserve" font-family="HelveticaNeue-Light,Helvetica Neue" font-size="42.5" fill="#FEFFFE" transform="matrix(1.00, 0.00, -0.00, -1.00, 202.8, 17.3)">a</text><text xml:space="preserve" font-family="HelveticaNeue-Light,Helvetica Neue" font-size="42.5" fill="#FEFFFE" transform="matrix(1.00, 0.00, -0.00, -1.00, 224.9, 17.3)">s</text><text xml:space="preserve" font-family="HelveticaNeue-Light,Helvetica Neue" font-size="42.5" fill="#FEFFFE" transform="matrix(1.00, 0.00, -0.00, -1.00, 245.3, 17.3)">s</text><text xml:space="preserve" font-family="HelveticaNeue-Light,Helvetica Neue" font-size="42.5" fill="#FEFFFE" transform="matrix(1.00, 0.00, -0.00, -1.00, 265.8, 17.3)">e</text><text xml:space="preserve" font-family="HelveticaNeue-Light,Helvetica Neue" font-size="42.5" fill="#FEFFFE" transform="matrix(1.00, 0.00, -0.00, -1.00, 287.8, 17.3)">t</text><text xml:space="preserve" font-family="HelveticaNeue-Light,Helvetica Neue" font-size="42.5" fill="#FEFFFE" transform="matrix(1.00, 0.00, -0.00, -1.00, 300.4, 17.3)"> </text><text xml:space="preserve" font-family="HelveticaNeue-Light,Helvetica Neue" font-size="42.5" fill="#FEFFFE" transform="matrix(1.00, 0.00, -0.00, -1.00, 312.2, 17.3)">p</text><text xml:space="preserve" font-family="HelveticaNeue-Light,Helvetica Neue" font-size="42.5" fill="#FEFFFE" transform="matrix(1.00, 0.00, -0.00, -1.00, 336.6, 17.3)">i</text><text xml:space="preserve" font-family="HelveticaNeue-Light,Helvetica Neue" font-size="42.5" fill="#FEFFFE" transform="matrix(1.00, 0.00, -0.00, -1.00, 344.5, 17.3)">p</text><text xml:space="preserve" font-family="HelveticaNeue-Light,Helvetica Neue" font-size="42.5" fill="#FEFFFE" transform="matrix(1.00, 0.00, -0.00, -1.00, 368.9, 17.3)">e</text><text xml:space="preserve" font-family="HelveticaNeue-Light,Helvetica Neue" font-size="42.5" fill="#FEFFFE" transform="matrix(1.00, 0.00, -0.00, -1.00, 390.9, 17.3)">l</text><text xml:space="preserve" font-family="HelveticaNeue-Light,Helvetica Neue" font-size="42.5" fill="#FEFFFE" transform="matrix(1.00, 0.00, -0.00, -1.00, 398.8, 17.3)">i</text><text xml:space="preserve" font-family="HelveticaNeue-Light,Helvetica Neue" font-size="42.5" fill="#FEFFFE" transform="matrix(1.00, 0.00, -0.00, -1.00, 406.7, 17.3)">n</text><text xml:space="preserve" font-family="HelveticaNeue-Light,Helvetica Neue" font-size="42.5" fill="#FEFFFE" transform="matrix(1.00, 0.00, -0.00, -1.00, 429.5, 17.3)">e</text><text xml:space="preserve" font-family="HelveticaNeue-Light,Helvetica Neue" font-size="42.5" fill="#FEFFFE" transform="matrix(1.00, 0.00, -0.00, -1.00, 451.5, 17.3)">!</text></g></svg>