<?xml version="1.0" encoding="UTF-8" standalone="no"?><svg xmlns="http://www.w3.org/2000/svg" xmlns:xlink="http://www.w3.org/1999/xlink" clip-rule="evenodd" stroke-miterlimit="10" viewBox="0 0 697 178"><desc>SVG generated by Keynote</desc><defs></defs><g transform="matrix(1.00, 0.00, -0.00, -1.00, 0.0, 178.0)"><image xlink:href="2F560B9550078C8FF8ECD5180C9A3A6E.png" width="18.00" height="18.00" transform="matrix(1.00, 0.00, -0.00, -1.00, 4.0, 165.0)"></image><g><clipPath id="clip0x6000030baa60"><path d="M 4.3 147.1 L 21.7 147.1 L 21.7 164.7 L 4.3 164.7 Z M 4.3 147.1 "></path></clipPath><g clip-path="url(#clip0x6000030baa60)"><g><g><clipPath id="clip0x6000030baee0"><path d="M 4.3 164.7 L 21.7 164.7 L 21.7 147.1 L 4.3 147.1 Z M 4.3 164.7 "></path></clipPath><g clip-path="url(#clip0x6000030baee0)"><g><clipPath id="clip0x6000030bb000"><path d="M 0.0 140.0 L 26.0 140.0 L 26.0 172.0 L 0.0 172.0 Z M 0.0 140.0 "></path></clipPath><g clip-path="url(#clip0x6000030bb000)"><path d="M 21.7 161.1 C 21.7 161.9 21.3 162.7 20.6 163.5 C 19.9 164.3 19.1 164.7 18.2 164.7 C 17.8 164.7 17.2 164.5 16.4 164.0 C 15.0 163.4 13.9 163.1 12.9 163.1 C 11.9 163.1 10.8 163.4 9.5 164.0 C 8.7 164.5 8.1 164.7 7.7 164.7 C 6.9 164.7 6.1 164.3 5.4 163.5 C 4.6 162.8 4.3 162.0 4.3 161.1 C 4.3 160.7 4.5 160.1 4.9 159.2 C 5.5 157.9 5.8 156.8 5.8 155.9 C 5.8 155.0 5.5 153.8 4.9 152.5 C 4.5 151.7 4.3 151.0 4.3 150.6 C 4.3 149.8 4.6 149.0 5.4 148.3 C 6.1 147.5 6.9 147.1 7.7 147.1 C 8.1 147.1 8.7 147.3 9.5 147.7 C 10.8 148.4 11.9 148.7 12.9 148.7 C 13.9 148.7 15.0 148.4 16.4 147.7 C 17.2 147.3 17.8 147.1 18.2 147.1 C 19.1 147.1 19.9 147.5 20.6 148.3 C 21.3 149.0 21.7 149.8 21.7 150.6 C 21.7 151.0 21.5 151.7 21.1 152.5 C 20.4 153.8 20.1 155.0 20.1 155.9 C 20.1 156.8 20.4 157.9 21.1 159.2 C 21.5 160.1 21.7 160.7 21.7 161.1 " fill="#FFFFFF"></path></g></g></g></g></g></g></g><image xlink:href="E424F8A8770E032A3B46EBA69716C562.png" width="644.00" height="55.00" transform="matrix(1.00, 0.00, -0.00, -1.00, 50.0, 177.0)"></image><text xml:space="preserve" font-family="HelveticaNeue-Light,Helvetica Neue" font-size="49.5" fill="#FEFFFE" transform="matrix(1.00, 0.00, -0.00, -1.00, 52.4, 139.2)">S</text><text xml:space="preserve" font-family="HelveticaNeue-Light,Helvetica Neue" font-size="49.5" fill="#FEFFFE" transform="matrix(1.00, 0.00, -0.00, -1.00, 83.6, 139.2)">k</text><text xml:space="preserve" font-family="HelveticaNeue-Light,Helvetica Neue" font-size="49.5" fill="#FEFFFE" transform="matrix(1.00, 0.00, -0.00, -1.00, 108.3, 139.2)">r</text><text xml:space="preserve" font-family="HelveticaNeue-Light,Helvetica Neue" font-size="49.5" fill="#FEFFFE" transform="matrix(1.00, 0.00, -0.00, -1.00, 123.9, 139.2)">i</text><text xml:space="preserve" font-family="HelveticaNeue-Light,Helvetica Neue" font-size="49.5" fill="#FEFFFE" transform="matrix(1.00, 0.00, -0.00, -1.00, 133.1, 139.2)">v</text><text xml:space="preserve" font-family="HelveticaNeue-Light,Helvetica Neue" font-size="49.5" fill="#FEFFFE" transform="matrix(1.00, 0.00, -0.00, -1.00, 156.0, 139.2)"> </text><text xml:space="preserve" font-family="HelveticaNeue-Light,Helvetica Neue" font-size="49.5" fill="#FEFFFE" transform="matrix(1.00, 0.00, -0.00, -1.00, 169.8, 139.2)">i</text><text xml:space="preserve" font-family="HelveticaNeue-Light,Helvetica Neue" font-size="49.5" fill="#FEFFFE" transform="matrix(1.00, 0.00, -0.00, -1.00, 178.9, 139.2)"> </text><text xml:space="preserve" font-family="HelveticaNeue-Light,Helvetica Neue" font-size="49.5" fill="#FEFFFE" transform="matrix(1.00, 0.00, -0.00, -1.00, 192.7, 139.2)">d</text><text xml:space="preserve" font-family="HelveticaNeue-Light,Helvetica Neue" font-size="49.5" fill="#FEFFFE" transform="matrix(1.00, 0.00, -0.00, -1.00, 221.1, 139.2)">e</text><text xml:space="preserve" font-family="HelveticaNeue-Light,Helvetica Neue" font-size="49.5" fill="#FEFFFE" transform="matrix(1.00, 0.00, -0.00, -1.00, 246.8, 139.2)">t</text><text xml:space="preserve" font-family="HelveticaNeue-Light,Helvetica Neue" font-size="49.5" fill="#FEFFFE" transform="matrix(1.00, 0.00, -0.00, -1.00, 261.4, 139.2)"> </text><text xml:space="preserve" font-family="HelveticaNeue-Light,Helvetica Neue" font-size="49.5" fill="#FEFFFE" transform="matrix(1.00, 0.00, -0.00, -1.00, 275.2, 139.2)">e</text><text xml:space="preserve" font-family="HelveticaNeue-Light,Helvetica Neue" font-size="49.5" fill="#FEFFFE" transform="matrix(1.00, 0.00, -0.00, -1.00, 300.9, 139.2)">n</text><text xml:space="preserve" font-family="HelveticaNeue-Light,Helvetica Neue" font-size="49.5" fill="#FEFFFE" transform="matrix(1.00, 0.00, -0.00, -1.00, 327.5, 139.2)">e</text><text xml:space="preserve" font-family="HelveticaNeue-Light,Helvetica Neue" font-size="49.5" fill="#FEFFFE" transform="matrix(1.00, 0.00, -0.00, -1.00, 353.2, 139.2)"> </text><text xml:space="preserve" font-family="HelveticaNeue-Light,Helvetica Neue" font-size="49.5" fill="#FEFFFE" transform="matrix(1.00, 0.00, -0.00, -1.00, 366.9, 139.2)">f</text><text xml:space="preserve" font-family="HelveticaNeue-Light,Helvetica Neue" font-size="49.5" fill="#FEFFFE" transform="matrix(1.00, 0.00, -0.00, -1.00, 379.7, 139.2)">e</text><text xml:space="preserve" font-family="HelveticaNeue-Light,Helvetica Neue" font-size="49.5" fill="#FEFFFE" transform="matrix(1.00, 0.00, -0.00, -1.00, 405.4, 139.2)">l</text><text xml:space="preserve" font-family="HelveticaNeue-Light,Helvetica Neue" font-size="49.5" fill="#FEFFFE" transform="matrix(1.00, 0.00, -0.00, -1.00, 414.6, 139.2)">t</text><text xml:space="preserve" font-family="HelveticaNeue-Light,Helvetica Neue" font-size="49.5" fill="#FEFFFE" transform="matrix(1.00, 0.00, -0.00, -1.00, 429.2, 139.2)"> </text><text xml:space="preserve" font-family="HelveticaNeue-Light,Helvetica Neue" font-size="49.5" fill="#FEFFFE" transform="matrix(1.00, 0.00, -0.00, -1.00, 443.0, 139.2)">o</text><text xml:space="preserve" font-family="HelveticaNeue-Light,Helvetica Neue" font-size="49.5" fill="#FEFFFE" transform="matrix(1.00, 0.00, -0.00, -1.00, 470.5, 139.2)">p</text><text xml:space="preserve" font-family="HelveticaNeue-Light,Helvetica Neue" font-size="49.5" fill="#FEFFFE" transform="matrix(1.00, 0.00, -0.00, -1.00, 498.9, 139.2)">d</text><text xml:space="preserve" font-family="HelveticaNeue-Light,Helvetica Neue" font-size="49.5" fill="#FEFFFE" transform="matrix(1.00, 0.00, -0.00, -1.00, 527.3, 139.2)">a</text><text xml:space="preserve" font-family="HelveticaNeue-Light,Helvetica Neue" font-size="49.5" fill="#FEFFFE" transform="matrix(1.00, 0.00, -0.00, -1.00, 553.0, 139.2)">t</text><text xml:space="preserve" font-family="HelveticaNeue-Light,Helvetica Neue" font-size="49.5" fill="#FEFFFE" transform="matrix(1.00, 0.00, -0.00, -1.00, 567.7, 139.2)">é</text><text xml:space="preserve" font-family="HelveticaNeue-Light,Helvetica Neue" font-size="49.5" fill="#FEFFFE" transform="matrix(1.00, 0.00, -0.00, -1.00, 593.4, 139.2)">r</text><text xml:space="preserve" font-family="HelveticaNeue-Light,Helvetica Neue" font-size="49.5" fill="#FEFFFE" transform="matrix(1.00, 0.00, -0.00, -1.00, 609.0, 139.2)"> </text><text xml:space="preserve" font-family="HelveticaNeue-Light,Helvetica Neue" font-size="49.5" fill="#FEFFFE" transform="matrix(1.00, 0.00, -0.00, -1.00, 622.7, 139.2)">d</text><text xml:space="preserve" font-family="HelveticaNeue-Light,Helvetica Neue" font-size="49.5" fill="#FEFFFE" transform="matrix(1.00, 0.00, -0.00, -1.00, 651.1, 139.2)">e</text><text xml:space="preserve" font-family="HelveticaNeue-Light,Helvetica Neue" font-size="49.5" fill="#FEFFFE" transform="matrix(1.00, 0.00, -0.00, -1.00, 676.8, 139.2)">t</text><text xml:space="preserve" font-family="HelveticaNeue-Light,Helvetica Neue" font-size="49.5" fill="#FEFFFE" transform="matrix(1.00, 0.00, -0.00, -1.00, 691.5, 139.2)"> </text><image xlink:href="B423C5CAB791099D4D98F46B217D4E24.png" width="474.00" height="54.00" transform="matrix(1.00, 0.00, -0.00, -1.00, 49.0, 116.0)"></image><text xml:space="preserve" font-family="HelveticaNeue-Light,Helvetica Neue" font-size="49.5" fill="#FEFFFE" transform="matrix(1.00, 0.00, -0.00, -1.00, 52.4, 79.2)">a</text><text xml:space="preserve" font-family="HelveticaNeue-Light,Helvetica Neue" font-size="49.5" fill="#FEFFFE" transform="matrix(1.00, 0.00, -0.00, -1.00, 78.1, 79.2)">n</text><text xml:space="preserve" font-family="HelveticaNeue-Light,Helvetica Neue" font-size="49.5" fill="#FEFFFE" transform="matrix(1.00, 0.00, -0.00, -1.00, 104.7, 79.2)">d</text><text xml:space="preserve" font-family="HelveticaNeue-Light,Helvetica Neue" font-size="49.5" fill="#FEFFFE" transform="matrix(1.00, 0.00, -0.00, -1.00, 133.1, 79.2)">e</text><text xml:space="preserve" font-family="HelveticaNeue-Light,Helvetica Neue" font-size="49.5" fill="#FEFFFE" transform="matrix(1.00, 0.00, -0.00, -1.00, 158.8, 79.2)">t</text><text xml:space="preserve" font-family="HelveticaNeue-Light,Helvetica Neue" font-size="49.5" fill="#FEFFFE" transform="matrix(1.00, 0.00, -0.00, -1.00, 173.4, 79.2)"> </text><text xml:space="preserve" font-family="HelveticaNeue-Light,Helvetica Neue" font-size="49.5" fill="#FEFFFE" transform="matrix(1.00, 0.00, -0.00, -1.00, 187.2, 79.2)">m</text><text xml:space="preserve" font-family="HelveticaNeue-Light,Helvetica Neue" font-size="49.5" fill="#FEFFFE" transform="matrix(1.00, 0.00, -0.00, -1.00, 228.4, 79.2)">e</text><text xml:space="preserve" font-family="HelveticaNeue-Light,Helvetica Neue" font-size="49.5" fill="#FEFFFE" transform="matrix(1.00, 0.00, -0.00, -1.00, 254.1, 79.2)">d</text><text xml:space="preserve" font-family="HelveticaNeue-Light,Helvetica Neue" font-size="49.5" fill="#FEFFFE" transform="matrix(1.00, 0.00, -0.00, -1.00, 282.5, 79.2)"> </text><text xml:space="preserve" font-family="HelveticaNeue-Light,Helvetica Neue" font-size="49.5" fill="#FEFFFE" transform="matrix(1.00, 0.00, -0.00, -1.00, 296.3, 79.2)">d</text><text xml:space="preserve" font-family="HelveticaNeue-Light,Helvetica Neue" font-size="49.5" fill="#FEFFFE" transform="matrix(1.00, 0.00, -0.00, -1.00, 324.7, 79.2)">e</text><text xml:space="preserve" font-family="HelveticaNeue-Light,Helvetica Neue" font-size="49.5" fill="#FEFFFE" transform="matrix(1.00, 0.00, -0.00, -1.00, 350.4, 79.2)">n</text><text xml:space="preserve" font-family="HelveticaNeue-Light,Helvetica Neue" font-size="49.5" fill="#FEFFFE" transform="matrix(1.00, 0.00, -0.00, -1.00, 377.0, 79.2)"> </text><text xml:space="preserve" font-family="HelveticaNeue-Light,Helvetica Neue" font-size="49.5" fill="#FEFFFE" transform="matrix(1.00, 0.00, -0.00, -1.00, 390.7, 79.2)">r</text><text xml:space="preserve" font-family="HelveticaNeue-Light,Helvetica Neue" font-size="49.5" fill="#FEFFFE" transform="matrix(1.00, 0.00, -0.00, -1.00, 406.3, 79.2)">i</text><text xml:space="preserve" font-family="HelveticaNeue-Light,Helvetica Neue" font-size="49.5" fill="#FEFFFE" transform="matrix(1.00, 0.00, -0.00, -1.00, 415.5, 79.2)">g</text><text xml:space="preserve" font-family="HelveticaNeue-Light,Helvetica Neue" font-size="49.5" fill="#FEFFFE" transform="matrix(1.00, 0.00, -0.00, -1.00, 443.0, 79.2)">t</text><text xml:space="preserve" font-family="HelveticaNeue-Light,Helvetica Neue" font-size="49.5" fill="#FEFFFE" transform="matrix(1.00, 0.00, -0.00, -1.00, 457.6, 79.2)">i</text><text xml:space="preserve" font-family="HelveticaNeue-Light,Helvetica Neue" font-size="49.5" fill="#FEFFFE" transform="matrix(1.00, 0.00, -0.00, -1.00, 466.8, 79.2)">g</text><text xml:space="preserve" font-family="HelveticaNeue-Light,Helvetica Neue" font-size="49.5" fill="#FEFFFE" transform="matrix(1.00, 0.00, -0.00, -1.00, 494.3, 79.2)">e</text><text xml:space="preserve" font-family="HelveticaNeue-Light,Helvetica Neue" font-size="49.5" fill="#FEFFFE" transform="matrix(1.00, 0.00, -0.00, -1.00, 520.0, 79.2)"> </text><image xlink:href="635F1D209404299009BF8B187024EA63.png" width="265.00" height="54.00" transform="matrix(1.00, 0.00, -0.00, -1.00, 51.0, 56.0)"></image><text xml:space="preserve" font-family="HelveticaNeue-Light,Helvetica Neue" font-size="49.5" fill="#FEFFFE" transform="matrix(1.00, 0.00, -0.00, -1.00, 52.4, 19.2)">k</text><text xml:space="preserve" font-family="HelveticaNeue-Light,Helvetica Neue" font-size="49.5" fill="#FEFFFE" transform="matrix(1.00, 0.00, -0.00, -1.00, 77.1, 19.2)">o</text><text xml:space="preserve" font-family="HelveticaNeue-Light,Helvetica Neue" font-size="49.5" fill="#FEFFFE" transform="matrix(1.00, 0.00, -0.00, -1.00, 104.7, 19.2)">n</text><text xml:space="preserve" font-family="HelveticaNeue-Light,Helvetica Neue" font-size="49.5" fill="#FEFFFE" transform="matrix(1.00, 0.00, -0.00, -1.00, 131.2, 19.2)">v</text><text xml:space="preserve" font-family="HelveticaNeue-Light,Helvetica Neue" font-size="49.5" fill="#FEFFFE" transform="matrix(1.00, 0.00, -0.00, -1.00, 154.2, 19.2)">e</text><text xml:space="preserve" font-family="HelveticaNeue-Light,Helvetica Neue" font-size="49.5" fill="#FEFFFE" transform="matrix(1.00, 0.00, -0.00, -1.00, 179.9, 19.2)">r</text><text xml:space="preserve" font-family="HelveticaNeue-Light,Helvetica Neue" font-size="49.5" fill="#FEFFFE" transform="matrix(1.00, 0.00, -0.00, -1.00, 195.4, 19.2)">t</text><text xml:space="preserve" font-family="HelveticaNeue-Light,Helvetica Neue" font-size="49.5" fill="#FEFFFE" transform="matrix(1.00, 0.00, -0.00, -1.00, 210.1, 19.2)">e</text><text xml:space="preserve" font-family="HelveticaNeue-Light,Helvetica Neue" font-size="49.5" fill="#FEFFFE" transform="matrix(1.00, 0.00, -0.00, -1.00, 235.8, 19.2)">r</text><text xml:space="preserve" font-family="HelveticaNeue-Light,Helvetica Neue" font-size="49.5" fill="#FEFFFE" transform="matrix(1.00, 0.00, -0.00, -1.00, 251.4, 19.2)">i</text><text xml:space="preserve" font-family="HelveticaNeue-Light,Helvetica Neue" font-size="49.5" fill="#FEFFFE" transform="matrix(1.00, 0.00, -0.00, -1.00, 260.5, 19.2)">n</text><text xml:space="preserve" font-family="HelveticaNeue-Light,Helvetica Neue" font-size="49.5" fill="#FEFFFE" transform="matrix(1.00, 0.00, -0.00, -1.00, 287.1, 19.2)">g</text></g></svg>