<?xml version="1.0" encoding="UTF-8" standalone="no"?><svg xmlns="http://www.w3.org/2000/svg" xmlns:xlink="http://www.w3.org/1999/xlink" clip-rule="evenodd" stroke-miterlimit="10" viewBox="0 0 500 49"><desc>SVG generated by Keynote</desc><defs></defs><g transform="matrix(1.00, 0.00, -0.00, -1.00, 0.0, 49.0)"><image xlink:href="387D32BDDCA8EE4E858F88D419FEFB25.png" width="18.00" height="19.00" transform="matrix(1.00, 0.00, -0.00, -1.00, 4.0, 36.0)"></image><g><clipPath id="clip0x6000030b8900"><path d="M 4.3 17.7 L 21.7 17.7 L 21.7 35.2 L 4.3 35.2 Z M 4.3 17.7 "></path></clipPath><g clip-path="url(#clip0x6000030b8900)"><g><g><clipPath id="clip0x6000030b8480"><path d="M 4.3 35.2 L 21.7 35.2 L 21.7 17.7 L 4.3 17.7 Z M 4.3 35.2 "></path></clipPath><g clip-path="url(#clip0x6000030b8480)"><g><clipPath id="clip0x6000030b9320"><path d="M 0.0 10.0 L 26.0 10.0 L 26.0 43.0 L 0.0 43.0 Z M 0.0 10.0 "></path></clipPath><g clip-path="url(#clip0x6000030b9320)"><path d="M 21.7 31.7 C 21.7 32.5 21.3 33.2 20.6 34.0 C 19.9 34.8 19.1 35.2 18.2 35.2 C 17.8 35.2 17.2 35.0 16.4 34.6 C 15.0 34.0 13.9 33.6 12.9 33.6 C 11.9 33.6 10.8 34.0 9.5 34.6 C 8.7 35.0 8.1 35.2 7.7 35.2 C 6.9 35.2 6.1 34.8 5.4 34.1 C 4.6 33.3 4.3 32.5 4.3 31.7 C 4.3 31.3 4.5 30.7 4.9 29.8 C 5.5 28.5 5.8 27.4 5.8 26.5 C 5.8 25.5 5.5 24.4 4.9 23.0 C 4.5 22.2 4.3 21.6 4.3 21.2 C 4.3 20.4 4.6 19.6 5.4 18.8 C 6.1 18.1 6.9 17.7 7.7 17.7 C 8.1 17.7 8.7 17.9 9.5 18.3 C 10.8 18.9 11.9 19.3 12.9 19.3 C 13.9 19.3 15.0 18.9 16.4 18.3 C 17.2 17.9 17.8 17.7 18.2 17.7 C 19.1 17.7 19.9 18.1 20.6 18.8 C 21.3 19.6 21.7 20.4 21.7 21.2 C 21.7 21.6 21.5 22.2 21.1 23.0 C 20.4 24.4 20.1 25.5 20.1 26.5 C 20.1 27.4 20.4 28.5 21.1 29.8 C 21.5 30.7 21.7 31.3 21.7 31.7 " fill="#FFFFFF"></path></g></g></g></g></g></g></g><image xlink:href="345E4B8595C4FB55B42EFD15E0FA475E.png" width="451.00" height="45.00" transform="matrix(1.00, 0.00, -0.00, -1.00, 48.0, 47.0)"></image><text xml:space="preserve" font-family="HelveticaNeue-Light,Helvetica Neue" font-size="49.5" fill="#FEFFFE" transform="matrix(1.00, 0.00, -0.00, -1.00, 52.4, 9.8)">V</text><text xml:space="preserve" font-family="HelveticaNeue-Light,Helvetica Neue" font-size="49.5" fill="#FEFFFE" transform="matrix(1.00, 0.00, -0.00, -1.00, 79.0, 9.8)">a</text><text xml:space="preserve" font-family="HelveticaNeue-Light,Helvetica Neue" font-size="49.5" fill="#FEFFFE" transform="matrix(1.00, 0.00, -0.00, -1.00, 104.7, 9.8)">l</text><text xml:space="preserve" font-family="HelveticaNeue-Light,Helvetica Neue" font-size="49.5" fill="#FEFFFE" transform="matrix(1.00, 0.00, -0.00, -1.00, 113.9, 9.8)">u</text><text xml:space="preserve" font-family="HelveticaNeue-Light,Helvetica Neue" font-size="49.5" fill="#FEFFFE" transform="matrix(1.00, 0.00, -0.00, -1.00, 140.5, 9.8)">t</text><text xml:space="preserve" font-family="HelveticaNeue-Light,Helvetica Neue" font-size="49.5" fill="#FEFFFE" transform="matrix(1.00, 0.00, -0.00, -1.00, 155.1, 9.8)">a</text><text xml:space="preserve" font-family="HelveticaNeue-Light,Helvetica Neue" font-size="49.5" fill="#FEFFFE" transform="matrix(1.00, 0.00, -0.00, -1.00, 180.8, 9.8)">k</text><text xml:space="preserve" font-family="HelveticaNeue-Light,Helvetica Neue" font-size="49.5" fill="#FEFFFE" transform="matrix(1.00, 0.00, -0.00, -1.00, 205.5, 9.8)">u</text><text xml:space="preserve" font-family="HelveticaNeue-Light,Helvetica Neue" font-size="49.5" fill="#FEFFFE" transform="matrix(1.00, 0.00, -0.00, -1.00, 232.1, 9.8)">r</text><text xml:space="preserve" font-family="HelveticaNeue-Light,Helvetica Neue" font-size="49.5" fill="#FEFFFE" transform="matrix(1.00, 0.00, -0.00, -1.00, 247.7, 9.8)">s</text><text xml:space="preserve" font-family="HelveticaNeue-Light,Helvetica Neue" font-size="49.5" fill="#FEFFFE" transform="matrix(1.00, 0.00, -0.00, -1.00, 271.5, 9.8)"> </text><text xml:space="preserve" font-family="HelveticaNeue-Light,Helvetica Neue" font-size="49.5" fill="#FEFFFE" transform="matrix(1.00, 0.00, -0.00, -1.00, 285.3, 9.8)">C</text><text xml:space="preserve" font-family="HelveticaNeue-Light,Helvetica Neue" font-size="49.5" fill="#FEFFFE" transform="matrix(1.00, 0.00, -0.00, -1.00, 320.1, 9.8)">o</text><text xml:space="preserve" font-family="HelveticaNeue-Light,Helvetica Neue" font-size="49.5" fill="#FEFFFE" transform="matrix(1.00, 0.00, -0.00, -1.00, 347.7, 9.8)">n</text><text xml:space="preserve" font-family="HelveticaNeue-Light,Helvetica Neue" font-size="49.5" fill="#FEFFFE" transform="matrix(1.00, 0.00, -0.00, -1.00, 374.2, 9.8)">v</text><text xml:space="preserve" font-family="HelveticaNeue-Light,Helvetica Neue" font-size="49.5" fill="#FEFFFE" transform="matrix(1.00, 0.00, -0.00, -1.00, 397.2, 9.8)">e</text><text xml:space="preserve" font-family="HelveticaNeue-Light,Helvetica Neue" font-size="49.5" fill="#FEFFFE" transform="matrix(1.00, 0.00, -0.00, -1.00, 422.8, 9.8)">r</text><text xml:space="preserve" font-family="HelveticaNeue-Light,Helvetica Neue" font-size="49.5" fill="#FEFFFE" transform="matrix(1.00, 0.00, -0.00, -1.00, 438.4, 9.8)">t</text><text xml:space="preserve" font-family="HelveticaNeue-Light,Helvetica Neue" font-size="49.5" fill="#FEFFFE" transform="matrix(1.00, 0.00, -0.00, -1.00, 453.1, 9.8)">e</text><text xml:space="preserve" font-family="HelveticaNeue-Light,Helvetica Neue" font-size="49.5" fill="#FEFFFE" transform="matrix(1.00, 0.00, -0.00, -1.00, 478.8, 9.8)">r</text></g></svg>