<?xml version="1.0" encoding="UTF-8" standalone="no"?><svg xmlns="http://www.w3.org/2000/svg" xmlns:xlink="http://www.w3.org/1999/xlink" clip-rule="evenodd" stroke-miterlimit="10" viewBox="0 0 679 56"><desc>SVG generated by Keynote</desc><defs></defs><g transform="matrix(1.00, 0.00, -0.00, -1.00, 0.0, 56.0)"><image xlink:href="61AA1078B9B7D1435794145696BA6B81.png" width="18.00" height="19.00" transform="matrix(1.00, 0.00, -0.00, -1.00, 4.0, 44.0)"></image><g><clipPath id="clip0x6000030ba1c0"><path d="M 4.3 25.8 L 21.7 25.8 L 21.7 43.3 L 4.3 43.3 Z M 4.3 25.8 "></path></clipPath><g clip-path="url(#clip0x6000030ba1c0)"><g><g><clipPath id="clip0x6000030ba4c0"><path d="M 4.3 43.3 L 21.7 43.3 L 21.7 25.8 L 4.3 25.8 Z M 4.3 43.3 "></path></clipPath><g clip-path="url(#clip0x6000030ba4c0)"><g><clipPath id="clip0x6000030ba640"><path d="M 0.0 18.0 L 26.0 18.0 L 26.0 51.0 L 0.0 51.0 Z M 0.0 18.0 "></path></clipPath><g clip-path="url(#clip0x6000030ba640)"><path d="M 21.7 39.8 C 21.7 40.5 21.3 41.3 20.6 42.1 C 19.9 42.9 19.1 43.3 18.2 43.3 C 17.8 43.3 17.2 43.1 16.4 42.7 C 15.0 42.0 13.9 41.7 12.9 41.7 C 11.9 41.7 10.8 42.0 9.5 42.7 C 8.7 43.1 8.1 43.3 7.7 43.3 C 6.9 43.3 6.1 42.9 5.4 42.2 C 4.6 41.4 4.3 40.6 4.3 39.8 C 4.3 39.4 4.5 38.7 4.9 37.9 C 5.5 36.6 5.8 35.5 5.8 34.5 C 5.8 33.6 5.5 32.5 4.9 31.1 C 4.5 30.3 4.3 29.7 4.3 29.3 C 4.3 28.5 4.6 27.7 5.4 26.9 C 6.1 26.1 6.9 25.8 7.7 25.8 C 8.1 25.8 8.7 26.0 9.5 26.4 C 10.8 27.0 11.9 27.3 12.9 27.3 C 13.9 27.3 15.0 27.0 16.4 26.4 C 17.2 26.0 17.8 25.8 18.2 25.8 C 19.1 25.8 19.9 26.1 20.6 26.9 C 21.3 27.7 21.7 28.5 21.7 29.3 C 21.7 29.7 21.5 30.3 21.1 31.1 C 20.4 32.5 20.1 33.6 20.1 34.5 C 20.1 35.5 20.4 36.6 21.1 37.9 C 21.5 38.7 21.7 39.4 21.7 39.8 " fill="#FFFFFF"></path></g></g></g></g></g></g></g><image xlink:href="89A8DEE0063B868CFA36F1EF14FFDBE1.png" width="626.00" height="54.00" transform="matrix(1.00, 0.00, -0.00, -1.00, 51.0, 55.0)"></image><text xml:space="preserve" font-family="HelveticaNeue-Light,Helvetica Neue" font-size="49.5" fill="#FEFFFE" transform="matrix(1.00, 0.00, -0.00, -1.00, 52.4, 17.9)">F</text><text xml:space="preserve" font-family="HelveticaNeue-Light,Helvetica Neue" font-size="49.5" fill="#FEFFFE" transform="matrix(1.00, 0.00, -0.00, -1.00, 79.0, 17.9)">e</text><text xml:space="preserve" font-family="HelveticaNeue-Light,Helvetica Neue" font-size="49.5" fill="#FEFFFE" transform="matrix(1.00, 0.00, -0.00, -1.00, 104.7, 17.9)">l</text><text xml:space="preserve" font-family="HelveticaNeue-Light,Helvetica Neue" font-size="49.5" fill="#FEFFFE" transform="matrix(1.00, 0.00, -0.00, -1.00, 113.8, 17.9)">t</text><text xml:space="preserve" font-family="HelveticaNeue-Light,Helvetica Neue" font-size="49.5" fill="#FEFFFE" transform="matrix(1.00, 0.00, -0.00, -1.00, 128.5, 17.9)">e</text><text xml:space="preserve" font-family="HelveticaNeue-Light,Helvetica Neue" font-size="49.5" fill="#FEFFFE" transform="matrix(1.00, 0.00, -0.00, -1.00, 154.2, 17.9)">r</text><text xml:space="preserve" font-family="HelveticaNeue-Light,Helvetica Neue" font-size="49.5" fill="#FEFFFE" transform="matrix(1.00, 0.00, -0.00, -1.00, 170.6, 17.9)">n</text><text xml:space="preserve" font-family="HelveticaNeue-Light,Helvetica Neue" font-size="49.5" fill="#FEFFFE" transform="matrix(1.00, 0.00, -0.00, -1.00, 197.2, 17.9)">e</text><text xml:space="preserve" font-family="HelveticaNeue-Light,Helvetica Neue" font-size="49.5" fill="#FEFFFE" transform="matrix(1.00, 0.00, -0.00, -1.00, 222.9, 17.9)"> </text><text xml:space="preserve" font-family="HelveticaNeue-Light,Helvetica Neue" font-size="49.5" fill="#FEFFFE" transform="matrix(1.00, 0.00, -0.00, -1.00, 236.7, 17.9)">e</text><text xml:space="preserve" font-family="HelveticaNeue-Light,Helvetica Neue" font-size="49.5" fill="#FEFFFE" transform="matrix(1.00, 0.00, -0.00, -1.00, 262.4, 17.9)">r</text><text xml:space="preserve" font-family="HelveticaNeue-Light,Helvetica Neue" font-size="49.5" fill="#FEFFFE" transform="matrix(1.00, 0.00, -0.00, -1.00, 278.0, 17.9)"> </text><text xml:space="preserve" font-family="HelveticaNeue-Light,Helvetica Neue" font-size="49.5" fill="#FEFFFE" transform="matrix(1.00, 0.00, -0.00, -1.00, 291.7, 17.9)">m</text><text xml:space="preserve" font-family="HelveticaNeue-Light,Helvetica Neue" font-size="49.5" fill="#FEFFFE" transform="matrix(1.00, 0.00, -0.00, -1.00, 333.0, 17.9)">u</text><text xml:space="preserve" font-family="HelveticaNeue-Light,Helvetica Neue" font-size="49.5" fill="#FEFFFE" transform="matrix(1.00, 0.00, -0.00, -1.00, 359.5, 17.9)">t</text><text xml:space="preserve" font-family="HelveticaNeue-Light,Helvetica Neue" font-size="49.5" fill="#FEFFFE" transform="matrix(1.00, 0.00, -0.00, -1.00, 374.2, 17.9)">u</text><text xml:space="preserve" font-family="HelveticaNeue-Light,Helvetica Neue" font-size="49.5" fill="#FEFFFE" transform="matrix(1.00, 0.00, -0.00, -1.00, 400.8, 17.9)">a</text><text xml:space="preserve" font-family="HelveticaNeue-Light,Helvetica Neue" font-size="49.5" fill="#FEFFFE" transform="matrix(1.00, 0.00, -0.00, -1.00, 426.5, 17.9)">l</text><text xml:space="preserve" font-family="HelveticaNeue-Light,Helvetica Neue" font-size="49.5" fill="#FEFFFE" transform="matrix(1.00, 0.00, -0.00, -1.00, 435.6, 17.9)">l</text><text xml:space="preserve" font-family="HelveticaNeue-Light,Helvetica Neue" font-size="49.5" fill="#FEFFFE" transform="matrix(1.00, 0.00, -0.00, -1.00, 444.8, 17.9)">y</text><text xml:space="preserve" font-family="HelveticaNeue-Light,Helvetica Neue" font-size="49.5" fill="#FEFFFE" transform="matrix(1.00, 0.00, -0.00, -1.00, 467.7, 17.9)"> </text><text xml:space="preserve" font-family="HelveticaNeue-Light,Helvetica Neue" font-size="49.5" fill="#FEFFFE" transform="matrix(1.00, 0.00, -0.00, -1.00, 481.5, 17.9)">e</text><text xml:space="preserve" font-family="HelveticaNeue-Light,Helvetica Neue" font-size="49.5" fill="#FEFFFE" transform="matrix(1.00, 0.00, -0.00, -1.00, 507.1, 17.9)">x</text><text xml:space="preserve" font-family="HelveticaNeue-Light,Helvetica Neue" font-size="49.5" fill="#FEFFFE" transform="matrix(1.00, 0.00, -0.00, -1.00, 531.0, 17.9)">c</text><text xml:space="preserve" font-family="HelveticaNeue-Light,Helvetica Neue" font-size="49.5" fill="#FEFFFE" transform="matrix(1.00, 0.00, -0.00, -1.00, 556.6, 17.9)">l</text><text xml:space="preserve" font-family="HelveticaNeue-Light,Helvetica Neue" font-size="49.5" fill="#FEFFFE" transform="matrix(1.00, 0.00, -0.00, -1.00, 565.8, 17.9)">u</text><text xml:space="preserve" font-family="HelveticaNeue-Light,Helvetica Neue" font-size="49.5" fill="#FEFFFE" transform="matrix(1.00, 0.00, -0.00, -1.00, 592.4, 17.9)">s</text><text xml:space="preserve" font-family="HelveticaNeue-Light,Helvetica Neue" font-size="49.5" fill="#FEFFFE" transform="matrix(1.00, 0.00, -0.00, -1.00, 616.2, 17.9)">i</text><text xml:space="preserve" font-family="HelveticaNeue-Light,Helvetica Neue" font-size="49.5" fill="#FEFFFE" transform="matrix(1.00, 0.00, -0.00, -1.00, 625.4, 17.9)">v</text><text xml:space="preserve" font-family="HelveticaNeue-Light,Helvetica Neue" font-size="49.5" fill="#FEFFFE" transform="matrix(1.00, 0.00, -0.00, -1.00, 648.3, 17.9)">e</text></g></svg>