<?xml version="1.0" encoding="UTF-8" standalone="no"?><svg xmlns="http://www.w3.org/2000/svg" xmlns:xlink="http://www.w3.org/1999/xlink" clip-rule="evenodd" stroke-miterlimit="10" viewBox="0 0 740 58"><desc>SVG generated by Keynote</desc><defs></defs><g transform="matrix(1.00, 0.00, -0.00, -1.00, 0.0, 58.0)"><image xlink:href="../../63E96F94-3ECB-4C9D-9D7E-99B70E6EB298/assets/5594DC8059EB904084D60818A1308CE9.png" width="19.00" height="19.00" transform="matrix(1.00, 0.00, -0.00, -1.00, 4.0, 45.0)"></image><g><clipPath id="clip0x6080050b4ee0"><path d="M 4.8 26.9 L 22.4 26.9 L 22.4 44.6 L 4.8 44.6 Z M 4.8 26.9 "></path></clipPath><g clip-path="url(#clip0x6080050b4ee0)"><g><g><clipPath id="clip0x6080050b5000"><path d="M 4.8 44.6 L 22.4 44.6 L 22.4 26.9 L 4.8 26.9 Z M 4.8 44.6 "></path></clipPath><g clip-path="url(#clip0x6080050b5000)"><g><clipPath id="clip0x6080050b55a0"><path d="M 0.0 19.0 L 27.0 19.0 L 27.0 52.0 L 0.0 52.0 Z M 0.0 19.0 "></path></clipPath><g clip-path="url(#clip0x6080050b55a0)"><path d="M 22.4 41.1 C 22.4 41.8 22.1 42.6 21.3 43.4 C 20.6 44.2 19.8 44.6 18.9 44.6 C 18.5 44.6 17.9 44.4 17.0 44.0 C 15.7 43.3 14.5 43.0 13.6 43.0 C 12.6 43.0 11.4 43.3 10.1 44.0 C 9.3 44.4 8.7 44.6 8.3 44.6 C 7.4 44.6 6.7 44.2 5.9 43.5 C 5.2 42.7 4.8 41.9 4.8 41.1 C 4.8 40.7 5.0 40.0 5.4 39.1 C 6.0 37.8 6.3 36.7 6.3 35.8 C 6.3 34.8 6.0 33.7 5.4 32.3 C 5.0 31.5 4.8 30.9 4.8 30.5 C 4.8 29.6 5.2 28.8 5.9 28.1 C 6.7 27.3 7.4 26.9 8.3 26.9 C 8.7 26.9 9.3 27.1 10.1 27.5 C 11.4 28.2 12.6 28.5 13.6 28.5 C 14.5 28.5 15.7 28.2 17.0 27.5 C 17.9 27.1 18.5 26.9 18.9 26.9 C 19.8 26.9 20.6 27.3 21.3 28.1 C 22.1 28.8 22.4 29.6 22.4 30.5 C 22.4 30.9 22.2 31.5 21.8 32.3 C 21.2 33.7 20.8 34.8 20.8 35.8 C 20.8 36.7 21.2 37.8 21.8 39.1 C 22.2 40.0 22.4 40.7 22.4 41.1 " fill="#FFFFFF"></path></g></g></g></g></g></g></g><image xlink:href="4CEF374CF37BF26E9A3EF3DD81CE0C32.png" width="689.00" height="55.00" transform="matrix(1.00, 0.00, -0.00, -1.00, 49.0, 56.0)"></image><text xml:space="preserve" font-family="HelveticaNeue-Light,Helvetica Neue" font-size="50.0" fill="#FEFFFE" transform="matrix(1.00, 0.00, -0.00, -1.00, 53.4, 18.9)">A</text><text xml:space="preserve" font-family="HelveticaNeue-Light,Helvetica Neue" font-size="50.0" fill="#FEFFFE" transform="matrix(1.00, 0.00, -0.00, -1.00, 84.9, 18.9)">n</text><text xml:space="preserve" font-family="HelveticaNeue-Light,Helvetica Neue" font-size="50.0" fill="#FEFFFE" transform="matrix(1.00, 0.00, -0.00, -1.00, 111.8, 18.9)">g</text><text xml:space="preserve" font-family="HelveticaNeue-Light,Helvetica Neue" font-size="50.0" fill="#FEFFFE" transform="matrix(1.00, 0.00, -0.00, -1.00, 139.6, 18.9)">u</text><text xml:space="preserve" font-family="HelveticaNeue-Light,Helvetica Neue" font-size="50.0" fill="#FEFFFE" transform="matrix(1.00, 0.00, -0.00, -1.00, 166.4, 18.9)">l</text><text xml:space="preserve" font-family="HelveticaNeue-Light,Helvetica Neue" font-size="50.0" fill="#FEFFFE" transform="matrix(1.00, 0.00, -0.00, -1.00, 175.7, 18.9)">a</text><text xml:space="preserve" font-family="HelveticaNeue-Light,Helvetica Neue" font-size="50.0" fill="#FEFFFE" transform="matrix(1.00, 0.00, -0.00, -1.00, 201.6, 18.9)">r</text><text xml:space="preserve" font-family="HelveticaNeue-Light,Helvetica Neue" font-size="50.0" fill="#FEFFFE" transform="matrix(1.00, 0.00, -0.00, -1.00, 217.4, 18.9)"> </text><text xml:space="preserve" font-family="HelveticaNeue-Light,Helvetica Neue" font-size="50.0" fill="#FEFFFE" transform="matrix(1.00, 0.00, -0.00, -1.00, 231.3, 18.9)">b</text><text xml:space="preserve" font-family="HelveticaNeue-Light,Helvetica Neue" font-size="50.0" fill="#FEFFFE" transform="matrix(1.00, 0.00, -0.00, -1.00, 260.0, 18.9)">r</text><text xml:space="preserve" font-family="HelveticaNeue-Light,Helvetica Neue" font-size="50.0" fill="#FEFFFE" transform="matrix(1.00, 0.00, -0.00, -1.00, 275.7, 18.9)">u</text><text xml:space="preserve" font-family="HelveticaNeue-Light,Helvetica Neue" font-size="50.0" fill="#FEFFFE" transform="matrix(1.00, 0.00, -0.00, -1.00, 302.6, 18.9)">g</text><text xml:space="preserve" font-family="HelveticaNeue-Light,Helvetica Neue" font-size="50.0" fill="#FEFFFE" transform="matrix(1.00, 0.00, -0.00, -1.00, 330.4, 18.9)">e</text><text xml:space="preserve" font-family="HelveticaNeue-Light,Helvetica Neue" font-size="50.0" fill="#FEFFFE" transform="matrix(1.00, 0.00, -0.00, -1.00, 356.3, 18.9)">r</text><text xml:space="preserve" font-family="HelveticaNeue-Light,Helvetica Neue" font-size="50.0" fill="#FEFFFE" transform="matrix(1.00, 0.00, -0.00, -1.00, 372.1, 18.9)"> </text><text xml:space="preserve" font-family="HelveticaNeue-Light,Helvetica Neue" font-size="50.0" fill="#FEFFFE" transform="matrix(1.00, 0.00, -0.00, -1.00, 386.0, 18.9)">d</text><text xml:space="preserve" font-family="HelveticaNeue-Light,Helvetica Neue" font-size="50.0" fill="#FEFFFE" transform="matrix(1.00, 0.00, -0.00, -1.00, 414.7, 18.9)">i</text><text xml:space="preserve" font-family="HelveticaNeue-Light,Helvetica Neue" font-size="50.0" fill="#FEFFFE" transform="matrix(1.00, 0.00, -0.00, -1.00, 423.9, 18.9)">r</text><text xml:space="preserve" font-family="HelveticaNeue-Light,Helvetica Neue" font-size="50.0" fill="#FEFFFE" transform="matrix(1.00, 0.00, -0.00, -1.00, 439.7, 18.9)">t</text><text xml:space="preserve" font-family="HelveticaNeue-Light,Helvetica Neue" font-size="50.0" fill="#FEFFFE" transform="matrix(1.00, 0.00, -0.00, -1.00, 454.5, 18.9)">y</text><text xml:space="preserve" font-family="HelveticaNeue-Light,Helvetica Neue" font-size="50.0" fill="#FEFFFE" transform="matrix(1.00, 0.00, -0.00, -1.00, 477.6, 18.9)">-</text><text xml:space="preserve" font-family="HelveticaNeue-Light,Helvetica Neue" font-size="50.0" fill="#FEFFFE" transform="matrix(1.00, 0.00, -0.00, -1.00, 496.1, 18.9)">c</text><text xml:space="preserve" font-family="HelveticaNeue-Light,Helvetica Neue" font-size="50.0" fill="#FEFFFE" transform="matrix(1.00, 0.00, -0.00, -1.00, 522.1, 18.9)">h</text><text xml:space="preserve" font-family="HelveticaNeue-Light,Helvetica Neue" font-size="50.0" fill="#FEFFFE" transform="matrix(1.00, 0.00, -0.00, -1.00, 548.9, 18.9)">e</text><text xml:space="preserve" font-family="HelveticaNeue-Light,Helvetica Neue" font-size="50.0" fill="#FEFFFE" transform="matrix(1.00, 0.00, -0.00, -1.00, 574.9, 18.9)">c</text><text xml:space="preserve" font-family="HelveticaNeue-Light,Helvetica Neue" font-size="50.0" fill="#FEFFFE" transform="matrix(1.00, 0.00, -0.00, -1.00, 600.8, 18.9)">k</text><text xml:space="preserve" font-family="HelveticaNeue-Light,Helvetica Neue" font-size="50.0" fill="#FEFFFE" transform="matrix(1.00, 0.00, -0.00, -1.00, 625.8, 18.9)">i</text><text xml:space="preserve" font-family="HelveticaNeue-Light,Helvetica Neue" font-size="50.0" fill="#FEFFFE" transform="matrix(1.00, 0.00, -0.00, -1.00, 635.1, 18.9)">n</text><text xml:space="preserve" font-family="HelveticaNeue-Light,Helvetica Neue" font-size="50.0" fill="#FEFFFE" transform="matrix(1.00, 0.00, -0.00, -1.00, 661.9, 18.9)">g</text><text xml:space="preserve" font-family="HelveticaNeue-Light,Helvetica Neue" font-size="50.0" fill="#FEFFFE" transform="matrix(1.00, 0.00, -0.00, -1.00, 689.7, 18.9)">…</text></g></svg>