<?xml version="1.0" encoding="UTF-8" standalone="no"?><svg xmlns="http://www.w3.org/2000/svg" xmlns:xlink="http://www.w3.org/1999/xlink" clip-rule="evenodd" stroke-miterlimit="10" viewBox="0 0 406 56"><desc>SVG generated by Keynote</desc><defs></defs><g transform="matrix(1.00, 0.00, -0.00, -1.00, 0.0, 56.0)"><image xlink:href="../../C5827503-2DE6-451C-8C31-4478F266013A/assets/DF77DC1ED7F55F4D23801FCDADC1AAA3.png" width="18.00" height="18.00" transform="matrix(1.00, 0.00, -0.00, -1.00, 4.0, 43.0)"></image><g><clipPath id="clip0x600000cb3b00"><path d="M 4.8 25.4 L 21.4 25.4 L 21.4 42.0 L 4.8 42.0 Z M 4.8 25.4 "></path></clipPath><g clip-path="url(#clip0x600000cb3b00)"><g><g><clipPath id="clip0x600000cb41c0"><path d="M 4.8 42.0 L 21.4 42.0 L 21.4 25.4 L 4.8 25.4 Z M 4.8 42.0 "></path></clipPath><g clip-path="url(#clip0x600000cb41c0)"><g><clipPath id="clip0x600000cb2e40"><path d="M 0.0 18.0 L 26.0 18.0 L 26.0 50.0 L 0.0 50.0 Z M 0.0 18.0 "></path></clipPath><g clip-path="url(#clip0x600000cb2e40)"><path d="M 21.4 38.7 C 21.4 39.4 21.0 40.2 20.3 40.9 C 19.6 41.7 18.9 42.0 18.0 42.0 C 17.7 42.0 17.1 41.8 16.3 41.5 C 15.0 40.8 13.9 40.5 13.0 40.5 C 12.1 40.5 11.0 40.8 9.8 41.5 C 9.0 41.8 8.4 42.0 8.1 42.0 C 7.3 42.0 6.5 41.7 5.9 41.0 C 5.2 40.2 4.8 39.5 4.8 38.7 C 4.8 38.3 5.0 37.7 5.4 36.9 C 5.9 35.7 6.2 34.6 6.2 33.7 C 6.2 32.8 5.9 31.7 5.4 30.5 C 5.0 29.7 4.8 29.1 4.8 28.7 C 4.8 27.9 5.2 27.2 5.9 26.5 C 6.5 25.8 7.3 25.4 8.1 25.4 C 8.4 25.4 9.0 25.6 9.8 26.0 C 11.0 26.6 12.1 26.9 13.0 26.9 C 13.9 26.9 15.0 26.6 16.3 26.0 C 17.1 25.6 17.7 25.4 18.0 25.4 C 18.9 25.4 19.6 25.8 20.3 26.5 C 21.0 27.2 21.4 27.9 21.4 28.7 C 21.4 29.1 21.2 29.7 20.8 30.5 C 20.2 31.7 19.9 32.8 19.9 33.7 C 19.9 34.6 20.2 35.7 20.8 36.9 C 21.2 37.7 21.4 38.3 21.4 38.7 " fill="#FFFFFF"></path></g></g></g></g></g></g></g><image xlink:href="../../C5827503-2DE6-451C-8C31-4478F266013A/assets/2731898CF36C338E6FA03BFDF7536533.png" width="356.00" height="52.00" transform="matrix(1.00, 0.00, -0.00, -1.00, 48.0, 54.0)"></image><text xml:space="preserve" font-family="HelveticaNeue-Light,Helvetica Neue" font-size="47.0" fill="#FEFFFE" transform="matrix(1.00, 0.00, -0.00, -1.00, 50.5, 18.0)">S</text><text xml:space="preserve" font-family="HelveticaNeue-Light,Helvetica Neue" font-size="47.0" fill="#FEFFFE" transform="matrix(1.00, 0.00, -0.00, -1.00, 80.1, 18.0)">u</text><text xml:space="preserve" font-family="HelveticaNeue-Light,Helvetica Neue" font-size="47.0" fill="#FEFFFE" transform="matrix(1.00, 0.00, -0.00, -1.00, 105.4, 18.0)">p</text><text xml:space="preserve" font-family="HelveticaNeue-Light,Helvetica Neue" font-size="47.0" fill="#FEFFFE" transform="matrix(1.00, 0.00, -0.00, -1.00, 132.3, 18.0)">e</text><text xml:space="preserve" font-family="HelveticaNeue-Light,Helvetica Neue" font-size="47.0" fill="#FEFFFE" transform="matrix(1.00, 0.00, -0.00, -1.00, 156.7, 18.0)">r</text><text xml:space="preserve" font-family="HelveticaNeue-Light,Helvetica Neue" font-size="47.0" fill="#FEFFFE" transform="matrix(1.00, 0.00, -0.00, -1.00, 171.5, 18.0)"> </text><text xml:space="preserve" font-family="HelveticaNeue-Light,Helvetica Neue" font-size="47.0" fill="#FEFFFE" transform="matrix(1.00, 0.00, -0.00, -1.00, 184.6, 18.0)">ﬂ</text><text xml:space="preserve" font-family="HelveticaNeue-Light,Helvetica Neue" font-size="47.0" fill="#FEFFFE" transform="matrix(1.00, 0.00, -0.00, -1.00, 205.5, 18.0)">e</text><text xml:space="preserve" font-family="HelveticaNeue-Light,Helvetica Neue" font-size="47.0" fill="#FEFFFE" transform="matrix(1.00, 0.00, -0.00, -1.00, 229.9, 18.0)">k</text><text xml:space="preserve" font-family="HelveticaNeue-Light,Helvetica Neue" font-size="47.0" fill="#FEFFFE" transform="matrix(1.00, 0.00, -0.00, -1.00, 253.4, 18.0)">s</text><text xml:space="preserve" font-family="HelveticaNeue-Light,Helvetica Neue" font-size="47.0" fill="#FEFFFE" transform="matrix(1.00, 0.00, -0.00, -1.00, 276.0, 18.0)">i</text><text xml:space="preserve" font-family="HelveticaNeue-Light,Helvetica Neue" font-size="47.0" fill="#FEFFFE" transform="matrix(1.00, 0.00, -0.00, -1.00, 284.7, 18.0)">b</text><text xml:space="preserve" font-family="HelveticaNeue-Light,Helvetica Neue" font-size="47.0" fill="#FEFFFE" transform="matrix(1.00, 0.00, -0.00, -1.00, 311.6, 18.0)">e</text><text xml:space="preserve" font-family="HelveticaNeue-Light,Helvetica Neue" font-size="47.0" fill="#FEFFFE" transform="matrix(1.00, 0.00, -0.00, -1.00, 336.0, 18.0)">l</text><text xml:space="preserve" font-family="HelveticaNeue-Light,Helvetica Neue" font-size="47.0" fill="#FEFFFE" transform="matrix(1.00, 0.00, -0.00, -1.00, 344.7, 18.0)">t</text><text xml:space="preserve" font-family="HelveticaNeue-Light,Helvetica Neue" font-size="47.0" fill="#FEFFFE" transform="matrix(1.00, 0.00, -0.00, -1.00, 358.6, 18.0)">…</text></g></svg>