<?xml version="1.0" encoding="UTF-8" standalone="no"?><svg xmlns="http://www.w3.org/2000/svg" xmlns:xlink="http://www.w3.org/1999/xlink" clip-rule="evenodd" stroke-miterlimit="10" viewBox="0 0 190 211"><desc>SVG generated by Keynote</desc><defs><linearGradient id="gradSh1.13" x1="0.0" y1="0.0" x2="1.0" y2="0.0" gradientUnits="userSpaceOnUse" gradientTransform="matrix(25.76, 120.39, 121.21, -25.59, 79.7, 45.3)"><stop offset="0.00000" stop-color="#000000"></stop><stop offset="0.17082" stop-color="#000001"></stop><stop offset="0.19868" stop-color="#000101"></stop><stop offset="0.21261" stop-color="#000102"></stop><stop offset="0.21848" stop-color="#010102"></stop><stop offset="0.23534" stop-color="#010103"></stop><stop offset="0.24780" stop-color="#010203"></stop><stop offset="0.25220" stop-color="#010204"></stop><stop offset="0.26613" stop-color="#010205"></stop><stop offset="0.27273" stop-color="#020205"></stop><stop offset="0.27493" stop-color="#020305"></stop><stop offset="0.29399" stop-color="#020408"></stop><stop offset="0.30132" stop-color="#020409"></stop><stop offset="0.32331" stop-color="#04060C"></stop><stop offset="0.32551" stop-color="#04060D"></stop><stop offset="0.34238" stop-color="#050810"></stop><stop offset="0.34384" stop-color="#050811"></stop><stop offset="0.37610" stop-color="#080C1A"></stop><stop offset="0.37830" stop-color="#080C1B"></stop><stop offset="0.39663" stop-color="#0A1022"></stop><stop offset="0.39883" stop-color="#0A1023"></stop><stop offset="0.43548" stop-color="#101936"></stop><stop offset="0.43695" stop-color="#101937"></stop><stop offset="0.45674" stop-color="#142044"></stop><stop offset="0.45748" stop-color="#142045"></stop><stop offset="0.50220" stop-color="#20336D"></stop><stop offset="0.50293" stop-color="#20336E"></stop><stop offset="0.52639" stop-color="#28408A"></stop><stop offset="0.52713" stop-color="#28408B"></stop><stop offset="0.57771" stop-color="#4065D9"></stop><stop offset="0.57918" stop-color="#4066D9"></stop><stop offset="0.70015" stop-color="#8099E6"></stop><stop offset="0.70235" stop-color="#819AE6"></stop><stop offset="1.00000" stop-color="#FFFFFF"></stop></linearGradient></defs><g transform="matrix(1.00, 0.00, -0.00, -1.00, 0.0, 211.0)"><image xlink:href="../../8532EDA3-03AF-4F95-ADCC-1003E38AE155/assets/92B8A543F34A3103C3297823A8CED706.png" width="187.00" height="180.00" transform="matrix(1.00, 0.00, -0.00, -1.00, 1.7, 181.4)" opacity="0.70"></image><g><clipPath id="clip0x600000cb2de0"><path d="M 30.0 167.0 L 161.0 167.0 L 161.0 44.0 L 30.0 44.0 Z M 29.7 167.4 "></path></clipPath><g clip-path="url(#clip0x600000cb2de0)"><g><clipPath id="clip0x600000cb3da0"><path d="M 30.0 44.0 L 439.0 44.0 L 439.0 167.0 L 30.0 167.0 Z M 30.0 44.0 "></path></clipPath><g clip-path="url(#clip0x600000cb3da0)"><g><g><clipPath id="clip0x608002aab160"><path d="M 10.4 182.1 L 449.9 182.1 L 449.9 26.7 L 10.4 26.7 Z M 10.4 182.1 "></path></clipPath><g clip-path="url(#clip0x608002aab160)"><g><clipPath id="clip0x608002aab340"><path d="M 30.0 44.0 L 161.0 44.0 L 161.0 167.0 L 30.0 167.0 Z M 30.0 44.0 "></path></clipPath><g clip-path="url(#clip0x608002aab340)"><g opacity="0.17"><g><clipPath id="clip0x608002aaaa40"><path d="M 30.2 44.0 L 155.0 44.0 L 155.0 167.0 L 30.2 167.0 Z M 30.2 44.0 "></path></clipPath><g clip-path="url(#clip0x608002aaaa40)"><path d="M 155.0 105.5 C 155.0 71.5 127.1 44.0 92.6 44.0 C 58.2 44.0 30.2 71.5 30.2 105.5 C 30.2 139.5 58.2 167.0 92.6 167.0 C 127.1 167.0 155.0 139.5 155.0 105.5 " fill="#0070BB"></path></g></g></g></g></g></g></g><g><clipPath id="clip0x608002aab6a0"><path d="M 30.0 44.0 L 161.0 44.0 L 161.0 167.0 L 30.0 167.0 Z M 30.0 44.0 "></path></clipPath><g clip-path="url(#clip0x608002aab6a0)"><path d="M 105.8 84.8 L 80.9 84.8 L 80.8 84.8 L 93.3 64.2 L 93.5 64.2 L 105.5 84.7 " fill="#2990B8"></path><path d="M 77.1 91.6 L 72.8 84.8 L 72.7 84.7 L 81.0 84.7 L 80.9 84.7 L 77.0 91.3 " fill="#299DBA"></path></g></g><g><clipPath id="clip0x608002aab820"><path d="M 10.4 182.1 L 449.9 182.1 L 449.9 26.7 L 10.4 26.7 Z M 10.4 182.1 "></path></clipPath><g clip-path="url(#clip0x608002aab820)"><g><clipPath id="clip0x608002aaaf20"><path d="M 30.0 44.0 L 161.0 44.0 L 161.0 167.0 L 30.0 167.0 Z M 30.0 44.0 "></path></clipPath><g clip-path="url(#clip0x608002aaaf20)"><g opacity="0.25"><g><clipPath id="clip0x608002aaa020"><path d="M 72.7 84.7 L 81.0 84.7 L 81.0 91.6 L 72.7 91.6 Z M 72.7 84.7 "></path></clipPath><g clip-path="url(#clip0x608002aaa020)"><path d="M 77.1 91.6 L 72.8 84.8 L 72.7 84.7 L 81.0 84.7 L 80.9 84.7 L 77.0 91.3 " fill="#000000"></path></g></g></g></g></g></g></g><g><clipPath id="clip0x608002aaafe0"><path d="M 30.0 44.0 L 161.0 44.0 L 161.0 167.0 L 30.0 167.0 Z M 30.0 44.0 "></path></clipPath><g clip-path="url(#clip0x608002aaafe0)"><path d="M 105.4 84.7 L 113.1 84.7 L 113.2 84.8 L 109.1 91.2 L 109.2 91.2 Z M 105.4 84.7 " fill="#296CAC"></path></g></g><g><clipPath id="clip0x608002aaa1a0"><path d="M 10.4 182.1 L 449.9 182.1 L 449.9 26.7 L 10.4 26.7 Z M 10.4 182.1 "></path></clipPath><g clip-path="url(#clip0x608002aaa1a0)"><g><clipPath id="clip0x608002aaa440"><path d="M 30.0 44.0 L 161.0 44.0 L 161.0 167.0 L 30.0 167.0 Z M 30.0 44.0 "></path></clipPath><g clip-path="url(#clip0x608002aaa440)"><g opacity="0.25"><g><clipPath id="clip0x608002aab9a0"><path d="M 105.4 84.7 L 113.2 84.7 L 113.2 91.2 L 105.4 91.2 Z M 105.4 84.7 "></path></clipPath><g clip-path="url(#clip0x608002aab9a0)"><path d="M 105.4 84.7 L 113.1 84.7 L 113.2 84.8 L 109.1 91.2 L 109.2 91.2 Z M 105.4 84.7 " fill="#000000"></path></g></g></g></g></g></g></g><g><clipPath id="clip0x608002aab880"><path d="M 30.0 44.0 L 161.0 44.0 L 161.0 167.0 L 30.0 167.0 Z M 30.0 44.0 "></path></clipPath><g clip-path="url(#clip0x608002aab880)"><path d="M 92.8 116.7 L 77.0 141.7 L 77.1 141.9 L 92.9 167.0 L 108.6 141.7 L 108.7 141.6 L 93.1 116.8 " fill="#2990B8"></path></g></g><g><clipPath id="clip0x608002aaa920"><path d="M 10.4 182.1 L 449.9 182.1 L 449.9 26.7 L 10.4 26.7 Z M 10.4 182.1 "></path></clipPath><g clip-path="url(#clip0x608002aaa920)"><g><clipPath id="clip0x608002aab700"><path d="M 30.0 44.0 L 161.0 44.0 L 161.0 167.0 L 30.0 167.0 Z M 30.0 44.0 "></path></clipPath><g clip-path="url(#clip0x608002aab700)"><path d="M 77.1 141.9 L 92.9 167.0 C 77.5 167.0 66.1 161.2 65.0 160.6 L 77.0 141.7 " fill="#2990B8"></path></g></g></g></g><g><clipPath id="clip0x608002aabc40"><path d="M 10.4 182.1 L 449.9 182.1 L 449.9 26.7 L 10.4 26.7 Z M 10.4 182.1 "></path></clipPath><g clip-path="url(#clip0x608002aabc40)"><g><clipPath id="clip0x608002aabca0"><path d="M 30.0 44.0 L 161.0 44.0 L 161.0 167.0 L 30.0 167.0 Z M 30.0 44.0 "></path></clipPath><g clip-path="url(#clip0x608002aabca0)"><g opacity="0.25"><g><clipPath id="clip0x608002aac000"><path d="M 65.0 141.7 L 92.9 141.7 L 92.9 167.0 L 65.0 167.0 Z M 65.0 141.7 "></path></clipPath><g clip-path="url(#clip0x608002aac000)"><path d="M 77.1 141.9 L 92.9 167.0 C 77.5 167.0 66.1 161.2 65.0 160.6 L 77.0 141.7 " fill="#000000"></path></g></g></g><path d="M 77.0 141.7 L 65.0 160.6 C 54.0 155.3 48.6 149.1 44.5 144.8 L 61.4 117.0 L 77.1 141.9 " fill="#2990B8"></path></g></g></g></g><g><clipPath id="clip0x608002aac360"><path d="M 10.4 182.1 L 449.9 182.1 L 449.9 26.7 L 10.4 26.7 Z M 10.4 182.1 "></path></clipPath><g clip-path="url(#clip0x608002aac360)"><g><clipPath id="clip0x608002aac4e0"><path d="M 30.0 44.0 L 161.0 44.0 L 161.0 167.0 L 30.0 167.0 Z M 30.0 44.0 "></path></clipPath><g clip-path="url(#clip0x608002aac4e0)"><g opacity="0.25"><g><clipPath id="clip0x608002aac6c0"><path d="M 44.5 117.0 L 77.1 117.0 L 77.1 160.6 L 44.5 160.6 Z M 44.5 117.0 "></path></clipPath><g clip-path="url(#clip0x608002aac6c0)"><path d="M 77.0 141.7 L 65.0 160.6 C 54.0 155.3 48.6 149.1 44.5 144.8 L 61.4 117.0 L 77.1 141.9 " fill="#000000"></path></g></g></g><path d="M 34.0 84.9 C 23.4 114.0 36.6 135.1 44.5 144.8 L 61.4 117.0 L 41.1 84.7 L 34.0 84.7 " fill="#2990B8"></path></g></g></g></g><g><clipPath id="clip0x608002aac9c0"><path d="M 10.4 182.1 L 449.9 182.1 L 449.9 26.7 L 10.4 26.7 Z M 10.4 182.1 "></path></clipPath><g clip-path="url(#clip0x608002aac9c0)"><g><clipPath id="clip0x608002aacb40"><path d="M 30.0 44.0 L 161.0 44.0 L 161.0 167.0 L 30.0 167.0 Z M 30.0 44.0 "></path></clipPath><g clip-path="url(#clip0x608002aacb40)"><g opacity="0.25"><g><clipPath id="clip0x608002aacd20"><path d="M 30.0 84.7 L 61.4 84.7 L 61.4 144.8 L 30.0 144.8 Z M 30.0 84.7 "></path></clipPath><g clip-path="url(#clip0x608002aacd20)"><path d="M 34.0 84.9 C 23.4 114.0 36.6 135.1 44.5 144.8 L 61.4 117.0 L 41.1 84.7 L 34.0 84.7 " fill="#000000"></path></g></g></g><path d="M 34.0 84.7 L 41.1 84.7 L 41.2 84.8 L 36.9 78.0 C 35.6 79.4 35.0 82.1 34.0 84.9 " fill="#2990B8"></path></g></g></g></g><g><clipPath id="clip0x608002aad020"><path d="M 10.4 182.1 L 449.9 182.1 L 449.9 26.7 L 10.4 26.7 Z M 10.4 182.1 "></path></clipPath><g clip-path="url(#clip0x608002aad020)"><g><clipPath id="clip0x608002aad1a0"><path d="M 30.0 44.0 L 161.0 44.0 L 161.0 167.0 L 30.0 167.0 Z M 30.0 44.0 "></path></clipPath><g clip-path="url(#clip0x608002aad1a0)"><g opacity="0.25"><g><clipPath id="clip0x608002aad380"><path d="M 34.0 78.0 L 41.2 78.0 L 41.2 84.9 L 34.0 84.9 Z M 34.0 78.0 "></path></clipPath><g clip-path="url(#clip0x608002aad380)"><path d="M 34.0 84.7 L 41.1 84.7 L 41.2 84.8 L 36.9 78.0 C 35.6 79.4 35.0 82.1 34.0 84.9 " fill="#000000"></path></g></g></g><path d="M 55.0 56.4 C 45.8 62.8 38.1 75.6 36.9 77.9 L 41.2 84.7 L 41.1 84.7 L 72.2 84.7 L 72.7 84.7 L 55.3 56.9 " fill="#2990B8"></path><path d="M 81.0 84.7 L 72.7 84.7 L 55.1 56.6 L 55.1 56.4 C 63.2 51.2 73.5 45.7 82.1 44.9 L 93.4 64.3 L 93.3 64.2 L 80.8 84.8 " fill="#299DBA"></path></g></g></g></g><g><clipPath id="clip0x608002aad740"><path d="M 10.4 182.1 L 449.9 182.1 L 449.9 26.7 L 10.4 26.7 Z M 10.4 182.1 "></path></clipPath><g clip-path="url(#clip0x608002aad740)"><g><clipPath id="clip0x608002aad8c0"><path d="M 30.0 44.0 L 161.0 44.0 L 161.0 167.0 L 30.0 167.0 Z M 30.0 44.0 "></path></clipPath><g clip-path="url(#clip0x608002aad8c0)"><g opacity="0.25"><g><clipPath id="clip0x608002aadaa0"><path d="M 55.1 44.9 L 93.4 44.9 L 93.4 84.8 L 55.1 84.8 Z M 55.1 44.9 "></path></clipPath><g clip-path="url(#clip0x608002aadaa0)"><path d="M 81.0 84.7 L 72.7 84.7 L 55.1 56.6 L 55.1 56.4 C 63.2 51.2 73.5 45.7 82.1 44.9 L 93.4 64.3 L 93.3 64.2 L 80.8 84.8 " fill="#000000"></path></g></g></g><path d="M 93.4 64.3 L 82.1 44.9 C 94.5 42.7 104.8 45.3 104.8 45.3 L 93.3 64.2 " fill="#296CAC"></path></g></g></g></g><g><clipPath id="clip0x608002aadda0"><path d="M 10.4 182.1 L 449.9 182.1 L 449.9 26.7 L 10.4 26.7 Z M 10.4 182.1 "></path></clipPath><g clip-path="url(#clip0x608002aadda0)"><g><clipPath id="clip0x608002aadf20"><path d="M 30.0 44.0 L 161.0 44.0 L 161.0 167.0 L 30.0 167.0 Z M 30.0 44.0 "></path></clipPath><g clip-path="url(#clip0x608002aadf20)"><g opacity="0.25"><g><clipPath id="clip0x608002aae100"><path d="M 82.1 44.0 L 104.8 44.0 L 104.8 64.3 L 82.1 64.3 Z M 82.1 44.0 "></path></clipPath><g clip-path="url(#clip0x608002aae100)"><path d="M 93.4 64.3 L 82.1 44.9 C 94.5 42.7 104.8 45.3 104.8 45.3 L 93.3 64.2 " fill="#000000"></path></g></g></g><path d="M 105.6 84.8 L 113.1 84.8 L 113.1 84.8 L 130.7 56.9 C 130.7 56.9 119.2 47.5 104.8 45.3 L 93.3 64.2 L 93.5 64.2 L 105.5 84.7 " fill="#296CAC"></path></g></g></g></g><g><clipPath id="clip0x608002aae400"><path d="M 10.4 182.1 L 449.9 182.1 L 449.9 26.7 L 10.4 26.7 Z M 10.4 182.1 "></path></clipPath><g clip-path="url(#clip0x608002aae400)"><g><clipPath id="clip0x608002aae580"><path d="M 30.0 44.0 L 161.0 44.0 L 161.0 167.0 L 30.0 167.0 Z M 30.0 44.0 "></path></clipPath><g clip-path="url(#clip0x608002aae580)"><g opacity="0.25"><g><clipPath id="clip0x608002aae760"><path d="M 93.3 45.3 L 130.7 45.3 L 130.7 84.8 L 93.3 84.8 Z M 93.3 45.3 "></path></clipPath><g clip-path="url(#clip0x608002aae760)"><path d="M 105.6 84.8 L 113.1 84.8 L 113.1 84.8 L 130.7 56.9 C 130.7 56.9 119.2 47.5 104.8 45.3 L 93.3 64.2 L 93.5 64.2 L 105.5 84.7 " fill="#000000"></path></g></g></g><path d="M 144.5 84.7 L 148.6 78.3 C 148.6 78.3 139.2 61.9 130.7 56.9 L 113.1 84.8 L 144.4 84.7 " fill="#298AB8"></path><path d="M 144.5 84.7 L 148.6 78.3 C 149.4 80.0 151.3 84.8 151.3 84.8 L 144.4 84.7 " fill="#2990B8"></path></g></g></g></g><g><clipPath id="clip0x608002aaeb20"><path d="M 10.4 182.1 L 449.9 182.1 L 449.9 26.7 L 10.4 26.7 Z M 10.4 182.1 "></path></clipPath><g clip-path="url(#clip0x608002aaeb20)"><g><clipPath id="clip0x608002aaeca0"><path d="M 30.0 44.0 L 161.0 44.0 L 161.0 167.0 L 30.0 167.0 Z M 30.0 44.0 "></path></clipPath><g clip-path="url(#clip0x608002aaeca0)"><g opacity="0.25"><g><clipPath id="clip0x608002aaee80"><path d="M 144.4 78.3 L 151.3 78.3 L 151.3 84.8 L 144.4 84.8 Z M 144.4 78.3 "></path></clipPath><g clip-path="url(#clip0x608002aaee80)"><path d="M 144.5 84.7 L 148.6 78.3 C 149.4 80.0 151.3 84.8 151.3 84.8 L 144.4 84.7 " fill="#000000"></path></g></g></g><path d="M 124.4 116.8 L 140.7 144.8 C 144.5 139.6 163.1 115.4 151.3 84.8 L 144.4 84.7 Z M 124.4 116.8 " fill="#2990B8"></path></g></g></g></g><g><clipPath id="clip0x608002aaf180"><path d="M 10.4 182.1 L 449.9 182.1 L 449.9 26.7 L 10.4 26.7 Z M 10.4 182.1 "></path></clipPath><g clip-path="url(#clip0x608002aaf180)"><g><clipPath id="clip0x608002aaf300"><path d="M 30.0 44.0 L 161.0 44.0 L 161.0 167.0 L 30.0 167.0 Z M 30.0 44.0 "></path></clipPath><g clip-path="url(#clip0x608002aaf300)"><g opacity="0.25"><g><clipPath id="clip0x608002aaf4e0"><path d="M 124.4 84.7 L 155.2 84.7 L 155.2 144.8 L 124.4 144.8 Z M 124.4 84.7 "></path></clipPath><g clip-path="url(#clip0x608002aaf4e0)"><path d="M 124.4 116.8 L 140.7 144.8 C 144.5 139.6 163.1 115.4 151.3 84.8 L 144.4 84.7 Z M 124.4 116.8 " fill="#000000"></path></g></g></g><path d="M 124.4 116.8 L 140.7 144.8 C 132.0 155.3 120.5 160.5 120.5 160.5 L 108.6 141.7 L 108.6 141.8 L 124.4 116.5 " fill="#2990B8"></path></g></g></g></g><g><clipPath id="clip0x608002aaf7e0"><path d="M 10.4 182.1 L 449.9 182.1 L 449.9 26.7 L 10.4 26.7 Z M 10.4 182.1 "></path></clipPath><g clip-path="url(#clip0x608002aaf7e0)"><g><clipPath id="clip0x608002aaf9c0"><path d="M 30.0 44.0 L 161.0 44.0 L 161.0 167.0 L 30.0 167.0 Z M 30.0 44.0 "></path></clipPath><g clip-path="url(#clip0x608002aaf9c0)"><g opacity="0.25"><g><clipPath id="clip0x608002aafc00"><path d="M 108.6 116.5 L 140.7 116.5 L 140.7 160.5 L 108.6 160.5 Z M 108.6 116.5 "></path></clipPath><g clip-path="url(#clip0x608002aafc00)"><path d="M 124.4 116.8 L 140.7 144.8 C 132.0 155.3 120.5 160.5 120.5 160.5 L 108.6 141.7 L 108.6 141.8 L 124.4 116.5 " fill="#000000"></path></g></g></g><path d="M 120.5 160.5 C 105.8 167.7 92.9 167.0 92.9 167.0 L 108.6 141.7 Z M 120.5 160.5 " fill="#2990B8"></path></g></g></g></g><g><clipPath id="clip0x608002aaff00"><path d="M 10.4 182.1 L 449.9 182.1 L 449.9 26.7 L 10.4 26.7 Z M 10.4 182.1 "></path></clipPath><g clip-path="url(#clip0x608002aaff00)"><g><clipPath id="clip0x608002ab0080"><path d="M 30.0 44.0 L 161.0 44.0 L 161.0 167.0 L 30.0 167.0 Z M 30.0 44.0 "></path></clipPath><g clip-path="url(#clip0x608002ab0080)"><g opacity="0.25"><g><clipPath id="clip0x608002ab0260"><path d="M 92.9 141.7 L 120.5 141.7 L 120.5 167.0 L 92.9 167.0 Z M 92.9 141.7 "></path></clipPath><g clip-path="url(#clip0x608002ab0260)"><path d="M 120.5 160.5 C 105.8 167.7 92.9 167.0 92.9 167.0 L 108.6 141.7 Z M 120.5 160.5 " fill="#000000"></path></g></g></g></g></g></g></g><g><clipPath id="clip0x608002ab04a0"><path d="M 10.4 182.1 L 449.9 182.1 L 449.9 26.7 L 10.4 26.7 Z M 10.4 182.1 "></path></clipPath><g clip-path="url(#clip0x608002ab04a0)"><g><clipPath id="clip0x608002ab0620"><path d="M 30.0 44.0 L 161.0 44.0 L 161.0 167.0 L 30.0 167.0 Z M 30.0 44.0 "></path></clipPath><g clip-path="url(#clip0x608002ab0620)"><g opacity="0.53"><g><clipPath id="clip0x608002ab0800"><path d="M 155.2 105.5 C 155.2 71.5 127.1 44.0 92.6 44.0 C 58.0 44.0 30.0 71.5 30.0 105.5 C 30.0 139.5 58.0 167.0 92.6 167.0 C 127.1 167.0 155.2 139.5 155.2 105.5 "></path></clipPath><g clip-path="url(#clip0x608002ab0800)"><g><clipPath id="clip0x608002ab0980"><path d="M 30.0 44.0 L 155.2 44.0 L 155.2 167.0 L 30.0 167.0 Z M 30.0 44.0 "></path></clipPath><g clip-path="url(#clip0x608002ab0980)"><path d="M 30.0 44.0 L 155.2 44.0 L 155.2 167.0 L 30.0 167.0 Z M 30.0 44.0 " fill="url(#gradSh1.13)"></path></g></g></g></g></g><path d="M 41.6 84.7 L 72.7 84.7 L 72.8 84.8 L 77.1 91.6 L 77.0 91.4 L 61.6 116.9 L 61.4 117.0 L 41.1 84.6 " fill="#FFFFFF"></path><path d="M 124.4 116.8 L 144.4 84.7 L 113.1 84.8 L 113.2 84.8 L 109.1 91.2 L 124.2 116.9 " fill="#FFFFFF"></path><path d="M 80.9 84.7 L 104.8 84.8 L 105.4 84.7 L 109.2 91.2 L 109.1 91.2 L 93.0 116.7 L 93.1 117.0 L 77.0 91.5 L 77.0 91.3 Z M 80.9 84.7 " fill="#FFFFFF"></path><path d="M 124.2 116.9 L 109.1 91.2 L 93.0 116.7 L 93.1 116.8 L 108.7 141.6 L 108.6 141.8 L 124.4 116.5 " fill="#FFFFFF"></path><path d="M 93.1 117.0 L 77.0 91.5 L 77.0 91.4 L 61.6 116.9 L 61.4 117.0 L 77.1 141.9 L 77.0 141.7 L 92.8 116.7 " fill="#FFFFFF"></path><path d="M 41.6 84.7 L 72.7 84.7 L 72.8 84.8 L 77.1 91.6 L 77.0 91.4 L 61.6 116.9 L 61.4 117.0 L 41.1 84.6 " fill="#FFFFFF"></path></g></g></g></g><g><clipPath id="clip0x600000cb3ce0"><path d="M 10.4 182.1 L 449.9 182.1 L 449.9 26.7 L 10.4 26.7 Z M 10.4 182.1 "></path></clipPath><g clip-path="url(#clip0x600000cb3ce0)"><g><clipPath id="clip0x600000cb3a40"><path d="M 30.0 44.0 L 161.0 44.0 L 161.0 167.0 L 30.0 167.0 Z M 30.0 44.0 "></path></clipPath><g clip-path="url(#clip0x600000cb3a40)"><g opacity="0.19"><g><clipPath id="clip0x600000cb2a20"><path d="M 41.1 84.6 L 77.1 84.6 L 77.1 117.0 L 41.1 117.0 Z M 41.1 84.6 "></path></clipPath><g clip-path="url(#clip0x600000cb2a20)"><path d="M 41.6 84.7 L 72.7 84.7 L 72.8 84.8 L 77.1 91.6 L 77.0 91.4 L 61.6 116.9 L 61.4 117.0 L 41.1 84.6 " fill="#000000"></path></g></g></g><path d="M 124.4 116.8 L 144.4 84.7 L 113.1 84.8 L 113.2 84.8 L 109.1 91.2 L 124.2 116.9 " fill="#FFFFFF"></path></g></g></g></g><g><clipPath id="clip0x608002cb0f20"><path d="M 10.4 182.1 L 449.9 182.1 L 449.9 26.7 L 10.4 26.7 Z M 10.4 182.1 "></path></clipPath><g clip-path="url(#clip0x608002cb0f20)"><g><clipPath id="clip0x608002cb10a0"><path d="M 30.0 44.0 L 161.0 44.0 L 161.0 167.0 L 30.0 167.0 Z M 30.0 44.0 "></path></clipPath><g clip-path="url(#clip0x608002cb10a0)"><g opacity="0.19"><g><clipPath id="clip0x608002cb1280"><path d="M 109.1 84.7 L 144.4 84.7 L 144.4 116.9 L 109.1 116.9 Z M 109.1 84.7 "></path></clipPath><g clip-path="url(#clip0x608002cb1280)"><path d="M 124.4 116.8 L 144.4 84.7 L 113.1 84.8 L 113.2 84.8 L 109.1 91.2 L 124.2 116.9 " fill="#000000"></path></g></g></g><path d="M 80.9 84.7 L 104.8 84.8 L 105.4 84.7 L 109.2 91.2 L 109.1 91.2 L 93.0 116.7 L 93.1 117.0 L 77.0 91.5 L 77.0 91.3 Z M 80.9 84.7 " fill="#FFFFFF"></path></g></g></g></g><g><clipPath id="clip0x608002cb1580"><path d="M 10.4 182.1 L 449.9 182.1 L 449.9 26.7 L 10.4 26.7 Z M 10.4 182.1 "></path></clipPath><g clip-path="url(#clip0x608002cb1580)"><g><clipPath id="clip0x608002cb1700"><path d="M 30.0 44.0 L 161.0 44.0 L 161.0 167.0 L 30.0 167.0 Z M 30.0 44.0 "></path></clipPath><g clip-path="url(#clip0x608002cb1700)"><g opacity="0.19"><g><clipPath id="clip0x608002cb18e0"><path d="M 77.0 84.7 L 109.2 84.7 L 109.2 117.0 L 77.0 117.0 Z M 77.0 84.7 "></path></clipPath><g clip-path="url(#clip0x608002cb18e0)"><path d="M 80.9 84.7 L 104.8 84.8 L 105.4 84.7 L 109.2 91.2 L 109.1 91.2 L 93.0 116.7 L 93.1 117.0 L 77.0 91.5 L 77.0 91.3 Z M 80.9 84.7 " fill="#000000"></path></g></g></g></g></g></g></g></g></g></g></g></g></g></svg>