<?xml version="1.0" encoding="UTF-8" standalone="no"?><svg xmlns="http://www.w3.org/2000/svg" xmlns:xlink="http://www.w3.org/1999/xlink" clip-rule="evenodd" stroke-miterlimit="10" viewBox="0 0 1920 1080"><desc>SVG generated by Keynote</desc><defs><linearGradient id="gradSh1.14" x1="0.0" y1="0.0" x2="1.0" y2="0.0" gradientUnits="userSpaceOnUse" gradientTransform="matrix(25.76, 120.39, 121.21, -25.59, 302.7, 11.3)"><stop offset="0.00000" stop-color="#000000"></stop><stop offset="0.17082" stop-color="#000001"></stop><stop offset="0.19868" stop-color="#000101"></stop><stop offset="0.21261" stop-color="#000102"></stop><stop offset="0.21848" stop-color="#010102"></stop><stop offset="0.23534" stop-color="#010103"></stop><stop offset="0.24780" stop-color="#010203"></stop><stop offset="0.25220" stop-color="#010204"></stop><stop offset="0.26613" stop-color="#010205"></stop><stop offset="0.27273" stop-color="#020205"></stop><stop offset="0.27493" stop-color="#020305"></stop><stop offset="0.29399" stop-color="#020408"></stop><stop offset="0.30132" stop-color="#020409"></stop><stop offset="0.32331" stop-color="#04060C"></stop><stop offset="0.32551" stop-color="#04060D"></stop><stop offset="0.34238" stop-color="#050810"></stop><stop offset="0.34384" stop-color="#050811"></stop><stop offset="0.37610" stop-color="#080C1A"></stop><stop offset="0.37830" stop-color="#080C1B"></stop><stop offset="0.39663" stop-color="#0A1022"></stop><stop offset="0.39883" stop-color="#0A1023"></stop><stop offset="0.43548" stop-color="#101936"></stop><stop offset="0.43695" stop-color="#101937"></stop><stop offset="0.45674" stop-color="#142044"></stop><stop offset="0.45748" stop-color="#142045"></stop><stop offset="0.50220" stop-color="#20336D"></stop><stop offset="0.50293" stop-color="#20336E"></stop><stop offset="0.52639" stop-color="#28408A"></stop><stop offset="0.52713" stop-color="#28408B"></stop><stop offset="0.57771" stop-color="#4065D9"></stop><stop offset="0.57918" stop-color="#4066D9"></stop><stop offset="0.70015" stop-color="#8099E6"></stop><stop offset="0.70235" stop-color="#819AE6"></stop><stop offset="1.00000" stop-color="#FFFFFF"></stop></linearGradient></defs><g transform="matrix(1.00, 0.00, -0.00, -1.00, 0.0, 1080.0)"><g><clipPath id="clip0x608002cb9740"><path d="M 0.0 1080.0 L 1920.0 1080.0 L 1920.0 0.0 L 0.0 0.0 Z M 0.0 1080.0 "></path></clipPath><g clip-path="url(#clip0x608002cb9740)"><image xlink:href="../../8532EDA3-03AF-4F95-ADCC-1003E38AE155/assets/7D0D479F0D8AC86C9E875656D9072873.jpeg" width="2048.00" height="1536.00" transform="matrix(0.94, 0.00, -0.00, -0.70, 0.0, 1080.0)"></image></g></g><image xlink:href="../../8532EDA3-03AF-4F95-ADCC-1003E38AE155/assets/92B8A543F34A3103C3297823A8CED706.png" width="187.00" height="180.00" transform="matrix(1.00, 0.00, -0.00, -1.00, 224.7, 147.4)" opacity="0.70"></image><g><clipPath id="clip0x608002cbae20"><path d="M 253.0 133.0 L 384.0 133.0 L 384.0 10.0 L 253.0 10.0 Z M 252.7 133.4 "></path></clipPath><g clip-path="url(#clip0x608002cbae20)"><g><clipPath id="clip0x608002cbb600"><path d="M 253.0 10.0 L 662.0 10.0 L 662.0 133.0 L 253.0 133.0 Z M 253.0 10.0 "></path></clipPath><g clip-path="url(#clip0x608002cbb600)"><g><g><clipPath id="clip0x608002cb8300"><path d="M 233.4 148.1 L 672.9 148.1 L 672.9 -7.3 L 233.4 -7.3 Z M 233.4 148.1 "></path></clipPath><g clip-path="url(#clip0x608002cb8300)"><g><clipPath id="clip0x608002cb8000"><path d="M 253.0 10.0 L 384.0 10.0 L 384.0 133.0 L 253.0 133.0 Z M 253.0 10.0 "></path></clipPath><g clip-path="url(#clip0x608002cb8000)"><g opacity="0.17"><g><clipPath id="clip0x608002cb8840"><path d="M 253.2 10.0 L 378.0 10.0 L 378.0 133.0 L 253.2 133.0 Z M 253.2 10.0 "></path></clipPath><g clip-path="url(#clip0x608002cb8840)"><path d="M 378.0 71.5 C 378.0 37.5 350.1 10.0 315.6 10.0 C 281.2 10.0 253.2 37.5 253.2 71.5 C 253.2 105.5 281.2 133.0 315.6 133.0 C 350.1 133.0 378.0 105.5 378.0 71.5 " fill="#0070BB"></path></g></g></g></g></g></g></g><g><clipPath id="clip0x608002cba100"><path d="M 253.0 10.0 L 384.0 10.0 L 384.0 133.0 L 253.0 133.0 Z M 253.0 10.0 "></path></clipPath><g clip-path="url(#clip0x608002cba100)"><path d="M 328.8 50.8 L 303.9 50.8 L 303.8 50.8 L 316.3 30.2 L 316.5 30.2 L 328.5 50.7 " fill="#2990B8"></path><path d="M 300.1 57.6 L 295.8 50.8 L 295.7 50.7 L 304.0 50.7 L 303.9 50.7 L 300.0 57.3 " fill="#299DBA"></path></g></g><g><clipPath id="clip0x608002cb8420"><path d="M 233.4 148.1 L 672.9 148.1 L 672.9 -7.3 L 233.4 -7.3 Z M 233.4 148.1 "></path></clipPath><g clip-path="url(#clip0x608002cb8420)"><g><clipPath id="clip0x608002cbb120"><path d="M 253.0 10.0 L 384.0 10.0 L 384.0 133.0 L 253.0 133.0 Z M 253.0 10.0 "></path></clipPath><g clip-path="url(#clip0x608002cbb120)"><g opacity="0.25"><g><clipPath id="clip0x608002cbb8a0"><path d="M 295.7 50.7 L 304.0 50.7 L 304.0 57.6 L 295.7 57.6 Z M 295.7 50.7 "></path></clipPath><g clip-path="url(#clip0x608002cbb8a0)"><path d="M 300.1 57.6 L 295.8 50.8 L 295.7 50.7 L 304.0 50.7 L 303.9 50.7 L 300.0 57.3 " fill="#000000"></path></g></g></g></g></g></g></g><g><clipPath id="clip0x600000cb5ea0"><path d="M 253.0 10.0 L 384.0 10.0 L 384.0 133.0 L 253.0 133.0 Z M 253.0 10.0 "></path></clipPath><g clip-path="url(#clip0x600000cb5ea0)"><path d="M 328.4 50.7 L 336.1 50.7 L 336.2 50.8 L 332.1 57.2 L 332.2 57.2 Z M 328.4 50.7 " fill="#296CAC"></path></g></g><g><clipPath id="clip0x608002cbb6c0"><path d="M 233.4 148.1 L 672.9 148.1 L 672.9 -7.3 L 233.4 -7.3 Z M 233.4 148.1 "></path></clipPath><g clip-path="url(#clip0x608002cbb6c0)"><g><clipPath id="clip0x608002cbb540"><path d="M 253.0 10.0 L 384.0 10.0 L 384.0 133.0 L 253.0 133.0 Z M 253.0 10.0 "></path></clipPath><g clip-path="url(#clip0x608002cbb540)"><g opacity="0.25"><g><clipPath id="clip0x608002cbb420"><path d="M 328.4 50.7 L 336.2 50.7 L 336.2 57.2 L 328.4 57.2 Z M 328.4 50.7 "></path></clipPath><g clip-path="url(#clip0x608002cbb420)"><path d="M 328.4 50.7 L 336.1 50.7 L 336.2 50.8 L 332.1 57.2 L 332.2 57.2 Z M 328.4 50.7 " fill="#000000"></path></g></g></g></g></g></g></g><g><clipPath id="clip0x608002cb9a40"><path d="M 253.0 10.0 L 384.0 10.0 L 384.0 133.0 L 253.0 133.0 Z M 253.0 10.0 "></path></clipPath><g clip-path="url(#clip0x608002cb9a40)"><path d="M 315.8 82.7 L 300.0 107.7 L 300.1 107.9 L 315.9 133.0 L 331.6 107.7 L 331.7 107.6 L 316.1 82.8 " fill="#2990B8"></path></g></g><g><clipPath id="clip0x608002cb9ec0"><path d="M 233.4 148.1 L 672.9 148.1 L 672.9 -7.3 L 233.4 -7.3 Z M 233.4 148.1 "></path></clipPath><g clip-path="url(#clip0x608002cb9ec0)"><g><clipPath id="clip0x608002cb9560"><path d="M 253.0 10.0 L 384.0 10.0 L 384.0 133.0 L 253.0 133.0 Z M 253.0 10.0 "></path></clipPath><g clip-path="url(#clip0x608002cb9560)"><path d="M 300.1 107.9 L 315.9 133.0 C 300.5 133.0 289.1 127.2 288.0 126.6 L 300.0 107.7 " fill="#2990B8"></path></g></g></g></g><g><clipPath id="clip0x608002cb9d40"><path d="M 233.4 148.1 L 672.9 148.1 L 672.9 -7.3 L 233.4 -7.3 Z M 233.4 148.1 "></path></clipPath><g clip-path="url(#clip0x608002cb9d40)"><g><clipPath id="clip0x608002cba880"><path d="M 253.0 10.0 L 384.0 10.0 L 384.0 133.0 L 253.0 133.0 Z M 253.0 10.0 "></path></clipPath><g clip-path="url(#clip0x608002cba880)"><g opacity="0.25"><g><clipPath id="clip0x608002cba820"><path d="M 288.0 107.7 L 315.9 107.7 L 315.9 133.0 L 288.0 133.0 Z M 288.0 107.7 "></path></clipPath><g clip-path="url(#clip0x608002cba820)"><path d="M 300.1 107.9 L 315.9 133.0 C 300.5 133.0 289.1 127.2 288.0 126.6 L 300.0 107.7 " fill="#000000"></path></g></g></g><path d="M 300.0 107.7 L 288.0 126.6 C 277.0 121.3 271.6 115.1 267.5 110.8 L 284.4 83.0 L 300.1 107.9 " fill="#2990B8"></path></g></g></g></g><g><clipPath id="clip0x608002cba460"><path d="M 233.4 148.1 L 672.9 148.1 L 672.9 -7.3 L 233.4 -7.3 Z M 233.4 148.1 "></path></clipPath><g clip-path="url(#clip0x608002cba460)"><g><clipPath id="clip0x608002cbbba0"><path d="M 253.0 10.0 L 384.0 10.0 L 384.0 133.0 L 253.0 133.0 Z M 253.0 10.0 "></path></clipPath><g clip-path="url(#clip0x608002cbbba0)"><g opacity="0.25"><g><clipPath id="clip0x608002cbbcc0"><path d="M 267.5 83.0 L 300.1 83.0 L 300.1 126.6 L 267.5 126.6 Z M 267.5 83.0 "></path></clipPath><g clip-path="url(#clip0x608002cbbcc0)"><path d="M 300.0 107.7 L 288.0 126.6 C 277.0 121.3 271.6 115.1 267.5 110.8 L 284.4 83.0 L 300.1 107.9 " fill="#000000"></path></g></g></g><path d="M 257.0 50.9 C 246.4 80.0 259.6 101.1 267.5 110.8 L 284.4 83.0 L 264.1 50.7 L 257.0 50.7 " fill="#2990B8"></path></g></g></g></g><g><clipPath id="clip0x608002cba340"><path d="M 233.4 148.1 L 672.9 148.1 L 672.9 -7.3 L 233.4 -7.3 Z M 233.4 148.1 "></path></clipPath><g clip-path="url(#clip0x608002cba340)"><g><clipPath id="clip0x608002cbbd80"><path d="M 253.0 10.0 L 384.0 10.0 L 384.0 133.0 L 253.0 133.0 Z M 253.0 10.0 "></path></clipPath><g clip-path="url(#clip0x608002cbbd80)"><g opacity="0.25"><g><clipPath id="clip0x608002cbbf60"><path d="M 253.0 50.7 L 284.4 50.7 L 284.4 110.8 L 253.0 110.8 Z M 253.0 50.7 "></path></clipPath><g clip-path="url(#clip0x608002cbbf60)"><path d="M 257.0 50.9 C 246.4 80.0 259.6 101.1 267.5 110.8 L 284.4 83.0 L 264.1 50.7 L 257.0 50.7 " fill="#000000"></path></g></g></g><path d="M 257.0 50.7 L 264.1 50.7 L 264.2 50.8 L 259.9 44.0 C 258.6 45.4 258.0 48.1 257.0 50.9 " fill="#2990B8"></path></g></g></g></g><g><clipPath id="clip0x608002cbc260"><path d="M 233.4 148.1 L 672.9 148.1 L 672.9 -7.3 L 233.4 -7.3 Z M 233.4 148.1 "></path></clipPath><g clip-path="url(#clip0x608002cbc260)"><g><clipPath id="clip0x608002cbc3e0"><path d="M 253.0 10.0 L 384.0 10.0 L 384.0 133.0 L 253.0 133.0 Z M 253.0 10.0 "></path></clipPath><g clip-path="url(#clip0x608002cbc3e0)"><g opacity="0.25"><g><clipPath id="clip0x608002cbc5c0"><path d="M 257.0 44.0 L 264.2 44.0 L 264.2 50.9 L 257.0 50.9 Z M 257.0 44.0 "></path></clipPath><g clip-path="url(#clip0x608002cbc5c0)"><path d="M 257.0 50.7 L 264.1 50.7 L 264.2 50.8 L 259.9 44.0 C 258.6 45.4 258.0 48.1 257.0 50.9 " fill="#000000"></path></g></g></g><path d="M 278.0 22.4 C 268.8 28.8 261.1 41.6 259.9 43.9 L 264.2 50.7 L 264.1 50.7 L 295.2 50.7 L 295.7 50.7 L 278.3 22.9 " fill="#2990B8"></path><path d="M 304.0 50.7 L 295.7 50.7 L 278.1 22.6 L 278.1 22.4 C 286.2 17.2 296.5 11.7 305.1 10.9 L 316.4 30.3 L 316.3 30.2 L 303.8 50.8 " fill="#299DBA"></path></g></g></g></g><g><clipPath id="clip0x608002cbc980"><path d="M 233.4 148.1 L 672.9 148.1 L 672.9 -7.3 L 233.4 -7.3 Z M 233.4 148.1 "></path></clipPath><g clip-path="url(#clip0x608002cbc980)"><g><clipPath id="clip0x608002cbcb00"><path d="M 253.0 10.0 L 384.0 10.0 L 384.0 133.0 L 253.0 133.0 Z M 253.0 10.0 "></path></clipPath><g clip-path="url(#clip0x608002cbcb00)"><g opacity="0.25"><g><clipPath id="clip0x608002cbcce0"><path d="M 278.1 10.9 L 316.4 10.9 L 316.4 50.8 L 278.1 50.8 Z M 278.1 10.9 "></path></clipPath><g clip-path="url(#clip0x608002cbcce0)"><path d="M 304.0 50.7 L 295.7 50.7 L 278.1 22.6 L 278.1 22.4 C 286.2 17.2 296.5 11.7 305.1 10.9 L 316.4 30.3 L 316.3 30.2 L 303.8 50.8 " fill="#000000"></path></g></g></g><path d="M 316.4 30.3 L 305.1 10.9 C 317.5 8.7 327.8 11.3 327.8 11.3 L 316.3 30.2 " fill="#296CAC"></path></g></g></g></g><g><clipPath id="clip0x608002cbcfe0"><path d="M 233.4 148.1 L 672.9 148.1 L 672.9 -7.3 L 233.4 -7.3 Z M 233.4 148.1 "></path></clipPath><g clip-path="url(#clip0x608002cbcfe0)"><g><clipPath id="clip0x608002cbd160"><path d="M 253.0 10.0 L 384.0 10.0 L 384.0 133.0 L 253.0 133.0 Z M 253.0 10.0 "></path></clipPath><g clip-path="url(#clip0x608002cbd160)"><g opacity="0.25"><g><clipPath id="clip0x608002cbd340"><path d="M 305.1 10.0 L 327.8 10.0 L 327.8 30.3 L 305.1 30.3 Z M 305.1 10.0 "></path></clipPath><g clip-path="url(#clip0x608002cbd340)"><path d="M 316.4 30.3 L 305.1 10.9 C 317.5 8.7 327.8 11.3 327.8 11.3 L 316.3 30.2 " fill="#000000"></path></g></g></g><path d="M 328.6 50.8 L 336.1 50.8 L 336.1 50.8 L 353.7 22.9 C 353.7 22.9 342.2 13.5 327.8 11.3 L 316.3 30.2 L 316.5 30.2 L 328.5 50.7 " fill="#296CAC"></path></g></g></g></g><g><clipPath id="clip0x608002cbd640"><path d="M 233.4 148.1 L 672.9 148.1 L 672.9 -7.3 L 233.4 -7.3 Z M 233.4 148.1 "></path></clipPath><g clip-path="url(#clip0x608002cbd640)"><g><clipPath id="clip0x608002cbd7c0"><path d="M 253.0 10.0 L 384.0 10.0 L 384.0 133.0 L 253.0 133.0 Z M 253.0 10.0 "></path></clipPath><g clip-path="url(#clip0x608002cbd7c0)"><g opacity="0.25"><g><clipPath id="clip0x608002cbd9a0"><path d="M 316.3 11.3 L 353.7 11.3 L 353.7 50.8 L 316.3 50.8 Z M 316.3 11.3 "></path></clipPath><g clip-path="url(#clip0x608002cbd9a0)"><path d="M 328.6 50.8 L 336.1 50.8 L 336.1 50.8 L 353.7 22.9 C 353.7 22.9 342.2 13.5 327.8 11.3 L 316.3 30.2 L 316.5 30.2 L 328.5 50.7 " fill="#000000"></path></g></g></g><path d="M 367.5 50.7 L 371.6 44.3 C 371.6 44.3 362.2 27.9 353.7 22.9 L 336.1 50.8 L 367.4 50.7 " fill="#298AB8"></path><path d="M 367.5 50.7 L 371.6 44.3 C 372.4 46.0 374.3 50.8 374.3 50.8 L 367.4 50.7 " fill="#2990B8"></path></g></g></g></g><g><clipPath id="clip0x608002cbdd60"><path d="M 233.4 148.1 L 672.9 148.1 L 672.9 -7.3 L 233.4 -7.3 Z M 233.4 148.1 "></path></clipPath><g clip-path="url(#clip0x608002cbdd60)"><g><clipPath id="clip0x608002cbdee0"><path d="M 253.0 10.0 L 384.0 10.0 L 384.0 133.0 L 253.0 133.0 Z M 253.0 10.0 "></path></clipPath><g clip-path="url(#clip0x608002cbdee0)"><g opacity="0.25"><g><clipPath id="clip0x608002cbe0c0"><path d="M 367.4 44.3 L 374.3 44.3 L 374.3 50.8 L 367.4 50.8 Z M 367.4 44.3 "></path></clipPath><g clip-path="url(#clip0x608002cbe0c0)"><path d="M 367.5 50.7 L 371.6 44.3 C 372.4 46.0 374.3 50.8 374.3 50.8 L 367.4 50.7 " fill="#000000"></path></g></g></g><path d="M 347.4 82.8 L 363.7 110.8 C 367.5 105.6 386.1 81.4 374.3 50.8 L 367.4 50.7 Z M 347.4 82.8 " fill="#2990B8"></path></g></g></g></g><g><clipPath id="clip0x608002cbe3c0"><path d="M 233.4 148.1 L 672.9 148.1 L 672.9 -7.3 L 233.4 -7.3 Z M 233.4 148.1 "></path></clipPath><g clip-path="url(#clip0x608002cbe3c0)"><g><clipPath id="clip0x608002cbe540"><path d="M 253.0 10.0 L 384.0 10.0 L 384.0 133.0 L 253.0 133.0 Z M 253.0 10.0 "></path></clipPath><g clip-path="url(#clip0x608002cbe540)"><g opacity="0.25"><g><clipPath id="clip0x608002cbe720"><path d="M 347.4 50.7 L 378.2 50.7 L 378.2 110.8 L 347.4 110.8 Z M 347.4 50.7 "></path></clipPath><g clip-path="url(#clip0x608002cbe720)"><path d="M 347.4 82.8 L 363.7 110.8 C 367.5 105.6 386.1 81.4 374.3 50.8 L 367.4 50.7 Z M 347.4 82.8 " fill="#000000"></path></g></g></g><path d="M 347.4 82.8 L 363.7 110.8 C 355.0 121.3 343.5 126.5 343.5 126.5 L 331.6 107.7 L 331.6 107.8 L 347.4 82.5 " fill="#2990B8"></path></g></g></g></g><g><clipPath id="clip0x608002cbea20"><path d="M 233.4 148.1 L 672.9 148.1 L 672.9 -7.3 L 233.4 -7.3 Z M 233.4 148.1 "></path></clipPath><g clip-path="url(#clip0x608002cbea20)"><g><clipPath id="clip0x608002cbeba0"><path d="M 253.0 10.0 L 384.0 10.0 L 384.0 133.0 L 253.0 133.0 Z M 253.0 10.0 "></path></clipPath><g clip-path="url(#clip0x608002cbeba0)"><g opacity="0.25"><g><clipPath id="clip0x608002cbed80"><path d="M 331.6 82.5 L 363.7 82.5 L 363.7 126.5 L 331.6 126.5 Z M 331.6 82.5 "></path></clipPath><g clip-path="url(#clip0x608002cbed80)"><path d="M 347.4 82.8 L 363.7 110.8 C 355.0 121.3 343.5 126.5 343.5 126.5 L 331.6 107.7 L 331.6 107.8 L 347.4 82.5 " fill="#000000"></path></g></g></g><path d="M 343.5 126.5 C 328.8 133.7 315.9 133.0 315.9 133.0 L 331.6 107.7 Z M 343.5 126.5 " fill="#2990B8"></path></g></g></g></g><g><clipPath id="clip0x608002cbf080"><path d="M 233.4 148.1 L 672.9 148.1 L 672.9 -7.3 L 233.4 -7.3 Z M 233.4 148.1 "></path></clipPath><g clip-path="url(#clip0x608002cbf080)"><g><clipPath id="clip0x608002cbf200"><path d="M 253.0 10.0 L 384.0 10.0 L 384.0 133.0 L 253.0 133.0 Z M 253.0 10.0 "></path></clipPath><g clip-path="url(#clip0x608002cbf200)"><g opacity="0.25"><g><clipPath id="clip0x608002cbf3e0"><path d="M 315.9 107.7 L 343.5 107.7 L 343.5 133.0 L 315.9 133.0 Z M 315.9 107.7 "></path></clipPath><g clip-path="url(#clip0x608002cbf3e0)"><path d="M 343.5 126.5 C 328.8 133.7 315.9 133.0 315.9 133.0 L 331.6 107.7 Z M 343.5 126.5 " fill="#000000"></path></g></g></g></g></g></g></g><g><clipPath id="clip0x608002cbf620"><path d="M 233.4 148.1 L 672.9 148.1 L 672.9 -7.3 L 233.4 -7.3 Z M 233.4 148.1 "></path></clipPath><g clip-path="url(#clip0x608002cbf620)"><g><clipPath id="clip0x608002cbf7a0"><path d="M 253.0 10.0 L 384.0 10.0 L 384.0 133.0 L 253.0 133.0 Z M 253.0 10.0 "></path></clipPath><g clip-path="url(#clip0x608002cbf7a0)"><g opacity="0.53"><g><clipPath id="clip0x608002cbf980"><path d="M 378.2 71.5 C 378.2 37.5 350.1 10.0 315.6 10.0 C 281.0 10.0 253.0 37.5 253.0 71.5 C 253.0 105.5 281.0 133.0 315.6 133.0 C 350.1 133.0 378.2 105.5 378.2 71.5 "></path></clipPath><g clip-path="url(#clip0x608002cbf980)"><g><clipPath id="clip0x608002cbfb00"><path d="M 253.0 10.0 L 378.2 10.0 L 378.2 133.0 L 253.0 133.0 Z M 253.0 10.0 "></path></clipPath><g clip-path="url(#clip0x608002cbfb00)"><path d="M 253.0 10.0 L 378.2 10.0 L 378.2 133.0 L 253.0 133.0 Z M 253.0 10.0 " fill="url(#gradSh1.14)"></path></g></g></g></g></g><path d="M 264.6 50.7 L 295.7 50.7 L 295.8 50.8 L 300.1 57.6 L 300.0 57.4 L 284.6 82.9 L 284.4 83.0 L 264.1 50.6 " fill="#FFFFFF"></path><path d="M 347.4 82.8 L 367.4 50.7 L 336.1 50.8 L 336.2 50.8 L 332.1 57.2 L 347.2 82.9 " fill="#FFFFFF"></path><path d="M 303.9 50.7 L 327.8 50.8 L 328.4 50.7 L 332.2 57.2 L 332.1 57.2 L 316.0 82.7 L 316.1 83.0 L 300.0 57.5 L 300.0 57.3 Z M 303.9 50.7 " fill="#FFFFFF"></path><path d="M 347.2 82.9 L 332.1 57.2 L 316.0 82.7 L 316.1 82.8 L 331.7 107.6 L 331.6 107.8 L 347.4 82.5 " fill="#FFFFFF"></path><path d="M 316.1 83.0 L 300.0 57.5 L 300.0 57.4 L 284.6 82.9 L 284.4 83.0 L 300.1 107.9 L 300.0 107.7 L 315.8 82.7 " fill="#FFFFFF"></path><path d="M 264.6 50.7 L 295.7 50.7 L 295.8 50.8 L 300.1 57.6 L 300.0 57.4 L 284.6 82.9 L 284.4 83.0 L 264.1 50.6 " fill="#FFFFFF"></path></g></g></g></g><g><clipPath id="clip0x608002eb8c60"><path d="M 233.4 148.1 L 672.9 148.1 L 672.9 -7.3 L 233.4 -7.3 Z M 233.4 148.1 "></path></clipPath><g clip-path="url(#clip0x608002eb8c60)"><g><clipPath id="clip0x608002eb8de0"><path d="M 253.0 10.0 L 384.0 10.0 L 384.0 133.0 L 253.0 133.0 Z M 253.0 10.0 "></path></clipPath><g clip-path="url(#clip0x608002eb8de0)"><g opacity="0.19"><g><clipPath id="clip0x608002eb8fc0"><path d="M 264.1 50.6 L 300.1 50.6 L 300.1 83.0 L 264.1 83.0 Z M 264.1 50.6 "></path></clipPath><g clip-path="url(#clip0x608002eb8fc0)"><path d="M 264.6 50.7 L 295.7 50.7 L 295.8 50.8 L 300.1 57.6 L 300.0 57.4 L 284.6 82.9 L 284.4 83.0 L 264.1 50.6 " fill="#000000"></path></g></g></g><path d="M 347.4 82.8 L 367.4 50.7 L 336.1 50.8 L 336.2 50.8 L 332.1 57.2 L 347.2 82.9 " fill="#FFFFFF"></path></g></g></g></g><g><clipPath id="clip0x608002eb92c0"><path d="M 233.4 148.1 L 672.9 148.1 L 672.9 -7.3 L 233.4 -7.3 Z M 233.4 148.1 "></path></clipPath><g clip-path="url(#clip0x608002eb92c0)"><g><clipPath id="clip0x608002eb94a0"><path d="M 253.0 10.0 L 384.0 10.0 L 384.0 133.0 L 253.0 133.0 Z M 253.0 10.0 "></path></clipPath><g clip-path="url(#clip0x608002eb94a0)"><g opacity="0.19"><g><clipPath id="clip0x608002eb96e0"><path d="M 332.1 50.7 L 367.4 50.7 L 367.4 82.9 L 332.1 82.9 Z M 332.1 50.7 "></path></clipPath><g clip-path="url(#clip0x608002eb96e0)"><path d="M 347.4 82.8 L 367.4 50.7 L 336.1 50.8 L 336.2 50.8 L 332.1 57.2 L 347.2 82.9 " fill="#000000"></path></g></g></g><path d="M 303.9 50.7 L 327.8 50.8 L 328.4 50.7 L 332.2 57.2 L 332.1 57.2 L 316.0 82.7 L 316.1 83.0 L 300.0 57.5 L 300.0 57.3 Z M 303.9 50.7 " fill="#FFFFFF"></path></g></g></g></g><g><clipPath id="clip0x608002eb99e0"><path d="M 233.4 148.1 L 672.9 148.1 L 672.9 -7.3 L 233.4 -7.3 Z M 233.4 148.1 "></path></clipPath><g clip-path="url(#clip0x608002eb99e0)"><g><clipPath id="clip0x608002eb9b60"><path d="M 253.0 10.0 L 384.0 10.0 L 384.0 133.0 L 253.0 133.0 Z M 253.0 10.0 "></path></clipPath><g clip-path="url(#clip0x608002eb9b60)"><g opacity="0.19"><g><clipPath id="clip0x608002eb9d40"><path d="M 300.0 50.7 L 332.2 50.7 L 332.2 83.0 L 300.0 83.0 Z M 300.0 50.7 "></path></clipPath><g clip-path="url(#clip0x608002eb9d40)"><path d="M 303.9 50.7 L 327.8 50.8 L 328.4 50.7 L 332.2 57.2 L 332.1 57.2 L 316.0 82.7 L 316.1 83.0 L 300.0 57.5 L 300.0 57.3 Z M 303.9 50.7 " fill="#000000"></path></g></g></g></g></g></g></g></g></g></g></g></g><image xlink:href="../../C5827503-2DE6-451C-8C31-4478F266013A/assets/19F6F87591ECA48CB8143D5218AF2CAA.png" width="1114.00" height="103.00" transform="matrix(1.00, 0.00, -0.00, -1.00, 404.0, 954.0)"></image><text xml:space="preserve" font-family="HelveticaNeue-Light,Helvetica Neue" font-size="100.0" fill="#FEFFFE" transform="matrix(1.00, 0.00, -0.00, -1.00, 401.4, 879.5)">H</text><text xml:space="preserve" font-family="HelveticaNeue-Light,Helvetica Neue" font-size="100.0" fill="#FEFFFE" transform="matrix(1.00, 0.00, -0.00, -1.00, 471.9, 879.5)">v</text><text xml:space="preserve" font-family="HelveticaNeue-Light,Helvetica Neue" font-size="100.0" fill="#FEFFFE" transform="matrix(1.00, 0.00, -0.00, -1.00, 518.1, 879.5)">o</text><text xml:space="preserve" font-family="HelveticaNeue-Light,Helvetica Neue" font-size="100.0" fill="#FEFFFE" transform="matrix(1.00, 0.00, -0.00, -1.00, 573.8, 879.5)">r</text><text xml:space="preserve" font-family="HelveticaNeue-Light,Helvetica Neue" font-size="100.0" fill="#FEFFFE" transform="matrix(1.00, 0.00, -0.00, -1.00, 605.2, 879.5)">f</text><text xml:space="preserve" font-family="HelveticaNeue-Light,Helvetica Neue" font-size="100.0" fill="#FEFFFE" transform="matrix(1.00, 0.00, -0.00, -1.00, 631.1, 879.5)">o</text><text xml:space="preserve" font-family="HelveticaNeue-Light,Helvetica Neue" font-size="100.0" fill="#FEFFFE" transform="matrix(1.00, 0.00, -0.00, -1.00, 686.8, 879.5)">r</text><text xml:space="preserve" font-family="HelveticaNeue-Light,Helvetica Neue" font-size="100.0" fill="#FEFFFE" transform="matrix(1.00, 0.00, -0.00, -1.00, 718.2, 879.5)"> </text><text xml:space="preserve" font-family="HelveticaNeue-Light,Helvetica Neue" font-size="100.0" fill="#FEFFFE" transform="matrix(1.00, 0.00, -0.00, -1.00, 746.0, 879.5)">b</text><text xml:space="preserve" font-family="HelveticaNeue-Light,Helvetica Neue" font-size="100.0" fill="#FEFFFE" transform="matrix(1.00, 0.00, -0.00, -1.00, 803.5, 879.5)">r</text><text xml:space="preserve" font-family="HelveticaNeue-Light,Helvetica Neue" font-size="100.0" fill="#FEFFFE" transform="matrix(1.00, 0.00, -0.00, -1.00, 835.0, 879.5)">u</text><text xml:space="preserve" font-family="HelveticaNeue-Light,Helvetica Neue" font-size="100.0" fill="#FEFFFE" transform="matrix(1.00, 0.00, -0.00, -1.00, 888.6, 879.5)">g</text><text xml:space="preserve" font-family="HelveticaNeue-Light,Helvetica Neue" font-size="100.0" fill="#FEFFFE" transform="matrix(1.00, 0.00, -0.00, -1.00, 944.2, 879.5)">e</text><text xml:space="preserve" font-family="HelveticaNeue-Light,Helvetica Neue" font-size="100.0" fill="#FEFFFE" transform="matrix(1.00, 0.00, -0.00, -1.00, 996.1, 879.5)"> </text><text xml:space="preserve" font-family="HelveticaNeue-Light,Helvetica Neue" font-size="100.0" fill="#FEFFFE" transform="matrix(1.00, 0.00, -0.00, -1.00, 1023.9, 879.5)">A</text><text xml:space="preserve" font-family="HelveticaNeue-Light,Helvetica Neue" font-size="100.0" fill="#FEFFFE" transform="matrix(1.00, 0.00, -0.00, -1.00, 1086.9, 879.5)">n</text><text xml:space="preserve" font-family="HelveticaNeue-Light,Helvetica Neue" font-size="100.0" fill="#FEFFFE" transform="matrix(1.00, 0.00, -0.00, -1.00, 1140.6, 879.5)">g</text><text xml:space="preserve" font-family="HelveticaNeue-Light,Helvetica Neue" font-size="100.0" fill="#FEFFFE" transform="matrix(1.00, 0.00, -0.00, -1.00, 1196.2, 879.5)">u</text><text xml:space="preserve" font-family="HelveticaNeue-Light,Helvetica Neue" font-size="100.0" fill="#FEFFFE" transform="matrix(1.00, 0.00, -0.00, -1.00, 1250.0, 879.5)">l</text><text xml:space="preserve" font-family="HelveticaNeue-Light,Helvetica Neue" font-size="100.0" fill="#FEFFFE" transform="matrix(1.00, 0.00, -0.00, -1.00, 1268.5, 879.5)">a</text><text xml:space="preserve" font-family="HelveticaNeue-Light,Helvetica Neue" font-size="100.0" fill="#FEFFFE" transform="matrix(1.00, 0.00, -0.00, -1.00, 1320.3, 879.5)">r</text><text xml:space="preserve" font-family="HelveticaNeue-Light,Helvetica Neue" font-size="100.0" fill="#FEFFFE" transform="matrix(1.00, 0.00, -0.00, -1.00, 1351.8, 879.5)">J</text><text xml:space="preserve" font-family="HelveticaNeue-Light,Helvetica Neue" font-size="100.0" fill="#FEFFFE" transform="matrix(1.00, 0.00, -0.00, -1.00, 1401.8, 879.5)">S</text><text xml:space="preserve" font-family="HelveticaNeue-Light,Helvetica Neue" font-size="100.0" fill="#FEFFFE" transform="matrix(1.00, 0.00, -0.00, -1.00, 1464.9, 879.5)">?</text><image xlink:href="../../C5827503-2DE6-451C-8C31-4478F266013A/assets/DF77DC1ED7F55F4D23801FCDADC1AAA3.png" width="18.00" height="18.00" transform="matrix(1.00, 0.00, -0.00, -1.00, 332.0, 661.0)"></image><g><clipPath id="clip0x608002eba580"><path d="M 332.8 643.4 L 349.4 643.4 L 349.4 660.0 L 332.8 660.0 Z M 332.8 643.4 "></path></clipPath><g clip-path="url(#clip0x608002eba580)"><g><g><clipPath id="clip0x608002eba940"><path d="M 332.8 660.0 L 349.4 660.0 L 349.4 643.4 L 332.8 643.4 Z M 332.8 660.0 "></path></clipPath><g clip-path="url(#clip0x608002eba940)"><g><clipPath id="clip0x608002ebaac0"><path d="M 328.0 636.0 L 354.0 636.0 L 354.0 668.0 L 328.0 668.0 Z M 328.0 636.0 "></path></clipPath><g clip-path="url(#clip0x608002ebaac0)"><path d="M 349.4 656.7 C 349.4 657.4 349.0 658.2 348.3 658.9 C 347.6 659.7 346.9 660.0 346.0 660.0 C 345.7 660.0 345.1 659.8 344.3 659.5 C 343.0 658.8 341.9 658.5 341.0 658.5 C 340.1 658.5 339.0 658.8 337.8 659.5 C 337.0 659.8 336.4 660.0 336.1 660.0 C 335.3 660.0 334.5 659.7 333.9 659.0 C 333.2 658.2 332.8 657.5 332.8 656.7 C 332.8 656.3 333.0 655.7 333.4 654.9 C 333.9 653.7 334.2 652.6 334.2 651.7 C 334.2 650.8 333.9 649.7 333.4 648.5 C 333.0 647.7 332.8 647.1 332.8 646.7 C 332.8 645.9 333.2 645.2 333.9 644.5 C 334.5 643.8 335.3 643.4 336.1 643.4 C 336.4 643.4 337.0 643.6 337.8 644.0 C 339.0 644.6 340.1 644.9 341.0 644.9 C 341.9 644.9 343.0 644.6 344.3 644.0 C 345.1 643.6 345.7 643.4 346.0 643.4 C 346.9 643.4 347.6 643.8 348.3 644.5 C 349.0 645.2 349.4 645.9 349.4 646.7 C 349.4 647.1 349.2 647.7 348.8 648.5 C 348.2 649.7 347.9 650.8 347.9 651.7 C 347.9 652.6 348.2 653.7 348.8 654.9 C 349.2 655.7 349.4 656.3 349.4 656.7 " fill="#FFFFFF"></path></g></g></g></g></g></g></g><image xlink:href="../../C5827503-2DE6-451C-8C31-4478F266013A/assets/2731898CF36C338E6FA03BFDF7536533.png" width="356.00" height="52.00" transform="matrix(1.00, 0.00, -0.00, -1.00, 376.0, 672.0)"></image><text xml:space="preserve" font-family="HelveticaNeue-Light,Helvetica Neue" font-size="47.0" fill="#FEFFFE" transform="matrix(1.00, 0.00, -0.00, -1.00, 378.5, 636.0)">S</text><text xml:space="preserve" font-family="HelveticaNeue-Light,Helvetica Neue" font-size="47.0" fill="#FEFFFE" transform="matrix(1.00, 0.00, -0.00, -1.00, 408.1, 636.0)">u</text><text xml:space="preserve" font-family="HelveticaNeue-Light,Helvetica Neue" font-size="47.0" fill="#FEFFFE" transform="matrix(1.00, 0.00, -0.00, -1.00, 433.4, 636.0)">p</text><text xml:space="preserve" font-family="HelveticaNeue-Light,Helvetica Neue" font-size="47.0" fill="#FEFFFE" transform="matrix(1.00, 0.00, -0.00, -1.00, 460.3, 636.0)">e</text><text xml:space="preserve" font-family="HelveticaNeue-Light,Helvetica Neue" font-size="47.0" fill="#FEFFFE" transform="matrix(1.00, 0.00, -0.00, -1.00, 484.7, 636.0)">r</text><text xml:space="preserve" font-family="HelveticaNeue-Light,Helvetica Neue" font-size="47.0" fill="#FEFFFE" transform="matrix(1.00, 0.00, -0.00, -1.00, 499.5, 636.0)"> </text><text xml:space="preserve" font-family="HelveticaNeue-Light,Helvetica Neue" font-size="47.0" fill="#FEFFFE" transform="matrix(1.00, 0.00, -0.00, -1.00, 512.6, 636.0)">ﬂ</text><text xml:space="preserve" font-family="HelveticaNeue-Light,Helvetica Neue" font-size="47.0" fill="#FEFFFE" transform="matrix(1.00, 0.00, -0.00, -1.00, 533.5, 636.0)">e</text><text xml:space="preserve" font-family="HelveticaNeue-Light,Helvetica Neue" font-size="47.0" fill="#FEFFFE" transform="matrix(1.00, 0.00, -0.00, -1.00, 557.9, 636.0)">k</text><text xml:space="preserve" font-family="HelveticaNeue-Light,Helvetica Neue" font-size="47.0" fill="#FEFFFE" transform="matrix(1.00, 0.00, -0.00, -1.00, 581.4, 636.0)">s</text><text xml:space="preserve" font-family="HelveticaNeue-Light,Helvetica Neue" font-size="47.0" fill="#FEFFFE" transform="matrix(1.00, 0.00, -0.00, -1.00, 604.0, 636.0)">i</text><text xml:space="preserve" font-family="HelveticaNeue-Light,Helvetica Neue" font-size="47.0" fill="#FEFFFE" transform="matrix(1.00, 0.00, -0.00, -1.00, 612.7, 636.0)">b</text><text xml:space="preserve" font-family="HelveticaNeue-Light,Helvetica Neue" font-size="47.0" fill="#FEFFFE" transform="matrix(1.00, 0.00, -0.00, -1.00, 639.6, 636.0)">e</text><text xml:space="preserve" font-family="HelveticaNeue-Light,Helvetica Neue" font-size="47.0" fill="#FEFFFE" transform="matrix(1.00, 0.00, -0.00, -1.00, 664.0, 636.0)">l</text><text xml:space="preserve" font-family="HelveticaNeue-Light,Helvetica Neue" font-size="47.0" fill="#FEFFFE" transform="matrix(1.00, 0.00, -0.00, -1.00, 672.7, 636.0)">t</text><text xml:space="preserve" font-family="HelveticaNeue-Light,Helvetica Neue" font-size="47.0" fill="#FEFFFE" transform="matrix(1.00, 0.00, -0.00, -1.00, 686.6, 636.0)">…</text><image xlink:href="../../DA5986A0-4ADB-4CD2-A6B1-3E2F7B158F37/assets/EF956184B26A30B6A61EFDC6344F840B.png" width="18.00" height="18.00" transform="matrix(1.00, 0.00, -0.00, -1.00, 332.0, 571.0)"></image><g><clipPath id="clip0x608002ebb3c0"><path d="M 332.8 553.6 L 349.4 553.6 L 349.4 570.2 L 332.8 570.2 Z M 332.8 553.6 "></path></clipPath><g clip-path="url(#clip0x608002ebb3c0)"><g><g><clipPath id="clip0x608002ebb780"><path d="M 332.8 570.2 L 349.4 570.2 L 349.4 553.6 L 332.8 553.6 Z M 332.8 570.2 "></path></clipPath><g clip-path="url(#clip0x608002ebb780)"><g><clipPath id="clip0x608002ebb900"><path d="M 328.0 546.0 L 354.0 546.0 L 354.0 578.0 L 328.0 578.0 Z M 328.0 546.0 "></path></clipPath><g clip-path="url(#clip0x608002ebb900)"><path d="M 349.4 566.9 C 349.4 567.6 349.0 568.3 348.3 569.1 C 347.6 569.8 346.9 570.2 346.0 570.2 C 345.7 570.2 345.1 570.0 344.3 569.6 C 343.0 569.0 341.9 568.7 341.0 568.7 C 340.1 568.7 339.0 569.0 337.8 569.6 C 337.0 570.0 336.4 570.2 336.1 570.2 C 335.3 570.2 334.5 569.8 333.9 569.1 C 333.2 568.4 332.8 567.6 332.8 566.9 C 332.8 566.5 333.0 565.9 333.4 565.0 C 333.9 563.8 334.2 562.8 334.2 561.9 C 334.2 561.0 333.9 559.9 333.4 558.6 C 333.0 557.9 332.8 557.3 332.8 556.9 C 332.8 556.1 333.2 555.4 333.9 554.6 C 334.5 553.9 335.3 553.6 336.1 553.6 C 336.4 553.6 337.0 553.8 337.8 554.1 C 339.0 554.8 340.1 555.1 341.0 555.1 C 341.9 555.1 343.0 554.8 344.3 554.1 C 345.1 553.8 345.7 553.6 346.0 553.6 C 346.9 553.6 347.6 553.9 348.3 554.6 C 349.0 555.4 349.4 556.1 349.4 556.9 C 349.4 557.3 349.2 557.9 348.8 558.6 C 348.2 559.9 347.9 561.0 347.9 561.9 C 347.9 562.8 348.2 563.8 348.8 565.0 C 349.2 565.9 349.4 566.5 349.4 566.9 " fill="#FFFFFF"></path></g></g></g></g></g></g></g><image xlink:href="../../DA5986A0-4ADB-4CD2-A6B1-3E2F7B158F37/assets/10E9EBB1934C8598B39C040E43C477F4.png" width="451.00" height="52.00" transform="matrix(1.00, 0.00, -0.00, -1.00, 377.0, 581.0)"></image><text xml:space="preserve" font-family="HelveticaNeue-Light,Helvetica Neue" font-size="47.0" fill="#FEFFFE" transform="matrix(1.00, 0.00, -0.00, -1.00, 378.5, 546.2)">L</text><text xml:space="preserve" font-family="HelveticaNeue-Light,Helvetica Neue" font-size="47.0" fill="#FEFFFE" transform="matrix(1.00, 0.00, -0.00, -1.00, 403.7, 546.2)">e</text><text xml:space="preserve" font-family="HelveticaNeue-Light,Helvetica Neue" font-size="47.0" fill="#FEFFFE" transform="matrix(1.00, 0.00, -0.00, -1.00, 428.1, 546.2)">t</text><text xml:space="preserve" font-family="HelveticaNeue-Light,Helvetica Neue" font-size="47.0" fill="#FEFFFE" transform="matrix(1.00, 0.00, -0.00, -1.00, 442.1, 546.2)"> </text><text xml:space="preserve" font-family="HelveticaNeue-Light,Helvetica Neue" font-size="47.0" fill="#FEFFFE" transform="matrix(1.00, 0.00, -0.00, -1.00, 455.1, 546.2)">a</text><text xml:space="preserve" font-family="HelveticaNeue-Light,Helvetica Neue" font-size="47.0" fill="#FEFFFE" transform="matrix(1.00, 0.00, -0.00, -1.00, 479.5, 546.2)">t</text><text xml:space="preserve" font-family="HelveticaNeue-Light,Helvetica Neue" font-size="47.0" fill="#FEFFFE" transform="matrix(1.00, 0.00, -0.00, -1.00, 493.4, 546.2)"> </text><text xml:space="preserve" font-family="HelveticaNeue-Light,Helvetica Neue" font-size="47.0" fill="#FEFFFE" transform="matrix(1.00, 0.00, -0.00, -1.00, 506.5, 546.2)">k</text><text xml:space="preserve" font-family="HelveticaNeue-Light,Helvetica Neue" font-size="47.0" fill="#FEFFFE" transform="matrix(1.00, 0.00, -0.00, -1.00, 530.0, 546.2)">o</text><text xml:space="preserve" font-family="HelveticaNeue-Light,Helvetica Neue" font-size="47.0" fill="#FEFFFE" transform="matrix(1.00, 0.00, -0.00, -1.00, 556.1, 546.2)">m</text><text xml:space="preserve" font-family="HelveticaNeue-Light,Helvetica Neue" font-size="47.0" fill="#FEFFFE" transform="matrix(1.00, 0.00, -0.00, -1.00, 595.3, 546.2)">m</text><text xml:space="preserve" font-family="HelveticaNeue-Light,Helvetica Neue" font-size="47.0" fill="#FEFFFE" transform="matrix(1.00, 0.00, -0.00, -1.00, 634.4, 546.2)">e</text><text xml:space="preserve" font-family="HelveticaNeue-Light,Helvetica Neue" font-size="47.0" fill="#FEFFFE" transform="matrix(1.00, 0.00, -0.00, -1.00, 658.8, 546.2)"> </text><text xml:space="preserve" font-family="HelveticaNeue-Light,Helvetica Neue" font-size="47.0" fill="#FEFFFE" transform="matrix(1.00, 0.00, -0.00, -1.00, 671.9, 546.2)">i</text><text xml:space="preserve" font-family="HelveticaNeue-Light,Helvetica Neue" font-size="47.0" fill="#FEFFFE" transform="matrix(1.00, 0.00, -0.00, -1.00, 680.6, 546.2)">g</text><text xml:space="preserve" font-family="HelveticaNeue-Light,Helvetica Neue" font-size="47.0" fill="#FEFFFE" transform="matrix(1.00, 0.00, -0.00, -1.00, 706.7, 546.2)">a</text><text xml:space="preserve" font-family="HelveticaNeue-Light,Helvetica Neue" font-size="47.0" fill="#FEFFFE" transform="matrix(1.00, 0.00, -0.00, -1.00, 731.1, 546.2)">n</text><text xml:space="preserve" font-family="HelveticaNeue-Light,Helvetica Neue" font-size="47.0" fill="#FEFFFE" transform="matrix(1.00, 0.00, -0.00, -1.00, 756.3, 546.2)">g</text><text xml:space="preserve" font-family="HelveticaNeue-Light,Helvetica Neue" font-size="47.0" fill="#FEFFFE" transform="matrix(1.00, 0.00, -0.00, -1.00, 782.5, 546.2)">…</text><image xlink:href="../../DA5986A0-4ADB-4CD2-A6B1-3E2F7B158F37/assets/7EF8DC7FFFE8A23ED53585851D072704.png" width="18.00" height="18.00" transform="matrix(1.00, 0.00, -0.00, -1.00, 332.0, 481.0)"></image><g><clipPath id="clip0x600000cb73a0"><path d="M 332.8 463.7 L 349.4 463.7 L 349.4 480.4 L 332.8 480.4 Z M 332.8 463.7 "></path></clipPath><g clip-path="url(#clip0x600000cb73a0)"><g><g><clipPath id="clip0x600000cb6f20"><path d="M 332.8 480.4 L 349.4 480.4 L 349.4 463.7 L 332.8 463.7 Z M 332.8 480.4 "></path></clipPath><g clip-path="url(#clip0x600000cb6f20)"><g><clipPath id="clip0x600000cb70a0"><path d="M 328.0 456.0 L 354.0 456.0 L 354.0 488.0 L 328.0 488.0 Z M 328.0 456.0 "></path></clipPath><g clip-path="url(#clip0x600000cb70a0)"><path d="M 349.4 477.0 C 349.4 477.7 349.0 478.5 348.3 479.2 C 347.6 480.0 346.9 480.4 346.0 480.4 C 345.7 480.4 345.1 480.2 344.3 479.8 C 343.0 479.2 341.9 478.9 341.0 478.9 C 340.1 478.9 339.0 479.2 337.8 479.8 C 337.0 480.2 336.4 480.4 336.1 480.4 C 335.3 480.4 334.5 480.0 333.9 479.3 C 333.2 478.6 332.8 477.8 332.8 477.0 C 332.8 476.6 333.0 476.0 333.4 475.2 C 333.9 474.0 334.2 472.9 334.2 472.0 C 334.2 471.2 333.9 470.1 333.4 468.8 C 333.0 468.0 332.8 467.4 332.8 467.0 C 332.8 466.3 333.2 465.5 333.9 464.8 C 334.5 464.1 335.3 463.7 336.1 463.7 C 336.4 463.7 337.0 463.9 337.8 464.3 C 339.0 464.9 340.1 465.2 341.0 465.2 C 341.9 465.2 343.0 464.9 344.3 464.3 C 345.1 463.9 345.7 463.7 346.0 463.7 C 346.9 463.7 347.6 464.1 348.3 464.8 C 349.0 465.5 349.4 466.3 349.4 467.0 C 349.4 467.4 349.2 468.0 348.8 468.8 C 348.2 470.1 347.9 471.2 347.9 472.0 C 347.9 472.9 348.2 474.0 348.8 475.2 C 349.2 476.0 349.4 476.6 349.4 477.0 " fill="#FFFFFF"></path></g></g></g></g></g></g></g><image xlink:href="../../DA5986A0-4ADB-4CD2-A6B1-3E2F7B158F37/assets/3B381D812CA53AB9EC21F19D1F10089E.png" width="500.00" height="52.00" transform="matrix(1.00, 0.00, -0.00, -1.00, 377.0, 491.0)"></image><text xml:space="preserve" font-family="HelveticaNeue-Light,Helvetica Neue" font-size="47.0" fill="#FEFFFE" transform="matrix(1.00, 0.00, -0.00, -1.00, 378.5, 456.3)">K</text><text xml:space="preserve" font-family="HelveticaNeue-Light,Helvetica Neue" font-size="47.0" fill="#FEFFFE" transform="matrix(1.00, 0.00, -0.00, -1.00, 409.0, 456.3)">a</text><text xml:space="preserve" font-family="HelveticaNeue-Light,Helvetica Neue" font-size="47.0" fill="#FEFFFE" transform="matrix(1.00, 0.00, -0.00, -1.00, 433.4, 456.3)">n</text><text xml:space="preserve" font-family="HelveticaNeue-Light,Helvetica Neue" font-size="47.0" fill="#FEFFFE" transform="matrix(1.00, 0.00, -0.00, -1.00, 458.6, 456.3)"> </text><text xml:space="preserve" font-family="HelveticaNeue-Light,Helvetica Neue" font-size="47.0" fill="#FEFFFE" transform="matrix(1.00, 0.00, -0.00, -1.00, 471.7, 456.3)">s</text><text xml:space="preserve" font-family="HelveticaNeue-Light,Helvetica Neue" font-size="47.0" fill="#FEFFFE" transform="matrix(1.00, 0.00, -0.00, -1.00, 494.3, 456.3)">k</text><text xml:space="preserve" font-family="HelveticaNeue-Light,Helvetica Neue" font-size="47.0" fill="#FEFFFE" transform="matrix(1.00, 0.00, -0.00, -1.00, 517.8, 456.3)">a</text><text xml:space="preserve" font-family="HelveticaNeue-Light,Helvetica Neue" font-size="47.0" fill="#FEFFFE" transform="matrix(1.00, 0.00, -0.00, -1.00, 542.2, 456.3)">l</text><text xml:space="preserve" font-family="HelveticaNeue-Light,Helvetica Neue" font-size="47.0" fill="#FEFFFE" transform="matrix(1.00, 0.00, -0.00, -1.00, 550.9, 456.3)">e</text><text xml:space="preserve" font-family="HelveticaNeue-Light,Helvetica Neue" font-size="47.0" fill="#FEFFFE" transform="matrix(1.00, 0.00, -0.00, -1.00, 575.2, 456.3)">r</text><text xml:space="preserve" font-family="HelveticaNeue-Light,Helvetica Neue" font-size="47.0" fill="#FEFFFE" transform="matrix(1.00, 0.00, -0.00, -1.00, 589.2, 456.3)">e</text><text xml:space="preserve" font-family="HelveticaNeue-Light,Helvetica Neue" font-size="47.0" fill="#FEFFFE" transform="matrix(1.00, 0.00, -0.00, -1.00, 613.6, 456.3)"> </text><text xml:space="preserve" font-family="HelveticaNeue-Light,Helvetica Neue" font-size="47.0" fill="#FEFFFE" transform="matrix(1.00, 0.00, -0.00, -1.00, 626.7, 456.3)">r</text><text xml:space="preserve" font-family="HelveticaNeue-Light,Helvetica Neue" font-size="47.0" fill="#FEFFFE" transform="matrix(1.00, 0.00, -0.00, -1.00, 641.5, 456.3)">i</text><text xml:space="preserve" font-family="HelveticaNeue-Light,Helvetica Neue" font-size="47.0" fill="#FEFFFE" transform="matrix(1.00, 0.00, -0.00, -1.00, 650.2, 456.3)">g</text><text xml:space="preserve" font-family="HelveticaNeue-Light,Helvetica Neue" font-size="47.0" fill="#FEFFFE" transform="matrix(1.00, 0.00, -0.00, -1.00, 676.3, 456.3)">t</text><text xml:space="preserve" font-family="HelveticaNeue-Light,Helvetica Neue" font-size="47.0" fill="#FEFFFE" transform="matrix(1.00, 0.00, -0.00, -1.00, 690.2, 456.3)">i</text><text xml:space="preserve" font-family="HelveticaNeue-Light,Helvetica Neue" font-size="47.0" fill="#FEFFFE" transform="matrix(1.00, 0.00, -0.00, -1.00, 698.9, 456.3)">g</text><text xml:space="preserve" font-family="HelveticaNeue-Light,Helvetica Neue" font-size="47.0" fill="#FEFFFE" transform="matrix(1.00, 0.00, -0.00, -1.00, 725.0, 456.3)"> </text><text xml:space="preserve" font-family="HelveticaNeue-Light,Helvetica Neue" font-size="47.0" fill="#FEFFFE" transform="matrix(1.00, 0.00, -0.00, -1.00, 738.1, 456.3)">g</text><text xml:space="preserve" font-family="HelveticaNeue-Light,Helvetica Neue" font-size="47.0" fill="#FEFFFE" transform="matrix(1.00, 0.00, -0.00, -1.00, 764.2, 456.3)">o</text><text xml:space="preserve" font-family="HelveticaNeue-Light,Helvetica Neue" font-size="47.0" fill="#FEFFFE" transform="matrix(1.00, 0.00, -0.00, -1.00, 790.4, 456.3)">d</text><text xml:space="preserve" font-family="HelveticaNeue-Light,Helvetica Neue" font-size="47.0" fill="#FEFFFE" transform="matrix(1.00, 0.00, -0.00, -1.00, 817.3, 456.3)">t</text><text xml:space="preserve" font-family="HelveticaNeue-Light,Helvetica Neue" font-size="47.0" fill="#FEFFFE" transform="matrix(1.00, 0.00, -0.00, -1.00, 831.3, 456.3)">…</text><image xlink:href="../../DA5986A0-4ADB-4CD2-A6B1-3E2F7B158F37/assets/FE4E1FAAEEF310A7FE4DB942D49F9BF8.png" width="18.00" height="18.00" transform="matrix(1.00, 0.00, -0.00, -1.00, 332.0, 391.0)"></image><g><clipPath id="clip0x600000cb86c0"><path d="M 332.8 373.9 L 349.4 373.9 L 349.4 390.5 L 332.8 390.5 Z M 332.8 373.9 "></path></clipPath><g clip-path="url(#clip0x600000cb86c0)"><g><g><clipPath id="clip0x600000cb88a0"><path d="M 332.8 390.5 L 349.4 390.5 L 349.4 373.9 L 332.8 373.9 Z M 332.8 390.5 "></path></clipPath><g clip-path="url(#clip0x600000cb88a0)"><g><clipPath id="clip0x600000cb8a20"><path d="M 328.0 366.0 L 354.0 366.0 L 354.0 398.0 L 328.0 398.0 Z M 328.0 366.0 "></path></clipPath><g clip-path="url(#clip0x600000cb8a20)"><path d="M 349.4 387.2 C 349.4 387.9 349.0 388.6 348.3 389.4 C 347.6 390.1 346.9 390.5 346.0 390.5 C 345.7 390.5 345.1 390.3 344.3 389.9 C 343.0 389.3 341.9 389.0 341.0 389.0 C 340.1 389.0 339.0 389.3 337.8 389.9 C 337.0 390.3 336.4 390.5 336.1 390.5 C 335.3 390.5 334.5 390.2 333.9 389.4 C 333.2 388.7 332.8 388.0 332.8 387.2 C 332.8 386.8 333.0 386.2 333.4 385.4 C 333.9 384.1 334.2 383.1 334.2 382.2 C 334.2 381.3 333.9 380.2 333.4 379.0 C 333.0 378.2 332.8 377.6 332.8 377.2 C 332.8 376.4 333.2 375.7 333.9 375.0 C 334.5 374.2 335.3 373.9 336.1 373.9 C 336.4 373.9 337.0 374.1 337.8 374.5 C 339.0 375.1 340.1 375.4 341.0 375.4 C 341.9 375.4 343.0 375.1 344.3 374.5 C 345.1 374.1 345.7 373.9 346.0 373.9 C 346.9 373.9 347.6 374.2 348.3 375.0 C 349.0 375.7 349.4 376.4 349.4 377.2 C 349.4 377.6 349.2 378.2 348.8 379.0 C 348.2 380.2 347.9 381.3 347.9 382.2 C 347.9 383.1 348.2 384.1 348.8 385.4 C 349.2 386.2 349.4 386.8 349.4 387.2 " fill="#FFFFFF"></path></g></g></g></g></g></g></g><image xlink:href="../../DA5986A0-4ADB-4CD2-A6B1-3E2F7B158F37/assets/615700D5DBE484C35DF4ECE11DF00592.png" width="398.00" height="53.00" transform="matrix(1.00, 0.00, -0.00, -1.00, 377.0, 402.0)"></image><text xml:space="preserve" font-family="HelveticaNeue-Light,Helvetica Neue" font-size="47.0" fill="#FEFFFE" transform="matrix(1.00, 0.00, -0.00, -1.00, 378.5, 366.5)">B</text><text xml:space="preserve" font-family="HelveticaNeue-Light,Helvetica Neue" font-size="47.0" fill="#FEFFFE" transform="matrix(1.00, 0.00, -0.00, -1.00, 409.9, 366.5)">a</text><text xml:space="preserve" font-family="HelveticaNeue-Light,Helvetica Neue" font-size="47.0" fill="#FEFFFE" transform="matrix(1.00, 0.00, -0.00, -1.00, 434.2, 366.5)">c</text><text xml:space="preserve" font-family="HelveticaNeue-Light,Helvetica Neue" font-size="47.0" fill="#FEFFFE" transform="matrix(1.00, 0.00, -0.00, -1.00, 458.6, 366.5)">k</text><text xml:space="preserve" font-family="HelveticaNeue-Light,Helvetica Neue" font-size="47.0" fill="#FEFFFE" transform="matrix(1.00, 0.00, -0.00, -1.00, 482.1, 366.5)">e</text><text xml:space="preserve" font-family="HelveticaNeue-Light,Helvetica Neue" font-size="47.0" fill="#FEFFFE" transform="matrix(1.00, 0.00, -0.00, -1.00, 506.5, 366.5)">t</text><text xml:space="preserve" font-family="HelveticaNeue-Light,Helvetica Neue" font-size="47.0" fill="#FEFFFE" transform="matrix(1.00, 0.00, -0.00, -1.00, 520.4, 366.5)"> </text><text xml:space="preserve" font-family="HelveticaNeue-Light,Helvetica Neue" font-size="47.0" fill="#FEFFFE" transform="matrix(1.00, 0.00, -0.00, -1.00, 533.5, 366.5)">a</text><text xml:space="preserve" font-family="HelveticaNeue-Light,Helvetica Neue" font-size="47.0" fill="#FEFFFE" transform="matrix(1.00, 0.00, -0.00, -1.00, 557.9, 366.5)">f</text><text xml:space="preserve" font-family="HelveticaNeue-Light,Helvetica Neue" font-size="47.0" fill="#FEFFFE" transform="matrix(1.00, 0.00, -0.00, -1.00, 570.1, 366.5)"> </text><text xml:space="preserve" font-family="HelveticaNeue-Light,Helvetica Neue" font-size="47.0" fill="#FEFFFE" transform="matrix(1.00, 0.00, -0.00, -1.00, 583.1, 366.5)">G</text><text xml:space="preserve" font-family="HelveticaNeue-Light,Helvetica Neue" font-size="47.0" fill="#FEFFFE" transform="matrix(1.00, 0.00, -0.00, -1.00, 618.0, 366.5)">o</text><text xml:space="preserve" font-family="HelveticaNeue-Light,Helvetica Neue" font-size="47.0" fill="#FEFFFE" transform="matrix(1.00, 0.00, -0.00, -1.00, 644.1, 366.5)">o</text><text xml:space="preserve" font-family="HelveticaNeue-Light,Helvetica Neue" font-size="47.0" fill="#FEFFFE" transform="matrix(1.00, 0.00, -0.00, -1.00, 670.2, 366.5)">g</text><text xml:space="preserve" font-family="HelveticaNeue-Light,Helvetica Neue" font-size="47.0" fill="#FEFFFE" transform="matrix(1.00, 0.00, -0.00, -1.00, 696.4, 366.5)">l</text><text xml:space="preserve" font-family="HelveticaNeue-Light,Helvetica Neue" font-size="47.0" fill="#FEFFFE" transform="matrix(1.00, 0.00, -0.00, -1.00, 705.1, 366.5)">e</text><text xml:space="preserve" font-family="HelveticaNeue-Light,Helvetica Neue" font-size="47.0" fill="#FEFFFE" transform="matrix(1.00, 0.00, -0.00, -1.00, 729.5, 366.5)">…</text><image xlink:href="../../DA5986A0-4ADB-4CD2-A6B1-3E2F7B158F37/assets/20138B789D5ECB24F99D61C04120E39D.png" width="18.00" height="17.00" transform="matrix(1.00, 0.00, -0.00, -1.00, 332.0, 301.0)"></image><g><clipPath id="clip0x600000cb92c0"><path d="M 332.8 284.0 L 349.4 284.0 L 349.4 300.7 L 332.8 300.7 Z M 332.8 284.0 "></path></clipPath><g clip-path="url(#clip0x600000cb92c0)"><g><g><clipPath id="clip0x600000cb9680"><path d="M 332.8 300.7 L 349.4 300.7 L 349.4 284.0 L 332.8 284.0 Z M 332.8 300.7 "></path></clipPath><g clip-path="url(#clip0x600000cb9680)"><g><clipPath id="clip0x600000cb9800"><path d="M 328.0 277.0 L 354.0 277.0 L 354.0 308.0 L 328.0 308.0 Z M 328.0 277.0 "></path></clipPath><g clip-path="url(#clip0x600000cb9800)"><path d="M 349.4 297.3 C 349.4 298.1 349.0 298.8 348.3 299.6 C 347.6 300.3 346.9 300.7 346.0 300.7 C 345.7 300.7 345.1 300.5 344.3 300.1 C 343.0 299.5 341.9 299.2 341.0 299.2 C 340.1 299.2 339.0 299.5 337.8 300.1 C 337.0 300.5 336.4 300.7 336.1 300.7 C 335.3 300.7 334.5 300.3 333.9 299.6 C 333.2 298.9 332.8 298.1 332.8 297.3 C 332.8 297.0 333.0 296.3 333.4 295.5 C 333.9 294.3 334.2 293.2 334.2 292.4 C 334.2 291.5 333.9 290.4 333.4 289.1 C 333.0 288.3 332.8 287.8 332.8 287.4 C 332.8 286.6 333.2 285.8 333.9 285.1 C 334.5 284.4 335.3 284.0 336.1 284.0 C 336.4 284.0 337.0 284.2 337.8 284.6 C 339.0 285.2 340.1 285.5 341.0 285.5 C 341.9 285.5 343.0 285.2 344.3 284.6 C 345.1 284.2 345.7 284.0 346.0 284.0 C 346.9 284.0 347.6 284.4 348.3 285.1 C 349.0 285.8 349.4 286.6 349.4 287.4 C 349.4 287.8 349.2 288.3 348.8 289.1 C 348.2 290.4 347.9 291.5 347.9 292.4 C 347.9 293.2 348.2 294.3 348.8 295.5 C 349.2 296.3 349.4 297.0 349.4 297.3 " fill="#FFFFFF"></path></g></g></g></g></g></g></g><image xlink:href="../../DA5986A0-4ADB-4CD2-A6B1-3E2F7B158F37/assets/BAF354718C330C381E7ADB8BCCF65A33.png" width="543.00" height="53.00" transform="matrix(1.00, 0.00, -0.00, -1.00, 377.0, 312.0)"></image><text xml:space="preserve" font-family="HelveticaNeue-Light,Helvetica Neue" font-size="47.0" fill="#FEFFFE" transform="matrix(1.00, 0.00, -0.00, -1.00, 378.5, 276.6)">M</text><text xml:space="preserve" font-family="HelveticaNeue-Light,Helvetica Neue" font-size="47.0" fill="#FEFFFE" transform="matrix(1.00, 0.00, -0.00, -1.00, 417.1, 276.6)">a</text><text xml:space="preserve" font-family="HelveticaNeue-Light,Helvetica Neue" font-size="47.0" fill="#FEFFFE" transform="matrix(1.00, 0.00, -0.00, -1.00, 441.5, 276.6)">s</text><text xml:space="preserve" font-family="HelveticaNeue-Light,Helvetica Neue" font-size="47.0" fill="#FEFFFE" transform="matrix(1.00, 0.00, -0.00, -1.00, 464.1, 276.6)">s</text><text xml:space="preserve" font-family="HelveticaNeue-Light,Helvetica Neue" font-size="47.0" fill="#FEFFFE" transform="matrix(1.00, 0.00, -0.00, -1.00, 486.7, 276.6)">e</text><text xml:space="preserve" font-family="HelveticaNeue-Light,Helvetica Neue" font-size="47.0" fill="#FEFFFE" transform="matrix(1.00, 0.00, -0.00, -1.00, 511.1, 276.6)">r</text><text xml:space="preserve" font-family="HelveticaNeue-Light,Helvetica Neue" font-size="47.0" fill="#FEFFFE" transform="matrix(1.00, 0.00, -0.00, -1.00, 525.9, 276.6)"> </text><text xml:space="preserve" font-family="HelveticaNeue-Light,Helvetica Neue" font-size="47.0" fill="#FEFFFE" transform="matrix(1.00, 0.00, -0.00, -1.00, 539.0, 276.6)">a</text><text xml:space="preserve" font-family="HelveticaNeue-Light,Helvetica Neue" font-size="47.0" fill="#FEFFFE" transform="matrix(1.00, 0.00, -0.00, -1.00, 563.4, 276.6)">f</text><text xml:space="preserve" font-family="HelveticaNeue-Light,Helvetica Neue" font-size="47.0" fill="#FEFFFE" transform="matrix(1.00, 0.00, -0.00, -1.00, 575.5, 276.6)"> </text><text xml:space="preserve" font-family="HelveticaNeue-Light,Helvetica Neue" font-size="47.0" fill="#FEFFFE" transform="matrix(1.00, 0.00, -0.00, -1.00, 588.6, 276.6)">j</text><text xml:space="preserve" font-family="HelveticaNeue-Light,Helvetica Neue" font-size="47.0" fill="#FEFFFE" transform="matrix(1.00, 0.00, -0.00, -1.00, 597.3, 276.6)">o</text><text xml:space="preserve" font-family="HelveticaNeue-Light,Helvetica Neue" font-size="47.0" fill="#FEFFFE" transform="matrix(1.00, 0.00, -0.00, -1.00, 623.4, 276.6)">b</text><text xml:space="preserve" font-family="HelveticaNeue-Light,Helvetica Neue" font-size="47.0" fill="#FEFFFE" transform="matrix(1.00, 0.00, -0.00, -1.00, 650.4, 276.6)">m</text><text xml:space="preserve" font-family="HelveticaNeue-Light,Helvetica Neue" font-size="47.0" fill="#FEFFFE" transform="matrix(1.00, 0.00, -0.00, -1.00, 689.6, 276.6)">u</text><text xml:space="preserve" font-family="HelveticaNeue-Light,Helvetica Neue" font-size="47.0" fill="#FEFFFE" transform="matrix(1.00, 0.00, -0.00, -1.00, 714.8, 276.6)">l</text><text xml:space="preserve" font-family="HelveticaNeue-Light,Helvetica Neue" font-size="47.0" fill="#FEFFFE" transform="matrix(1.00, 0.00, -0.00, -1.00, 723.5, 276.6)">i</text><text xml:space="preserve" font-family="HelveticaNeue-Light,Helvetica Neue" font-size="47.0" fill="#FEFFFE" transform="matrix(1.00, 0.00, -0.00, -1.00, 732.2, 276.6)">g</text><text xml:space="preserve" font-family="HelveticaNeue-Light,Helvetica Neue" font-size="47.0" fill="#FEFFFE" transform="matrix(1.00, 0.00, -0.00, -1.00, 758.3, 276.6)">h</text><text xml:space="preserve" font-family="HelveticaNeue-Light,Helvetica Neue" font-size="47.0" fill="#FEFFFE" transform="matrix(1.00, 0.00, -0.00, -1.00, 783.6, 276.6)">e</text><text xml:space="preserve" font-family="HelveticaNeue-Light,Helvetica Neue" font-size="47.0" fill="#FEFFFE" transform="matrix(1.00, 0.00, -0.00, -1.00, 807.9, 276.6)">d</text><text xml:space="preserve" font-family="HelveticaNeue-Light,Helvetica Neue" font-size="47.0" fill="#FEFFFE" transform="matrix(1.00, 0.00, -0.00, -1.00, 834.9, 276.6)">e</text><text xml:space="preserve" font-family="HelveticaNeue-Light,Helvetica Neue" font-size="47.0" fill="#FEFFFE" transform="matrix(1.00, 0.00, -0.00, -1.00, 859.3, 276.6)">r</text><text xml:space="preserve" font-family="HelveticaNeue-Light,Helvetica Neue" font-size="47.0" fill="#FEFFFE" transform="matrix(1.00, 0.00, -0.00, -1.00, 874.1, 276.6)">…</text><image xlink:href="../../DA5986A0-4ADB-4CD2-A6B1-3E2F7B158F37/assets/1E4D17A55090B27BD58DA5D7DAE2AC7B.png" width="479.00" height="480.00" transform="matrix(1.16, 0.00, -0.00, -1.16, 1038.0, 735.0)"></image><text xml:space="preserve" font-family="HelveticaNeue-Bold,Helvetica Neue" font-weight="bold" font-size="18.0" fill="#FEFFFE" transform="matrix(1.00, 0.00, -0.00, -1.00, 1647.0, 25.0)">6</text></g></svg>