<?xml version="1.0" encoding="UTF-8" standalone="no"?><svg xmlns="http://www.w3.org/2000/svg" xmlns:xlink="http://www.w3.org/1999/xlink" clip-rule="evenodd" stroke-miterlimit="10" viewBox="0 0 551 55"><desc>SVG generated by Keynote</desc><defs></defs><g transform="matrix(1.00, 0.00, -0.00, -1.00, 0.0, 55.0)"><image xlink:href="7EF8DC7FFFE8A23ED53585851D072704.png" width="18.00" height="18.00" transform="matrix(1.00, 0.00, -0.00, -1.00, 4.0, 43.0)"></image><g><clipPath id="clip0x608002cb3980"><path d="M 4.8 25.7 L 21.4 25.7 L 21.4 42.4 L 4.8 42.4 Z M 4.8 25.7 "></path></clipPath><g clip-path="url(#clip0x608002cb3980)"><g><g><clipPath id="clip0x608002cb3da0"><path d="M 4.8 42.4 L 21.4 42.4 L 21.4 25.7 L 4.8 25.7 Z M 4.8 42.4 "></path></clipPath><g clip-path="url(#clip0x608002cb3da0)"><g><clipPath id="clip0x608002cb3f20"><path d="M 0.0 18.0 L 26.0 18.0 L 26.0 50.0 L 0.0 50.0 Z M 0.0 18.0 "></path></clipPath><g clip-path="url(#clip0x608002cb3f20)"><path d="M 21.4 39.0 C 21.4 39.7 21.0 40.5 20.3 41.2 C 19.6 42.0 18.9 42.4 18.0 42.4 C 17.7 42.4 17.1 42.2 16.3 41.8 C 15.0 41.2 13.9 40.9 13.0 40.9 C 12.1 40.9 11.0 41.2 9.8 41.8 C 9.0 42.2 8.4 42.4 8.1 42.4 C 7.3 42.4 6.5 42.0 5.9 41.3 C 5.2 40.6 4.8 39.8 4.8 39.0 C 4.8 38.6 5.0 38.0 5.4 37.2 C 5.9 36.0 6.2 34.9 6.2 34.0 C 6.2 33.2 5.9 32.1 5.4 30.8 C 5.0 30.0 4.8 29.4 4.8 29.0 C 4.8 28.3 5.2 27.5 5.9 26.8 C 6.5 26.1 7.3 25.7 8.1 25.7 C 8.4 25.7 9.0 25.9 9.8 26.3 C 11.0 26.9 12.1 27.2 13.0 27.2 C 13.9 27.2 15.0 26.9 16.3 26.3 C 17.1 25.9 17.7 25.7 18.0 25.7 C 18.9 25.7 19.6 26.1 20.3 26.8 C 21.0 27.5 21.4 28.3 21.4 29.0 C 21.4 29.4 21.2 30.0 20.8 30.8 C 20.2 32.1 19.9 33.2 19.9 34.0 C 19.9 34.9 20.2 36.0 20.8 37.2 C 21.2 38.0 21.4 38.6 21.4 39.0 " fill="#FFFFFF"></path></g></g></g></g></g></g></g><image xlink:href="3B381D812CA53AB9EC21F19D1F10089E.png" width="500.00" height="52.00" transform="matrix(1.00, 0.00, -0.00, -1.00, 49.0, 53.0)"></image><text xml:space="preserve" font-family="HelveticaNeue-Light,Helvetica Neue" font-size="47.0" fill="#FEFFFE" transform="matrix(1.00, 0.00, -0.00, -1.00, 50.5, 18.3)">K</text><text xml:space="preserve" font-family="HelveticaNeue-Light,Helvetica Neue" font-size="47.0" fill="#FEFFFE" transform="matrix(1.00, 0.00, -0.00, -1.00, 81.0, 18.3)">a</text><text xml:space="preserve" font-family="HelveticaNeue-Light,Helvetica Neue" font-size="47.0" fill="#FEFFFE" transform="matrix(1.00, 0.00, -0.00, -1.00, 105.4, 18.3)">n</text><text xml:space="preserve" font-family="HelveticaNeue-Light,Helvetica Neue" font-size="47.0" fill="#FEFFFE" transform="matrix(1.00, 0.00, -0.00, -1.00, 130.6, 18.3)"> </text><text xml:space="preserve" font-family="HelveticaNeue-Light,Helvetica Neue" font-size="47.0" fill="#FEFFFE" transform="matrix(1.00, 0.00, -0.00, -1.00, 143.7, 18.3)">s</text><text xml:space="preserve" font-family="HelveticaNeue-Light,Helvetica Neue" font-size="47.0" fill="#FEFFFE" transform="matrix(1.00, 0.00, -0.00, -1.00, 166.3, 18.3)">k</text><text xml:space="preserve" font-family="HelveticaNeue-Light,Helvetica Neue" font-size="47.0" fill="#FEFFFE" transform="matrix(1.00, 0.00, -0.00, -1.00, 189.8, 18.3)">a</text><text xml:space="preserve" font-family="HelveticaNeue-Light,Helvetica Neue" font-size="47.0" fill="#FEFFFE" transform="matrix(1.00, 0.00, -0.00, -1.00, 214.2, 18.3)">l</text><text xml:space="preserve" font-family="HelveticaNeue-Light,Helvetica Neue" font-size="47.0" fill="#FEFFFE" transform="matrix(1.00, 0.00, -0.00, -1.00, 222.9, 18.3)">e</text><text xml:space="preserve" font-family="HelveticaNeue-Light,Helvetica Neue" font-size="47.0" fill="#FEFFFE" transform="matrix(1.00, 0.00, -0.00, -1.00, 247.2, 18.3)">r</text><text xml:space="preserve" font-family="HelveticaNeue-Light,Helvetica Neue" font-size="47.0" fill="#FEFFFE" transform="matrix(1.00, 0.00, -0.00, -1.00, 261.2, 18.3)">e</text><text xml:space="preserve" font-family="HelveticaNeue-Light,Helvetica Neue" font-size="47.0" fill="#FEFFFE" transform="matrix(1.00, 0.00, -0.00, -1.00, 285.6, 18.3)"> </text><text xml:space="preserve" font-family="HelveticaNeue-Light,Helvetica Neue" font-size="47.0" fill="#FEFFFE" transform="matrix(1.00, 0.00, -0.00, -1.00, 298.7, 18.3)">r</text><text xml:space="preserve" font-family="HelveticaNeue-Light,Helvetica Neue" font-size="47.0" fill="#FEFFFE" transform="matrix(1.00, 0.00, -0.00, -1.00, 313.5, 18.3)">i</text><text xml:space="preserve" font-family="HelveticaNeue-Light,Helvetica Neue" font-size="47.0" fill="#FEFFFE" transform="matrix(1.00, 0.00, -0.00, -1.00, 322.2, 18.3)">g</text><text xml:space="preserve" font-family="HelveticaNeue-Light,Helvetica Neue" font-size="47.0" fill="#FEFFFE" transform="matrix(1.00, 0.00, -0.00, -1.00, 348.3, 18.3)">t</text><text xml:space="preserve" font-family="HelveticaNeue-Light,Helvetica Neue" font-size="47.0" fill="#FEFFFE" transform="matrix(1.00, 0.00, -0.00, -1.00, 362.2, 18.3)">i</text><text xml:space="preserve" font-family="HelveticaNeue-Light,Helvetica Neue" font-size="47.0" fill="#FEFFFE" transform="matrix(1.00, 0.00, -0.00, -1.00, 370.9, 18.3)">g</text><text xml:space="preserve" font-family="HelveticaNeue-Light,Helvetica Neue" font-size="47.0" fill="#FEFFFE" transform="matrix(1.00, 0.00, -0.00, -1.00, 397.0, 18.3)"> </text><text xml:space="preserve" font-family="HelveticaNeue-Light,Helvetica Neue" font-size="47.0" fill="#FEFFFE" transform="matrix(1.00, 0.00, -0.00, -1.00, 410.1, 18.3)">g</text><text xml:space="preserve" font-family="HelveticaNeue-Light,Helvetica Neue" font-size="47.0" fill="#FEFFFE" transform="matrix(1.00, 0.00, -0.00, -1.00, 436.2, 18.3)">o</text><text xml:space="preserve" font-family="HelveticaNeue-Light,Helvetica Neue" font-size="47.0" fill="#FEFFFE" transform="matrix(1.00, 0.00, -0.00, -1.00, 462.4, 18.3)">d</text><text xml:space="preserve" font-family="HelveticaNeue-Light,Helvetica Neue" font-size="47.0" fill="#FEFFFE" transform="matrix(1.00, 0.00, -0.00, -1.00, 489.3, 18.3)">t</text><text xml:space="preserve" font-family="HelveticaNeue-Light,Helvetica Neue" font-size="47.0" fill="#FEFFFE" transform="matrix(1.00, 0.00, -0.00, -1.00, 503.3, 18.3)">…</text></g></svg>