<?xml version="1.0" encoding="UTF-8" standalone="no"?><svg xmlns="http://www.w3.org/2000/svg" xmlns:xlink="http://www.w3.org/1999/xlink" clip-rule="evenodd" stroke-miterlimit="10" viewBox="0 0 647 65"><desc>SVG generated by Keynote</desc><defs></defs><g transform="matrix(1.00, 0.00, -0.00, -1.00, 0.0, 65.0)"><image xlink:href="A893EBC499C50582AD91FEE9D731191B.png" width="645.00" height="63.00" transform="matrix(1.00, 0.00, -0.00, -1.00, 1.0, 64.0)"></image><text xml:space="preserve" font-family="HelveticaNeue-Light,Helvetica Neue" font-size="58.0" fill="#73BFFF" transform="matrix(1.00, 0.00, -0.00, -1.00, 0.9, 20.8)">I</text><text xml:space="preserve" font-family="HelveticaNeue-Light,Helvetica Neue" font-size="58.0" fill="#73BFFF" transform="matrix(1.00, 0.00, -0.00, -1.00, 13.7, 20.8)">n</text><text xml:space="preserve" font-family="HelveticaNeue-Light,Helvetica Neue" font-size="58.0" fill="#73BFFF" transform="matrix(1.00, 0.00, -0.00, -1.00, 44.9, 20.8)">t</text><text xml:space="preserve" font-family="HelveticaNeue-Light,Helvetica Neue" font-size="58.0" fill="#73BFFF" transform="matrix(1.00, 0.00, -0.00, -1.00, 62.1, 20.8)">r</text><text xml:space="preserve" font-family="HelveticaNeue-Light,Helvetica Neue" font-size="58.0" fill="#73BFFF" transform="matrix(1.00, 0.00, -0.00, -1.00, 79.3, 20.8)">o</text><text xml:space="preserve" font-family="HelveticaNeue-Light,Helvetica Neue" font-size="58.0" fill="#73BFFF" transform="matrix(1.00, 0.00, -0.00, -1.00, 111.5, 20.8)">,</text><text xml:space="preserve" font-family="HelveticaNeue-Light,Helvetica Neue" font-size="58.0" fill="#73BFFF" transform="matrix(1.00, 0.00, -0.00, -1.00, 127.7, 20.8)"> </text><text xml:space="preserve" font-family="HelveticaNeue-Light,Helvetica Neue" font-size="58.0" fill="#73BFFF" transform="matrix(1.00, 0.00, -0.00, -1.00, 143.8, 20.8)">t</text><text xml:space="preserve" font-family="HelveticaNeue-Light,Helvetica Neue" font-size="58.0" fill="#73BFFF" transform="matrix(1.00, 0.00, -0.00, -1.00, 160.9, 20.8)">a</text><text xml:space="preserve" font-family="HelveticaNeue-Light,Helvetica Neue" font-size="58.0" fill="#73BFFF" transform="matrix(1.00, 0.00, -0.00, -1.00, 191.1, 20.8)">n</text><text xml:space="preserve" font-family="HelveticaNeue-Light,Helvetica Neue" font-size="58.0" fill="#73BFFF" transform="matrix(1.00, 0.00, -0.00, -1.00, 222.2, 20.8)">k</text><text xml:space="preserve" font-family="HelveticaNeue-Light,Helvetica Neue" font-size="58.0" fill="#73BFFF" transform="matrix(1.00, 0.00, -0.00, -1.00, 251.2, 20.8)">e</text><text xml:space="preserve" font-family="HelveticaNeue-Light,Helvetica Neue" font-size="58.0" fill="#73BFFF" transform="matrix(1.00, 0.00, -0.00, -1.00, 281.3, 20.8)">r</text><text xml:space="preserve" font-family="HelveticaNeue-Light,Helvetica Neue" font-size="58.0" fill="#73BFFF" transform="matrix(1.00, 0.00, -0.00, -1.00, 299.6, 20.8)"> </text><text xml:space="preserve" font-family="HelveticaNeue-Light,Helvetica Neue" font-size="58.0" fill="#73BFFF" transform="matrix(1.00, 0.00, -0.00, -1.00, 315.7, 20.8)">o</text><text xml:space="preserve" font-family="HelveticaNeue-Light,Helvetica Neue" font-size="58.0" fill="#73BFFF" transform="matrix(1.00, 0.00, -0.00, -1.00, 347.9, 20.8)">g</text><text xml:space="preserve" font-family="HelveticaNeue-Light,Helvetica Neue" font-size="58.0" fill="#73BFFF" transform="matrix(1.00, 0.00, -0.00, -1.00, 380.2, 20.8)"> </text><text xml:space="preserve" font-family="HelveticaNeue-Light,Helvetica Neue" font-size="58.0" fill="#73BFFF" transform="matrix(1.00, 0.00, -0.00, -1.00, 396.3, 20.8)">w</text><text xml:space="preserve" font-family="HelveticaNeue-Light,Helvetica Neue" font-size="58.0" fill="#73BFFF" transform="matrix(1.00, 0.00, -0.00, -1.00, 439.3, 20.8)">o</text><text xml:space="preserve" font-family="HelveticaNeue-Light,Helvetica Neue" font-size="58.0" fill="#73BFFF" transform="matrix(1.00, 0.00, -0.00, -1.00, 471.5, 20.8)">r</text><text xml:space="preserve" font-family="HelveticaNeue-Light,Helvetica Neue" font-size="58.0" fill="#73BFFF" transform="matrix(1.00, 0.00, -0.00, -1.00, 489.8, 20.8)">k</text><text xml:space="preserve" font-family="HelveticaNeue-Light,Helvetica Neue" font-size="58.0" fill="#73BFFF" transform="matrix(1.00, 0.00, -0.00, -1.00, 518.8, 20.8)">s</text><text xml:space="preserve" font-family="HelveticaNeue-Light,Helvetica Neue" font-size="58.0" fill="#73BFFF" transform="matrix(1.00, 0.00, -0.00, -1.00, 546.7, 20.8)">h</text><text xml:space="preserve" font-family="HelveticaNeue-Light,Helvetica Neue" font-size="58.0" fill="#73BFFF" transform="matrix(1.00, 0.00, -0.00, -1.00, 577.9, 20.8)">o</text><text xml:space="preserve" font-family="HelveticaNeue-Light,Helvetica Neue" font-size="58.0" fill="#73BFFF" transform="matrix(1.00, 0.00, -0.00, -1.00, 610.1, 20.8)">p</text></g></svg>