<?xml version="1.0" encoding="UTF-8" standalone="no"?><svg xmlns="http://www.w3.org/2000/svg" xmlns:xlink="http://www.w3.org/1999/xlink" clip-rule="evenodd" stroke-miterlimit="10" viewBox="0 0 837 145"><desc>SVG generated by Keynote</desc><defs></defs><g transform="matrix(1.00, 0.00, -0.00, -1.00, 0.0, 145.0)"><image xlink:href="../../63E96F94-3ECB-4C9D-9D7E-99B70E6EB298/assets/5594DC8059EB904084D60818A1308CE9.png" width="19.00" height="19.00" transform="matrix(1.00, 0.00, -0.00, -1.00, 4.0, 132.0)"></image><g><clipPath id="clip0x6000012b0980"><path d="M 4.8 113.9 L 22.4 113.9 L 22.4 131.6 L 4.8 131.6 Z M 4.8 113.9 "></path></clipPath><g clip-path="url(#clip0x6000012b0980)"><g><g><clipPath id="clip0x6000012b0800"><path d="M 4.8 131.6 L 22.4 131.6 L 22.4 113.9 L 4.8 113.9 Z M 4.8 131.6 "></path></clipPath><g clip-path="url(#clip0x6000012b0800)"><g><clipPath id="clip0x6000012b09e0"><path d="M 0.0 106.0 L 27.0 106.0 L 27.0 139.0 L 0.0 139.0 Z M 0.0 106.0 "></path></clipPath><g clip-path="url(#clip0x6000012b09e0)"><path d="M 22.4 128.1 C 22.4 128.8 22.1 129.6 21.3 130.4 C 20.6 131.2 19.8 131.6 18.9 131.6 C 18.5 131.6 17.9 131.4 17.0 131.0 C 15.7 130.3 14.5 130.0 13.6 130.0 C 12.6 130.0 11.4 130.3 10.1 131.0 C 9.3 131.4 8.7 131.6 8.3 131.6 C 7.4 131.6 6.7 131.2 5.9 130.5 C 5.2 129.7 4.8 128.9 4.8 128.1 C 4.8 127.7 5.0 127.0 5.4 126.1 C 6.0 124.8 6.3 123.7 6.3 122.8 C 6.3 121.8 6.0 120.7 5.4 119.3 C 5.0 118.5 4.8 117.9 4.8 117.5 C 4.8 116.6 5.2 115.8 5.9 115.1 C 6.7 114.3 7.4 113.9 8.3 113.9 C 8.7 113.9 9.3 114.1 10.1 114.5 C 11.4 115.2 12.6 115.5 13.6 115.5 C 14.5 115.5 15.7 115.2 17.0 114.5 C 17.9 114.1 18.5 113.9 18.9 113.9 C 19.8 113.9 20.6 114.3 21.3 115.1 C 22.1 115.8 22.4 116.6 22.4 117.5 C 22.4 117.9 22.2 118.5 21.8 119.3 C 21.2 120.7 20.8 121.8 20.8 122.8 C 20.8 123.7 21.2 124.8 21.8 126.1 C 22.2 127.0 22.4 127.7 22.4 128.1 " fill="#FFFFFF"></path></g></g></g></g></g></g></g><image xlink:href="CA732461F3686B39D2360A7FCE72ACDC.png" width="619.00" height="55.00" transform="matrix(1.00, 0.00, -0.00, -1.00, 49.0, 143.0)"></image><text xml:space="preserve" font-family="HelveticaNeue-Light,Helvetica Neue" font-size="50.0" fill="#FEFFFE" transform="matrix(1.00, 0.00, -0.00, -1.00, 53.4, 105.9)">V</text><text xml:space="preserve" font-family="HelveticaNeue-Light,Helvetica Neue" font-size="50.0" fill="#FEFFFE" transform="matrix(1.00, 0.00, -0.00, -1.00, 83.1, 105.9)">æ</text><text xml:space="preserve" font-family="HelveticaNeue-Light,Helvetica Neue" font-size="50.0" fill="#FEFFFE" transform="matrix(1.00, 0.00, -0.00, -1.00, 126.6, 105.9)">r</text><text xml:space="preserve" font-family="HelveticaNeue-Light,Helvetica Neue" font-size="50.0" fill="#FEFFFE" transform="matrix(1.00, 0.00, -0.00, -1.00, 142.3, 105.9)"> </text><text xml:space="preserve" font-family="HelveticaNeue-Light,Helvetica Neue" font-size="50.0" fill="#FEFFFE" transform="matrix(1.00, 0.00, -0.00, -1.00, 156.2, 105.9)">k</text><text xml:space="preserve" font-family="HelveticaNeue-Light,Helvetica Neue" font-size="50.0" fill="#FEFFFE" transform="matrix(1.00, 0.00, -0.00, -1.00, 181.2, 105.9)">o</text><text xml:space="preserve" font-family="HelveticaNeue-Light,Helvetica Neue" font-size="50.0" fill="#FEFFFE" transform="matrix(1.00, 0.00, -0.00, -1.00, 209.0, 105.9)">n</text><text xml:space="preserve" font-family="HelveticaNeue-Light,Helvetica Neue" font-size="50.0" fill="#FEFFFE" transform="matrix(1.00, 0.00, -0.00, -1.00, 235.9, 105.9)">s</text><text xml:space="preserve" font-family="HelveticaNeue-Light,Helvetica Neue" font-size="50.0" fill="#FEFFFE" transform="matrix(1.00, 0.00, -0.00, -1.00, 259.9, 105.9)">i</text><text xml:space="preserve" font-family="HelveticaNeue-Light,Helvetica Neue" font-size="50.0" fill="#FEFFFE" transform="matrix(1.00, 0.00, -0.00, -1.00, 269.2, 105.9)">s</text><text xml:space="preserve" font-family="HelveticaNeue-Light,Helvetica Neue" font-size="50.0" fill="#FEFFFE" transform="matrix(1.00, 0.00, -0.00, -1.00, 293.2, 105.9)">t</text><text xml:space="preserve" font-family="HelveticaNeue-Light,Helvetica Neue" font-size="50.0" fill="#FEFFFE" transform="matrix(1.00, 0.00, -0.00, -1.00, 308.0, 105.9)">e</text><text xml:space="preserve" font-family="HelveticaNeue-Light,Helvetica Neue" font-size="50.0" fill="#FEFFFE" transform="matrix(1.00, 0.00, -0.00, -1.00, 334.0, 105.9)">n</text><text xml:space="preserve" font-family="HelveticaNeue-Light,Helvetica Neue" font-size="50.0" fill="#FEFFFE" transform="matrix(1.00, 0.00, -0.00, -1.00, 360.8, 105.9)">t</text><text xml:space="preserve" font-family="HelveticaNeue-Light,Helvetica Neue" font-size="50.0" fill="#FEFFFE" transform="matrix(1.00, 0.00, -0.00, -1.00, 375.6, 105.9)"> </text><text xml:space="preserve" font-family="HelveticaNeue-Light,Helvetica Neue" font-size="50.0" fill="#FEFFFE" transform="matrix(1.00, 0.00, -0.00, -1.00, 389.5, 105.9)">i</text><text xml:space="preserve" font-family="HelveticaNeue-Light,Helvetica Neue" font-size="50.0" fill="#FEFFFE" transform="matrix(1.00, 0.00, -0.00, -1.00, 398.8, 105.9)"> </text><text xml:space="preserve" font-family="HelveticaNeue-Light,Helvetica Neue" font-size="50.0" fill="#FEFFFE" transform="matrix(1.00, 0.00, -0.00, -1.00, 412.7, 105.9)">n</text><text xml:space="preserve" font-family="HelveticaNeue-Light,Helvetica Neue" font-size="50.0" fill="#FEFFFE" transform="matrix(1.00, 0.00, -0.00, -1.00, 439.5, 105.9)">a</text><text xml:space="preserve" font-family="HelveticaNeue-Light,Helvetica Neue" font-size="50.0" fill="#FEFFFE" transform="matrix(1.00, 0.00, -0.00, -1.00, 465.5, 105.9)">v</text><text xml:space="preserve" font-family="HelveticaNeue-Light,Helvetica Neue" font-size="50.0" fill="#FEFFFE" transform="matrix(1.00, 0.00, -0.00, -1.00, 488.6, 105.9)">n</text><text xml:space="preserve" font-family="HelveticaNeue-Light,Helvetica Neue" font-size="50.0" fill="#FEFFFE" transform="matrix(1.00, 0.00, -0.00, -1.00, 515.5, 105.9)">g</text><text xml:space="preserve" font-family="HelveticaNeue-Light,Helvetica Neue" font-size="50.0" fill="#FEFFFE" transform="matrix(1.00, 0.00, -0.00, -1.00, 543.3, 105.9)">i</text><text xml:space="preserve" font-family="HelveticaNeue-Light,Helvetica Neue" font-size="50.0" fill="#FEFFFE" transform="matrix(1.00, 0.00, -0.00, -1.00, 552.5, 105.9)">v</text><text xml:space="preserve" font-family="HelveticaNeue-Light,Helvetica Neue" font-size="50.0" fill="#FEFFFE" transform="matrix(1.00, 0.00, -0.00, -1.00, 575.7, 105.9)">n</text><text xml:space="preserve" font-family="HelveticaNeue-Light,Helvetica Neue" font-size="50.0" fill="#FEFFFE" transform="matrix(1.00, 0.00, -0.00, -1.00, 602.5, 105.9)">i</text><text xml:space="preserve" font-family="HelveticaNeue-Light,Helvetica Neue" font-size="50.0" fill="#FEFFFE" transform="matrix(1.00, 0.00, -0.00, -1.00, 611.8, 105.9)">n</text><text xml:space="preserve" font-family="HelveticaNeue-Light,Helvetica Neue" font-size="50.0" fill="#FEFFFE" transform="matrix(1.00, 0.00, -0.00, -1.00, 638.6, 105.9)">g</text><text xml:space="preserve" font-family="HelveticaNeue-Light,Helvetica Neue" font-size="50.0" fill="#FEFFFE" transform="matrix(1.00, 0.00, -0.00, -1.00, 666.4, 105.9)"> </text><image xlink:href="../../63E96F94-3ECB-4C9D-9D7E-99B70E6EB298/assets/5594DC8059EB904084D60818A1308CE9.png" width="19.00" height="19.00" transform="matrix(1.00, 0.00, -0.00, -1.00, 39.0, 36.0)"></image><g><clipPath id="clip0x6080038b6f80"><path d="M 39.8 17.9 L 57.4 17.9 L 57.4 35.6 L 39.8 35.6 Z M 39.8 17.9 "></path></clipPath><g clip-path="url(#clip0x6080038b6f80)"><g><g><clipPath id="clip0x6080038b7340"><path d="M 39.8 35.6 L 57.4 35.6 L 57.4 17.9 L 39.8 17.9 Z M 39.8 35.6 "></path></clipPath><g clip-path="url(#clip0x6080038b7340)"><g><clipPath id="clip0x6080038b74c0"><path d="M 35.0 10.0 L 62.0 10.0 L 62.0 43.0 L 35.0 43.0 Z M 35.0 10.0 "></path></clipPath><g clip-path="url(#clip0x6080038b74c0)"><path d="M 57.4 32.1 C 57.4 32.8 57.1 33.6 56.3 34.4 C 55.6 35.2 54.8 35.6 53.9 35.6 C 53.5 35.6 52.9 35.4 52.0 35.0 C 50.7 34.3 49.5 34.0 48.6 34.0 C 47.6 34.0 46.4 34.3 45.1 35.0 C 44.3 35.4 43.7 35.6 43.3 35.6 C 42.4 35.6 41.7 35.2 40.9 34.5 C 40.2 33.7 39.8 32.9 39.8 32.1 C 39.8 31.7 40.0 31.0 40.4 30.1 C 41.0 28.8 41.3 27.7 41.3 26.8 C 41.3 25.8 41.0 24.7 40.4 23.3 C 40.0 22.5 39.8 21.9 39.8 21.5 C 39.8 20.6 40.2 19.8 40.9 19.1 C 41.7 18.3 42.4 17.9 43.3 17.9 C 43.7 17.9 44.3 18.1 45.1 18.5 C 46.4 19.2 47.6 19.5 48.6 19.5 C 49.5 19.5 50.7 19.2 52.0 18.5 C 52.9 18.1 53.5 17.9 53.9 17.9 C 54.8 17.9 55.6 18.3 56.3 19.1 C 57.1 19.8 57.4 20.6 57.4 21.5 C 57.4 21.9 57.2 22.5 56.8 23.3 C 56.2 24.7 55.8 25.8 55.8 26.8 C 55.8 27.7 56.2 28.8 56.8 30.1 C 57.2 31.0 57.4 31.7 57.4 32.1 " fill="#FFFFFF"></path></g></g></g></g></g></g></g><image xlink:href="7AE3C6303D895D06F8B16D9AB13264CD.png" width="750.00" height="46.00" transform="matrix(1.00, 0.00, -0.00, -1.00, 86.0, 48.0)"></image><text xml:space="preserve" font-family="HelveticaNeue-Light,Helvetica Neue" font-size="50.0" fill="#FEFFFE" transform="matrix(1.00, 0.00, -0.00, -1.00, 88.4, 9.9)">C</text><text xml:space="preserve" font-family="HelveticaNeue-Light,Helvetica Neue" font-size="50.0" fill="#FEFFFE" transform="matrix(1.00, 0.00, -0.00, -1.00, 123.6, 9.9)">o</text><text xml:space="preserve" font-family="HelveticaNeue-Light,Helvetica Neue" font-size="50.0" fill="#FEFFFE" transform="matrix(1.00, 0.00, -0.00, -1.00, 151.4, 9.9)">n</text><text xml:space="preserve" font-family="HelveticaNeue-Light,Helvetica Neue" font-size="50.0" fill="#FEFFFE" transform="matrix(1.00, 0.00, -0.00, -1.00, 178.3, 9.9)">t</text><text xml:space="preserve" font-family="HelveticaNeue-Light,Helvetica Neue" font-size="50.0" fill="#FEFFFE" transform="matrix(1.00, 0.00, -0.00, -1.00, 193.1, 9.9)">r</text><text xml:space="preserve" font-family="HelveticaNeue-Light,Helvetica Neue" font-size="50.0" fill="#FEFFFE" transform="matrix(1.00, 0.00, -0.00, -1.00, 207.9, 9.9)">o</text><text xml:space="preserve" font-family="HelveticaNeue-Light,Helvetica Neue" font-size="50.0" fill="#FEFFFE" transform="matrix(1.00, 0.00, -0.00, -1.00, 235.7, 9.9)">l</text><text xml:space="preserve" font-family="HelveticaNeue-Light,Helvetica Neue" font-size="50.0" fill="#FEFFFE" transform="matrix(1.00, 0.00, -0.00, -1.00, 245.0, 9.9)">l</text><text xml:space="preserve" font-family="HelveticaNeue-Light,Helvetica Neue" font-size="50.0" fill="#FEFFFE" transform="matrix(1.00, 0.00, -0.00, -1.00, 254.2, 9.9)">e</text><text xml:space="preserve" font-family="HelveticaNeue-Light,Helvetica Neue" font-size="50.0" fill="#FEFFFE" transform="matrix(1.00, 0.00, -0.00, -1.00, 280.2, 9.9)">r</text><text xml:space="preserve" font-family="HelveticaNeue-Light,Helvetica Neue" font-size="50.0" fill="#FEFFFE" transform="matrix(1.00, 0.00, -0.00, -1.00, 295.9, 9.9)"> </text><text xml:space="preserve" font-family="HelveticaNeue-Light,Helvetica Neue" font-size="50.0" fill="#FEFFFE" transform="matrix(1.00, 0.00, -0.00, -1.00, 309.8, 9.9)">n</text><text xml:space="preserve" font-family="HelveticaNeue-Light,Helvetica Neue" font-size="50.0" fill="#FEFFFE" transform="matrix(1.00, 0.00, -0.00, -1.00, 336.7, 9.9)">a</text><text xml:space="preserve" font-family="HelveticaNeue-Light,Helvetica Neue" font-size="50.0" fill="#FEFFFE" transform="matrix(1.00, 0.00, -0.00, -1.00, 362.6, 9.9)">v</text><text xml:space="preserve" font-family="HelveticaNeue-Light,Helvetica Neue" font-size="50.0" fill="#FEFFFE" transform="matrix(1.00, 0.00, -0.00, -1.00, 385.8, 9.9)">n</text><text xml:space="preserve" font-family="HelveticaNeue-Light,Helvetica Neue" font-size="50.0" fill="#FEFFFE" transform="matrix(1.00, 0.00, -0.00, -1.00, 412.6, 9.9)"> </text><text xml:space="preserve" font-family="HelveticaNeue-Light,Helvetica Neue" font-size="50.0" fill="#FEFFFE" transform="matrix(1.00, 0.00, -0.00, -1.00, 426.5, 9.9)">s</text><text xml:space="preserve" font-family="HelveticaNeue-Light,Helvetica Neue" font-size="50.0" fill="#FEFFFE" transform="matrix(1.00, 0.00, -0.00, -1.00, 450.6, 9.9)">k</text><text xml:space="preserve" font-family="HelveticaNeue-Light,Helvetica Neue" font-size="50.0" fill="#FEFFFE" transform="matrix(1.00, 0.00, -0.00, -1.00, 475.6, 9.9)">a</text><text xml:space="preserve" font-family="HelveticaNeue-Light,Helvetica Neue" font-size="50.0" fill="#FEFFFE" transform="matrix(1.00, 0.00, -0.00, -1.00, 501.5, 9.9)">l</text><text xml:space="preserve" font-family="HelveticaNeue-Light,Helvetica Neue" font-size="50.0" fill="#FEFFFE" transform="matrix(1.00, 0.00, -0.00, -1.00, 510.8, 9.9)"> </text><text xml:space="preserve" font-family="HelveticaNeue-Light,Helvetica Neue" font-size="50.0" fill="#FEFFFE" transform="matrix(1.00, 0.00, -0.00, -1.00, 524.7, 9.9)">m</text><text xml:space="preserve" font-family="HelveticaNeue-Light,Helvetica Neue" font-size="50.0" fill="#FEFFFE" transform="matrix(1.00, 0.00, -0.00, -1.00, 566.3, 9.9)">a</text><text xml:space="preserve" font-family="HelveticaNeue-Light,Helvetica Neue" font-size="50.0" fill="#FEFFFE" transform="matrix(1.00, 0.00, -0.00, -1.00, 592.3, 9.9)">t</text><text xml:space="preserve" font-family="HelveticaNeue-Light,Helvetica Neue" font-size="50.0" fill="#FEFFFE" transform="matrix(1.00, 0.00, -0.00, -1.00, 607.1, 9.9)">c</text><text xml:space="preserve" font-family="HelveticaNeue-Light,Helvetica Neue" font-size="50.0" fill="#FEFFFE" transform="matrix(1.00, 0.00, -0.00, -1.00, 633.0, 9.9)">h</text><text xml:space="preserve" font-family="HelveticaNeue-Light,Helvetica Neue" font-size="50.0" fill="#FEFFFE" transform="matrix(1.00, 0.00, -0.00, -1.00, 659.9, 9.9)">e</text><text xml:space="preserve" font-family="HelveticaNeue-Light,Helvetica Neue" font-size="50.0" fill="#FEFFFE" transform="matrix(1.00, 0.00, -0.00, -1.00, 685.8, 9.9)"> </text><text xml:space="preserve" font-family="HelveticaNeue-Light,Helvetica Neue" font-size="50.0" fill="#FEFFFE" transform="matrix(1.00, 0.00, -0.00, -1.00, 699.7, 9.9)">ﬁ</text><text xml:space="preserve" font-family="HelveticaNeue-Light,Helvetica Neue" font-size="50.0" fill="#FEFFFE" transform="matrix(1.00, 0.00, -0.00, -1.00, 721.9, 9.9)">l</text><text xml:space="preserve" font-family="HelveticaNeue-Light,Helvetica Neue" font-size="50.0" fill="#FEFFFE" transform="matrix(1.00, 0.00, -0.00, -1.00, 731.2, 9.9)">n</text><text xml:space="preserve" font-family="HelveticaNeue-Light,Helvetica Neue" font-size="50.0" fill="#FEFFFE" transform="matrix(1.00, 0.00, -0.00, -1.00, 758.0, 9.9)">a</text><text xml:space="preserve" font-family="HelveticaNeue-Light,Helvetica Neue" font-size="50.0" fill="#FEFFFE" transform="matrix(1.00, 0.00, -0.00, -1.00, 784.0, 9.9)">v</text><text xml:space="preserve" font-family="HelveticaNeue-Light,Helvetica Neue" font-size="50.0" fill="#FEFFFE" transform="matrix(1.00, 0.00, -0.00, -1.00, 807.1, 9.9)">n</text></g></svg>