<?xml version="1.0" encoding="UTF-8" standalone="no"?><svg xmlns="http://www.w3.org/2000/svg" xmlns:xlink="http://www.w3.org/1999/xlink" clip-rule="evenodd" stroke-miterlimit="10" viewBox="0 0 668 49"><desc>SVG generated by Keynote</desc><defs></defs><g transform="matrix(1.00, 0.00, -0.00, -1.00, 0.0, 49.0)"><image xlink:href="../../63E96F94-3ECB-4C9D-9D7E-99B70E6EB298/assets/5594DC8059EB904084D60818A1308CE9.png" width="19.00" height="19.00" transform="matrix(1.00, 0.00, -0.00, -1.00, 4.0, 36.0)"></image><g><clipPath id="clip0x6080062be540"><path d="M 4.8 17.9 L 22.4 17.9 L 22.4 35.6 L 4.8 35.6 Z M 4.8 17.9 "></path></clipPath><g clip-path="url(#clip0x6080062be540)"><g><g><clipPath id="clip0x6080062be240"><path d="M 4.8 35.6 L 22.4 35.6 L 22.4 17.9 L 4.8 17.9 Z M 4.8 35.6 "></path></clipPath><g clip-path="url(#clip0x6080062be240)"><g><clipPath id="clip0x6000026b7220"><path d="M 0.0 10.0 L 27.0 10.0 L 27.0 43.0 L 0.0 43.0 Z M 0.0 10.0 "></path></clipPath><g clip-path="url(#clip0x6000026b7220)"><path d="M 22.4 32.1 C 22.4 32.8 22.1 33.6 21.3 34.4 C 20.6 35.2 19.8 35.6 18.9 35.6 C 18.5 35.6 17.9 35.4 17.0 35.0 C 15.7 34.3 14.5 34.0 13.6 34.0 C 12.6 34.0 11.4 34.3 10.1 35.0 C 9.3 35.4 8.7 35.6 8.3 35.6 C 7.4 35.6 6.7 35.2 5.9 34.5 C 5.2 33.7 4.8 32.9 4.8 32.1 C 4.8 31.7 5.0 31.0 5.4 30.1 C 6.0 28.8 6.3 27.7 6.3 26.8 C 6.3 25.8 6.0 24.7 5.4 23.3 C 5.0 22.5 4.8 21.9 4.8 21.5 C 4.8 20.6 5.2 19.8 5.9 19.1 C 6.7 18.3 7.4 17.9 8.3 17.9 C 8.7 17.9 9.3 18.1 10.1 18.5 C 11.4 19.2 12.6 19.5 13.6 19.5 C 14.5 19.5 15.7 19.2 17.0 18.5 C 17.9 18.1 18.5 17.9 18.9 17.9 C 19.8 17.9 20.6 18.3 21.3 19.1 C 22.1 19.8 22.4 20.6 22.4 21.5 C 22.4 21.9 22.2 22.5 21.8 23.3 C 21.2 24.7 20.8 25.8 20.8 26.8 C 20.8 27.7 21.2 28.8 21.8 30.1 C 22.2 31.0 22.4 31.7 22.4 32.1 " fill="#FFFFFF"></path></g></g></g></g></g></g></g><image xlink:href="376F22FCCD3413657F4B1222FD388A52.png" width="616.00" height="46.00" transform="matrix(1.00, 0.00, -0.00, -1.00, 51.0, 48.0)"></image><text xml:space="preserve" font-family="HelveticaNeue-Light,Helvetica Neue" font-size="50.0" fill="#FEFFFE" transform="matrix(1.00, 0.00, -0.00, -1.00, 53.4, 9.9)">C</text><text xml:space="preserve" font-family="HelveticaNeue-Light,Helvetica Neue" font-size="50.0" fill="#FEFFFE" transform="matrix(1.00, 0.00, -0.00, -1.00, 88.6, 9.9)">o</text><text xml:space="preserve" font-family="HelveticaNeue-Light,Helvetica Neue" font-size="50.0" fill="#FEFFFE" transform="matrix(1.00, 0.00, -0.00, -1.00, 116.4, 9.9)">n</text><text xml:space="preserve" font-family="HelveticaNeue-Light,Helvetica Neue" font-size="50.0" fill="#FEFFFE" transform="matrix(1.00, 0.00, -0.00, -1.00, 143.3, 9.9)">t</text><text xml:space="preserve" font-family="HelveticaNeue-Light,Helvetica Neue" font-size="50.0" fill="#FEFFFE" transform="matrix(1.00, 0.00, -0.00, -1.00, 158.1, 9.9)">r</text><text xml:space="preserve" font-family="HelveticaNeue-Light,Helvetica Neue" font-size="50.0" fill="#FEFFFE" transform="matrix(1.00, 0.00, -0.00, -1.00, 172.9, 9.9)">o</text><text xml:space="preserve" font-family="HelveticaNeue-Light,Helvetica Neue" font-size="50.0" fill="#FEFFFE" transform="matrix(1.00, 0.00, -0.00, -1.00, 200.7, 9.9)">l</text><text xml:space="preserve" font-family="HelveticaNeue-Light,Helvetica Neue" font-size="50.0" fill="#FEFFFE" transform="matrix(1.00, 0.00, -0.00, -1.00, 210.0, 9.9)">l</text><text xml:space="preserve" font-family="HelveticaNeue-Light,Helvetica Neue" font-size="50.0" fill="#FEFFFE" transform="matrix(1.00, 0.00, -0.00, -1.00, 219.2, 9.9)">e</text><text xml:space="preserve" font-family="HelveticaNeue-Light,Helvetica Neue" font-size="50.0" fill="#FEFFFE" transform="matrix(1.00, 0.00, -0.00, -1.00, 245.2, 9.9)">r</text><text xml:space="preserve" font-family="HelveticaNeue-Light,Helvetica Neue" font-size="50.0" fill="#FEFFFE" transform="matrix(1.00, 0.00, -0.00, -1.00, 260.0, 9.9)">e</text><text xml:space="preserve" font-family="HelveticaNeue-Light,Helvetica Neue" font-size="50.0" fill="#FEFFFE" transform="matrix(1.00, 0.00, -0.00, -1.00, 286.0, 9.9)"> </text><text xml:space="preserve" font-family="HelveticaNeue-Light,Helvetica Neue" font-size="50.0" fill="#FEFFFE" transform="matrix(1.00, 0.00, -0.00, -1.00, 299.9, 9.9)">a</text><text xml:space="preserve" font-family="HelveticaNeue-Light,Helvetica Neue" font-size="50.0" fill="#FEFFFE" transform="matrix(1.00, 0.00, -0.00, -1.00, 325.8, 9.9)">k</text><text xml:space="preserve" font-family="HelveticaNeue-Light,Helvetica Neue" font-size="50.0" fill="#FEFFFE" transform="matrix(1.00, 0.00, -0.00, -1.00, 350.8, 9.9)">a</text><text xml:space="preserve" font-family="HelveticaNeue-Light,Helvetica Neue" font-size="50.0" fill="#FEFFFE" transform="matrix(1.00, 0.00, -0.00, -1.00, 376.8, 9.9)">.</text><text xml:space="preserve" font-family="HelveticaNeue-Light,Helvetica Neue" font-size="50.0" fill="#FEFFFE" transform="matrix(1.00, 0.00, -0.00, -1.00, 390.7, 9.9)"> </text><text xml:space="preserve" font-family="HelveticaNeue-Light,Helvetica Neue" font-size="50.0" fill="#FEFFFE" transform="matrix(1.00, 0.00, -0.00, -1.00, 404.6, 9.9)">V</text><text xml:space="preserve" font-family="HelveticaNeue-Light,Helvetica Neue" font-size="50.0" fill="#FEFFFE" transform="matrix(1.00, 0.00, -0.00, -1.00, 434.5, 9.9)">i</text><text xml:space="preserve" font-family="HelveticaNeue-Light,Helvetica Neue" font-size="50.0" fill="#FEFFFE" transform="matrix(1.00, 0.00, -0.00, -1.00, 443.8, 9.9)">e</text><text xml:space="preserve" font-family="HelveticaNeue-Light,Helvetica Neue" font-size="50.0" fill="#FEFFFE" transform="matrix(1.00, 0.00, -0.00, -1.00, 469.7, 9.9)">w</text><text xml:space="preserve" font-family="HelveticaNeue-Light,Helvetica Neue" font-size="50.0" fill="#FEFFFE" transform="matrix(1.00, 0.00, -0.00, -1.00, 506.8, 9.9)">M</text><text xml:space="preserve" font-family="HelveticaNeue-Light,Helvetica Neue" font-size="50.0" fill="#FEFFFE" transform="matrix(1.00, 0.00, -0.00, -1.00, 547.8, 9.9)">o</text><text xml:space="preserve" font-family="HelveticaNeue-Light,Helvetica Neue" font-size="50.0" fill="#FEFFFE" transform="matrix(1.00, 0.00, -0.00, -1.00, 575.6, 9.9)">d</text><text xml:space="preserve" font-family="HelveticaNeue-Light,Helvetica Neue" font-size="50.0" fill="#FEFFFE" transform="matrix(1.00, 0.00, -0.00, -1.00, 604.3, 9.9)">e</text><text xml:space="preserve" font-family="HelveticaNeue-Light,Helvetica Neue" font-size="50.0" fill="#FEFFFE" transform="matrix(1.00, 0.00, -0.00, -1.00, 630.3, 9.9)">l</text><text xml:space="preserve" font-family="HelveticaNeue-Light,Helvetica Neue" font-size="50.0" fill="#FEFFFE" transform="matrix(1.00, 0.00, -0.00, -1.00, 639.5, 9.9)">s</text></g></svg>